<svg xmlns="http://www.w3.org/2000/svg" width="800" height="600" style="width:100%;height:100%;transform:translate3d(0,0,0)"><defs><filter id="t" width="300%" height="300%" x="-100%" y="-100%"><feGaussianBlur result="filter_result_0" stdDeviation="24.45 24.45"/></filter><filter id="s" width="300%" height="300%" x="-100%" y="-100%"><feGaussianBlur result="filter_result_0" stdDeviation="21.81 21.81"/><feGaussianBlur result="filter_result_1" stdDeviation="21.81 21.81"/></filter><filter id="o" width="300%" height="300%" x="-100%" y="-100%"><feGaussianBlur result="filter_result_0" stdDeviation="24.45 24.45"/></filter><filter id="n" width="300%" height="300%" x="-100%" y="-100%"><feGaussianBlur result="filter_result_0" stdDeviation="21.81 21.81"/><feGaussianBlur result="filter_result_1" stdDeviation="21.81 21.81"/></filter><filter id="k" width="300%" height="300%" x="-100%" y="-100%"><feGaussianBlur result="filter_result_0" stdDeviation="21.599999999999998 21.599999999999998"/></filter><filter id="j" width="300%" height="300%" x="-100%" y="-100%"><feGaussianBlur result="filter_result_0" stdDeviation="21.81 21.81"/><feGaussianBlur result="filter_result_1" stdDeviation="21.81 21.81"/></filter><filter id="i" width="300%" height="300%" x="-100%" y="-100%"><feGaussianBlur result="filter_result_0" stdDeviation="21.81 21.81"/><feGaussianBlur result="filter_result_1" stdDeviation="21.81 21.81"/></filter><filter id="f" width="300%" height="300%" x="-100%" y="-100%"><feGaussianBlur result="filter_result_0" stdDeviation="21.599999999999998 21.599999999999998"/></filter><filter id="e" width="300%" height="300%" x="-100%" y="-100%"><feGaussianBlur result="filter_result_0" stdDeviation="21.81 21.81"/><feGaussianBlur result="filter_result_1" stdDeviation="21.81 21.81"/></filter><filter id="d" width="300%" height="300%" x="-100%" y="-100%"><feGaussianBlur result="filter_result_0" stdDeviation="21.81 21.81"/><feGaussianBlur result="filter_result_1" stdDeviation="21.81 21.81"/></filter><clipPath id="a"><path d="M0 0h800v600H0z"/></clipPath><clipPath id="p"><path d="M0 0h800v600H0z"/></clipPath><clipPath id="r"><path d="M0 0h200v200H0z"/></clipPath><clipPath id="m"><path d="M0 0h200v200H0z"/></clipPath><clipPath id="h"><path d="M0 0h200v200H0z"/></clipPath><clipPath id="c"><path d="M0 0h200v200H0z"/></clipPath><mask id="q" mask-type="alpha"><g style="display:block"><path fill="#FF8F9C" d="M713.15 451.253c1.557 14.187-.297 28.734-5.934 41.821-6.527 15.151-18.178 28.376-33.11 35.637-14.659 7.128-34.172 9.465-46.514-3.336-7.965-8.26-10.683-21.186-6.72-31.956 4.72-12.827 17.164-20.921 29.014-27.733 17.856-10.262 39.991-21.346 48.896-41.179 3.934-8.744 10.222 7.782 11.152 10.89a89.305 89.305 0 0 1 3.216 15.856zM726.966 395.01c7.784 1.614 15.174 5.098 21.137 10.335 6.905 6.064 11.908 14.512 13.187 23.671 1.256 8.993-.862 19.733-9.767 24.07-5.747 2.8-13.062 2.017-18.086-1.935-5.984-4.707-8.134-12.692-9.704-20.142-2.366-11.225-4.432-24.859-13.408-32.987-3.957-3.588 5.881-4.078 7.687-4.037 3.004.07 6.008.413 8.954 1.024z"/></g></mask><mask id="l" mask-type="alpha"><path fill="#FF8F9C" d="M112.719 92.659h209.97a6.972 6.972 0 0 1 6.972 6.973v158.97a6.971 6.971 0 0 1-6.972 6.972h-209.97a6.972 6.972 0 0 1-6.973-6.972V99.632a6.973 6.973 0 0 1 6.973-6.973z" style="display:block" transform="translate(400 300)"/></mask><mask id="g" mask-type="alpha"><path fill="#FF8F9C" d="M49.574 82.019c0 34.134-27.671 61.805-61.805 61.805s-61.804-27.671-61.804-61.805 27.67-61.804 61.804-61.804 61.805 27.67 61.805 61.804z" style="display:block" transform="translate(399 299.732)"/></mask><mask id="b" mask-type="alpha"><path fill="#FF8F9C" d="M-205.151 128.215v119.752a6.973 6.973 0 0 1-6.973 6.973h-119.753a6.972 6.972 0 0 1-6.972-6.973V128.215a6.972 6.972 0 0 1 6.972-6.973h119.753a6.973 6.973 0 0 1 6.973 6.973z" style="display:block" transform="translate(400 300)"/></mask></defs><g clip-path="url(#a)"><path fill="none" stroke="#053361" stroke-dasharray="6 9" stroke-linecap="round" stroke-linejoin="round" stroke-width="3" d="m-302.083-33.794 132.495-44.561s0 0 0 0v-118.617h-155.721v170.989l23.226-7.811" style="display:block" transform="translate(400 300)"/><g mask="url(#b)" style="display:block"><g clip-path="url(#c)" transform="matrix(.80309 0 0 .80309 56.88 421.012)"><path fill="#91ffe6" d="M0 0h200v200H0z" style="display:block"/><g filter="url(#d)" style="display:block" transform="matrix(2.1954 0 0 2.1954 248.907 41.003)"><path fill="#8FE6D2" d="M-35.277-15.532c23.553 0 42.676 19.123 42.676 42.676S-11.724 69.82-35.277 69.82s-42.676-19.123-42.676-42.676 19.123-42.676 42.676-42.676z"/></g><g filter="url(#e)" style="display:block" transform="matrix(3.00928 0 0 3.00928 301.642 103.006)"><path fill="#3A9DFF" d="M-44.324-81c23.553 0 42.676 19.123 42.676 42.676S-20.771 4.352-44.324 4.352-87-14.771-87-38.324-67.877-81-44.324-81z"/></g><g filter="url(#f)" style="display:block" transform="matrix(1.97974 0 0 1.97974 201.475 239.886)"><path fill="#AD72FF" d="M-44.324-81c23.553 0 42.676 19.123 42.676 42.676S-20.771 4.352-44.324 4.352-87-14.771-87-38.324-67.877-81-44.324-81z"/></g></g></g><g style="display:block"><path fill="#FFF" d="M651.101 504.031H126.525c-5.969 0-10.808-4.839-10.808-10.808V164.84c0-5.969 4.839-10.808 10.808-10.808h524.576c5.969 0 10.808 4.839 10.808 10.808v328.383c0 5.969-4.839 10.808-10.808 10.808z"/><path fill="none" stroke="#053361" stroke-miterlimit="10" stroke-width="3" d="M651.101 504.031H126.525c-5.969 0-10.808-4.839-10.808-10.808V164.84c0-5.969 4.839-10.808 10.808-10.808h524.576c5.969 0 10.808 4.839 10.808 10.808v328.383c0 5.969-4.839 10.808-10.808 10.808z"/><path fill="#053361" d="M661.909 194.837H115.717V164.84c0-5.969 4.839-10.808 10.808-10.808h524.576c5.969 0 10.808 4.839 10.808 10.808v29.997z"/><path fill="#FFC55C" d="M366.303 194.87a4.893 4.893 0 0 1-4.893-4.892V177.94c0-3.214-2.577-5.819-5.756-5.819h-95.468c-3.179 0-5.757 2.605-5.757 5.819v12.038a4.892 4.892 0 0 1-4.892 4.892h116.766z"/><path fill="#FFF" d="M269.927 194.837a4.892 4.892 0 0 1-4.892-4.892v-12.038c0-3.214-2.578-5.819-5.757-5.819H163.81c-3.179 0-5.756 2.605-5.756 5.819v12.038a4.893 4.893 0 0 1-4.893 4.892v13.421h116.766v-13.421z"/></g><path fill="#053361" d="M-143.229 221.732a1.275 1.275 0 0 0 2.09-.441l8.39-21.648 8.053-20.78c.4-1.033-.616-2.049-1.649-1.649l-20.78 8.053-21.648 8.39a1.275 1.275 0 0 0-.441 2.09l8.256 8.257a1.275 1.275 0 0 1 0 1.803l-7.171 7.171a1.275 1.275 0 0 0 0 1.803l5.866 5.866a1.275 1.275 0 0 0 1.803 0l7.171-7.171a1.275 1.275 0 0 1 1.803 0l8.257 8.256z" style="display:block" transform="translate(400 300)"/><path fill="none" stroke="#053361" stroke-linecap="round" stroke-linejoin="round" stroke-width="3" d="M20.49 45.574c-5.483 0-9.955-4.462-9.966-9.945l-.098-22.752C10.426.485.241-9.59-12.278-9.59c-12.521 0-22.707 10.07-22.707 22.445v70.733c0 5.494-4.47 9.964-9.966 9.964-5.496 0-9.966-4.47-9.966-9.964V12.855c0-23.367 19.128-42.377 42.639-42.377 23.509 0 42.635 19.01 42.635 42.377l.099 22.73c.011 5.492-4.448 9.972-9.941 9.989h-.025z" style="display:block" transform="translate(399.5 296.846)"/><g mask="url(#g)" style="display:block"><g clip-path="url(#h)" transform="matrix(.74121 0 0 .74121 312.256 297.875)"><path fill="#91ffe6" d="M0 0h200v200H0z" style="display:block"/><g filter="url(#i)" style="display:block" transform="matrix(2.1954 0 0 2.1954 248.907 41.003)"><path fill="#8FE6D2" d="M-35.277-15.532c23.553 0 42.676 19.123 42.676 42.676S-11.724 69.82-35.277 69.82s-42.676-19.123-42.676-42.676 19.123-42.676 42.676-42.676z"/></g><g filter="url(#j)" style="display:block" transform="matrix(3.00928 0 0 3.00928 301.642 103.006)"><path fill="#3A9DFF" d="M-44.324-81c23.553 0 42.676 19.123 42.676 42.676S-20.771 4.352-44.324 4.352-87-14.771-87-38.324-67.877-81-44.324-81z"/></g><g filter="url(#k)" style="display:block" transform="matrix(1.97974 0 0 1.97974 201.475 239.886)"><path fill="#AD72FF" d="M-44.324-81c23.553 0 42.676 19.123 42.676 42.676S-20.771 4.352-44.324 4.352-87-14.771-87-38.324-67.877-81-44.324-81z"/></g></g></g><g style="display:block"><path fill="#FFF" d="M430.59 400.326c-10.258 24.201-38.194 35.504-62.395 25.246s-35.504-38.194-25.246-62.395c10.258-24.2 38.194-35.504 62.395-25.246s35.504 38.194 25.246 62.395z"/><path fill="#FFC55C" d="M417.804 394.906c-7.265 17.14-27.05 25.145-44.19 17.88-17.14-7.265-25.145-27.05-17.88-44.19 7.265-17.14 27.05-25.145 44.19-17.88 17.14 7.265 25.145 27.05 17.88 44.19z"/><path fill="none" stroke="#053361" stroke-linecap="round" stroke-linejoin="round" stroke-width="3" d="M397.891 386.465c-2.604 6.142-9.694 9.012-15.836 6.408-6.142-2.604-9.011-9.694-6.407-15.836 2.604-6.142 9.693-9.01 15.835-6.407 6.142 2.604 9.012 9.693 6.408 15.835z"/></g><g style="display:block"><path fill="none" stroke="#053361" stroke-linecap="round" stroke-linejoin="round" stroke-width="3" d="m369.76 364.742-6.591-6.59M410.37 405.352l-6.591-6.59M403.779 364.742l6.591-6.59M363.169 405.352l6.591-6.59M386.769 357.696v-9.32M386.769 415.128v-9.32M410.825 381.751h9.321M353.393 381.751h9.321"/></g><g style="display:block"><path fill="#FFF" d="M221.133 276.927H47.673a6 6 0 0 1-6-6V242.39a6 6 0 0 1 6-6h173.46a6 6 0 0 1 6 6v28.537a6 6 0 0 1-6 6z"/><path fill="none" stroke="#053361" stroke-linecap="round" stroke-miterlimit="10" stroke-width="3" d="M221.133 276.927H47.673a6 6 0 0 1-6-6V242.39a6 6 0 0 1 6-6h173.46a6 6 0 0 1 6 6v28.537a6 6 0 0 1-6 6z"/></g><g style="display:block"><path fill="none" stroke="#053361" stroke-linecap="round" stroke-miterlimit="10" stroke-width="3" d="m53.603 254.006 9.294 3.094M62.926 247.242v9.794M62.897 257.1l-6.285 8.21M53.603 254.006l9.294 3.094M62.897 257.1l-6.285 8.21M72.248 254.006l-9.293 3.094M62.955 257.1l6.285 8.21"/></g><g style="display:block"><path fill="none" stroke="#053361" stroke-linecap="round" stroke-miterlimit="10" stroke-width="3" d="m87.726 254.006 9.294 3.094M97.049 247.242v9.794M97.019 257.1l-6.284 8.21M87.726 254.006l9.294 3.094M97.019 257.1l-6.284 8.21M106.371 254.006l-9.294 3.094M97.078 257.1l6.284 8.21"/></g><g style="display:block"><path fill="none" stroke="#053361" stroke-linecap="round" stroke-miterlimit="10" stroke-width="3" d="m121.849 254.006 9.294 3.094M131.171 247.242v9.794M131.142 257.1l-6.284 8.21M121.849 254.006l9.294 3.094M131.142 257.1l-6.284 8.21M140.494 254.006 131.2 257.1M131.201 257.1l6.284 8.21"/></g><g style="display:block"><path fill="none" stroke="#053361" stroke-linecap="round" stroke-miterlimit="10" stroke-width="3" d="m155.971 254.006 9.294 3.094M165.294 247.242v9.794M165.265 257.1l-6.284 8.21M155.971 254.006l9.294 3.094M165.265 257.1l-6.284 8.21M174.617 254.006l-9.294 3.094M165.324 257.1l6.284 8.21"/></g><g style="display:block"><path fill="none" stroke="#053361" stroke-linecap="round" stroke-miterlimit="10" stroke-width="3" d="m190.094 254.006 9.294 3.094M199.417 247.242v9.794M199.387 257.1l-6.284 8.21M190.094 254.006l9.294 3.094M199.387 257.1l-6.284 8.21M208.74 254.006l-9.294 3.094M199.447 257.1l6.284 8.21"/></g><g style="display:block"><path fill="#053361" d="M123.306 114.436c0 19.956-16.178 36.134-36.134 36.134s-36.134-16.178-36.134-36.134 16.178-36.134 36.134-36.134 36.134 16.178 36.134 36.134z"/><path fill="#FFF" d="M96.207 107.743a9.036 9.036 0 1 0-14.214 7.402l-3.856 15.02h18.07l-3.856-15.02a9.022 9.022 0 0 0 3.856-7.402z"/></g><g mask="url(#l)" style="display:block"><g clip-path="url(#m)" transform="rotate(90 203.774 535.094) scale(1.24906)"><path fill="#83ffd8" d="M0 0h200v200H0z" style="display:block"/><g filter="url(#n)" style="display:block" transform="rotate(75.524 -74.663 197.487) scale(2.83908)"><path fill="#339AFF" d="M-44.324-81c23.553 0 42.676 19.123 42.676 42.676S-20.771 4.352-44.324 4.352-87-14.771-87-38.324-67.877-81-44.324-81z"/></g><g filter="url(#o)" style="display:block" transform="rotate(75.524 -181.35 188.345) scale(2.28736)"><path fill="#A768FF" d="M-44.324-81c23.553 0 42.676 19.123 42.676 42.676S-20.771 4.352-44.324 4.352-87-14.771-87-38.324-67.877-81-44.324-81z"/></g></g></g><g style="display:block"><path fill="#FFF" d="M706.959 548.577h-209.97a6.972 6.972 0 0 1-6.973-6.972v-158.97a6.973 6.973 0 0 1 6.973-6.973h209.97a6.972 6.972 0 0 1 6.972 6.973v158.97a6.971 6.971 0 0 1-6.972 6.972z"/><path fill="none" stroke="#053361" stroke-miterlimit="10" stroke-width="3" d="M706.959 548.577h-209.97a6.972 6.972 0 0 1-6.973-6.972v-158.97a6.973 6.973 0 0 1 6.973-6.973h209.97a6.972 6.972 0 0 1 6.972 6.973v158.97a6.971 6.971 0 0 1-6.972 6.972z"/></g><g style="display:block"><path fill="#FFF" d="M517.459 418.84h168.883"/><path fill="none" stroke="#053361" stroke-linecap="round" stroke-linejoin="round" stroke-width="3" d="M517.459 418.84h168.883"/><path fill="#FFF" d="M517.459 437.46h168.883"/><path fill="none" stroke="#053361" stroke-linecap="round" stroke-linejoin="round" stroke-width="3" d="M517.459 437.46h168.883"/><path fill="#FFF" d="M517.459 456.082h168.883"/><path fill="none" stroke="#053361" stroke-linecap="round" stroke-linejoin="round" stroke-width="3" d="M517.459 456.082h168.883"/><path fill="#FFF" d="M517.459 474.702h168.883"/><path fill="none" stroke="#053361" stroke-linecap="round" stroke-linejoin="round" stroke-width="3" d="M517.459 474.702h168.883"/><path fill="#FFF" d="M517.459 493.323h168.883"/><path fill="none" stroke="#053361" stroke-linecap="round" stroke-linejoin="round" stroke-width="3" d="M517.459 493.323h168.883"/><path fill="#FFF" d="M517.459 511.944h79.624"/><path fill="none" stroke="#053361" stroke-linecap="round" stroke-linejoin="round" stroke-width="3" d="M517.459 511.944h79.624"/></g><g clip-path="url(#p)" style="display:block" transform="scale(1.14 -1.14) rotate(11.004 3529.04 -373.645)"><g mask="url(#q)" style="display:block"><g clip-path="url(#r)" transform="rotate(150 335.057 352.24) scale(.90643)"><path fill="#83ffd8" d="M0 0h200v200H0z" style="display:block"/><g filter="url(#s)" style="display:block" transform="rotate(-125.476 12.037 -6.074) scale(2.83908)"><path fill="#339AFF" d="M-44.324-81c23.553 0 42.676 19.123 42.676 42.676S-20.771 4.352-44.324 4.352-87-14.771-87-38.324-67.877-81-44.324-81z"/></g><g filter="url(#t)" style="display:block" transform="rotate(-125.476 4.835 -79.488) scale(2.28736)"><path fill="#A768FF" d="M-44.324-81c23.553 0 42.676 19.123 42.676 42.676S-20.771 4.352-44.324 4.352-87-14.771-87-38.324-67.877-81-44.324-81z"/></g></g></g></g></g></svg>