<svg xmlns="http://www.w3.org/2000/svg" width="800" height="600" style="width:100%;height:100%;transform:translate3d(0,0,0)"><defs><filter id="D" width="300%" height="300%" x="-100%" y="-100%"><feGaussianBlur result="filter_result_0" stdDeviation="24.45 24.45"/></filter><filter id="C" width="300%" height="300%" x="-100%" y="-100%"><feGaussianBlur result="filter_result_0" stdDeviation="21.81 21.81"/><feGaussianBlur result="filter_result_1" stdDeviation="21.81 21.81"/></filter><filter id="y" width="300%" height="300%" x="-100%" y="-100%"><feGaussianBlur result="filter_result_0" stdDeviation="24.45 24.45"/></filter><filter id="x" width="300%" height="300%" x="-100%" y="-100%"><feGaussianBlur result="filter_result_0" stdDeviation="21.81 21.81"/><feGaussianBlur result="filter_result_1" stdDeviation="21.81 21.81"/></filter><filter id="t" width="300%" height="300%" x="-100%" y="-100%"><feGaussianBlur result="filter_result_0" stdDeviation="21.599999999999998 21.599999999999998"/></filter><filter id="s" width="300%" height="300%" x="-100%" y="-100%"><feGaussianBlur result="filter_result_0" stdDeviation="21.81 21.81"/><feGaussianBlur result="filter_result_1" stdDeviation="21.81 21.81"/></filter><filter id="r" width="300%" height="300%" x="-100%" y="-100%"><feGaussianBlur result="filter_result_0" stdDeviation="21.81 21.81"/><feGaussianBlur result="filter_result_1" stdDeviation="21.81 21.81"/></filter><filter id="n" width="300%" height="300%" x="-100%" y="-100%"><feGaussianBlur result="filter_result_0" stdDeviation="24.45 24.45"/></filter><filter id="m" width="300%" height="300%" x="-100%" y="-100%"><feGaussianBlur result="filter_result_0" stdDeviation="21.81 21.81"/><feGaussianBlur result="filter_result_1" stdDeviation="21.81 21.81"/></filter><filter id="j" width="300%" height="300%" x="-100%" y="-100%"><feGaussianBlur result="filter_result_0" stdDeviation="24.45 24.45"/></filter><filter id="i" width="300%" height="300%" x="-100%" y="-100%"><feGaussianBlur result="filter_result_0" stdDeviation="21.81 21.81"/><feGaussianBlur result="filter_result_1" stdDeviation="21.81 21.81"/></filter><filter id="f" width="300%" height="300%" x="-100%" y="-100%"><feGaussianBlur result="filter_result_0" stdDeviation="21.599999999999998 21.599999999999998"/></filter><filter id="e" width="300%" height="300%" x="-100%" y="-100%"><feGaussianBlur result="filter_result_0" stdDeviation="21.81 21.81"/><feGaussianBlur result="filter_result_1" stdDeviation="21.81 21.81"/></filter><filter id="d" width="300%" height="300%" x="-100%" y="-100%"><feGaussianBlur result="filter_result_0" stdDeviation="21.81 21.81"/><feGaussianBlur result="filter_result_1" stdDeviation="21.81 21.81"/></filter><clipPath id="a"><path d="M0 0h800v600H0z"/></clipPath><clipPath id="z"><path d="M0 0h800v600H0z"/></clipPath><clipPath id="B"><path d="M0 0h200v200H0z"/></clipPath><clipPath id="u"><path d="M0 0h800v600H0z"/></clipPath><clipPath id="w"><path d="M0 0h200v200H0z"/></clipPath><clipPath id="q"><path d="M0 0h200v200H0z"/></clipPath><clipPath id="l"><path d="M0 0h200v200H0z"/></clipPath><clipPath id="h"><path d="M0 0h200v200H0z"/></clipPath><clipPath id="c"><path d="M0 0h200v200H0z"/></clipPath><mask id="A" mask-type="alpha"><g style="display:block"><path fill="#FF8F9C" d="M713.15 451.253c1.557 14.187-.297 28.734-5.934 41.821-6.527 15.151-18.178 28.376-33.11 35.637-14.659 7.128-34.172 9.465-46.514-3.336-7.965-8.26-10.683-21.186-6.72-31.956 4.72-12.827 17.164-20.921 29.014-27.733 17.856-10.262 39.991-21.346 48.896-41.179 3.934-8.744 10.222 7.782 11.152 10.89a89.305 89.305 0 0 1 3.216 15.856zM726.966 395.01c7.784 1.614 15.174 5.098 21.137 10.335 6.905 6.064 11.908 14.512 13.187 23.671 1.256 8.993-.862 19.733-9.767 24.07-5.747 2.8-13.062 2.017-18.086-1.935-5.984-4.707-8.134-12.692-9.704-20.142-2.366-11.225-4.432-24.859-13.408-32.987-3.957-3.588 5.881-4.078 7.687-4.037 3.004.07 6.008.413 8.954 1.024z"/></g></mask><mask id="v" mask-type="alpha"><g style="display:block"><path fill="#FF8F9C" d="M84.235 157.677c-3.437-18.977-2.309-38.763 4.057-56.936 7.37-21.04 21.83-39.966 41.274-51.162 19.089-10.991 45.174-15.98 63.019.113 11.515 10.385 16.398 27.553 12.071 42.444-5.154 17.737-21.166 29.822-36.499 40.121-23.103 15.517-51.898 32.546-62.032 60.121-4.479 12.159-14.514-9.527-16.061-13.629a120.683 120.683 0 0 1-5.829-21.072zM78.911 247.3c-10.645-1.443-20.935-5.443-29.468-11.941-9.88-7.523-17.42-18.44-20.008-30.667-2.541-12.004-.698-26.682 10.898-33.369 7.483-4.315 17.418-3.949 24.563.904 8.511 5.781 12.161 16.343 14.98 26.238 4.248 14.909 8.318 33.094 21.185 43.205 5.672 4.464-7.544 6.052-9.983 6.166-4.056.19-8.137.01-12.167-.536z"/></g></mask><mask id="p" mask-type="alpha"><path fill="#FF8F9C" d="M182.734 2.408V.247l.007.001.002-10.494.023-119.928-.002-.001v-.097c-.014.003-.533-.036-1.462-.118l-10.862-1.599a427.726 427.726 0 0 1-151.12-52.488h-.001a427.726 427.726 0 0 1-151.12 52.488l-10.863 1.599a50.72 50.72 0 0 1-1.461.118v.097l-.002.001.022 119.928.002 10.494.007-.001.002 61.387s-.836 14.493 5.854 33.726c6.689 19.232 20.905 43.203 51.008 62.157a2206.98 2206.98 0 0 0 7.284 4.566C-46.28 183.11-17.423 199.964.456 210.181l.624.357.221.126c9.847 5.621 16.203 9.139 17.959 10.107l.016.054a.008.008 0 0 0 .004-.002v.002c.007-.004.027-.016.04-.022.013.006.031.018.038.022v-.002a.008.008 0 0 0 .004.002l.017-.054c1.845-1.018 8.787-4.86 19.509-10.993 17.927-10.253 46.465-26.94 79.698-47.695 2.408-1.503 4.831-3.021 7.285-4.566 30.103-18.954 44.318-42.925 51.007-62.157 6.69-19.233 5.854-33.726 5.854-33.726l.002-59.226z" style="display:block" transform="translate(400 300)"/></mask><mask id="o" mask-type="alpha"><path fill="#FF8F9C" d="M-237.691-11.01h-75.286c-11.716 0-21.213-9.498-21.213-21.214v-75.285c0-11.716 9.497-21.214 21.213-21.214h75.286c11.716 0 21.213 9.498 21.213 21.214v75.285c0 11.716-9.497 21.214-21.213 21.214z" style="display:block" transform="translate(400 300)"/></mask><mask id="k" mask-type="alpha"><path fill="#FF8F9C" d="M-237.691-11.01h-75.286c-11.716 0-21.213-9.498-21.213-21.214v-75.285c0-11.716 9.497-21.214 21.213-21.214h75.286c11.716 0 21.213 9.498 21.213 21.214v75.285c0 11.716-9.497 21.214-21.213 21.214z" style="display:block" transform="translate(400 300)"/></mask><mask id="g" mask-type="alpha"><path fill="#FF8F9C" d="M343.136 126.634h-47.701c-.55 0-1 .45-1 1v8.927h25.083a1.5 1.5 0 1 1 0 3h-25.083v7.844h14.455a1.5 1.5 0 1 1 0 3h-14.455v8.421c0 .55.45 1 1 1h47.701c.55 0 1-.45 1-1v-31.192c0-.55-.45-1-1-1z" style="display:block" transform="translate(400 300)"/></mask><mask id="b" mask-type="alpha"><path fill="#FF8F9C" d="M156.989 91.192h211.026a6.972 6.972 0 0 1 6.972 6.973v127.794a6.971 6.971 0 0 1-6.972 6.972H156.989a6.971 6.971 0 0 1-6.972-6.972V98.165a6.972 6.972 0 0 1 6.972-6.973z" style="display:block" transform="translate(400 300)"/></mask></defs><g clip-path="url(#a)"><path fill="none" stroke="#053361" stroke-dasharray="6 9" stroke-linecap="round" stroke-linejoin="round" stroke-width="3" d="M223.258 146.067h-527.763V-11.01h580.728v157.077s0 0 0 0h-52.965" style="display:block" transform="translate(400 300)"/><g mask="url(#b)" style="display:block"><g clip-path="url(#c)" transform="matrix(-1.24 0 0 -1.24 789 631)"><path fill="#91ffe6" d="M0 0h200v200H0z" style="display:block"/><g filter="url(#d)" style="display:block" transform="matrix(2.1954 0 0 2.1954 248.907 41.003)"><path fill="#8FE6D2" d="M-35.277-15.532c23.553 0 42.676 19.123 42.676 42.676S-11.724 69.82-35.277 69.82s-42.676-19.123-42.676-42.676 19.123-42.676 42.676-42.676z"/></g><g filter="url(#e)" style="display:block" transform="matrix(3.00928 0 0 3.00928 301.642 103.006)"><path fill="#3A9DFF" d="M-44.324-81c23.553 0 42.676 19.123 42.676 42.676S-20.771 4.352-44.324 4.352-87-14.771-87-38.324-67.877-81-44.324-81z"/></g><g filter="url(#f)" style="display:block" transform="matrix(1.97974 0 0 1.97974 201.475 239.886)"><path fill="#AD72FF" d="M-44.324-81c23.553 0 42.676 19.123 42.676 42.676S-20.771 4.352-44.324 4.352-87-14.771-87-38.324-67.877-81-44.324-81z"/></g></g></g><g style="display:block"><path fill="#FFF" d="M752.02 516.937H540.994a6.972 6.972 0 0 1-6.972-6.973V382.17a6.972 6.972 0 0 1 6.972-6.973H752.02a6.972 6.972 0 0 1 6.972 6.973v127.794a6.972 6.972 0 0 1-6.972 6.973z"/><path fill="none" stroke="#053361" stroke-miterlimit="10" stroke-width="3" d="M752.02 516.937H540.994a6.972 6.972 0 0 1-6.972-6.973V382.17a6.972 6.972 0 0 1 6.972-6.973H752.02a6.972 6.972 0 0 1 6.972 6.973v127.794a6.972 6.972 0 0 1-6.972 6.973z"/><path fill="#FFF" d="M552.253 477.282h99.788"/><path fill="none" stroke="#053361" stroke-linecap="round" stroke-linejoin="round" stroke-width="3" d="M552.253 477.282h99.788"/><path fill="#FFF" d="M552.253 490.176h55.117"/><path fill="none" stroke="#053361" stroke-linecap="round" stroke-linejoin="round" stroke-width="3" d="M552.253 490.176h55.117"/></g><g mask="url(#g)" style="display:block"><g clip-path="url(#h)" transform="matrix(.48 0 0 .48 673 409)"><path fill="#83ffd8" d="M0 0h200v200H0z" style="display:block"/><g filter="url(#i)" style="display:block" transform="rotate(75.524 -74.663 197.487) scale(2.83908)"><path fill="#339AFF" d="M-44.324-81c23.553 0 42.676 19.123 42.676 42.676S-20.771 4.352-44.324 4.352-87-14.771-87-38.324-67.877-81-44.324-81z"/></g><g filter="url(#j)" style="display:block" transform="rotate(75.524 -181.35 188.345) scale(2.28736)"><path fill="#A768FF" d="M-44.324-81c23.553 0 42.676 19.123 42.676 42.676S-20.771 4.352-44.324 4.352-87-14.771-87-38.324-67.877-81-44.324-81z"/></g></g></g><g style="display:block"><path fill="#FFF" d="M358.089 327.098H37.744c-5.969 0-10.808-4.839-10.808-10.808V118.778c0-5.969 4.839-10.808 10.808-10.808h320.345c5.969 0 10.807 4.839 10.807 10.808V316.29c0 5.969-4.838 10.808-10.807 10.808z"/><path fill="none" stroke="#053361" stroke-miterlimit="10" stroke-width="3" d="M358.089 327.098H37.744c-5.969 0-10.808-4.839-10.808-10.808V118.778c0-5.969 4.839-10.808 10.808-10.808h320.345c5.969 0 10.807 4.839 10.807 10.808V316.29c0 5.969-4.838 10.808-10.807 10.808z"/><path fill="#053361" d="M368.896 130.525H26.936v-11.747c0-5.969 4.839-10.808 10.808-10.808h320.345c5.969 0 10.807 4.839 10.807 10.808v11.747z"/><path fill="#51A9FF" d="M45.094 118.583a3.045 3.045 0 1 1-6.09 0 3.045 3.045 0 0 1 6.09 0z"/><path fill="#8DEDCF" d="M56.42 118.583a3.044 3.044 0 1 1-6.088 0 3.044 3.044 0 0 1 6.088 0z"/><path fill="#FFC55C" d="M67.746 118.583a3.044 3.044 0 1 1-6.089.001 3.044 3.044 0 0 1 6.089-.001z"/></g><g style="display:block"><path fill="#FFF" d="M220.347 205.937h99.789"/><path fill="none" stroke="#053361" stroke-linecap="round" stroke-linejoin="round" stroke-width="3" d="M220.347 205.937h99.789"/><path fill="#FFF" d="M220.347 222.21h99.789"/><path fill="none" stroke="#053361" stroke-linecap="round" stroke-linejoin="round" stroke-width="3" d="M220.347 222.21h99.789"/><path fill="#FFF" d="M220.347 238.483h99.789"/><path fill="none" stroke="#053361" stroke-linecap="round" stroke-linejoin="round" stroke-width="3" d="M220.347 238.483h99.789"/><path fill="#FFF" d="M220.347 254.756h99.789"/><path fill="none" stroke="#053361" stroke-linecap="round" stroke-linejoin="round" stroke-width="3" d="M220.347 254.756h99.789"/></g><g mask="url(#k)" style="display:block"><g clip-path="url(#l)" transform="matrix(1.02 0 0 1.02 27 112)"><path fill="#83ffd8" d="M0 0h200v200H0z" style="display:block"/><g filter="url(#m)" style="display:block" transform="rotate(75.524 -74.663 197.487) scale(2.83908)"><path fill="#339AFF" d="M-44.324-81c23.553 0 42.676 19.123 42.676 42.676S-20.771 4.352-44.324 4.352-87-14.771-87-38.324-67.877-81-44.324-81z"/></g><g filter="url(#n)" style="display:block" transform="rotate(75.524 -181.35 188.345) scale(2.28736)"><path fill="#A768FF" d="M-44.324-81c23.553 0 42.676 19.123 42.676 42.676S-20.771 4.352-44.324 4.352-87-14.771-87-38.324-67.877-81-44.324-81z"/></g></g></g><g mask="url(#o)" style="display:block"><path fill="#FFF" d="M143.585 216.608c0 10.449-8.471 18.919-18.919 18.919s-18.919-8.47-18.919-18.919 8.471-18.919 18.919-18.919 18.919 8.47 18.919 18.919zM147.024 289.99h-44.716v-27.664c0-12.348 10.01-22.358 22.358-22.358s22.358 10.01 22.358 22.358v27.664z"/></g><g mask="url(#p)" style="display:block"><g clip-path="url(#q)" transform="matrix(2.1 0 0 2.1 243 107)"><path fill="#91ffe6" d="M0 0h200v200H0z" style="display:block"/><g filter="url(#r)" style="display:block" transform="matrix(2.1954 0 0 2.1954 248.907 41.003)"><path fill="#8FE6D2" d="M-35.277-15.532c23.553 0 42.676 19.123 42.676 42.676S-11.724 69.82-35.277 69.82s-42.676-19.123-42.676-42.676 19.123-42.676 42.676-42.676z"/></g><g filter="url(#s)" style="display:block" transform="matrix(3.00928 0 0 3.00928 301.642 103.006)"><path fill="#3A9DFF" d="M-44.324-81c23.553 0 42.676 19.123 42.676 42.676S-20.771 4.352-44.324 4.352-87-14.771-87-38.324-67.877-81-44.324-81z"/></g><g filter="url(#t)" style="display:block" transform="matrix(1.97974 0 0 1.97974 201.475 239.886)"><path fill="#AD72FF" d="M-44.324-81c23.553 0 42.676 19.123 42.676 42.676S-20.771 4.352-44.324 4.352-87-14.771-87-38.324-67.877-81-44.324-81z"/></g></g></g><g style="display:block"><path fill="#FFF" d="M414.083 486.775c-18.062-10.325-46.526-26.961-79.654-47.645a2415.383 2415.383 0 0 1-7.201-4.515c-19.621-12.356-33.022-28.538-39.826-48.101-4.619-13.276-4.378-23.494-4.375-23.595l.03-1.21-.003-88.538h-.013l-.014-79.956c47.759-8.201 93.535-23.847 136.29-46.586 42.755 22.739 88.53 38.385 136.289 46.586l-.027 169.271.045.775c-.008 0 .17 10.139-4.393 23.256-6.804 19.56-20.204 35.744-39.828 48.1-2.429 1.53-4.826 3.028-7.202 4.513-32.778 20.47-60.942 36.941-78.797 47.157a1819.021 1819.021 0 0 1-5.618 3.2l-.453-.273-.47.281c-1.291-.732-4.78-2.72-4.78-2.72z"/><path fill="none" stroke="#053361" stroke-miterlimit="10" stroke-width="3" d="M414.083 486.775c-18.062-10.325-46.526-26.961-79.654-47.645a2415.383 2415.383 0 0 1-7.201-4.515c-19.621-12.356-33.022-28.538-39.826-48.101-4.619-13.276-4.378-23.494-4.375-23.595l.03-1.21-.003-88.538h-.013l-.014-79.956c47.759-8.201 93.535-23.847 136.29-46.586 42.755 22.739 88.53 38.385 136.289 46.586l-.027 169.271.045.775c-.008 0 .17 10.139-4.393 23.256-6.804 19.56-20.204 35.744-39.828 48.1-2.429 1.53-4.826 3.028-7.202 4.513-32.778 20.47-60.942 36.941-78.797 47.157a1819.021 1819.021 0 0 1-5.618 3.2l-.453-.273-.47.281c-1.291-.732-4.78-2.72-4.78-2.72z"/></g><path fill="#FFC55C" d="M99.698 15.402c0 44.666-36.21 80.875-80.876 80.875-44.666 0-80.875-36.209-80.875-80.875s36.209-80.875 80.875-80.875 80.876 36.209 80.876 80.875z" style="display:block" transform="translate(400 300)"/><g style="display:block"><path fill="#FFF" d="M482.799 315.402c0 35.333-28.644 63.977-63.977 63.977s-63.976-28.644-63.976-63.977 28.643-63.977 63.976-63.977 63.977 28.644 63.977 63.977z"/><path fill="none" stroke="#053361" stroke-miterlimit="10" stroke-width="3" d="M482.799 315.402c0 35.333-28.644 63.977-63.977 63.977s-63.976-28.644-63.976-63.977 28.643-63.977 63.976-63.977 63.977 28.644 63.977 63.977z"/><path fill="#053361" d="M429.936 307.169c0-6.138-4.976-11.114-11.114-11.114-6.138 0-11.114 4.976-11.114 11.114 0 3.768 1.876 7.095 4.744 9.105l-4.744 18.475h22.228l-4.744-18.475a11.097 11.097 0 0 0 4.744-9.105z"/></g><g clip-path="url(#u)" style="display:block" transform="matrix(-1 0 0 1 733 9)"><g mask="url(#v)" style="display:block"><g clip-path="url(#w)" transform="matrix(1.07546 0 0 1.07546 19.454 39.454)"><path fill="#83ffd8" d="M0 0h200v200H0z" style="display:block"/><g filter="url(#x)" style="display:block" transform="rotate(75.524 -74.663 197.487) scale(2.83908)"><path fill="#339AFF" d="M-44.324-81c23.553 0 42.676 19.123 42.676 42.676S-20.771 4.352-44.324 4.352-87-14.771-87-38.324-67.877-81-44.324-81z"/></g><g filter="url(#y)" style="display:block" transform="rotate(75.524 -181.35 188.345) scale(2.28736)"><path fill="#A768FF" d="M-44.324-81c23.553 0 42.676 19.123 42.676 42.676S-20.771 4.352-44.324 4.352-87-14.771-87-38.324-67.877-81-44.324-81z"/></g></g></g></g><g clip-path="url(#z)" style="display:block" transform="rotate(86.424 654.09 179.975) scale(1.32)"><g mask="url(#A)" style="display:block"><g clip-path="url(#B)" transform="rotate(150 335.057 352.24) scale(.90643)"><path fill="#83ffd8" d="M0 0h200v200H0z" style="display:block"/><g filter="url(#C)" style="display:block" transform="rotate(-125.476 12.037 -6.074) scale(2.83908)"><path fill="#339AFF" d="M-44.324-81c23.553 0 42.676 19.123 42.676 42.676S-20.771 4.352-44.324 4.352-87-14.771-87-38.324-67.877-81-44.324-81z"/></g><g filter="url(#D)" style="display:block" transform="rotate(-125.476 4.835 -79.488) scale(2.28736)"><path fill="#A768FF" d="M-44.324-81c23.553 0 42.676 19.123 42.676 42.676S-20.771 4.352-44.324 4.352-87-14.771-87-38.324-67.877-81-44.324-81z"/></g></g></g></g></g></svg>