<svg xmlns="http://www.w3.org/2000/svg" width="800" height="600" style="width:100%;height:100%;transform:translate3d(0,0,0)"><defs><clipPath id="a"><path d="M0 0h800v600H0z"/></clipPath><clipPath id="l"><path d="M0 0h800v600H0z"/></clipPath><clipPath id="n"><path d="M0 0h200v200H0z"/></clipPath><clipPath id="g"><path d="M0 0h800v600H0z"/></clipPath><clipPath id="i"><path d="M0 0h200v200H0z"/></clipPath><clipPath id="e"><path d="M0 0h800v600H0z"/></clipPath><clipPath id="b"><path d="M0 0h800v600H0z"/></clipPath><filter id="p" width="300%" height="300%" x="-100%" y="-100%"><feGaussianBlur result="filter_result_0" stdDeviation="24.45 24.45"/></filter><filter id="o" width="300%" height="300%" x="-100%" y="-100%"><feGaussianBlur result="filter_result_0" stdDeviation="21.81 21.81"/><feGaussianBlur result="filter_result_1" stdDeviation="21.81 21.81"/></filter><filter id="k" width="300%" height="300%" x="-100%" y="-100%"><feGaussianBlur result="filter_result_0" stdDeviation="24.45 24.45"/></filter><filter id="j" width="300%" height="300%" x="-100%" y="-100%"><feGaussianBlur result="filter_result_0" stdDeviation="21.81 21.81"/><feGaussianBlur result="filter_result_1" stdDeviation="21.81 21.81"/></filter><mask id="m" mask-type="alpha"><g style="display:block"><path fill="#FF8F9C" d="M713.15 451.253c1.557 14.187-.297 28.734-5.934 41.821-6.527 15.151-18.178 28.376-33.11 35.637-14.659 7.128-34.172 9.465-46.514-3.336-7.965-8.26-10.683-21.186-6.72-31.956 4.72-12.827 17.164-20.921 29.014-27.733 17.856-10.262 39.991-21.346 48.896-41.179 3.934-8.744 10.222 7.782 11.152 10.89a89.305 89.305 0 0 1 3.216 15.856zM726.966 395.01c7.784 1.614 15.174 5.098 21.137 10.335 6.905 6.064 11.908 14.512 13.187 23.671 1.256 8.993-.862 19.733-9.767 24.07-5.747 2.8-13.062 2.017-18.086-1.935-5.984-4.707-8.134-12.692-9.704-20.142-2.366-11.225-4.432-24.859-13.408-32.987-3.957-3.588 5.881-4.078 7.687-4.037 3.004.07 6.008.413 8.954 1.024z"/></g></mask><mask id="h" mask-type="alpha"><g style="display:block"><path fill="#FF8F9C" d="M84.235 157.677c-3.437-18.977-2.309-38.763 4.057-56.936 7.37-21.04 21.83-39.966 41.274-51.162 19.089-10.991 45.174-15.98 63.019.113 11.515 10.385 16.398 27.553 12.071 42.444-5.154 17.737-21.166 29.822-36.499 40.121-23.103 15.517-51.898 32.546-62.032 60.121-4.479 12.159-14.514-9.527-16.061-13.629a120.683 120.683 0 0 1-5.829-21.072zM78.911 247.3c-10.645-1.443-20.935-5.443-29.468-11.941-9.88-7.523-17.42-18.44-20.008-30.667-2.541-12.004-.698-26.682 10.898-33.369 7.483-4.315 17.418-3.949 24.563.904 8.511 5.781 12.161 16.343 14.98 26.238 4.248 14.909 8.318 33.094 21.185 43.205 5.672 4.464-7.544 6.052-9.983 6.166-4.056.19-8.137.01-12.167-.536z"/></g></mask><mask id="d" mask-type="alpha"><g style="display:block"><path fill="red" d="M591.128 215.04c33.262 33.262 33.262 87.19 0 120.452s-87.191 33.262-120.453 0-33.262-87.19 0-120.452 87.19-33.262 120.453 0z"/><path fill-opacity="0" stroke="#053361" stroke-miterlimit="10" stroke-width="3" d="M591.128 215.04c33.262 33.262 33.262 87.19 0 120.452s-87.191 33.262-120.453 0-33.262-87.19 0-120.452 87.19-33.262 120.453 0z"/></g></mask><linearGradient id="f" x1="147.661" x2="-181.585" y1="-34.883" y2="-19.041" gradientUnits="userSpaceOnUse" spreadMethod="pad"><stop offset="0%" stop-color="#8DEDCF"/><stop offset="24%" stop-color="#6FCBE7"/><stop offset="49%" stop-color="#51A9FF"/><stop offset="74%" stop-color="#8496FF"/><stop offset="100%" stop-color="#B783FF"/></linearGradient><linearGradient id="c" x1="147.661" x2="-181.585" y1="-34.883" y2="-19.041" gradientUnits="userSpaceOnUse" spreadMethod="pad"><stop offset="0%" stop-color="#8DEDCF"/><stop offset="24%" stop-color="#6FCBE7"/><stop offset="49%" stop-color="#51A9FF"/><stop offset="74%" stop-color="#8496FF"/><stop offset="100%" stop-color="#B783FF"/></linearGradient></defs><g clip-path="url(#a)"><g clip-path="url(#b)" style="display:block"><path fill="#053361" d="M276.004 191.029h-520.707c-5.969 0-10.807-4.838-10.807-10.807v-325.904c0-5.969 4.838-10.808 10.807-10.808h520.707c5.969 0 10.808 4.839 10.808 10.808v325.904c0 5.969-4.839 10.807-10.808 10.807z" style="display:block" transform="translate(400 300)"/><g style="display:block"><path fill="#FFF" d="M650.439 465.038H129.733c-5.969 0-10.808-4.838-10.808-10.807V128.327c0-5.969 4.839-10.807 10.808-10.807h520.706c5.969 0 10.808 4.838 10.808 10.807v325.904c0 5.969-4.839 10.807-10.808 10.807z"/><path fill="none" stroke="#053361" stroke-miterlimit="10" stroke-width="3" d="M650.439 465.038H129.733c-5.969 0-10.808-4.838-10.808-10.807V128.327c0-5.969 4.839-10.807 10.808-10.807h520.706c5.969 0 10.808 4.838 10.808 10.807v325.904c0 5.969-4.839 10.807-10.808 10.807z"/></g><path fill="#053361" d="M271.161 13.928h-542.322V-3.121c0-5.969 4.839-10.807 10.808-10.807h520.706c5.969 0 10.808 4.838 10.808 10.807v17.049z" style="display:block" transform="translate(390.086 131.448)"/><path fill="#51A9FF" d="M4.829 0a4.829 4.829 0 1 1-9.658 0 4.829 4.829 0 0 1 9.658 0z" style="display:block" transform="translate(135.297 131.819)"/><path fill="#8DEDCF" d="M4.828 0a4.827 4.827 0 1 1-9.656 0 4.829 4.829 0 0 1 9.656 0z" style="display:block" transform="translate(153.261 131.818)"/><path fill="#FFC55C" d="M4.828 0A4.829 4.829 0 1 1-4.83 0a4.829 4.829 0 0 1 9.658 0z" style="display:block" transform="translate(171.223 131.819)"/><g style="display:block"><path fill="none" stroke="#053361" stroke-linecap="round" stroke-miterlimit="10" stroke-width="3" d="M285.48 307.334h221.166M285.48 321.288h221.166M312.763 349.197h166.6M285.48 335.242h221.166"/></g><path fill="url(#c)" d="M147.441-12.96h-302.744c-7.787 0-14.159-6.372-14.159-14.159v-8.802c0-7.787 6.372-14.159 14.159-14.159h302.744c7.787 0 14.159 6.372 14.159 14.159v8.802c0 7.787-6.372 14.159-14.159 14.159z" style="display:block" transform="translate(400 300)"/></g><g style="display:block"><path fill="#FFC55C" d="M697.652 462.816c5.938 5.938 15.565 5.938 21.503 0 5.938-5.938 5.938-15.564 0-21.502l-21.503 21.502z"/><path fill="none" stroke="#053361" stroke-miterlimit="10" stroke-width="3" d="m605.315 349.675 9.697 9.696"/><path fill="#FFF" d="m720.333 440.137-23.858 23.856-93.045-93.041 23.858-23.857 93.045 93.042z"/><path fill="none" stroke="#053361" stroke-linejoin="round" stroke-width="3" d="m720.333 440.137-23.858 23.856-93.045-93.041 23.858-23.857 93.045 93.042z"/></g><path fill="#FFC55C" d="M214.765-105.539c41.752 41.751 41.752 109.444 0 151.195-41.752 41.751-109.447 41.751-151.199 0-41.752-41.751-41.752-109.444 0-151.195 41.752-41.751 109.447-41.751 151.199 0z" style="display:block" transform="translate(390.55 304.019)"/><g mask="url(#d)" style="display:block"><g clip-path="url(#e)" transform="matrix(1.16 0 0 1.16 -64 -43)"><path fill="#053361" d="M276.004 191.029h-520.707c-5.969 0-10.807-4.838-10.807-10.807v-325.904c0-5.969 4.838-10.808 10.807-10.808h520.707c5.969 0 10.808 4.839 10.808 10.808v325.904c0 5.969-4.839 10.807-10.808 10.807z" style="display:block" transform="translate(400 300)"/><g style="display:block"><path fill="#FFF" d="M650.439 465.038H129.733c-5.969 0-10.808-4.838-10.808-10.807V128.327c0-5.969 4.839-10.807 10.808-10.807h520.706c5.969 0 10.808 4.838 10.808 10.807v325.904c0 5.969-4.839 10.807-10.808 10.807z"/><path fill="none" stroke="#053361" stroke-miterlimit="10" stroke-width="3" d="M650.439 465.038H129.733c-5.969 0-10.808-4.838-10.808-10.807V128.327c0-5.969 4.839-10.807 10.808-10.807h520.706c5.969 0 10.808 4.838 10.808 10.807v325.904c0 5.969-4.839 10.807-10.808 10.807z"/></g><path fill="#053361" d="M271.161 13.928h-542.322V-3.121c0-5.969 4.839-10.807 10.808-10.807h520.706c5.969 0 10.808 4.838 10.808 10.807v17.049z" style="display:block" transform="translate(390.086 131.448)"/><path fill="#51A9FF" d="M4.829 0a4.829 4.829 0 1 1-9.658 0 4.829 4.829 0 0 1 9.658 0z" style="display:block" transform="translate(135.297 131.819)"/><path fill="#8DEDCF" d="M4.828 0a4.827 4.827 0 1 1-9.656 0 4.829 4.829 0 0 1 9.656 0z" style="display:block" transform="translate(153.261 131.818)"/><path fill="#FFC55C" d="M4.828 0A4.829 4.829 0 1 1-4.83 0a4.829 4.829 0 0 1 9.658 0z" style="display:block" transform="translate(171.223 131.819)"/><g style="display:block"><path fill="none" stroke="#053361" stroke-linecap="round" stroke-miterlimit="10" stroke-width="3" d="M285.48 307.334h221.166M285.48 321.288h221.166M312.763 349.197h166.6M285.48 335.242h221.166"/></g><path fill="url(#f)" d="M147.441-12.96h-302.744c-7.787 0-14.159-6.372-14.159-14.159v-8.802c0-7.787 6.372-14.159 14.159-14.159h302.744c7.787 0 14.159 6.372 14.159 14.159v8.802c0 7.787-6.372 14.159-14.159 14.159z" style="display:block" transform="translate(400 300)"/></g></g><path fill="none" stroke="#053361" stroke-miterlimit="10" stroke-width="3" d="M200.578-88.979c33.262 33.262 33.262 87.19 0 120.452s-87.191 33.262-120.453 0-33.262-87.19 0-120.452 87.191-33.262 120.453 0z" style="display:block" transform="translate(390.55 304.019)"/><g clip-path="url(#g)" style="display:block" transform="rotate(-54 399.453 306.72) scale(.88)"><g mask="url(#h)" style="display:block"><g clip-path="url(#i)" transform="matrix(1.07546 0 0 1.07546 19.454 39.454)"><path fill="#83ffd8" d="M0 0h200v200H0z" style="display:block"/><g filter="url(#j)" style="display:block" transform="rotate(-108.252 22.138 -29.413) scale(2.83908)"><path fill="#339AFF" d="M-44.324-81c23.553 0 42.676 19.123 42.676 42.676S-20.771 4.352-44.324 4.352-87-14.771-87-38.324-67.877-81-44.324-81z"/></g><g filter="url(#k)" style="display:block" transform="rotate(-108.252 26.387 -110.226) scale(2.28736)"><path fill="#A768FF" d="M-44.324-81c23.553 0 42.676 19.123 42.676 42.676S-20.771 4.352-44.324 4.352-87-14.771-87-38.324-67.877-81-44.324-81z"/></g></g></g></g><g clip-path="url(#l)" style="display:block" transform="rotate(-62 448.643 391.943) scale(1.14)"><g mask="url(#m)" style="display:block"><g clip-path="url(#n)" transform="rotate(150 335.057 352.24) scale(.90643)"><path fill="#83ffd8" d="M0 0h200v200H0z" style="display:block"/><g filter="url(#o)" style="display:block" transform="rotate(50.748 -113.78 289.36) scale(2.83908)"><path fill="#339AFF" d="M-44.324-81c23.553 0 42.676 19.123 42.676 42.676S-20.771 4.352-44.324 4.352-87-14.771-87-38.324-67.877-81-44.324-81z"/></g><g filter="url(#p)" style="display:block" transform="rotate(50.748 -265.495 309.307) scale(2.28736)"><path fill="#A768FF" d="M-44.324-81c23.553 0 42.676 19.123 42.676 42.676S-20.771 4.352-44.324 4.352-87-14.771-87-38.324-67.877-81-44.324-81z"/></g></g></g></g></g></svg>