<svg xmlns="http://www.w3.org/2000/svg" width="800" height="600" style="width:100%;height:100%;transform:translate3d(0,0,0)"><defs><clipPath id="a"><path d="M0 0h800v600H0z"/></clipPath><clipPath id="c"><path d="M0 0h800v600H0z"/></clipPath><clipPath id="e"><path d="M0 0h200v200H0z"/></clipPath><filter id="g" width="300%" height="300%" x="-100%" y="-100%"><feGaussianBlur result="filter_result_0" stdDeviation="24.45 24.45"/></filter><filter id="f" width="300%" height="300%" x="-100%" y="-100%"><feGaussianBlur result="filter_result_0" stdDeviation="21.81 21.81"/><feGaussianBlur result="filter_result_1" stdDeviation="21.81 21.81"/></filter><mask id="b" mask-type="alpha"><g style="display:block"><path fill="red" d="M674.123 401.176c0 32.266-122.36 58.424-273.296 58.424-150.937 0-273.296-26.158-273.296-58.424S158.725-39.986 400.827-39.986c264.464 0 273.296 408.896 273.296 441.162z"/><path fill-opacity="0" stroke="#F1F1F1" stroke-linecap="round" stroke-linejoin="round" stroke-width="2.85174" d="M674.123 401.176c0 32.266-122.36 58.424-273.296 58.424-150.937 0-273.296-26.158-273.296-58.424S158.725-39.986 400.827-39.986c264.464 0 273.296 408.896 273.296 441.162z"/></g></mask><mask id="d" mask-type="alpha"><path fill="#0FF" d="M50.876-203.215a71.251 71.251 0 0 0-4.698-13.195c-6.801-14.444-19.074-25.749-34.556-31.833-14.792-5.812-31.511-6.616-47.077-2.265a72.333 72.333 0 0 0-14.752 5.928c-17.295 9.295-30.358 25.571-35.839 44.657-5.303 18.467-3.136 37.555 6.101 53.747 4.348 7.621 9.895 13.766 17.46 19.336 9.79 7.208 15.542 14.285 17.585 21.637a1.498 1.498 0 0 0 1.376 1.096c.107.005.216.008.324.008 2.451 0 5.097-1.256 7.139-3.404 2.527-2.657 5.335-7.928 4.366-17.943-.289-2.979-.991-6.989-1.804-11.634-2.258-12.899-5.352-30.567-2.729-43.755 2.601-13.077 10.57-25.557 50.929-28.3 23.212-1.57 26.691 4.529 33.623 16.693.539.945 1.096 1.923 1.682 2.932a1.496 1.496 0 0 0 1.751.676 1.502 1.502 0 0 0 1.04-1.564c-.491-5.481-1.084-9.434-1.921-12.817z" style="display:block" transform="matrix(.98879 0 0 .98879 400.56 301.401)"/></mask></defs><g clip-path="url(#a)"><g style="display:block"><path fill="none" stroke="#053361" stroke-linecap="round" stroke-linejoin="round" stroke-width="2.805" d="M215.599 488.435c-50.901-10.456-82.58-25.157-82.58-41.44 0-9.367 10.483-18.21 29.078-26.023M597.452 486.411c-49.018 11.113-118.527 18.05-195.615 18.05-60.338 0-116.033-4.25-160.892-11.426M624.597 414.818c2.675.844 5.248 1.705 7.714 2.581a170.901 170.901 0 0 1 10.921 4.28c17.56 7.638 27.422 16.23 27.422 25.316 0 12.216-17.83 23.54-48.23 32.851"/></g><g style="display:block"><path fill="none" stroke="#053361" stroke-linecap="round" stroke-linejoin="round" stroke-width="2.82597" d="M305.873 477.27c-51.397-3.939-92.78-10.946-115.93-19.634M609.293 459.206c-38.223 12.786-116.769 21.556-207.456 21.556-23.68 0-46.533-.598-68.055-1.71M176.364 450.99c-4.393-3.01-6.722-6.155-6.722-9.393 0-21.631 103.956-39.166 232.195-39.166 100.408 0 185.93 10.75 218.322 25.799 8.978 4.17 13.873 8.673 13.873 13.367 0 2.63-1.537 5.197-4.467 7.682"/></g><g style="display:block"><path fill="none" stroke="#053361" stroke-linecap="round" stroke-linejoin="round" stroke-width="2.8437" d="M431.622 466.335c-9.663.269-19.64.41-29.846.41-38.203 0-73.217-1.975-100.437-5.257-11.132-1.342-20.96-2.903-29.17-4.637M533.967 456.287c-17.894 4.031-44.357 7.192-75.67 8.94M278.12 430.034c13.35-2.466 30.147-4.522 49.341-6.017"/></g><g mask="url(#b)" style="display:block"><g clip-path="url(#c)"><g style="display:block"><path fill="#FFF" d="M612.511 433.26c-.006 0-.015-.012-.026-.036a.876.876 0 0 0-.067-.2c-1.07-3.74-9.674-52.655-18.032-76.234-9.094-25.653-20.666-52.31-42.81-69.246-33.641-25.725-104.424-11.089-112.564-30.46-9.015-21.456-6.392-34.199-10.343-49.898 1.282-15.534-19.82-28.938-32.822-31.966-7.683-1.8-22.835-4.193-29.839 1.136-7.964 6.061-12.176-5.257-7.83 17.298 2.708 14.05 1.198 32.933-.646 47.123-.844 6.502-2.315 13.644-7.582 17.548-8.162 6.05-53.336 6.656-63.934 7.78-33.028 3.347-55.062 18.534-69.931 48.288-4.863 9.732-8.868 19.88-12.224 30.251-3.831 11.834-6.964 23.93-9.272 36.081-4.52 23.782-5.992 47.808-5.98 52.741 0 .06.018.11.038.157a.828.828 0 0 0-.038.21c0 3.012 17.146 5.453 38.296 5.453s37.624-2.517 38.297-5.452c.711-3.102 10.757-46.493 15.146-56.15 0 0 11.751 47.626 15.547 61.652.002.003.1.025.252.056.4 8.378 48.224 15.153 107.168 15.153 57.039 0 103.663-6.344 106.981-14.346l.197-.047c1.178.384 9.67-39.184 16.807-58.108 5.42 30.91 12.03 51.197 12.03 51.333 0 2.877 16.382 5.21 36.591 5.21 20.21 0 36.59-2.333 36.59-5.21 0-.04-.014-.077-.02-.117h.02z"/><path fill="none" stroke="#053361" stroke-linecap="round" stroke-linejoin="round" stroke-width="2.96637" d="M612.511 433.26c-.006 0-.015-.012-.026-.036a.876.876 0 0 0-.067-.2c-1.07-3.74-9.674-52.655-18.032-76.234-9.094-25.653-20.666-52.31-42.81-69.246-33.641-25.725-104.424-11.089-112.564-30.46-9.015-21.456-6.392-34.199-10.343-49.898 1.282-15.534-19.82-28.938-32.822-31.966-7.683-1.8-22.835-4.193-29.839 1.136-7.964 6.061-12.176-5.257-7.83 17.298 2.708 14.05 1.198 32.933-.646 47.123-.844 6.502-2.315 13.644-7.582 17.548-8.162 6.05-53.336 6.656-63.934 7.78-33.028 3.347-55.062 18.534-69.931 48.288-4.863 9.732-8.868 19.88-12.224 30.251-3.831 11.834-6.964 23.93-9.272 36.081-4.52 23.782-5.992 47.808-5.98 52.741 0 .06.018.11.038.157a.828.828 0 0 0-.038.21c0 3.012 17.146 5.453 38.296 5.453s37.624-2.517 38.297-5.452c.711-3.102 10.757-46.493 15.146-56.15 0 0 11.751 47.626 15.547 61.652.002.003.1.025.252.056.4 8.378 48.224 15.153 107.168 15.153 57.039 0 103.663-6.344 106.981-14.346l.197-.047c1.178.384 9.67-39.184 16.807-58.108 5.42 30.91 12.03 51.197 12.03 51.333 0 2.877 16.382 5.21 36.591 5.21 20.21 0 36.59-2.333 36.59-5.21 0-.04-.014-.077-.02-.117h.02z"/><path fill="#053361" d="M612.511 433.26c-.006 0-.015-.012-.026-.036a.876.876 0 0 0-.067-.2c-1.07-3.74-9.674-52.654-18.032-76.233-9.094-25.653-20.666-52.312-42.81-69.247-33.641-25.725-104.424-11.089-112.564-30.46-2.446-5.821-4.035-11.002-5.131-15.773 0 0-19.913 5.15-35.713 5.15-15.801 0-40.636-5.684-40.636-5.684-.844 6.502-2.315 13.644-7.582 17.548-8.162 6.05-53.336 6.656-63.934 7.78-33.028 3.347-55.062 18.534-69.931 48.288-4.863 9.732-8.868 19.88-12.224 30.251-3.831 11.834-6.964 23.93-9.272 36.081-4.52 23.782-5.992 47.808-5.98 52.741 0 .06.018.11.038.157a.828.828 0 0 0-.038.21c0 3.012 17.143 5.453 38.293 5.453s37.627-2.517 38.3-5.452c.711-3.102 10.51-46.679 14.9-56.336 0 0 11.997 47.812 15.793 61.838.002.003.1.025.252.056.4 8.378 48.224 15.153 107.168 15.153 57.039 0 103.663-6.344 106.981-14.346l.197-.047c1.178.384 9.67-39.184 16.807-58.108 5.42 30.91 12.03 51.196 12.03 51.333 0 2.877 16.382 5.21 36.591 5.21 20.21 0 36.59-2.333 36.59-5.21 0-.04-.014-.077-.02-.117h.02z"/><path fill="none" stroke="#053361" stroke-linecap="round" stroke-linejoin="round" stroke-width="2.96637" d="M612.511 433.26c-.006 0-.015-.012-.026-.036a.876.876 0 0 0-.067-.2c-1.07-3.74-9.674-52.654-18.032-76.233-9.094-25.653-20.666-52.312-42.81-69.247-33.641-25.725-104.424-11.089-112.564-30.46-2.446-5.821-4.035-11.002-5.131-15.773 0 0-19.913 5.15-35.713 5.15-15.801 0-40.636-5.684-40.636-5.684-.844 6.502-2.315 13.644-7.582 17.548-8.162 6.05-53.336 6.656-63.934 7.78-33.028 3.347-55.062 18.534-69.931 48.288-4.863 9.732-8.868 19.88-12.224 30.251-3.831 11.834-6.964 23.93-9.272 36.081-4.52 23.782-5.992 47.808-5.98 52.741 0 .06.018.11.038.157a.828.828 0 0 0-.038.21c0 3.012 17.143 5.453 38.293 5.453s37.627-2.517 38.3-5.452c.711-3.102 10.51-46.679 14.9-56.336 0 0 11.997 47.812 15.793 61.838.002.003.1.025.252.056.4 8.378 48.224 15.153 107.168 15.153 57.039 0 103.663-6.344 106.981-14.346l.197-.047c1.178.384 9.67-39.184 16.807-58.108 5.42 30.91 12.03 51.196 12.03 51.333 0 2.877 16.382 5.21 36.591 5.21 20.21 0 36.59-2.333 36.59-5.21 0-.04-.014-.077-.02-.117h.02z"/><path fill="none" stroke="#FFF" stroke-linecap="round" stroke-linejoin="round" stroke-width="2.96637" d="M511.69 444.054c2.336-7.647 9.197-40.382 15.61-62.01M265.115 437.66c.711-3.101 11.215-50.443 15.604-60.1"/><path fill="#FFC45C" d="M434.582 337.72a6.448 6.448 0 0 0-8.517 3.259l-5.763 12.913-3.635-8.032a6.44 6.44 0 0 0-.205-.414 6.446 6.446 0 0 0-11.736.083l-3.736 8.326-5.748-12.876a6.448 6.448 0 1 0-11.776 5.257l7.6 17.028c.516 1.253 1.877 4.794 3.358 7.95.051.11.105.207.157.312l-.01-.01c.034.07.073.133.106.202.062.12.124.242.187.357.348.66.738 1.255 1.17 1.777.092.114.184.226.282.333.103.112.212.215.32.319.11.103.22.208.337.304.122.103.244.202.372.295.216.162.433.304.65.427l.022.014c1.002.56 1.997.731 2.896.731l.037-.002c.023 0 .042.005.064.005l.024-.002.023.002c.306 0 .616-.031.923-.076.082-.012.162-.023.244-.038a6.305 6.305 0 0 0 1.293-.385c.055-.023.11-.039.166-.063.027-.012.051-.027.078-.04a6.2 6.2 0 0 0 1.411-.893c.096-.079.189-.16.279-.245.094-.089.189-.175.278-.27.187-.197.359-.405.518-.623.027-.037.051-.075.077-.112.318-.453.58-.942.771-1.458l3.544-8.02 3.567 8.027a6.427 6.427 0 0 0 3.41 3.634c.852.38 1.746.562 2.625.562.015 0 .03-.004.045-.004.014 0 .026.004.041.004.016 0 .03-.004.046-.004l.017.001c1.129 0 2.41-.267 3.666-1.243.084-.064.163-.137.245-.204.12-.097.234-.2.346-.307.137-.126.27-.257.4-.396.04-.045.079-.091.117-.137a10.27 10.27 0 0 0 1.606-2.472c-.025.037-.064.062-.09.097.066-.132.133-.259.199-.4 1.483-3.158 2.848-6.711 3.362-7.958l-.003.004 7.599-17.023a6.448 6.448 0 0 0-3.26-8.516z"/><path fill="none" stroke="#FFF" stroke-linecap="round" stroke-linejoin="round" stroke-width="2.96637" d="M434.582 337.72a6.448 6.448 0 0 0-8.517 3.259l-5.763 12.913-3.635-8.032a6.44 6.44 0 0 0-.205-.414 6.446 6.446 0 0 0-11.736.083l-3.736 8.326-5.748-12.876a6.448 6.448 0 1 0-11.776 5.257l7.6 17.028c.516 1.253 1.877 4.794 3.358 7.95.051.11.105.207.157.312l-.01-.01c.034.07.073.133.106.202.062.12.124.242.187.357.348.66.738 1.255 1.17 1.777.092.114.184.226.282.333.103.112.212.215.32.319.11.103.22.208.337.304.122.103.244.202.372.295.216.162.433.304.65.427l.022.014c1.002.56 1.997.731 2.896.731l.037-.002c.023 0 .042.005.064.005l.024-.002.023.002c.306 0 .616-.031.923-.076.082-.012.162-.023.244-.038a6.305 6.305 0 0 0 1.293-.385c.055-.023.11-.039.166-.063.027-.012.051-.027.078-.04a6.2 6.2 0 0 0 1.411-.893c.096-.079.189-.16.279-.245.094-.089.189-.175.278-.27.187-.197.359-.405.518-.623.027-.037.051-.075.077-.112.318-.453.58-.942.771-1.458l3.544-8.02 3.567 8.027a6.427 6.427 0 0 0 3.41 3.634c.852.38 1.746.562 2.625.562.015 0 .03-.004.045-.004.014 0 .026.004.041.004.016 0 .03-.004.046-.004l.017.001c1.129 0 2.41-.267 3.666-1.243.084-.064.163-.137.245-.204.12-.097.234-.2.346-.307.137-.126.27-.257.4-.396.04-.045.079-.091.117-.137a10.27 10.27 0 0 0 1.606-2.472c-.025.037-.064.062-.09.097.066-.132.133-.259.199-.4 1.483-3.158 2.848-6.711 3.362-7.958l-.003.004 7.599-17.023a6.448 6.448 0 0 0-3.26-8.516z"/><path fill="#FFF" d="M420.246 376.278h-.003.003z" opacity=".4"/><path fill="#FFC45C" d="M420.246 376.278h-.003.003z" opacity=".4"/><path fill="#FFF" d="M280.348 377.683c3.455-10.802 4.726-17.117 4.726-17.117"/><path fill="none" stroke="#FFF" stroke-linecap="round" stroke-linejoin="round" stroke-width="2.96637" d="M280.348 377.683c3.455-10.802 4.726-17.117 4.726-17.117"/><path fill="#FFF" d="M532.383 357.125s-1.189 10.835-5.083 24.919"/><path fill="none" stroke="#FFF" stroke-linecap="round" stroke-linejoin="round" stroke-width="2.96637" d="M532.383 357.125s-1.189 10.835-5.083 24.919"/></g><g style="display:block"><path fill="#FFF" d="M378.868 206.491a109.97 109.97 0 0 0 3.633 2.658c16.74 11.724 38.284 19.758 56.534 11.414 18.676-8.54 19.237-30.293 19.668-48.51.456-19.19-1.292-40.043-7.477-58.754-29.785-86.061-153.49-31.901-91.62 72.727"/><path fill="none" stroke="#053361" stroke-linecap="round" stroke-linejoin="round" stroke-width="2.96637" d="M378.868 206.491a109.97 109.97 0 0 0 3.633 2.658c16.74 11.724 38.284 19.758 56.534 11.414 18.676-8.54 19.237-30.293 19.668-48.51.456-19.19-1.292-40.043-7.477-58.754-29.785-86.061-153.49-31.901-91.62 72.727"/><path fill="none" stroke="#053361" stroke-linecap="round" stroke-linejoin="round" stroke-width="2.96637" d="M424.566 143.825s7.99 13.902 8.837 18.44c2.01 10.763-10.47 10.763-10.47 10.763"/></g><g mask="url(#d)" style="display:block"><g clip-path="url(#e)" transform="translate(296.738 30.473) scale(.88991)"><path fill="#83ffd8" d="M0 0h200v200H0z" style="display:block"/><g filter="url(#f)" style="display:block" transform="rotate(55.783 -103.26 264.686) scale(2.83908)"><path fill="#339AFF" d="M-44.324-81c23.553 0 42.676 19.123 42.676 42.676S-20.771 4.352-44.324 4.352-87-14.771-87-38.324-67.877-81-44.324-81z"/></g><g filter="url(#g)" style="display:block" transform="rotate(55.783 -242.906 276.837) scale(2.28736)"><path fill="#A768FF" d="M-44.324-81c23.553 0 42.676 19.123 42.676 42.676S-20.771 4.352-44.324 4.352-87-14.771-87-38.324-67.877-81-44.324-81z"/></g></g></g><g style="display:block"><path fill="#053361" d="m404.578 145.063-12.511 1.488c-4.345.516-8.578-2.636-9.331-7.009l-.176-1.024c-.752-4.365 2.262-8.228 6.62-8.586l12.554-1.029c4.048-.332 7.9 2.752 8.628 6.854l.171.963c.73 4.11-1.92 7.863-5.955 8.343z"/><path fill="none" stroke="#053361" stroke-linecap="round" stroke-linejoin="round" stroke-width="3.95516" d="m404.578 145.063-12.511 1.488c-4.345.516-8.578-2.636-9.331-7.009l-.176-1.024c-.752-4.365 2.262-8.228 6.62-8.586l12.554-1.029c4.048-.332 7.9 2.752 8.628 6.854l.171.963c.73 4.11-1.92 7.863-5.955 8.343z"/><path fill="#053361" d="m445.532 143.822-8.49-.307c-3.493-.125-6.476-3.453-6.577-7.386l-.006-.209c-.1-3.927 2.715-6.933 6.201-6.687l8.476.597c3.29.233 6.034 3.471 6.143 7.206l.005.198c.11 3.74-2.457 6.707-5.752 6.588z"/><path fill="none" stroke="#053361" stroke-linecap="round" stroke-linejoin="round" stroke-width="3.95516" d="m445.532 143.822-8.49-.307c-3.493-.125-6.476-3.453-6.577-7.386l-.006-.209c-.1-3.927 2.715-6.933 6.201-6.687l8.476.597c3.29.233 6.034 3.471 6.143 7.206l.005.198c.11 3.74-2.457 6.707-5.752 6.588z"/><path fill="none" stroke="#053361" stroke-linecap="round" stroke-linejoin="round" stroke-width="2.96637" d="M411.867 135.597s8.75-4.87 17.499-.144M380.748 137.742c-29.046 4.874-37.31 6.111-47.717 31.513M450.916 137.742l7.057.486"/></g></g></g></g></svg>