<svg xmlns="http://www.w3.org/2000/svg" width="800" height="600" style="width:100%;height:100%;transform:translate3d(0,0,0)"><defs><filter id="e" width="300%" height="300%" x="-100%" y="-100%"><feGaussianBlur/><feGaussianBlur stdDeviation="21.81 21.81"/><feGaussianBlur/><feGaussianBlur stdDeviation="21.81 21.81"/></filter><filter id="f" width="300%" height="300%" x="-100%" y="-100%"><feGaussianBlur/><feGaussianBlur stdDeviation="24.45 24.45"/></filter><filter id="i" width="300%" height="300%" x="-100%" y="-100%"><feGaussianBlur/><feGaussianBlur stdDeviation="21.81 21.81"/><feGaussianBlur/><feGaussianBlur stdDeviation="21.81 21.81"/></filter><filter id="j" width="300%" height="300%" x="-100%" y="-100%"><feGaussianBlur/><feGaussianBlur stdDeviation="21.81 21.81"/><feGaussianBlur/><feGaussianBlur stdDeviation="21.81 21.81"/></filter><filter id="k" width="300%" height="300%" x="-100%" y="-100%"><feGaussianBlur/><feGaussianBlur stdDeviation="21.599999999999998 21.599999999999998"/></filter><filter id="n" width="300%" height="300%" x="-100%" y="-100%"><feGaussianBlur/><feGaussianBlur stdDeviation="21.81 21.81"/><feGaussianBlur/><feGaussianBlur stdDeviation="21.81 21.81"/></filter><filter id="o" width="300%" height="300%" x="-100%" y="-100%"><feGaussianBlur/><feGaussianBlur stdDeviation="24.45 24.45"/></filter><filter id="r" width="300%" height="300%" x="-100%" y="-100%"><feGaussianBlur/><feGaussianBlur stdDeviation="21.81 21.81"/><feGaussianBlur/><feGaussianBlur stdDeviation="21.81 21.81"/></filter><filter id="s" width="300%" height="300%" x="-100%" y="-100%"><feGaussianBlur/><feGaussianBlur stdDeviation="21.81 21.81"/><feGaussianBlur/><feGaussianBlur stdDeviation="21.81 21.81"/></filter><filter id="t" width="300%" height="300%" x="-100%" y="-100%"><feGaussianBlur/><feGaussianBlur stdDeviation="21.599999999999998 21.599999999999998"/></filter><clipPath id="a"><path d="M0 0h800v600H0z"/></clipPath><clipPath id="b"><path d="M0 0h800v600H0z"/></clipPath><clipPath id="h"><path d="M0 0h200v200H0z"/></clipPath><clipPath id="m"><path d="M0 0h200v200H0z"/></clipPath><clipPath id="q"><path d="M0 0h200v200H0z"/></clipPath><clipPath id="d"><path d="M0 0h200v200H0z"/></clipPath><mask id="g" mask-type="alpha"><path fill="#FF8F9C" d="m-346.857 104.463 149.115 14.665c12.574-43.62 16.995-98.837 12.342-143.994h-.001L-321.299-30.6A357.269 357.269 0 0 1-345.5 100.965l-1.357 3.498z" style="display:block" transform="translate(400 300)"/></mask><mask id="l" mask-type="alpha"><path fill="#FF8F9C" d="m376.267 95.574-148.743 12.25-.398-1.197a354.164 354.164 0 0 1-17.358-133.821l135.561-11.164a357.25 357.25 0 0 0 29.442 130.492l1.496 3.44z" style="display:block" transform="translate(400 300)"/></mask><mask id="p" mask-type="alpha"><path fill="#FFAEBA" d="m296.696-2.676-2.236.237a401.6 401.6 0 0 1-146.913-11.587l.944-3.846a570.241 570.241 0 0 0 14.8-92.686l2.685-35.281 132.449 10.078-2.691 35.362a570.325 570.325 0 0 0 .962 97.723z" style="display:block" transform="translate(400 300)"/></mask><mask id="c" mask-type="alpha"><g style="display:block"><path fill="#FF8F9C" d="M84.235 157.677c-3.437-18.977-2.309-38.763 4.057-56.936 7.37-21.04 21.83-39.966 41.274-51.162 19.089-10.991 45.174-15.98 63.019.113 11.515 10.385 16.398 27.553 12.071 42.444-5.154 17.737-21.166 29.822-36.499 40.121-23.103 15.517-51.898 32.546-62.032 60.121-4.479 12.159-14.514-9.527-16.061-13.629a120.683 120.683 0 0 1-5.829-21.072zM78.911 247.3c-10.645-1.443-20.935-5.443-29.468-11.941-9.88-7.523-17.42-18.44-20.008-30.667-2.541-12.004-.698-26.682 10.898-33.369 7.483-4.315 17.418-3.949 24.563.904 8.511 5.781 12.161 16.343 14.98 26.238 4.248 14.909 8.318 33.094 21.185 43.205 5.672 4.464-7.544 6.052-9.983 6.166-4.056.19-8.137.01-12.167-.536z"/></g></mask></defs><g clip-path="url(#a)"><g clip-path="url(#b)" style="display:block" transform="matrix(.9 0 0 .9 -6 -18)"><g mask="url(#c)" style="display:block"><g clip-path="url(#d)" transform="matrix(1.07546 0 0 1.07546 19.454 39.454)"><path fill="#83ffd8" d="M0 0h200v200H0z" style="display:block"/><g filter="url(#e)" style="display:block" transform="rotate(-103.217 25.461 -37.196) scale(2.83908)"><path fill="#339AFF" d="M-44.324-81c23.553 0 42.676 19.123 42.676 42.676S-20.771 4.352-44.324 4.352-87-14.771-87-38.324-67.877-81-44.324-81z"/></g><g filter="url(#f)" style="display:block" transform="rotate(-103.217 33.52 -120.47) scale(2.28736)"><path fill="#A768FF" d="M-44.324-81c23.553 0 42.676 19.123 42.676 42.676S-20.771 4.352-44.324 4.352-87-14.771-87-38.324-67.877-81-44.324-81z"/></g></g></g></g><g style="display:block"><path fill="#053361" d="M709.473 490.361H101.94v-366.75c0-5.969 4.838-10.808 10.807-10.808h585.918c5.969 0 10.808 4.839 10.808 10.808v366.75z"/><path fill="#FFF" d="M118.795 465.947v-333.85a2.439 2.439 0 0 1 2.439-2.439H690.18a2.438 2.438 0 0 1 2.438 2.439v333.85a2.438 2.438 0 0 1-2.438 2.439H121.234a2.439 2.439 0 0 1-2.439-2.439z"/><path fill="none" stroke="#053361" stroke-miterlimit="10" stroke-width="3" d="M118.795 465.947v-333.85a2.439 2.439 0 0 1 2.439-2.439H690.18a2.438 2.438 0 0 1 2.438 2.439v333.85a2.438 2.438 0 0 1-2.438 2.439H121.234a2.439 2.439 0 0 1-2.439-2.439z"/><path fill="#FFF" d="M509.647 377.05H297.51c-5.912 0-10.704-4.792-10.704-10.704v-9.613c0-5.912 4.792-10.704 10.704-10.704h212.137c5.912 0 10.705 4.792 10.705 10.704v9.613c0 5.912-4.793 10.704-10.705 10.704z"/><path fill="none" stroke="#053361" stroke-miterlimit="10" stroke-width="3" d="M509.647 377.05H297.51c-5.912 0-10.704-4.792-10.704-10.704v-9.613c0-5.912 4.792-10.704 10.704-10.704h212.137c5.912 0 10.705 4.792 10.705 10.704v9.613c0 5.912-4.793 10.704-10.705 10.704z"/></g><g style="display:block"><path fill="#053361" d="M750.36 532.214H61.11v7.409c0 10.666 8.722 19.312 19.482 19.312h650.287c10.76 0 19.482-8.646 19.482-19.312v-7.409z"/><path fill="#FFF" d="M746.485 534.368H64.928c-1.873 0-2.86-2.344-1.607-3.814l38.619-45.313h607.533l38.619 45.313c1.253 1.47.266 3.814-1.607 3.814z"/><path fill="none" stroke="#053361" stroke-miterlimit="10" stroke-width="3" d="M746.485 534.368H64.928c-1.873 0-2.86-2.344-1.607-3.814l38.619-45.313h607.533l38.619 45.313c1.253 1.47.266 3.814-1.607 3.814z"/><path fill="#FFF" d="M433.794 530.575H377.62v2.063h3.85a1.41 1.41 0 0 1 1.409 1.41 3.32 3.32 0 0 0 3.321 3.32h39.014a3.32 3.32 0 0 0 3.32-3.32c0-.778.632-1.41 1.41-1.41h3.85v-2.063z"/><path fill="none" stroke="#053361" stroke-linecap="round" stroke-miterlimit="10" stroke-width="3" d="M162.725 511.141h513.24"/></g><g mask="url(#g)" style="display:block"><g clip-path="url(#h)" transform="matrix(-.12399 .86665 .86665 .12399 66.49 246.22)"><path fill="#91ffe6" d="M0 0h200v200H0z" style="display:block"/><g filter="url(#i)" style="display:block" transform="matrix(2.1954 0 0 2.1954 247.87 58.538)"><path fill="#8FE6D2" d="M-35.277-15.532c23.553 0 42.676 19.123 42.676 42.676S-11.724 69.82-35.277 69.82s-42.676-19.123-42.676-42.676 19.123-42.676 42.676-42.676z"/></g><g filter="url(#j)" style="display:block" transform="matrix(3.33484 0 0 3.33484 352.778 166.738)"><path fill="#3A9DFF" d="M-44.324-81c23.553 0 42.676 19.123 42.676 42.676S-20.771 4.352-44.324 4.352-87-14.771-87-38.324-67.877-81-44.324-81z"/></g><g filter="url(#k)" style="display:block" transform="matrix(2.0314 0 0 2.0314 175.759 244.819)"><path fill="#AD72FF" d="M-44.324-81c23.553 0 42.676 19.123 42.676 42.676S-20.771 4.352-44.324 4.352-87-14.771-87-38.324-67.877-81-44.324-81z"/></g></g></g><g mask="url(#l)" style="display:block"><g clip-path="url(#m)" transform="matrix(-.90943 0 0 .90943 776.226 241.887)"><path fill="#83ffd8" d="M0 0h200v200H0z" style="display:block"/><g filter="url(#n)" style="display:block" transform="rotate(-103.217 25.461 -37.196) scale(2.83908)"><path fill="#339AFF" d="M-44.324-81c23.553 0 42.676 19.123 42.676 42.676S-20.771 4.352-44.324 4.352-87-14.771-87-38.324-67.877-81-44.324-81z"/></g><g filter="url(#o)" style="display:block" transform="rotate(-103.217 33.52 -120.47) scale(2.28736)"><path fill="#A768FF" d="M-44.324-81c23.553 0 42.676 19.123 42.676 42.676S-20.771 4.352-44.324 4.352-87-14.771-87-38.324-67.877-81-44.324-81z"/></g></g></g><g mask="url(#p)" style="display:block"><g clip-path="url(#q)" transform="matrix(.87547 0 0 -.87547 540 315.094)"><path fill="#91ffe6" d="M0 0h200v200H0z" style="display:block"/><g filter="url(#r)" style="display:block" transform="matrix(2.1954 0 0 2.1954 247.87 58.538)"><path fill="#8FE6D2" d="M-35.277-15.532c23.553 0 42.676 19.123 42.676 42.676S-11.724 69.82-35.277 69.82s-42.676-19.123-42.676-42.676 19.123-42.676 42.676-42.676z"/></g><g filter="url(#s)" style="display:block" transform="matrix(3.33484 0 0 3.33484 352.778 166.738)"><path fill="#3A9DFF" d="M-44.324-81c23.553 0 42.676 19.123 42.676 42.676S-20.771 4.352-44.324 4.352-87-14.771-87-38.324-67.877-81-44.324-81z"/></g><g filter="url(#t)" style="display:block" transform="matrix(2.0314 0 0 2.0314 175.759 244.819)"><path fill="#AD72FF" d="M-44.324-81c23.553 0 42.676 19.123 42.676 42.676S-20.771 4.352-44.324 4.352-87-14.771-87-38.324-67.877-81-44.324-81z"/></g></g></g><g style="display:block"><path fill="none" stroke="#014588" stroke-linecap="round" stroke-miterlimit="10" stroke-width="3" d="m583.472 191.619 92.967 7.206M582.576 203.189l92.966 7.206M581.531 216.66l92.967 7.206M580.487 230.13l92.966 7.206M579.335 245l51.53 3.994"/></g><g style="display:block"><path fill="none" stroke="#014588" stroke-linecap="round" stroke-miterlimit="10" stroke-width="3" d="m641.321 351.452 94.921-7.943M642.446 364.897l94.921-7.943M661.262 376.768l59.524-4.981"/></g><g style="display:block"><path fill="#10CDF5" d="m96.273 337.676 95.468 5.924"/><path fill="none" stroke="#014588" stroke-linecap="round" stroke-miterlimit="10" stroke-width="3" d="m96.273 337.676 95.468 5.924"/><path fill="#10CDF5" d="m93.037 353.85 95.468 5.924"/><path fill="none" stroke="#014588" stroke-linecap="round" stroke-miterlimit="10" stroke-width="3" d="m93.037 353.85 95.468 5.924"/><path fill="#10CDF5" d="m98.858 323.217 55.884 3.467"/><path fill="none" stroke="#014588" stroke-linecap="round" stroke-miterlimit="10" stroke-width="3" d="m98.858 323.217 55.884 3.467"/></g><g style="display:block"><path fill="none" stroke="#053361" stroke-linecap="round" stroke-miterlimit="10" stroke-width="2" d="m303.675 358.947 8.76 2.916M312.462 352.572v9.232M312.435 361.863l-5.924 7.738M303.675 358.947l8.76 2.916M312.435 361.863l-5.924 7.738M321.249 358.947l-8.76 2.916M312.49 361.863l5.924 7.738"/></g><g style="display:block"><path fill="none" stroke="#053361" stroke-linecap="round" stroke-miterlimit="10" stroke-width="2" d="m329.393 358.947 8.76 2.916M338.18 352.572v9.232M338.153 361.863l-5.924 7.738M329.393 358.947l8.76 2.916M338.153 361.863l-5.924 7.738M346.967 358.947l-8.76 2.916M338.207 361.863l5.924 7.738"/></g><g style="display:block"><path fill="none" stroke="#053361" stroke-linecap="round" stroke-miterlimit="10" stroke-width="2" d="m355.111 358.947 8.76 2.916M363.898 352.572v9.232M363.871 361.863l-5.924 7.738M355.111 358.947l8.76 2.916M363.871 361.863l-5.924 7.738M372.685 358.947l-8.76 2.916M363.925 361.863l5.924 7.738"/></g><g style="display:block"><path fill="none" stroke="#053361" stroke-linecap="round" stroke-miterlimit="10" stroke-width="2" d="m380.829 358.947 8.76 2.916M389.616 352.572v9.232M389.588 361.863l-5.924 7.738M380.829 358.947l8.76 2.916M389.588 361.863l-5.924 7.738M398.403 358.947l-8.76 2.916M389.643 361.863l5.924 7.738"/></g><g style="display:block"><path fill="none" stroke="#053361" stroke-linecap="round" stroke-miterlimit="10" stroke-width="2" d="m406.547 358.947 8.76 2.916M415.334 352.572v9.232M415.306 361.863l-5.924 7.738M406.547 358.947l8.76 2.916M415.306 361.863l-5.924 7.738M424.121 358.947l-8.76 2.916M415.361 361.863l5.924 7.738"/></g><g style="display:block"><path fill="none" stroke="#053361" stroke-linecap="round" stroke-miterlimit="10" stroke-width="2" d="m432.264 358.947 8.76 2.916M441.051 352.572v9.232M441.024 361.863l-5.924 7.738M432.264 358.947l8.76 2.916M441.024 361.863l-5.924 7.738M449.838 358.947l-8.76 2.916M441.079 361.863l5.924 7.738"/></g><g style="display:block"><path fill="none" stroke="#053361" stroke-linecap="round" stroke-miterlimit="10" stroke-width="2" d="m457.982 358.947 8.76 2.916M466.769 352.572v9.232M466.742 361.863l-5.924 7.738M457.982 358.947l8.76 2.916M466.742 361.863l-5.924 7.738M475.556 358.947l-8.76 2.916M466.797 361.863l5.924 7.738"/></g><g style="display:block"><path fill="none" stroke="#053361" stroke-linecap="round" stroke-miterlimit="10" stroke-width="2" d="m483.7 358.947 8.76 2.916M492.487 352.572v9.232M492.46 361.863l-5.924 7.738M483.7 358.947l8.76 2.916M492.46 361.863l-5.924 7.738M501.274 358.947l-8.76 2.916M492.514 361.863l5.924 7.738"/></g><g style="display:block"><path fill="#FFF" d="M456.664 272.24c0 29.318-23.767 53.085-53.085 53.085s-53.085-23.767-53.085-53.085 23.767-53.085 53.085-53.085 53.085 23.767 53.085 53.085z"/><path fill="none" stroke="#053361" stroke-miterlimit="10" stroke-width="3" d="M456.664 272.24c0 29.318-23.767 53.085-53.085 53.085s-53.085-23.767-53.085-53.085 23.767-53.085 53.085-53.085 53.085 23.767 53.085 53.085z"/></g><path fill="#FFC55C" d="M36.653 12.752C29.611 32.995 7.491 43.695-12.752 36.653c-20.243-7.042-30.943-29.162-23.901-49.405 7.042-20.243 29.162-30.943 49.405-23.901 20.243 7.042 30.943 29.162 23.901 49.405z" style="display:block" transform="translate(403.579 272.24)"/></g></svg>