<svg xmlns="http://www.w3.org/2000/svg" width="800" height="600" style="width:100%;height:100%;transform:translate3d(0,0,0)"><defs><filter id="q" width="300%" height="300%" x="-100%" y="-100%"><feGaussianBlur result="filter_result_0" stdDeviation="24.45 24.45"/></filter><filter id="p" width="300%" height="300%" x="-100%" y="-100%"><feGaussianBlur result="filter_result_0" stdDeviation="21.81 21.81"/><feGaussianBlur result="filter_result_1" stdDeviation="21.81 21.81"/></filter><filter id="l" width="300%" height="300%" x="-100%" y="-100%"><feGaussianBlur result="filter_result_0" stdDeviation="24.45 24.45"/></filter><filter id="k" width="300%" height="300%" x="-100%" y="-100%"><feGaussianBlur result="filter_result_0" stdDeviation="21.81 21.81"/><feGaussianBlur result="filter_result_1" stdDeviation="21.81 21.81"/></filter><filter id="g" width="300%" height="300%" x="-100%" y="-100%"><feGaussianBlur result="filter_result_0" stdDeviation="26.58 26.58"/></filter><filter id="f" width="300%" height="300%" x="-100%" y="-100%"><feGaussianBlur result="filter_result_0" stdDeviation="17.49 17.49"/></filter><filter id="e" width="300%" height="300%" x="-100%" y="-100%"><feGaussianBlur result="filter_result_0" stdDeviation="19.29 19.29"/></filter><filter id="d" width="300%" height="300%" x="-100%" y="-100%"><feGaussianBlur result="filter_result_0" stdDeviation="13.41 13.41"/></filter><clipPath id="a"><path d="M0 0h800v600H0z"/></clipPath><clipPath id="m"><path d="M0 0h800v600H0z"/></clipPath><clipPath id="o"><path d="M0 0h200v200H0z"/></clipPath><clipPath id="h"><path d="M0 0h800v600H0z"/></clipPath><clipPath id="j"><path d="M0 0h200v200H0z"/></clipPath><clipPath id="c"><path d="M0 0h358v200H0z"/></clipPath><mask id="n" mask-type="alpha"><g style="display:block"><path fill="#FF8F9C" d="M713.15 451.253c1.557 14.187-.297 28.734-5.934 41.821-6.527 15.151-18.178 28.376-33.11 35.637-14.659 7.128-34.172 9.465-46.514-3.336-7.965-8.26-10.683-21.186-6.72-31.956 4.72-12.827 17.164-20.921 29.014-27.733 17.856-10.262 39.991-21.346 48.896-41.179 3.934-8.744 10.222 7.782 11.152 10.89a89.305 89.305 0 0 1 3.216 15.856zM726.966 395.01c7.784 1.614 15.174 5.098 21.137 10.335 6.905 6.064 11.908 14.512 13.187 23.671 1.256 8.993-.862 19.733-9.767 24.07-5.747 2.8-13.062 2.017-18.086-1.935-5.984-4.707-8.134-12.692-9.704-20.142-2.366-11.225-4.432-24.859-13.408-32.987-3.957-3.588 5.881-4.078 7.687-4.037 3.004.07 6.008.413 8.954 1.024z"/></g></mask><mask id="i" mask-type="alpha"><g style="display:block"><path fill="#FF8F9C" d="M84.235 157.677c-3.437-18.977-2.309-38.763 4.057-56.936 7.37-21.04 21.83-39.966 41.274-51.162 19.089-10.991 45.174-15.98 63.019.113 11.515 10.385 16.398 27.553 12.071 42.444-5.154 17.737-21.166 29.822-36.499 40.121-23.103 15.517-51.898 32.546-62.032 60.121-4.479 12.159-14.514-9.527-16.061-13.629a120.683 120.683 0 0 1-5.829-21.072zM78.911 247.3c-10.645-1.443-20.935-5.443-29.468-11.941-9.88-7.523-17.42-18.44-20.008-30.667-2.541-12.004-.698-26.682 10.898-33.369 7.483-4.315 17.418-3.949 24.563.904 8.511 5.781 12.161 16.343 14.98 26.238 4.248 14.909 8.318 33.094 21.185 43.205 5.672 4.464-7.544 6.052-9.983 6.166-4.056.19-8.137.01-12.167-.536z"/></g></mask><mask id="b" mask-type="alpha"><path fill="#FF8F9C" d="M181.948-98.526s-20.66-90.673-155.874-90.673c-277.469 0-266.168 167.777-265.619 206.138C-238.419 95.593-303.4 95.74-303.4 95.74l22.522 110.114 630.642-.041C35.316 154.961 100.316-99.12 181.948-98.526z" style="display:block" transform="translate(400 300)"/></mask></defs><g clip-path="url(#a)"><g style="display:block"><path fill="#053361" d="M572.744 534.627H108.6c-6.627 0-12-5.373-12-12v-16.773h476.144v28.773z"/><path fill="#FFF" d="M408.986 533.128c-5.79 0-10.5-4.71-10.5-10.5v-15.275h366.925v15.275c0 5.79-4.71 10.5-10.5 10.5H408.986z"/><path fill="#053361" d="M763.911 508.854v13.773c0 4.963-4.037 9-9 9H408.986c-4.963 0-9-4.037-9-9v-13.773h363.925m3-3H396.986v16.773c0 6.627 5.373 12 12 12h345.925c6.627 0 12-5.373 12-12v-16.773z"/><path fill="#FFF" d="M561.702 517.04a5.026 5.026 0 0 1-5.02-5.02v-4.667h50.533v4.667a5.026 5.026 0 0 1-5.02 5.02h-40.493z"/><path fill="#053361" d="M605.715 508.854v3.166a3.524 3.524 0 0 1-3.52 3.52h-40.493a3.524 3.524 0 0 1-3.52-3.52v-3.166h47.533m3-3h-53.533v6.166a6.52 6.52 0 0 0 6.52 6.52h40.493a6.52 6.52 0 0 0 6.52-6.52v-6.166z"/><path fill="#053361" d="M610.987 505.854H96.6L33.654 198.108c-1.679-8.208 4.593-15.892 12.971-15.892h487.36a13.239 13.239 0 0 1 12.971 10.586l64.031 313.052z"/><path fill="#FFF" d="M119.122 505.854 57.439 204.281h469.343l61.683 301.573H119.122z"/></g><g mask="url(#b)" style="display:block"><g clip-path="url(#c)" transform="matrix(2.72 0 0 2.72 -140.88 82)"><path fill="#3b9eff" d="M0 0h200v200H0z" style="display:block" transform="matrix(2.135 0 0 1.46 -38.5 -44.5)"/><g filter="url(#d)" style="display:block" transform="translate(139.224 159.459) scale(1.64347)"><path fill="#91FFE6" d="M-44.324-81c23.553 0 42.676 19.123 42.676 42.676S-20.771 4.352-44.324 4.352-87-14.771-87-38.324-67.877-81-44.324-81z"/></g><g filter="url(#e)" style="display:block" transform="matrix(1.85057 0 0 1.85057 311.914 88.09)"><path fill="#AD72FF" d="M-44.324-81c23.553 0 42.676 19.123 42.676 42.676S-20.771 4.352-44.324 4.352-87-14.771-87-38.324-67.877-81-44.324-81z"/></g><g filter="url(#f)" style="display:block" transform="matrix(1.85057 0 0 1.85057 232.393 254.136)"><path fill="#AD72FF" d="M-44.324-81c23.553 0 42.676 19.123 42.676 42.676S-20.771 4.352-44.324 4.352-87-14.771-87-38.324-67.877-81-44.324-81z"/></g><g filter="url(#g)" style="display:block" transform="translate(363.235 246.923) scale(1.64347)"><path fill="#91FFE6" d="M-44.324-81c23.553 0 42.676 19.123 42.676 42.676S-20.771 4.352-44.324 4.352-87-14.771-87-38.324-67.877-81-44.324-81z"/></g></g></g><g style="display:block"><path fill="#FFF" d="M160.455 316.939s.801-53.12 23.655-88.311c11.762-18.112 28.353-21.6 38.263-34.138 9.121-11.54 3.024-26.788 26.143-37.148 21.953-9.836 36.232 3.15 63.27-5.4 21.402-6.767 22.092-20.24 52.508-26.533 32.711-6.767 59.068 19.995 85.833 42.145 25.743 21.304 22.631-4.963 33.918-5.739 17.431-1.198 22.349 50.478 41.2 56.382 15.236 4.772 11.915-12.464 18.715-10.343 16.504 5.147-5.15 62.274 23.565 66.884 22.186 3.562 14.865-33.135 19.809-29.059 10.687 8.812-13.816 60.048 17.418 59.913 30.978-.133 16.165-100.524-15.29-118.132l.249.498s-7.256-45.06-74.243-61.56c0 0-34.013-35.916-99.505-25.16 0 0-51.55-38.742-161.154 33.25 0 0-31.09-11.992-54.499 46.633 0 0-51.341 2.975-39.855 135.818z"/><path fill="none" stroke="#053361" stroke-linecap="round" stroke-linejoin="round" stroke-width="3" d="M160.455 316.939s.801-53.12 23.655-88.311c11.762-18.112 28.353-21.6 38.263-34.138 9.121-11.54 3.024-26.788 26.143-37.148 21.953-9.836 36.232 3.15 63.27-5.4 21.402-6.767 22.092-20.24 52.508-26.533 32.711-6.767 59.068 19.995 85.833 42.145 25.743 21.304 22.631-4.963 33.918-5.739 17.431-1.198 22.349 50.478 41.2 56.382 15.236 4.772 11.915-12.464 18.715-10.343 16.504 5.147-5.15 62.274 23.565 66.884 22.186 3.562 14.865-33.135 19.809-29.059 10.687 8.812-13.816 60.048 17.418 59.913 30.978-.133 16.165-100.524-15.29-118.132l.249.498s-7.256-45.06-74.243-61.56c0 0-34.013-35.916-99.505-25.16 0 0-51.55-38.742-161.154 33.25 0 0-31.09-11.992-54.499 46.633 0 0-51.341 2.975-39.855 135.818z"/></g><g style="display:block"><path fill="#FFF" d="M570.602 300.902c-.335 5.183-1.917 10.281-4.762 14.616-3.293 5.02-8.303 9.028-14.112 10.69-5.704 1.632-12.846 1.24-16.463-4.126-2.335-3.462-2.496-8.266-.397-11.877 2.5-4.3 7.47-6.42 12.147-8.114 7.047-2.555 15.679-5.133 20.12-11.682 1.961-2.887 3.174 3.433 3.312 4.606.23 1.95.282 3.925.155 5.887z"/><path fill="none" stroke="#053361" stroke-linecap="round" stroke-linejoin="round" stroke-width="3" d="M570.602 300.902c-.335 5.183-1.917 10.281-4.762 14.616-3.293 5.02-8.303 9.028-14.112 10.69-5.704 1.632-12.846 1.24-16.463-4.126-2.335-3.462-2.496-8.266-.397-11.877 2.5-4.3 7.47-6.42 12.147-8.114 7.047-2.555 15.679-5.133 20.12-11.682 1.961-2.887 3.174 3.433 3.312 4.606.23 1.95.282 3.925.155 5.887z"/></g><g style="display:block"><path fill="#FFF" d="M388.296 142.837c5.061 1.166 9.838 3.55 13.658 7.056 4.423 4.06 7.57 9.65 8.273 15.651.692 5.893-.847 12.878-6.726 15.583-3.793 1.746-8.561 1.129-11.787-1.524-3.841-3.16-5.13-8.408-6.048-13.297-1.384-7.366-2.538-16.302-8.284-21.74-2.533-2.402 3.9-2.58 5.08-2.526 1.96.089 3.918.355 5.834.797z"/><path fill="none" stroke="#053361" stroke-linecap="round" stroke-linejoin="round" stroke-width="3" d="M388.296 142.837c5.061 1.166 9.838 3.55 13.658 7.056 4.423 4.06 7.57 9.65 8.273 15.651.692 5.893-.847 12.878-6.726 15.583-3.793 1.746-8.561 1.129-11.787-1.524-3.841-3.16-5.13-8.408-6.048-13.297-1.384-7.366-2.538-16.302-8.284-21.74-2.533-2.402 3.9-2.58 5.08-2.526 1.96.089 3.918.355 5.834.797z"/></g><g style="display:block"><path fill="#FFF" d="M356.79 140.574c2.893.029 5.777.753 8.275 2.204 2.893 1.679 5.274 4.343 6.375 7.524 1.081 3.123 1.081 7.108-1.793 9.283-1.856 1.403-4.523 1.639-6.595.581-2.468-1.26-3.797-3.959-4.882-6.509-1.635-3.842-3.332-8.565-7.11-10.835-1.665-1.003 1.813-1.87 2.461-1.983a18.136 18.136 0 0 1 3.27-.265z"/><path fill="none" stroke="#053361" stroke-linecap="round" stroke-linejoin="round" stroke-width="3" d="M356.79 140.574c2.893.029 5.777.753 8.275 2.204 2.893 1.679 5.274 4.343 6.375 7.524 1.081 3.123 1.081 7.108-1.793 9.283-1.856 1.403-4.523 1.639-6.595.581-2.468-1.26-3.797-3.959-4.882-6.509-1.635-3.842-3.332-8.565-7.11-10.835-1.665-1.003 1.813-1.87 2.461-1.983a18.136 18.136 0 0 1 3.27-.265z"/></g><g style="display:block"><path fill="#053361" d="M538.424 484.086c-10.33 12.339-54.832 17.78-116.421 10.045-61.081-7.671-126.61-26.157-160.753-47.935-16.87-10.76 2.329-18.787 12.23-22.874 6.36-7.898-3.695-19.638 22.524-20.56 53.53-1.882 124.474 10.86 177.2 29.389 52.959 18.61 77.033 36.639 65.22 51.935z"/><path fill="#FFF" d="M538.777 480.817c-10.33 12.339-54.831 17.779-116.42 10.044-61.081-7.671-126.61-26.156-160.753-47.934-16.87-10.76 5.86-14.963 12.23-22.875 6.36-7.898-3.696-19.638 22.523-20.56 53.53-1.882 124.474 10.862 177.2 29.39 52.959 18.61 75.575 39.565 65.22 51.935z"/><path fill="none" stroke="#053361" stroke-miterlimit="10" stroke-width="3" d="M538.777 480.817c-10.33 12.339-54.831 17.779-116.42 10.044-61.081-7.671-126.61-26.156-160.753-47.934-16.87-10.76 5.86-14.963 12.23-22.875 6.36-7.898-3.696-19.638 22.523-20.56 53.53-1.882 124.474 10.862 177.2 29.39 52.959 18.61 75.575 39.565 65.22 51.935z"/><path fill="none" stroke="#053361" stroke-linecap="round" stroke-linejoin="round" stroke-width="3" d="M288.684 423.658 517.1 470.987"/></g><g style="display:block"><path fill="#053361" d="M366.38 169.5c-3.084.217-6.287.293-9.203-.734-2.475-.872-4.43-2.763-6.644-4.172-4.203-2.675-9.498-3.578-14.35-2.445-4.14.966-8.166 3.108-12.298 2.11-4.298-1.038-7.306-5.337-11.564-6.483-5.02-1.318-9.9 1.902-14.927 2.32-3.447.286-6.858-.887-10.241-1.608-3.383-.72-7.706-1.306-10.947-.098-3.24 1.208-5.76 4.519-5.032 7.9.982 4.559 7.332 6.328 9.534 10.44 2.493 4.657 1.744 10.67 7.665 12.622 4.756 1.568 10.194-.312 14.662 2.464 3.677 2.285 5.146 7.098 8.777 9.455 4.427 2.874 10.28 1.15 15.509 1.871 3.57.493 6.872 2.153 10.384 2.962 6.6 1.522 12.481-2.864 19.038-2.733 1.688.033 3.74.042 5.367-.407 1.814-.5 3.18-1.966 3.913-3.7 1.308-3.09.078-5.831 3.639-7.232 3.196-1.257 9.913-6.59 10.232-6.432.116.057.242.102.388.126 1.859.31 2.737-17.397-13.902-16.226z"/><path fill="none" stroke="#053361" stroke-miterlimit="10" stroke-width="3" d="M366.38 169.5c-3.084.217-6.287.293-9.203-.734-2.475-.872-4.43-2.763-6.644-4.172-4.203-2.675-9.498-3.578-14.35-2.445-4.14.966-8.166 3.108-12.298 2.11-4.298-1.038-7.306-5.337-11.564-6.483-5.02-1.318-9.9 1.902-14.927 2.32-3.447.286-6.858-.887-10.241-1.608-3.383-.72-7.706-1.306-10.947-.098-3.24 1.208-5.76 4.519-5.032 7.9.982 4.559 7.332 6.328 9.534 10.44 2.493 4.657 1.744 10.67 7.665 12.622 4.756 1.568 10.194-.312 14.662 2.464 3.677 2.285 5.146 7.098 8.777 9.455 4.427 2.874 10.28 1.15 15.509 1.871 3.57.493 6.872 2.153 10.384 2.962 6.6 1.522 12.481-2.864 19.038-2.733 1.688.033 3.74.042 5.367-.407 1.814-.5 3.18-1.966 3.913-3.7 1.308-3.09.078-5.831 3.639-7.232 3.196-1.257 9.913-6.59 10.232-6.432.116.057.242.102.388.126 1.859.31 2.737-17.397-13.902-16.226z"/></g><g style="display:block"><path fill="#FFF" d="M311.356 375.609c1.898 6.284 4.584 9.803 7.264 15.788 5.034 11.233 20.64 44.683 22.916 50.4 1.795 4.519-1.537 9.264-5.54 11.883-.87.563-1.81 1.105-2.413 1.964-.604.858-.776 2.1-.098 2.897 4.483-.674 8.752-2.252 12.824-4.15 3.06-1.424 8.359-2.846 8.805-6.593.145-1.358-4.291-8.001-4.741-9.281-9.803-27.858-6.557-36.287-12.343-53.5-2.68-7.968-7.687-11.124-6.08-14.486 2.078-4.342 13.396-19.294 20.715-28.688 2.447-3.155 6.507-9.252 9.818-14.674 3.223-5.256 5.74-9.883 5.462-10.598.935 2.328 2.23 5.719 4.026 9.56 19.542 41.793 31.895 52.968 36.826 66.775 3.169 8.872 1.955 16.47 5.213 25.332 2.667 7.252 25.943 38.896 28.78 42.453.887 1.11 1.74 2.323 1.974 3.725.494 2.98-.952 5.583 1.806 8.009.744.654 1.62 1.094 2.496 1.51 5.708 2.766 12.369 6.902 18.61 8.018 5.325.933 1.454-3.544-.882-5.176-7.107-5.01-12.173-12.741-16.347-20.267-5.037-9.04-23.017-67.796-31.691-89.698-7.943-20.151-12.76-30.82-22.015-50.393-4.992-10.628-10.375-21.08-16.333-31.235-.116.027-.256.03-.372.058-9.658 1.602-15.243.946-24.656-1.636-.086.236-.196.449-.306.686-4.115 9.646-9.413 18.746-14.926 27.688-3.268 5.303-8.724 10.562-11.97 15.865-8.111 13.245-21.358 32.745-16.822 47.764z"/><path fill="none" stroke="#053361" stroke-miterlimit="10" stroke-width="3" d="M311.356 375.609c1.898 6.284 4.584 9.803 7.264 15.788 5.034 11.233 20.64 44.683 22.916 50.4 1.795 4.519-1.537 9.264-5.54 11.883-.87.563-1.81 1.105-2.413 1.964-.604.858-.776 2.1-.098 2.897 4.483-.674 8.752-2.252 12.824-4.15 3.06-1.424 8.359-2.846 8.805-6.593.145-1.358-4.291-8.001-4.741-9.281-9.803-27.858-6.557-36.287-12.343-53.5-2.68-7.968-7.687-11.124-6.08-14.486 2.078-4.342 13.396-19.294 20.715-28.688 2.447-3.155 6.507-9.252 9.818-14.674 3.223-5.256 5.74-9.883 5.462-10.598.935 2.328 2.23 5.719 4.026 9.56 19.542 41.793 31.895 52.968 36.826 66.775 3.169 8.872 1.955 16.47 5.213 25.332 2.667 7.252 25.943 38.896 28.78 42.453.887 1.11 1.74 2.323 1.974 3.725.494 2.98-.952 5.583 1.806 8.009.744.654 1.62 1.094 2.496 1.51 5.708 2.766 12.369 6.902 18.61 8.018 5.325.933 1.454-3.544-.882-5.176-7.107-5.01-12.173-12.741-16.347-20.267-5.037-9.04-23.017-67.796-31.691-89.698-7.943-20.151-12.76-30.82-22.015-50.393-4.992-10.628-10.375-21.08-16.333-31.235-.116.027-.256.03-.372.058-9.658 1.602-15.243.946-24.656-1.636-.086.236-.196.449-.306.686-4.115 9.646-9.413 18.746-14.926 27.688-3.268 5.303-8.724 10.562-11.97 15.865-8.111 13.245-21.358 32.745-16.822 47.764z"/><path fill="#FFF" d="M498.247 262.555c-2.682-1.481-6.655-.94-9.616-.85-3.823.118-7.674.119-11.527.027-5.58-.11-11.19-.45-16.737-1.004-5.29-.538-10.515-.45-15.772-1.431-6.524-1.201-12.756-3.576-18.614-6.664-10.317-5.448-19.975-12.97-28.48-20.946-3.22-3.028-9.696-7.48-16.627-9.788-1.65-.57-5.183-1.22-5.684-1.473-4.232-.802-5.414-10.568-5.746-12.118a.49.49 0 0 1 .534-.587c1.162.102 2.329.033 3.458-.258 4.186-1.08 5.104-5.567 5.867-9.326.803-3.96.112-12.885-.12-13.204-1.29-1.782-2.826-3.696-4.72-4.802-.268-.156-2.421-1.167-3.365-1.797-.254-.17-.585-.054-.714.223a9.74 9.74 0 0 1-3.605 4.117c-2.09 1.319-4.737 2.2-5.07 5.054-.081.693.018 2.39-.825 2.742-.617.257-2.036-.848-2.853-.952-4.971-.635-1.605 6.26.119 7.933l.159.382c-.238 5.153 2.71 16.18.603 18.596-.547.628-2.267.047-2.977.415l-.34.053c-1.396-.226-2.625-.657-3.756-1.32-15.097-7.432-28.582-27.47-30.42-33.782-1.752-5.801-8.26-30.187-10.466-45.944-.989-5.121-2.901-11.343-8.277-10.653-3.092.38-3.33 4.522-1.842 6.404 3.06 3.82 3.32 2.402 5.32 14.605 1.356 15.656.68 24.78 3.802 39.421 2.426 11.4 25.478 37.183 29.02 43.603 4.786 8.73 14.829 46.033 17.29 55.579.13.13.237.234.368.364 8.352 2.07 13.83 2.944 22.423 2.589.816-.025 1.7-.098 2.29-.653.408-.432-1.519-1.022-1.373-1.61.02-.094.04-.164.062-.258 3.253-11.734 6.48-23.534 8.166-35.552.049-.353 2.56-.528 2.86-.338.527.333 1.056.649 1.597.964a501.49 501.49 0 0 0 10.694 6.346c10.07 5.782 20.16 10.7 31.782 12.235a153.277 153.277 0 0 0 44.78-.717c4.156-.688 8.607-1.64 12.773-.461 2.118.589 6.278 1.534 7.355-1.392.493-1.415-.467-3.043-1.796-3.772z"/><path fill="none" stroke="#053361" stroke-miterlimit="10" stroke-width="3" d="M498.247 262.555c-2.682-1.481-6.655-.94-9.616-.85-3.823.118-7.674.119-11.527.027-5.58-.11-11.19-.45-16.737-1.004-5.29-.538-10.515-.45-15.772-1.431-6.524-1.201-12.756-3.576-18.614-6.664-10.317-5.448-19.975-12.97-28.48-20.946-3.22-3.028-9.696-7.48-16.627-9.788-1.65-.57-5.183-1.22-5.684-1.473-4.232-.802-5.414-10.568-5.746-12.118a.49.49 0 0 1 .534-.587c1.162.102 2.329.033 3.458-.258 4.186-1.08 5.104-5.567 5.867-9.326.803-3.96.112-12.885-.12-13.204-1.29-1.782-2.826-3.696-4.72-4.802-.268-.156-2.421-1.167-3.365-1.797-.254-.17-.585-.054-.714.223a9.74 9.74 0 0 1-3.605 4.117c-2.09 1.319-4.737 2.2-5.07 5.054-.081.693.018 2.39-.825 2.742-.617.257-2.036-.848-2.853-.952-4.971-.635-1.605 6.26.119 7.933l.159.382c-.238 5.153 2.71 16.18.603 18.596-.547.628-2.267.047-2.977.415l-.34.053c-1.396-.226-2.625-.657-3.756-1.32-15.097-7.432-28.582-27.47-30.42-33.782-1.752-5.801-8.26-30.187-10.466-45.944-.989-5.121-2.901-11.343-8.277-10.653-3.092.38-3.33 4.522-1.842 6.404 3.06 3.82 3.32 2.402 5.32 14.605 1.356 15.656.68 24.78 3.802 39.421 2.426 11.4 25.478 37.183 29.02 43.603 4.786 8.73 14.829 46.033 17.29 55.579.13.13.237.234.368.364 8.352 2.07 13.83 2.944 22.423 2.589.816-.025 1.7-.098 2.29-.653.408-.432-1.519-1.022-1.373-1.61.02-.094.04-.164.062-.258 3.253-11.734 6.48-23.534 8.166-35.552.049-.353 2.56-.528 2.86-.338.527.333 1.056.649 1.597.964a501.49 501.49 0 0 0 10.694 6.346c10.07 5.782 20.16 10.7 31.782 12.235a153.277 153.277 0 0 0 44.78-.717c4.156-.688 8.607-1.64 12.773-.461 2.118.589 6.278 1.534 7.355-1.392.493-1.415-.467-3.043-1.796-3.772z"/><path fill="#FFC55C" d="M331.418 318.474a174.83 174.83 0 0 1 21.309 13.138c1.002.716 5.229 4.358 6.32 4.93l7.662-10.755a.922.922 0 0 1 1.528.037c1.647 2.576 5.58 8.836 6.898 11.885 8.278-4.768 19.178-10.061 28.445-12.474-3.842-8.18-12.638-25.073-17.027-32.99a21.13 21.13 0 0 1-2.045-15.365c.56-2.243 1.128-4.497 1.542-6.131 1.809-7.22 8.344-21.342 5.256-30.332-.118-.342-8.043-15.015-9.18-17.85-.277-.668-.532-1.36-.856-2.027-.125-.253-.25-.53-.396-.758-1.674-.58-3.996-.724-4.518-.988 0 0 2.046 8.17-8.168 8.269-8.123.078-11.742-10.99-12.293-12.233-1.523-.21-2.843-.66-4.055-1.37.05.886.099 1.725.125 2.587.313 8.694-3.082 17.455-9.097 23.729-.226.24-.43.457-.657.65.583 2.269 1.299 5.07 2.375 8.98.488 2.226.998 4.427 1.509 6.628 1.019 4.309 2.015 8.642 3.057 12.95a989.398 989.398 0 0 0 2.216 9.023 17.279 17.279 0 0 1-1.394 12.136c-3.238 6.272-15.03 22.594-18.556 28.33z"/><path fill="none" stroke="#053361" stroke-linecap="round" stroke-linejoin="round" stroke-width="3" d="M331.418 318.474a174.83 174.83 0 0 1 21.309 13.138c1.002.716 5.229 4.358 6.32 4.93l7.662-10.755a.922.922 0 0 1 1.528.037c1.647 2.576 5.58 8.836 6.898 11.885 8.278-4.768 19.178-10.061 28.445-12.474-3.842-8.18-12.638-25.073-17.027-32.99a21.13 21.13 0 0 1-2.045-15.365c.56-2.243 1.128-4.497 1.542-6.131 1.809-7.22 8.344-21.342 5.256-30.332-.118-.342-8.043-15.015-9.18-17.85-.277-.668-.532-1.36-.856-2.027-.125-.253-.25-.53-.396-.758-1.674-.58-3.996-.724-4.518-.988 0 0 2.046 8.17-8.168 8.269-8.123.078-11.742-10.99-12.293-12.233-1.523-.21-2.843-.66-4.055-1.37.05.886.099 1.725.125 2.587.313 8.694-3.082 17.455-9.097 23.729-.226.24-.43.457-.657.65.583 2.269 1.299 5.07 2.375 8.98.488 2.226.998 4.427 1.509 6.628 1.019 4.309 2.015 8.642 3.057 12.95a989.398 989.398 0 0 0 2.216 9.023 17.279 17.279 0 0 1-1.394 12.136c-3.238 6.272-15.03 22.594-18.556 28.33z"/></g><g clip-path="url(#h)" style="display:block" transform="rotate(6.105 -70.765 1277.335) scale(.59333)"><g mask="url(#i)" style="display:block"><g clip-path="url(#j)" transform="matrix(1.07546 0 0 1.07546 19.454 39.454)"><path fill="#83ffd8" d="M0 0h200v200H0z" style="display:block"/><g filter="url(#k)" style="display:block" transform="rotate(-108.252 22.138 -29.413) scale(2.83908)"><path fill="#339AFF" d="M-44.324-81c23.553 0 42.676 19.123 42.676 42.676S-20.771 4.352-44.324 4.352-87-14.771-87-38.324-67.877-81-44.324-81z"/></g><g filter="url(#l)" style="display:block" transform="rotate(-108.252 26.387 -110.226) scale(2.28736)"><path fill="#A768FF" d="M-44.324-81c23.553 0 42.676 19.123 42.676 42.676S-20.771 4.352-44.324 4.352-87-14.771-87-38.324-67.877-81-44.324-81z"/></g></g></g></g><g clip-path="url(#m)" style="display:block" transform="rotate(-84.508 467.011 87.87) scale(.55847)"><g mask="url(#n)" style="display:block"><g clip-path="url(#o)" transform="rotate(150 335.057 352.24) scale(.90643)"><path fill="#83ffd8" d="M0 0h200v200H0z" style="display:block"/><g filter="url(#p)" style="display:block" transform="rotate(50.748 -113.78 289.36) scale(2.83908)"><path fill="#339AFF" d="M-44.324-81c23.553 0 42.676 19.123 42.676 42.676S-20.771 4.352-44.324 4.352-87-14.771-87-38.324-67.877-81-44.324-81z"/></g><g filter="url(#q)" style="display:block" transform="rotate(50.748 -265.495 309.307) scale(2.28736)"><path fill="#A768FF" d="M-44.324-81c23.553 0 42.676 19.123 42.676 42.676S-20.771 4.352-44.324 4.352-87-14.771-87-38.324-67.877-81-44.324-81z"/></g></g></g></g></g></svg>