<svg xmlns="http://www.w3.org/2000/svg" width="800" height="600" style="width:100%;height:100%;transform:translate3d(0,0,0)"><defs><filter id="d" width="300%" height="300%" x="-100%" y="-100%"><feGaussianBlur/><feGaussianBlur stdDeviation="21.81 21.81"/><feGaussianBlur/><feGaussianBlur stdDeviation="21.81 21.81"/></filter><filter id="e" width="300%" height="300%" x="-100%" y="-100%"><feGaussianBlur/><feGaussianBlur stdDeviation="24.45 24.45"/></filter><filter id="h" width="300%" height="300%" x="-100%" y="-100%"><feGaussianBlur/><feGaussianBlur stdDeviation="21.81 21.81"/><feGaussianBlur/><feGaussianBlur stdDeviation="21.81 21.81"/></filter><filter id="i" width="300%" height="300%" x="-100%" y="-100%"><feGaussianBlur/><feGaussianBlur stdDeviation="24.45 24.45"/></filter><filter id="l" width="300%" height="300%" x="-100%" y="-100%"><feGaussianBlur/><feGaussianBlur stdDeviation="21.81 21.81"/><feGaussianBlur/><feGaussianBlur stdDeviation="21.81 21.81"/></filter><filter id="m" width="300%" height="300%" x="-100%" y="-100%"><feGaussianBlur/><feGaussianBlur stdDeviation="24.45 24.45"/></filter><filter id="p" width="300%" height="300%" x="-100%" y="-100%"><feGaussianBlur/><feGaussianBlur stdDeviation="21.81 21.81"/><feGaussianBlur/><feGaussianBlur stdDeviation="21.81 21.81"/></filter><filter id="q" width="300%" height="300%" x="-100%" y="-100%"><feGaussianBlur/><feGaussianBlur stdDeviation="24.45 24.45"/></filter><filter id="v" width="300%" height="300%" x="-100%" y="-100%"><feGaussianBlur/><feGaussianBlur stdDeviation="21.81 21.81"/><feGaussianBlur/><feGaussianBlur stdDeviation="21.81 21.81"/></filter><filter id="w" width="300%" height="300%" x="-100%" y="-100%"><feGaussianBlur/><feGaussianBlur stdDeviation="24.45 24.45"/></filter><clipPath id="a"><path d="M0 0h800v600H0z"/></clipPath><clipPath id="c"><path d="M0 0h200v200H0z"/></clipPath><clipPath id="g"><path d="M0 0h200v200H0z"/></clipPath><clipPath id="k"><path d="M0 0h200v200H0z"/></clipPath><clipPath id="o"><path d="M0 0h200v200H0z"/></clipPath><clipPath id="s"><path d="M0 0h800v600H0z"/></clipPath><clipPath id="u"><path d="M0 0h200v200H0z"/></clipPath><mask id="b" mask-type="alpha"><g style="display:block"><path fill="#FF8F9C" d="M84.235 157.677c-3.437-18.977-2.309-38.763 4.057-56.936 7.37-21.04 21.83-39.966 41.274-51.162 19.089-10.991 45.174-15.98 63.019.113 11.515 10.385 16.398 27.553 12.071 42.444-5.154 17.737-21.166 29.822-36.499 40.121-23.103 15.517-51.898 32.546-62.032 60.121-4.479 12.159-14.514-9.527-16.061-13.629a120.683 120.683 0 0 1-5.829-21.072zM78.911 247.3c-10.645-1.443-20.935-5.443-29.468-11.941-9.88-7.523-17.42-18.44-20.008-30.667-2.541-12.004-.698-26.682 10.898-33.369 7.483-4.315 17.418-3.949 24.563.904 8.511 5.781 12.161 16.343 14.98 26.238 4.248 14.909 8.318 33.094 21.185 43.205 5.672 4.464-7.544 6.052-9.983 6.166-4.056.19-8.137.01-12.167-.536z"/></g></mask><mask id="f" mask-type="alpha"><path fill="#FF8F9C" d="M88.043-8.494v-1.165l.004.001.001-5.654.012-64.614h-.001v-.053c-.008.002-.286-.019-.787-.063l-5.853-.862A230.444 230.444 0 0 1 0-109.182a230.444 230.444 0 0 1-81.419 28.278l-5.853.862c-.501.044-.779.065-.787.063v.053h-.001l.012 64.614.001 5.654.004-.001.001 33.074s-.45 7.809 3.154 18.171c3.604 10.362 11.262 23.276 27.481 33.488a1315.213 1315.213 0 0 0 47.244 28.374l.336.192.119.068a793.077 793.077 0 0 0 9.676 5.446l.009.028.002-.001v.001l.021-.011.021.011v-.001l.002.001.009-.028c.994-.548 4.734-2.619 10.511-5.923a1316.253 1316.253 0 0 0 46.864-28.157c16.219-10.212 23.877-23.126 27.481-33.488 3.604-10.362 3.154-18.171 3.154-18.171l.001-31.909z" style="display:block" transform="translate(393.861 272.703)"/></mask><mask id="j" mask-type="alpha"><path fill="#FF8F9C" d="M58.568-51.595v103.19a6.973 6.973 0 0 1-6.973 6.973h-103.19a6.973 6.973 0 0 1-6.973-6.973v-103.19a6.973 6.973 0 0 1 6.973-6.973h103.19a6.973 6.973 0 0 1 6.973 6.973z" style="display:block" transform="translate(113.51 343.633)"/></mask><mask id="n" mask-type="alpha"><path fill="#FF8F9C" d="M-82.494-89.466H82.494a6.971 6.971 0 0 1 6.972 6.972V82.494a6.971 6.971 0 0 1-6.972 6.972H-82.494a6.971 6.971 0 0 1-6.972-6.972V-82.494a6.971 6.971 0 0 1 6.972-6.972z" style="display:block" transform="translate(682.098 275.368)"/></mask><mask id="r" mask-type="alpha"><g style="display:block"><path fill="red" d="M745.564 264.099s-33.395 39.745-74.59 39.745-74.59-39.745-74.59-39.745 33.395-39.745 74.59-39.745 74.59 39.745 74.59 39.745z"/><path fill-opacity="0" stroke="#053361" stroke-linecap="round" stroke-miterlimit="10" stroke-width="3" d="M745.564 264.099s-33.395 39.745-74.59 39.745-74.59-39.745-74.59-39.745 33.395-39.745 74.59-39.745 74.59 39.745 74.59 39.745z"/></g></mask><mask id="t" mask-type="alpha"><g style="display:block"><path fill="#FF8F9C" d="M713.15 451.253c1.557 14.187-.297 28.734-5.934 41.821-6.527 15.151-18.178 28.376-33.11 35.637-14.659 7.128-34.172 9.465-46.514-3.336-7.965-8.26-10.683-21.186-6.72-31.956 4.72-12.827 17.164-20.921 29.014-27.733 17.856-10.262 39.991-21.346 48.896-41.179 3.934-8.744 10.222 7.782 11.152 10.89a89.305 89.305 0 0 1 3.216 15.856zM726.966 395.01c7.784 1.614 15.174 5.098 21.137 10.335 6.905 6.064 11.908 14.512 13.187 23.671 1.256 8.993-.862 19.733-9.767 24.07-5.747 2.8-13.062 2.017-18.086-1.935-5.984-4.707-8.134-12.692-9.704-20.142-2.366-11.225-4.432-24.859-13.408-32.987-3.957-3.588 5.881-4.078 7.687-4.037 3.004.07 6.008.413 8.954 1.024z"/></g></mask></defs><g clip-path="url(#a)"><g style="display:block"><path fill="#FFF" d="m453.156 527.49-3.386-51.903H346.007l-3.386 51.903a7.429 7.429 0 0 1-7.413 6.945h-11.445v7.006h148.972v-7.006h-12.167a7.428 7.428 0 0 1-7.412-6.945z"/><path fill="none" stroke="#053361" stroke-linecap="round" stroke-linejoin="round" stroke-width="3" d="m453.156 527.49-3.386-51.903H346.007l-3.386 51.903a7.429 7.429 0 0 1-7.413 6.945h-11.445v7.006h148.972v-7.006h-12.167a7.428 7.428 0 0 1-7.412-6.945z"/></g><path fill="none" stroke="#053361" stroke-linecap="round" stroke-miterlimit="10" stroke-width="3" d="M-48.894 0h97.788" style="display:block" transform="translate(397.566 533.591)"/><g style="display:block"><path fill="#053361" d="M660.008 475.586H135.77c-5.969 0-10.808-4.839-10.808-10.808V136.612c0-5.969 4.839-10.808 10.808-10.808h524.238c5.969 0 10.808 4.839 10.808 10.808v328.166c0 5.969-4.839 10.808-10.808 10.808z"/><path fill="none" stroke="#053361" stroke-miterlimit="10" stroke-width="3" d="M660.008 475.586H135.77c-5.969 0-10.808-4.839-10.808-10.808V136.612c0-5.969 4.839-10.808 10.808-10.808h524.238c5.969 0 10.808 4.839 10.808 10.808v328.166c0 5.969-4.839 10.808-10.808 10.808z"/></g><path fill="none" stroke="#053361" stroke-linecap="round" stroke-miterlimit="10" stroke-width="3" d="M-151.537 0h303.074" style="display:block" transform="translate(397.566 541.863)"/><path fill="none" stroke="#FFF" stroke-miterlimit="10" stroke-width="3" d="M9.851 0c0 5.441-4.41 9.851-9.851 9.851-5.441 0-9.851-4.41-9.851-9.851 0-5.441 4.41-9.851 9.851-9.851 5.441 0 9.851 4.41 9.851 9.851z" style="display:block" transform="translate(397.566 449.448)"/><g mask="url(#b)" style="display:block"><g clip-path="url(#c)" transform="matrix(1.07546 0 0 1.07546 19.454 39.454)"><path fill="#83ffd8" d="M0 0h200v200H0z" style="display:block"/><g filter="url(#d)" style="display:block" transform="rotate(-168.671 -7.856 40.83) scale(2.83908)"><path fill="#339AFF" d="M-44.324-81c23.553 0 42.676 19.123 42.676 42.676S-20.771 4.352-44.324 4.352-87-14.771-87-38.324-67.877-81-44.324-81z"/></g><g filter="url(#e)" style="display:block" transform="rotate(-168.671 -37.977 -17.776) scale(2.28736)"><path fill="#A768FF" d="M-44.324-81c23.553 0 42.676 19.123 42.676 42.676S-20.771 4.352-44.324 4.352-87-14.771-87-38.324-67.877-81-44.324-81z"/></g></g></g><g style="display:block"><path fill="#FFF" d="M670.816 422.812H124.962v-286.2c0-5.969 4.839-10.808 10.808-10.808h524.238c5.969 0 10.808 4.839 10.808 10.808v286.2z"/><path fill="none" stroke="#053361" stroke-miterlimit="10" stroke-width="3" d="M670.816 422.812H124.962v-286.2c0-5.969 4.839-10.808 10.808-10.808h524.238c5.969 0 10.808 4.839 10.808 10.808v286.2z"/></g><g mask="url(#f)" style="display:block"><g clip-path="url(#g)" transform="matrix(1.1 0 0 1.1 290 160)"><path fill="#83ffd8" d="M0 0h200v200H0z" style="display:block"/><g filter="url(#h)" style="display:block" transform="rotate(-168.671 -7.856 40.83) scale(2.83908)"><path fill="#339AFF" d="M-44.324-81c23.553 0 42.676 19.123 42.676 42.676S-20.771 4.352-44.324 4.352-87-14.771-87-38.324-67.877-81-44.324-81z"/></g><g filter="url(#i)" style="display:block" transform="rotate(-168.671 -37.977 -17.776) scale(2.28736)"><path fill="#A768FF" d="M-44.324-81c23.553 0 42.676 19.123 42.676 42.676S-20.771 4.352-44.324 4.352-87-14.771-87-38.324-67.877-81-44.324-81z"/></g></g></g><g style="display:block"><path fill="#FFF" d="M391.04 363.541a1309.362 1309.362 0 0 1-46.795-28.103c-10.571-6.657-17.791-15.375-21.457-25.915-2.489-7.153-2.358-12.659-2.357-12.713l.016-.651-.002-47.702h-.007l-.007-43.078a243.887 243.887 0 0 0 73.429-25.099 243.882 243.882 0 0 0 73.428 25.099l-.014 91.199.025.417c-.004 0 .091 5.463-2.368 12.53-3.666 10.538-10.885 19.258-21.458 25.915a1306.053 1306.053 0 0 1-46.333 27.838c-1.084.62-2.096 1.195-3.027 1.724l-.245-.147-.253.151c-.696-.394-2.575-1.465-2.575-1.465z"/><path fill="none" stroke="#053361" stroke-miterlimit="10" stroke-width="3" d="M391.04 363.541a1309.362 1309.362 0 0 1-46.795-28.103c-10.571-6.657-17.791-15.375-21.457-25.915-2.489-7.153-2.358-12.659-2.357-12.713l.016-.651-.002-47.702h-.007l-.007-43.078a243.887 243.887 0 0 0 73.429-25.099 243.882 243.882 0 0 0 73.428 25.099l-.014 91.199.025.417c-.004 0 .091 5.463-2.368 12.53-3.666 10.538-10.885 19.258-21.458 25.915a1306.053 1306.053 0 0 1-46.333 27.838c-1.084.62-2.096 1.195-3.027 1.724l-.245-.147-.253.151c-.696-.394-2.575-1.465-2.575-1.465z"/></g><g style="display:block"><path fill="#053361" d="M443.038 269.348c0 27.159-22.017 49.175-49.176 49.175-27.159 0-49.176-22.016-49.176-49.175s22.017-49.176 49.176-49.176c27.159 0 49.176 22.017 49.176 49.176z"/><path fill="none" stroke="#053361" stroke-miterlimit="10" stroke-width="3.3000000000000003" d="M443.038 269.348c0 27.159-22.017 49.175-49.176 49.175-27.159 0-49.176-22.016-49.176-49.175s22.017-49.176 49.176-49.176c27.159 0 49.176 22.017 49.176 49.176z"/></g><path fill="none" stroke="#FFF" stroke-linecap="round" stroke-linejoin="round" stroke-width="3" d="m-22.336-.805 15.427 15.427 29.245-29.244" style="display:block" transform="matrix(1 0 0 1 395.25 270.667)"/><g mask="url(#j)" style="display:block"><g clip-path="url(#k)" transform="matrix(.71751 0 0 .71751 44.633 270.057)"><path fill="#83ffd8" d="M0 0h200v200H0z" style="display:block"/><g filter="url(#l)" style="display:block" transform="rotate(-168.671 -7.856 40.83) scale(2.83908)"><path fill="#339AFF" d="M-44.324-81c23.553 0 42.676 19.123 42.676 42.676S-20.771 4.352-44.324 4.352-87-14.771-87-38.324-67.877-81-44.324-81z"/></g><g filter="url(#m)" style="display:block" transform="rotate(-168.671 -37.977 -17.776) scale(2.28736)"><path fill="#A768FF" d="M-44.324-81c23.553 0 42.676 19.123 42.676 42.676S-20.771 4.352-44.324 4.352-87-14.771-87-38.324-67.877-81-44.324-81z"/></g></g></g><g style="display:block"><path fill="#FFF" d="M178.057 389.43H74.867a6.973 6.973 0 0 1-6.973-6.973v-103.19a6.973 6.973 0 0 1 6.973-6.973h103.19a6.973 6.973 0 0 1 6.973 6.973v103.19a6.973 6.973 0 0 1-6.973 6.973z"/><path fill="none" stroke="#053361" stroke-miterlimit="10" stroke-width="3" d="M178.057 389.43H74.867a6.973 6.973 0 0 1-6.973-6.973v-103.19a6.973 6.973 0 0 1 6.973-6.973h103.19a6.973 6.973 0 0 1 6.973 6.973v103.19a6.973 6.973 0 0 1-6.973 6.973z"/></g><g style="display:block"><path fill="none" stroke="#053361" stroke-linecap="round" stroke-linejoin="round" stroke-width="3.0233399999999997" d="M78.9 300.822V283.3h17.523M156.5 283.3h17.524v17.523M174.024 360.902v17.523h-17.523M96.422 378.424H78.9v-17.523"/></g><path fill="none" stroke="#053361" stroke-linecap="round" stroke-linejoin="round" stroke-width="3" d="M15.231 5.673a4.647 4.647 0 0 1-4.639-4.629l-.046-7.97c0-5.768-4.74-10.459-10.568-10.459-5.828 0-10.57 4.687-10.57 10.448v28.961a4.644 4.644 0 0 1-4.639 4.639 4.644 4.644 0 0 1-4.639-4.639V-6.937c0-10.877 8.904-19.726 19.848-19.726 10.943 0 19.846 8.849 19.846 19.726l.046 7.96a4.647 4.647 0 0 1-4.627 4.65h-.012z" style="display:block" transform="translate(126.462 322.069)"/><path fill="#FFC55C" d="M28.769 0c0 15.889-12.88 28.769-28.769 28.769-15.889 0-28.769-12.88-28.769-28.769 0-15.889 12.88-28.769 28.769-28.769 15.889 0 28.769 12.88 28.769 28.769z" style="display:block" transform="translate(126.462 342.841)"/><path fill="#FFF" d="M20.398 8.646C15.623 19.912 2.62 25.173-8.646 20.398-19.912 15.623-25.173 2.62-20.398-8.646-15.623-19.912-2.62-25.173 8.646-20.398 19.912-15.623 25.173-2.62 20.398 8.646z" style="display:block" transform="translate(126.462 342.841)"/><path fill="#053361" d="M5.85-4.637a5.85 5.85 0 1 0-11.7 0c0 1.688.719 3.205 1.863 4.273l-1.72 10.851H5.707L3.987-.364A5.828 5.828 0 0 0 5.85-4.637z" style="display:block" transform="translate(126.462 342.841)"/><g mask="url(#n)" style="display:block"><g clip-path="url(#o)" transform="translate(573.446 172.881)"><path fill="#83ffd8" d="M0 0h200v200H0z" style="display:block"/><g filter="url(#p)" style="display:block" transform="rotate(-168.671 -7.856 40.83) scale(2.83908)"><path fill="#339AFF" d="M-44.324-81c23.553 0 42.676 19.123 42.676 42.676S-20.771 4.352-44.324 4.352-87-14.771-87-38.324-67.877-81-44.324-81z"/></g><g filter="url(#q)" style="display:block" transform="rotate(-168.671 -37.977 -17.776) scale(2.28736)"><path fill="#A768FF" d="M-44.324-81c23.553 0 42.676 19.123 42.676 42.676S-20.771 4.352-44.324 4.352-87-14.771-87-38.324-67.877-81-44.324-81z"/></g></g></g><g style="display:block"><path fill="#FFF" d="M753.468 353.709H588.48a6.971 6.971 0 0 1-6.972-6.972V181.749a6.971 6.971 0 0 1 6.972-6.972h164.988a6.971 6.971 0 0 1 6.972 6.972v164.988a6.971 6.971 0 0 1-6.972 6.972z"/><path fill="none" stroke="#053361" stroke-miterlimit="10" stroke-width="3" d="M753.468 353.709H588.48a6.971 6.971 0 0 1-6.972-6.972V181.749a6.971 6.971 0 0 1 6.972-6.972h164.988a6.971 6.971 0 0 1 6.972 6.972v164.988a6.971 6.971 0 0 1-6.972 6.972z"/></g><g style="display:block"><path fill="none" stroke="#053361" stroke-linecap="round" stroke-linejoin="round" stroke-width="3.0233399999999997" d="M595.804 216.622v-27.694h27.694M718.45 188.928h27.693v27.694M746.143 311.573v27.694H718.45M623.498 339.267h-27.694v-27.694"/></g><g mask="url(#r)" style="display:block"><g clip-path="url(#s)"><path fill="#FFC55C" d="M39.745 0C39.745 21.95 21.95 39.745 0 39.745-21.95 39.745-39.745 21.95-39.745 0c0-21.95 17.795-39.745 39.745-39.745C21.95-39.745 39.745-21.95 39.745 0z" style="display:block" transform="translate(670.974 264.388)"/><g style="display:block"><path fill="#053361" d="M688.77 264.388c0 9.829-7.967 17.796-17.796 17.796s-17.796-7.967-17.796-17.796 7.967-17.796 17.796-17.796 17.796 7.967 17.796 17.796z"/><path fill="none" stroke="#053361" stroke-miterlimit="10" stroke-width="3" d="M688.77 264.388c0 9.829-7.967 17.796-17.796 17.796s-17.796-7.967-17.796-17.796 7.967-17.796 17.796-17.796 17.796 7.967 17.796 17.796z"/></g><path fill="none" stroke="#053361" stroke-miterlimit="10" stroke-width="3" d="M74.59 0S41.195 39.745 0 39.745-74.59 0-74.59 0-41.195-39.745 0-39.745 74.59 0 74.59 0z" style="display:block" transform="translate(670.974 264.099)"/></g></g><path fill="none" stroke="#053361" stroke-linecap="round" stroke-miterlimit="10" stroke-width="3" d="M-74.59 19.872S-41.195-19.872 0-19.872s74.59 39.744 74.59 39.744" style="display:block" transform="translate(670.974 244.227)"/><g mask="url(#t)" style="display:block"><g clip-path="url(#u)" transform="rotate(150 335.057 352.24) scale(.90643)"><path fill="#83ffd8" d="M0 0h200v200H0z" style="display:block"/><g filter="url(#v)" style="display:block" transform="rotate(-168.671 -7.856 40.83) scale(2.83908)"><path fill="#339AFF" d="M-44.324-81c23.553 0 42.676 19.123 42.676 42.676S-20.771 4.352-44.324 4.352-87-14.771-87-38.324-67.877-81-44.324-81z"/></g><g filter="url(#w)" style="display:block" transform="rotate(-168.671 -37.977 -17.776) scale(2.28736)"><path fill="#A768FF" d="M-44.324-81c23.553 0 42.676 19.123 42.676 42.676S-20.771 4.352-44.324 4.352-87-14.771-87-38.324-67.877-81-44.324-81z"/></g></g></g></g></svg>