<svg width="100%" height="100%" viewBox="0 0 21 20" fill="currentColor" xmlns="http://www.w3.org/2000/svg">
<path d="M9.47208 0.927049C9.77143 0.00573826 11.0748 0.0057404 11.3742 0.927051L13.0667 6.13611C13.2006 6.54814 13.5845 6.8271 14.0178 6.8271H19.4949C20.4636 6.8271 20.8664 8.06671 20.0827 8.63611L15.6516 11.8555C15.3011 12.1101 15.1544 12.5615 15.2883 12.9735L16.9809 18.1826C17.2802 19.1039 16.2257 19.87 15.442 19.3006L11.0109 16.0812C10.6604 15.8266 10.1858 15.8266 9.83535 16.0812L5.40425 19.3006C4.62054 19.87 3.56606 19.1039 3.86541 18.1826L5.55794 12.9735C5.69181 12.5615 5.54515 12.1101 5.19467 11.8555L0.763572 8.63611C-0.0201416 8.06671 0.382636 6.8271 1.35136 6.8271H6.82849C7.26172 6.8271 7.64567 6.54814 7.77955 6.13611L9.47208 0.927049Z" fill="currentColor" />
</svg>
