<svg width="100%" height="100%" viewBox="0 0 28 24" fill="none" xmlns="http://www.w3.org/2000/svg">
<path d="M27.7464 3.47143C26.7348 3.91968 25.6481 4.22255 24.5056 4.35945C25.6844 3.65411 26.5663 2.54399 26.9867 1.23623C25.8793 1.89405 24.6672 2.35709 23.4032 2.60521C22.5532 1.69764 21.4273 1.09609 20.2004 0.893951C18.9735 0.691811 17.7141 0.900393 16.6179 1.48731C15.5217 2.07423 14.6499 3.00665 14.1379 4.13981C13.6259 5.27297 13.5023 6.54346 13.7864 7.75404C11.5423 7.64137 9.34702 7.0581 7.34297 6.04209C5.33892 5.02608 3.5709 3.60004 2.15365 1.85651C1.66905 2.69244 1.39041 3.66163 1.39041 4.69382C1.38987 5.62302 1.61869 6.538 2.05658 7.35756C2.49447 8.17712 3.12788 8.87593 3.90061 9.39197C3.00445 9.36346 2.12805 9.12131 1.34437 8.68568V8.75836C1.34428 10.0616 1.79508 11.3248 2.62029 12.3335C3.4455 13.3422 4.59428 14.0343 5.87171 14.2924C5.04036 14.5174 4.16876 14.5506 3.32273 14.3894C3.68315 15.5107 4.3852 16.4913 5.33061 17.1939C6.27603 17.8964 7.41746 18.2857 8.59513 18.3073C6.59597 19.8767 4.12702 20.728 1.58546 20.7242C1.13524 20.7244 0.685413 20.6981 0.238281 20.6455C2.81812 22.3042 5.82124 23.1846 8.88831 23.1811C19.2708 23.1811 24.9466 14.582 24.9466 7.12407C24.9466 6.88177 24.9405 6.63705 24.9296 6.39475C26.0337 5.59635 26.9866 4.60768 27.7439 3.47506L27.7464 3.47143Z" fill="currentColor"/>
</svg>
