<?xml version="1.0" standalone="no"?>
<!DOCTYPE svg PUBLIC "-//W3C//DTD SVG 20010904//EN"
 "http://www.w3.org/TR/2001/REC-SVG-20010904/DTD/svg10.dtd">
<svg version="1.0" xmlns="http://www.w3.org/2000/svg"
 width="512.000000pt" height="512.000000pt" viewBox="0 0 512.000000 512.000000"
 preserveAspectRatio="xMidYMid meet">
<metadata>
Created by potrace 1.14, written by Peter Selinger 2001-2017
</metadata>
<g transform="translate(0.000000,512.000000) scale(0.100000,-0.100000)"
fill="#000000" stroke="none">
<path d="M545 4319 c-284 -49 -493 -292 -493 -573 0 -120 19 -180 131 -426 28
-62 67 -151 144 -325 41 -93 86 -192 98 -220 13 -27 41 -90 63 -140 22 -49 52
-117 67 -150 15 -33 44 -98 65 -145 21 -47 50 -112 65 -145 70 -154 110 -248
146 -340 22 -55 44 -109 49 -120 5 -11 25 -58 44 -105 59 -149 107 -256 173
-393 87 -178 154 -267 259 -343 128 -92 259 -123 422 -101 150 22 293 109 387
237 19 26 71 130 115 231 45 101 89 202 99 224 10 22 53 120 97 218 43 97 81
177 85 177 4 0 11 -10 15 -22 4 -13 22 -55 40 -95 19 -40 34 -75 34 -77 0 -2
18 -44 41 -93 22 -48 46 -101 54 -118 7 -16 23 -52 35 -80 34 -77 61 -136 77
-175 70 -159 87 -187 162 -261 118 -116 251 -171 415 -171 206 0 366 91 502
287 55 79 157 299 290 627 100 246 145 351 479 1098 119 267 222 499 230 515
7 17 30 66 50 110 69 152 79 190 79 310 1 177 -49 302 -169 421 -219 216 -575
223 -801 15 -42 -38 -104 -114 -104 -127 0 -4 -6 -15 -13 -23 -8 -9 -24 -41
-36 -71 -13 -30 -36 -82 -51 -115 -15 -33 -74 -163 -130 -290 -56 -126 -112
-252 -125 -280 -13 -27 -60 -133 -105 -235 -45 -102 -86 -192 -90 -200 -9 -15
-12 -8 -100 185 -10 22 -36 81 -58 130 -22 50 -58 130 -81 178 -23 49 -41 90
-41 92 0 14 -106 220 -131 255 -80 110 -224 205 -351 230 -60 12 -171 14 -223
5 -153 -28 -303 -127 -385 -255 -24 -37 -320 -681 -372 -810 -12 -29 3 -59
-188 370 -65 146 -129 290 -143 320 -14 30 -35 78 -47 105 -12 28 -34 77 -49
110 -15 33 -53 116 -84 184 -59 127 -94 180 -160 242 -122 114 -322 175 -482
148z"/>
</g>
</svg>
