<?xml version="1.0" standalone="no"?>
<!DOCTYPE svg PUBLIC "-//W3C//DTD SVG 20010904//EN"
 "http://www.w3.org/TR/2001/REC-SVG-20010904/DTD/svg10.dtd">
<svg version="1.0" xmlns="http://www.w3.org/2000/svg"
 width="700.000000pt" height="700.000000pt" viewBox="0 0 700.000000 700.000000"
 preserveAspectRatio="xMidYMid meet">
<metadata>
Created by potrace 1.14, written by Peter Selinger 2001-2017
</metadata>
<g transform="translate(0.000000,700.000000) scale(0.100000,-0.100000)"
fill="#000000" stroke="none">
<path d="M4874 6484 c-34 -7 -76 -20 -93 -29 -53 -27 -111 -85 -139 -139 -22
-43 -26 -64 -26 -136 -1 -72 4 -93 26 -140 45 -92 113 -150 205 -174 201 -53
398 103 397 314 -1 29 -24 121 -39 149 -19 38 -96 105 -148 130 -68 33 -115
39 -183 25z"/>
<path d="M3550 6282 c-40 -6 -150 -38 -208 -61 -188 -75 -361 -217 -478 -392
-35 -53 -64 -99 -64 -103 0 -3 -10 -23 -23 -44 -46 -74 -98 -246 -113 -377
-10 -91 -11 -238 -1 -327 8 -77 57 -249 79 -275 21 -26 45 -13 83 45 101 153
371 339 694 477 263 112 415 214 516 345 58 76 77 114 91 188 42 221 -147 474
-386 518 -41 7 -153 11 -190 6z"/>
<path d="M4456 5128 c-254 -24 -503 -106 -781 -257 -33 -18 -67 -39 -75 -45
-8 -7 -51 -35 -95 -61 -106 -64 -194 -139 -341 -288 -146 -148 -210 -219 -291
-326 -28 -36 -279 -450 -371 -611 -11 -19 -42 -73 -70 -120 -43 -73 -118 -201
-197 -340 -94 -162 -118 -198 -128 -194 -7 2 -28 37 -46 77 -19 39 -47 99 -63
132 -16 33 -55 123 -87 200 -32 77 -76 176 -96 220 -98 211 -184 401 -255 570
-78 183 -171 371 -212 430 -43 61 -136 152 -190 186 -68 44 -212 104 -282 119
-108 22 -345 -20 -461 -83 -229 -125 -395 -395 -395 -645 0 -74 37 -227 78
-327 40 -97 223 -498 232 -510 4 -5 42 -91 85 -190 43 -99 95 -218 116 -263
22 -46 39 -86 39 -89 0 -2 9 -23 19 -46 10 -23 81 -181 156 -352 140 -316 260
-582 333 -735 22 -47 79 -179 127 -294 167 -405 242 -526 392 -633 71 -51 217
-118 278 -128 49 -8 219 -7 271 1 214 32 396 163 525 379 70 115 388 672 551
965 91 162 178 318 193 345 15 28 37 67 48 87 39 71 48 61 207 -232 31 -58 86
-157 122 -220 36 -63 76 -135 90 -160 14 -25 35 -63 48 -85 12 -22 35 -63 51
-92 15 -28 69 -125 120 -215 51 -90 103 -183 117 -208 97 -176 172 -289 232
-350 112 -113 268 -198 397 -217 83 -12 221 -5 303 16 95 24 243 98 307 154
45 40 139 180 208 310 46 89 225 478 225 491 0 3 20 47 44 98 24 51 53 116 66
143 12 28 35 77 50 110 15 33 40 90 55 125 27 65 75 175 122 280 66 146 192
432 258 585 40 94 107 241 149 328 42 87 76 160 76 162 0 2 18 43 40 90 22 47
40 89 40 92 0 3 27 66 59 142 63 145 105 264 116 327 7 46 8 188 0 224 -47
241 -172 419 -369 530 -42 23 -130 60 -157 65 -9 2 -33 8 -53 14 -38 10 -250
8 -297 -3 -126 -29 -277 -115 -366 -208 -76 -80 -178 -259 -259 -455 -20 -48
-47 -113 -61 -143 -14 -30 -52 -116 -85 -190 -33 -74 -73 -163 -89 -196 -16
-34 -29 -64 -29 -67 0 -3 -17 -43 -39 -89 -21 -45 -53 -117 -71 -158 -127
-293 -177 -390 -200 -390 -3 0 -26 35 -50 78 -112 200 -228 404 -270 477 -51
88 -170 310 -170 319 0 10 142 181 200 241 59 62 328 318 435 415 118 107 235
228 245 255 45 118 -137 314 -361 389 -133 44 -297 60 -463 44z"/>
<path d="M2020 5071 c-115 -36 -216 -154 -255 -300 -17 -67 -17 -197 2 -268
23 -90 76 -186 148 -271 54 -65 212 -169 239 -159 8 3 13 28 15 64 8 209 41
352 126 538 38 84 49 220 22 272 -21 39 -84 102 -116 115 -33 13 -148 19 -181
9z"/>
</g>
</svg>
