<svg xmlns="http://www.w3.org/2000/svg" width="1280" height="724"><path fill="#f9f9fb" d="M0 95.7h1280V724H0Z"/><text xml:space="preserve" x="573" y="294" fill="#053361" font-family="Montserrat" font-size="28" font-weight="700" letter-spacing="-.3">Waterfox</text><linearGradient id="a" x1="655" x2="667.4" y1="247.7" y2="226.4" gradientUnits="userSpaceOnUse"><stop offset="0" stop-color="#1964e7"/><stop offset="1" stop-color="#6884f2"/></linearGradient><path fill="url(#a)" d="M658 250.6c-.7-.2-1.3-.6-1.8-1.1a60.6 60.6 0 0 1-4.2-8.2c.2 0 .6-.8 1.4-2.7 1.3-3 1.3-3 2.4-2.1a16 16 0 0 0 8.6 3.6c1.2.1 1.5.3 1.5.8l.6-.6c-1.4 3.4-3 6.8-4.8 10-.7.3-3 .5-3.6.3Z"/><linearGradient id="b" x1="612.7" x2="625.1" y1="226.5" y2="247.9" gradientUnits="userSpaceOnUse"><stop offset="0" stop-color="#00cce6"/><stop offset="1" stop-color="#0082e7"/></linearGradient><path fill="url(#b)" d="M618.6 250.5c-.6-.3-.7-.4-1.6-2.5l-1.6-3.7-1-2.2 1 .8c.8 0 2.4-.4 4.3-1l1.7-.6c.6-.1.8-.3.8-.4 0-.2.2-.4.4-.4l1.8-.8c.8-.4 1.6-.6 1.7-.6.1 0 .2 0 .2-.2l.3-.1.8 1.3c.4 1.3.6 1.6.8 1.2.1-.2.2 0 .2.2 0 .6-3.7 7.2-4.5 8-.8.8-1.6 1.1-3.2 1.2-1 0-1.6 0-2-.2Z"/><radialGradient id="c" cx="658.2" cy="244.6" r="18.1" fx="658.2" fy="244.6" gradientUnits="userSpaceOnUse"><stop offset=".2" stop-color="#00cdff"/><stop offset=".5" stop-color="#00bcfa"/><stop offset=".8" stop-color="#00abf8"/><stop offset="1" stop-color="#0098f7"/></radialGradient><path fill="url(#c)" d="m658 250.5-.3-.1c-.4 0-.5 0-.5-.3 0-.4 0-.4-.6-.4-.5 0-.5 0-.5-.7v-.5l.5.5a4 4 0 0 0 2.1 1.2c.7.1.7.5 0 .5-.3 0-.6 0-.6-.2Z"/><radialGradient id="d" cx="658.2" cy="244.6" r="18.1" fx="658.2" fy="244.6" gradientUnits="userSpaceOnUse"><stop offset=".2" stop-color="#00cdff"/><stop offset=".5" stop-color="#00bcfa"/><stop offset=".8" stop-color="#00abf8"/><stop offset="1" stop-color="#0098f7"/></radialGradient><path fill="url(#d)" d="M659 250.3s1 0 1.5-.2l1.2-.6c.6-.4.8-.4.6.2 0 .3-.2.4-.5.4-.2 0-.4 0-.4.2s-.4.4-1 .4c-.4 0-1.4-.2-1.4-.4Zm-18.3-3.3c-.4-.6-.6-1-.8-1-.1.1-.1 0-.1-.3 0-.8 3.4-6.7 5.6-9.9 1.3-1.7 1.6-2 2-2 .4 0 .5 0 .6.3v.7c-1 1.4-2 3-2.8 4.5a112 112 0 0 0-3.2 8.1l.6 2.4c0 .7-1.2-1.7-1.8-2.8Zm14.3.3c0-.6.2-.7.5 0 .3.6.3.6-.1.6s-.4 0-.4-.6Z"/><radialGradient id="e" cx="658.2" cy="244.6" r="18.1" fx="658.2" fy="244.6" gradientUnits="userSpaceOnUse"><stop offset=".2" stop-color="#00cdff"/><stop offset=".5" stop-color="#00bcfa"/><stop offset=".8" stop-color="#00abf8"/><stop offset="1" stop-color="#0098f7"/></radialGradient><path fill="url(#e)" d="M654.2 245.9c0-.6.2-.6.5 0s.8 1.3.4 1.3-1-.8-1-1.3Zm-.8-1.4c0-.4 0-.5-.3-.5s-.5-.3-.5-1c0-.3 0-.5-.3-.5-.2 0-.4-.1-.4-.4v-1l2.3 3.8-.4.2c-.4 0-.4 0-.4-.6Z"/><radialGradient id="f" cx="658.2" cy="244.6" r="18.1" fx="658.2" fy="244.6" gradientUnits="userSpaceOnUse"><stop offset=".2" stop-color="#00cdff"/><stop offset=".5" stop-color="#00bcfa"/><stop offset=".8" stop-color="#00abf8"/><stop offset="1" stop-color="#0098f7"/></radialGradient><path fill="url(#f)" d="m657.5 250.4-.3-.1c-.2 0-.3-.2-.3-.2 0-.2-.2-.3-.3-.3-.4 0-.7-.5-.7-1s.2-.5.5-.1c.5.6 1 1 1.8 1.4.6.1.5.4-.2.4l-.5-.1Zm-16-2.3c-.1-.4-.3-1 0-1l.2-.6c1.4-3.6 2.9-7.1 4.5-10.6l-1.5 2.2-1.3 1.7v-.5c0-.5 0-.6.4-.6.2 0 .4 0 .4-.6l.2-.8c0-.2 0-.4.2-.4.3 0 .6-.4.6-.8 0-.1 0-.2.2-.2l.1-.2c0-.2.2-.3.3-.4.1 0 .2-.1.2-.3l.2-.3c.2 0 .3-.2.3-.2 0-.2.9-1.2 1-1.2.2 0 1 1.6 1.1 2h-.4l-.3.4-1.7 3.4-1.6 3.3c-.1.6-1.2 3.2-1.7 4.5-.6 1.2-.8 1.6-1.1 1.6-.2 0-.2-.3-.3-.5Zm12.8-1.9c0-.6.2-.6.6 0 .3.6.3.6-.2.6-.3 0-.4 0-.4-.6Z"/><radialGradient id="g" cx="658.2" cy="244.6" r="18.1" fx="658.2" fy="244.6" gradientUnits="userSpaceOnUse"><stop offset=".2" stop-color="#00cdff"/><stop offset=".5" stop-color="#00bcfa"/><stop offset=".8" stop-color="#00abf8"/><stop offset="1" stop-color="#0098f7"/></radialGradient><path fill="url(#g)" d="M653.5 244.9c0-.8.3-.8.6-.1.6 1.1.5.8-.2.6-.3-.1-.4 0-.4-.5Z"/><linearGradient id="h" x1="612.7" x2="625.1" y1="226.5" y2="247.9" gradientUnits="userSpaceOnUse"><stop offset="0" stop-color="#00cce6"/><stop offset="1" stop-color="#0082e7"/></linearGradient><path fill="url(#h)" d="M615.2 243.6c-.4-.6-.8-1.3-1-2l-1-2.2 1 .6c2-.3 10-4 10-4.8 0-.1.5-.8.6-.7l1.2 2.5c1 2.3 1.1 2.8.6 2.7-.5 0-1 .2-1.6.4l-1.8.8-.6.3.8-.1c.8 0 .5 0-1 .6l-2.2.7c-1.7.5-3.3.9-5 1.2Z"/><linearGradient id="i" x1="612.7" x2="625.1" y1="226.5" y2="247.9" gradientUnits="userSpaceOnUse"><stop offset="0" stop-color="#00cce6"/><stop offset="1" stop-color="#0082e7"/></linearGradient><path fill="url(#i)" d="M614 240.8v-.3c-.3 0-.6-.8-1.4-2.5 0 0 .7 0 1.4-.3 2.6-1 5-2.2 7.1-3.9 1.3-1 1.6-1.3 1.6-1.6l.3-.2.2-.1s0-.2.2-.2a13.6 13.6 0 0 1 1.7 4c-.3-.3-.5-.3-.5 0 0 .6-6.1 3.6-9.4 4.7l-1 .5c0 .1-.1 0-.1 0Z"/><linearGradient id="j" x1="627.4" x2="640" y1="233.3" y2="255" gradientUnits="userSpaceOnUse"><stop offset="0" stop-color="#0cf4ff"/><stop offset=".3" stop-color="#04eefe"/><stop offset="1" stop-color="#00b1f7"/></linearGradient><path fill="url(#j)" d="m622 250 .6-.3 1-.8.6-.6v.6c0 .4-.4 1-.8 1-.1 0-.2 0-.2.2 0 .1-.2.2-.6.2-.3 0-.5 0-.5-.2Z"/><linearGradient id="k" x1="612.7" x2="625.1" y1="226.5" y2="247.9" gradientUnits="userSpaceOnUse"><stop offset="0" stop-color="#00cce6"/><stop offset="1" stop-color="#0082e7"/></linearGradient><path fill="url(#k)" d="m612.2 237.3-.6-1.4.5-.2a18.7 18.7 0 0 0 9.9-7.2l.3.4 1.5 3.2.4 1c0 .2-.3 0-.4 0l-.1-.4s-.1-.2-.3-.2c-.1 0-.2.1-.2.3 0 .2-.3.5-1.6 1.6-2 1.4-4.6 3-6.6 3.6l-1.3.5-.7.2-.8-1.4Z"/><radialGradient id="l" cx="658.2" cy="244.6" r="18.1" fx="658.2" fy="244.6" gradientUnits="userSpaceOnUse"><stop offset=".2" stop-color="#00cdff"/><stop offset=".5" stop-color="#00bcfa"/><stop offset=".8" stop-color="#00abf8"/><stop offset="1" stop-color="#0098f7"/></radialGradient><path fill="url(#l)" d="M651.3 261.7a6.8 6.8 0 0 1-4.2-3.3c-.9-1.5-1-1.5-.3-1.5l1.5-.5c1.1-.6 2.4-.8 3.7-.5 1.3.8 2.4 1.8 3.3 2.9l.7.9h.8l2.6-3.5c.2-.3-.8 2-2.2 3.9a6.7 6.7 0 0 1-6 1.6Zm6.7-11.3c0-.3 0-.3.7-.2.6.2.4.5-.2.5-.4 0-.5 0-.5-.3Z"/><radialGradient id="m" cx="658.2" cy="244.6" r="18.1" fx="658.2" fy="244.6" gradientUnits="userSpaceOnUse"><stop offset=".2" stop-color="#00cdff"/><stop offset=".5" stop-color="#00bcfa"/><stop offset=".8" stop-color="#00abf8"/><stop offset="1" stop-color="#0098f7"/></radialGradient><path fill="url(#m)" d="M641.8 249c-.4-.8-.4-.9-.2-1.2a32 32 0 0 0 2.6-5.7c1-2.6 2.3-5 3.6-7.4-.1 0-.2 0-.2-.2 0-.5.4-.3.9.5s.5 1.5.2 1.5a55.8 55.8 0 0 0-5.1 11c-.5 1.1 3.2 10.5 3.2 10.6Zm14.6.4v-.4l.5.3c.6.5.7.7 0 .7-.5 0-.5 0-.5-.6Zm5.2.2.7-.5.6-.6-.3.7c-.2.4-.4.6-.6.6l-.4-.2Zm-6.4-2c0-.7 0-.7.6 0l.3.7h-.5c-.4 0-.5 0-.5-.6Zm-2.2-4c0-.6 0-.6.5 0l.3.8-.4-.1c-.4 0-.4 0-.4-.6Zm-.8-1.3c0-.6.1-.6.5 0l.4.8-.5-.2c-.4 0-.4 0-.4-.6Z"/><linearGradient id="n" x1="612.7" x2="625.1" y1="226.5" y2="247.9" gradientUnits="userSpaceOnUse"><stop offset="0" stop-color="#00cce6"/><stop offset="1" stop-color="#0082e7"/></linearGradient><path fill="url(#n)" d="m625.2 236-.2-.5.4.4c.2.6.1.6-.2 0Z"/><path fill="#00b0e7" d="M622 259.1v-.6c0-.4 0-.4.5-.4s.5 0 .5.6c0 .5 0 .6-.4.6-.3 0-.5-.1-.5-.2Z"/><linearGradient id="o" x1="612.7" x2="625.1" y1="226.5" y2="247.9" gradientUnits="userSpaceOnUse"><stop offset="0" stop-color="#00cce6"/><stop offset="1" stop-color="#0082e7"/></linearGradient><path fill="url(#o)" d="M612 236.5v-.2c-.2 0-1.4-2.6-1.4-2.6l3.6-1.6 1.2-.8c1.7-1.2 3.2-2.8 4.3-4.6.1-1 .3-1 1-.2.8.8 1.3 1.7 1.6 2.7.1.4 0 .5 0 .4-.2-.1-.4 0-.4.1-2 2.7-4.6 4.8-7.7 6-.8.3-1.4.6-1.4.8 0 .1 0 .1-.2 0 0-.2-.1-.3-.2-.1-.2.1-.6.2-.5 0Z"/><linearGradient id="p" x1="627.4" x2="640" y1="233.3" y2="255" gradientUnits="userSpaceOnUse"><stop offset="0" stop-color="#0cf4ff"/><stop offset=".3" stop-color="#04eefe"/><stop offset="1" stop-color="#00b1f7"/></linearGradient><path fill="url(#p)" d="M625.8 261.7c-.8-.2-2.1-.8-2.1-1 0 0 .2-.2.5-.2l.6.1h1.5c1 0 1.6.1 2 .3l.7.2c.3 0 .2.4 0 .6-.5.1-2.5.2-3.2 0Z"/><radialGradient id="q" cx="658.2" cy="244.6" r="18.1" fx="658.2" fy="244.6" gradientUnits="userSpaceOnUse"><stop offset=".2" stop-color="#00cdff"/><stop offset=".5" stop-color="#00bcfa"/><stop offset=".8" stop-color="#00abf8"/><stop offset="1" stop-color="#0098f7"/></radialGradient><path fill="url(#q)" d="M656.4 260.5c0-.3-.2-.3-.4-.3-.2.1-.5 0-1.2-.9a12 12 0 0 0-3.2-2.8c-.2-.2-.8-.3-1.1-.2-.8 0-2.5.8-3 1.3-.3.3-.7.4-.6.1l-.2-.1-2-3.5-.6-1h.5c.3 0 .4 0 .4.2 0 .3.3.4.4.1l1.4-1.2c1.3-1 1.3-1 1.3-1.6 0-.6 0-.6.5-.6.4 0 .5 0 1.3 1.3.5.8 1.4 1.8 2 2.4 1.2 1.2 2.1 1.6 3.5 1.3l1 .1s0 .2.2.2l1 .6c.3.4.8.6 1 .6l.6.1c-.2.5-1.3 2.6-2 3.4-.8 1-.8.8-.8.4Zm-13.7-10c-.5-1-.7-1.6-.4-1.8 1-1.6 1.8-3.4 2.3-5.2 0-.5.5-1.6.8-2.3l.7-1.5c-.1 0 0 0 0 0 .1 0 .2 0 .2-.2s1.6-3.8 2-4.2c.3-.3.3 0 .8.8s.5.8.3 1.2a77 77 0 0 0-2.6 4.8c-.7 1.3-.8 1.8-.8 2.4 0 .8-.3 2-1.1 3.7a8 8 0 0 0-.7 1.7c0 .2-.1.5-.4.7l-.1.6c0 .6-.4.4-1-.7Zm17.3 0c0-.3.2-.4.5-.4l.5-.2h.3l.1-.2.2-.1.4-.3c.2-.3.2-.3.2.2 0 .4-.1.6-.3.6l-.3.3-.9.2c-.6 0-.8 0-.7-.2Zm-4.2-1.4c0-.2-.1-.3-.3-.4-.2-.3-.3-1.4 0-1.4l1 1.5.2.5h-.5l-.4-.2Zm-1.3-2.6c0-.7.1-.7.6 0l.3.6h-.4c-.4 0-.5 0-.5-.6Zm-.8-1.4c0-.5 0-.6-.3-.6s-.3-.1-.3-.5v-.6c.3 0 .8.7.8.8l.3.8.5.8-.5-.1c-.4 0-.5-.1-.5-.6Zm-1.3-2.5c0-.6 0-.6.5-.1.4.4.4.8-.1.8-.4 0-.4-.2-.4-.7Z"/><radialGradient id="r" cx="658.2" cy="244.6" r="18.1" fx="658.2" fy="244.6" gradientUnits="userSpaceOnUse"><stop offset=".2" stop-color="#00cdff"/><stop offset=".5" stop-color="#00bcfa"/><stop offset=".8" stop-color="#00abf8"/><stop offset="1" stop-color="#0098f7"/></radialGradient><path fill="url(#r)" d="m655.6 248.8-.2-.8c0-.3 0-.4-.3-.4-.2 0-.3-.1-.3-.6s0-.5.2-.4l.5.8.3.7s.3 0 .2.1v.2c.2 0 .2.1.2.3.1.2 0 .3-.2.3l-.5-.2Zm-1.6-3.2c0-.6 0-.6.3-.3l.4.6c.1.2 0 .2-.3.2s-.4 0-.4-.5Zm-.8-1.5c0-.5 0-.5.3-.2l.4.6c.1.2 0 .3-.3.3s-.3-.1-.3-.7Zm-.8-1.2c0-.6 0-.6.3-.4l.4.7c.1.1 0 .2-.2.2-.4 0-.4 0-.4-.5Zm-.8-1.4c0-.4-.2-1 .3-.3l.4.5c0 .3 0 .3-.2.3-.3 0-.4 0-.4-.5Z"/><linearGradient id="s" x1="655" x2="667.4" y1="247.7" y2="226.4" gradientUnits="userSpaceOnUse"><stop offset="0" stop-color="#1964e7"/><stop offset="1" stop-color="#6884f2"/></linearGradient><path fill="url(#s)" d="M665.3 241.7v-.4c.1-.4-.3-.6-1.5-.7a16 16 0 0 1-8.4-3.7l-.6-.4-.5.8-.5.7 3.8-8c.2 0 .8.5 1.3 1.1 1.2 1.4 2.8 2.4 4.5 3 1.2.4 2.4.5 3.6.4h2.2l-.3.6c-.9 2.3-2 4.5-3 6.7-.4.3-.5.3-.5 0Z"/><linearGradient id="t" x1="612.7" x2="625.1" y1="226.5" y2="247.9" gradientUnits="userSpaceOnUse"><stop offset="0" stop-color="#00cce6"/><stop offset="1" stop-color="#0082e7"/></linearGradient><path fill="url(#t)" d="M611.2 234.2s-.2-.1-.2 0c-.2 0-.6-1-.8-2-.3-1.1-.3-1.3.2-1.3s2-.6 2-.8l.7-.8c1-.6 1.9-1.4 2.7-2.4.4-.4.5-.8.6-1.5v-.8c.5 0 1.7.2 1.5.3-.5-.3.8.2 1.6.7l.8.5c.3.3.2.4 0 .8-.1 0-.2.2-.1.3.1.1-1.3 1.9-2.4 3-2 1.7-2.4 2.2-2.4 2 .2-.3-.3 0-.6.3l-.6.4c-2.3 1-2.8 1-2.8 1.3 0 .2 0 .2-.2 0Z"/><linearGradient id="u" x1="627.4" x2="640" y1="233.3" y2="255" gradientUnits="userSpaceOnUse"><stop offset="0" stop-color="#0cf4ff"/><stop offset=".3" stop-color="#04eefe"/><stop offset="1" stop-color="#00b1f7"/></linearGradient><path fill="url(#u)" d="M628.5 261.6c-.2 0-.3 0-.5-.2s-2-.3-2.6-.1c-.8.2-2.5-1-3.5-2.4l-.3-.8.6-.3 1.3-1c.4-.3.8-.6 1-.6l.1-.2c0-.2.2-.3.7-.3 1.6 0 3.5-1.5 5.2-4 .8-1.3.8-1.4 1.3-1.4.3 0 .5 0 .6.2 0 .3 0 4-.2 5.9-.3 1.7-.1 2 .4 2 .4 0 .4 0-.1.7-1 1.5-3 2.7-4 2.5Z"/><radialGradient id="v" cx="658.2" cy="244.6" r="18.1" fx="658.2" fy="244.6" gradientUnits="userSpaceOnUse"><stop offset=".2" stop-color="#00cdff"/><stop offset=".5" stop-color="#00bcfa"/><stop offset=".8" stop-color="#00abf8"/><stop offset="1" stop-color="#0098f7"/></radialGradient><path fill="url(#v)" d="M658.6 257.3c0-.2 0-.3-.3-.1-.2 0-.5 0-1.1-.7a4 4 0 0 0-1-.8h-.3l-1-.1c-1.1 0-2.2-.3-3-1l-.6-.5h.5c1.8.3 3.7.1 5.4-.5l2.4-.5 1.3-.3-.3.8c-1.4 3.2-2 4.3-2 3.7Zm-13.6-3h-.2s0-.2-.2-.3l-.1-.3c.1 0 .1 0 0-.1-.6-.8-1-1.8-1.4-2.7 0-.4 0-.6.3-.8l.4-.7.6-1.6c.8-1.8 1.1-2.8 1-3.6 0-.5 0-.9.7-2.1 1.1-2.4 2.8-5.9 3-5.9.3.4.6.8.7 1.2.4.8.8 1.1.6 1.5-1 1.3-2 2.7-2.8 4.1-.4.8-.6 1.6-.8 2.6l1.2 2.2 2.4 4.2.4.5c.2 0 .2.4.2.7 0 .5 0 .5-.3.3l-1.1-1.6c-.8-1.2-.8-1.2-.9-.8 0 .4-.4.8-1.4 1.6l-1.7 1.4c-.4.4-.4.4-.7.3Zm13.3-3.5c-.4 0-.5-.2-.5-.5s0-.3.4-.2l1.3.2 1.4-.2c.3-.1.4-.1.4.2 0 .3-.1.4-.8.5h-2.2Zm-1.7-1.1c0-.5 0-.5-.5-.5s-.5 0-.5-.6c0-.7.2-.7.6 0 .3.3.5.7 1 .9.6.5.6.6 0 .6s-.6 0-.6-.4Z"/><path fill="#00b2f7" d="M623.8 248.8c0-.3.6-1 .7-1l.1.5c0 .5 0 .6-.4.6l-.4-.1Z"/><radialGradient id="w" cx="658.2" cy="244.6" r="18.1" fx="658.2" fy="244.6" gradientUnits="userSpaceOnUse"><stop offset=".2" stop-color="#00cdff"/><stop offset=".5" stop-color="#00bcfa"/><stop offset=".8" stop-color="#00abf8"/><stop offset="1" stop-color="#0098f7"/></radialGradient><path fill="url(#w)" d="m654.8 247.5-.2-.7c0-.3 0-.5-.2-.5-.4 0-.6-.2-.6-1 0-.3 0-.4-.3-.4-.2 0-.2-.1-.2-.5v-.6c.2 0 2.3 3.6 2.3 3.9 0 .2-.8 0-.8-.2Zm-2.4-4.6c0-.7.2-.8.6-.1.4.5.4.6-.1.6-.4 0-.4 0-.4-.5Zm-.8-1.5v-.5l.5.4c.5.5.5.8 0 .8-.4 0-.4-.1-.4-.7Z"/><linearGradient id="x" x1="612.7" x2="625.1" y1="226.5" y2="247.9" gradientUnits="userSpaceOnUse"><stop offset="0" stop-color="#00cce6"/><stop offset="1" stop-color="#0082e7"/></linearGradient><path fill="url(#x)" d="M622.2 229.7c-.3-.4-.3-.5 0-.5l.3.3c0 .5 0 .5-.3.2Z"/><path fill="#00c8e6" d="M623.8 248.6c.5-.7.7-.7.7 0 0 .5 0 .6-.5.6h-.5Zm3.3-5.5c0-.2.6-1 .7-1l.1.5c0 .5 0 .6-.4.6h-.4Z"/><linearGradient id="y" x1="612.7" x2="625.1" y1="226.5" y2="247.9" gradientUnits="userSpaceOnUse"><stop offset="0" stop-color="#00cce6"/><stop offset="1" stop-color="#0082e7"/></linearGradient><path fill="url(#y)" d="M610 231.2c0-2.4 1.4-4.7 3.5-5.8 1-.5 3.5-1 3.5-.7 0 .2.2.4.3.3.4-.1.3.1-.1.6-.2.3-.4.6-.3.7.1.4-2 2.6-3.2 3.4l-.8.8c0 .2-2.3 1.2-2.4 1 0 0 0 .2-.2.3-.2.2-.3-.1-.3-.6Z"/><linearGradient id="z" x1="627.4" x2="640" y1="233.3" y2="255" gradientUnits="userSpaceOnUse"><stop offset="0" stop-color="#0cf4ff"/><stop offset=".3" stop-color="#04eefe"/><stop offset="1" stop-color="#00b1f7"/></linearGradient><path fill="url(#z)" d="M631.7 258.6a48.2 48.2 0 0 0 .1-7.6c-.1 0-.6.7-1 1.5-1.6 2.4-3.4 3.7-5 3.7-.6 0-.7 0-.6.3 0 .1 0 .2-.2.2-.1 0-.6.2-1 .6l-1.2.8c-.3.2-.5.4-.4.5 0 .2 0 .2-.3 0-.3-.1-.7-.6-1.2-1.9l-2-4.8c2.9.5 6.5.2 6.5.2 1.2-.1.3-1 1.5-.6 1.3.5-.3 1.6.8.8.3-.2.8-.2 1-.2.1-.1.3.3.3.2 0 0 .6.4.8.3.4-.4.6-1 3.2-5.3a108 108 0 0 1 3.8-6.6c1.4-2.2 1.4-2.3 2-2.3.4 0 .5 0 .5.5l-.4 1.2c-.3.3-.4.8-.4 1l-.4 1.1a46.8 46.8 0 0 0-3.4 12v1.2l-1.2 1.9c-.8 1.4-1 1.7-1.3 1.7a.6.6 0 0 1-.6-.4Z"/><radialGradient id="A" cx="658.2" cy="244.6" r="18.1" fx="658.2" fy="244.6" gradientUnits="userSpaceOnUse"><stop offset=".2" stop-color="#00cdff"/><stop offset=".5" stop-color="#00bcfa"/><stop offset=".8" stop-color="#00abf8"/><stop offset="1" stop-color="#0098f7"/></radialGradient><path fill="url(#A)" d="M651.8 254.5a19 19 0 0 1-3.5-4.8c-1.6-2.8-2-3.6-2-4.2 0-1 .4-2 .8-3 .7-1.2 2.4-4.4 2.7-4.5.2-.3.3-.2 1 1 .2.6.6 1 .5 1.1-1 1.3-2 2.8-2.5 4.4l-.8 2c0 1 0 1 .3 1.9l.7 1 .1.5c0 .2.9.5 1.5.5l.1.1 1.4-.1 3-.4c1.2 0 1.5-.2 1.5-.3.1-.3.2-.1 1 .1 1.4.5 3.4.6 4.6-.5.5-.4.5-.4-.8 2.4-.8 2-1.2 2.5-1.2 2 0-.2-1.2 0-2.6.4a9.6 9.6 0 0 1-4.3.7l-.3.1c-.4 0-.8-.1-1.2-.4Z"/><radialGradient id="B" cx="658.2" cy="244.6" r="18.1" fx="658.2" fy="244.6" gradientUnits="userSpaceOnUse"><stop offset=".2" stop-color="#00cdff"/><stop offset=".5" stop-color="#00bcfa"/><stop offset=".8" stop-color="#00abf8"/><stop offset="1" stop-color="#0098f7"/></radialGradient><path fill="url(#B)" d="m655.3 248.5-.3-1c0-.4 0-.6-.4-.6-.3 0-.4-.3-.4-1 0-.2 0-.3-.3-.3-.4 0-.5-.3-.5-1 0-.4 0-.5-.3-.5s-.5-.3-.5-1c0-.2 0-.4-.3-.4-.1 0-.3 0-.4-.2v-1.2l2.3 3.9c2.1 3.7 2.1 3.8 1.7 3.8-.3 0-.5-.1-.6-.5Z"/><path fill="#00bff9" d="M627.4 242.8c.4-1.2.7-1.3.7-.5 0 .5 0 .6-.4.6-.3 0-.4 0-.3-.1Z"/><radialGradient id="C" cx="658.2" cy="244.6" r="18.1" fx="658.2" fy="244.6" gradientUnits="userSpaceOnUse"><stop offset=".2" stop-color="#00cdff"/><stop offset=".5" stop-color="#00bcfa"/><stop offset=".8" stop-color="#00abf8"/><stop offset="1" stop-color="#0098f7"/></radialGradient><path fill="url(#C)" d="m648.9 250.5-1.3-2.2c-.6-1-.6-1-.2-1.3.1-.2.2-.4.1-.5.2-1 .4-1.9.9-2.8.5-1.6 1.3-3.1 2.2-4.5.1-.1.4.2.6.6 4.6 8.3 5.3 9.6 6.4 10.2.3.1.6.2.4.3v.2c-2.2-.2-4.5 0-6.6.7-.8.1-1 .1-1-.1l-.4-.2h-.3c-.3-.2-.3-.2-.2 0 .2.2.3 1 .2 1l-.8-1.4Z"/><linearGradient id="D" x1="627.4" x2="640" y1="233.3" y2="255" gradientUnits="userSpaceOnUse"><stop offset="0" stop-color="#0cf4ff"/><stop offset=".3" stop-color="#04eefe"/><stop offset="1" stop-color="#00b1f7"/></linearGradient><path fill="url(#D)" d="M619.3 250.8c-.4 0-.5-.2-.5-.5s0-.3.5-.2c.2 0 1 .2 1.6.1a3 3 0 0 0 1.8-.5l.8-.5v.5c0 .3 0 .4-.2.4-.1 0-.3 0-.3.2 0 .4-2.4.7-3.7.5Z"/><radialGradient id="E" cx="658.2" cy="244.6" r="18.1" fx="658.2" fy="244.6" gradientUnits="userSpaceOnUse"><stop offset=".2" stop-color="#00cdff"/><stop offset=".5" stop-color="#00bcfa"/><stop offset=".8" stop-color="#00abf8"/><stop offset="1" stop-color="#0098f7"/></radialGradient><path fill="url(#E)" d="M658.6 250.6c.1 0 .1-.2 0-.2h.5l.3.1c0 .2-.3.2-.5.2h-.3Z"/><linearGradient id="F" x1="655" x2="667.4" y1="247.7" y2="226.4" gradientUnits="userSpaceOnUse"><stop offset="0" stop-color="#1964e7"/><stop offset="1" stop-color="#6884f2"/></linearGradient><path fill="url(#F)" d="M668.4 235.3c.2-.3-.3-.4-2.2-.4a9 9 0 0 1-3.3-.4c-1.8-.6-3.3-1.7-4.6-3l-1-1-.3.4-.4.8.3-.8c.5-1.5 1.6-3.5 2.2-4.2a6.4 6.4 0 0 1 5.6-2c3.4.6 5.8 3.8 5.2 7.3-.1 1.1-.9 2.9-1.1 2.9 0 0-.2 0 0 .2 0 0 0 .2-.2.3h-.2Z"/><linearGradient id="G" x1="627.4" x2="640" y1="233.3" y2="255" gradientUnits="userSpaceOnUse"><stop offset="0" stop-color="#0cf4ff"/><stop offset=".3" stop-color="#04eefe"/><stop offset="1" stop-color="#00b1f7"/></linearGradient><path fill="url(#G)" d="m627.8 253.4-3.3-.2c-1.6 0-3.2-.2-4.8-.4-.2 0-.3-.2-.4-.3l.1.8-1.8-4 .8.4a4 4 0 0 0 3.3.5c1.4-.4 2-1.1 4.3-5.1 2.3-4 2.6-4.5 2.6-3.6 0 .6-.2.9-.5.9s-.3.1-.3.5 0 .6-.3.6l-.2.3c0 .5-.2.8-.4.8l-.3.3c0 .4-.1.8-.4.8 0 0-.2.1-.2.3 0 .5-.2.8-.4.8 0 0-.2.1-.2.4 0 .3 0 .4 1.4.5.8 0 2 .1 2.9.3l2 .1c.6 0 .7-.2 1.7-1.7.3-.8.7-1.5 1.2-2.3l.3-.3.1-.2c0-.1 0-.3.2-.4l.3-.6.3-.4.1-.1.3-.5.3-.6.2-.3.2-.2.1-.3c.1 0 .2 0 .2-.2l.2-.5.5-.8.6-.8.3-.6.2-.1.1-.3s0-.2.2-.2l.1-.2c0-.1 0-.2.2-.2l.2-.2v-.3c.2 0 .2-.1.2-.2 0-.2.2-.3.2-.3.2-.1.3-.3.3-.4l.1-.2c.1 0 .2 0 .2-.2l.2-.4c.2 0 .3-.2.3-.3l.1-.2c.1 0 .2-.1.2-.3l.3-.4.5-.6c.5-.9 1.1-1.4 1.8-1.4.4 0 .5 0 .7.4.3.7 1 1 1.7.8l1.2-.2c.7 0 .8 0 .8.4-2.7 3.4-5 7-7 10.8-4 7.3-7.2 13.1-7.5 13.1 0 0-1.2-3.8-1.1-4 0-.2 1-1.3 1-1.6 0-.2-1.5.7-1.3.3a57 57 0 0 0 5-10.5c.7-1.3 4.2-2.3 4.2-2.4l.2-.2.1-.3c0-.2 0-.3.2-.3.6-.8 1-1.6 1.3-2.6l.1-.2v-.3l.1-.4c.2 0 .3-.1.3-.3 0-.5 1 .3 1.3.4.3.1.2 5.5-.6.2 0-.3-.9.8-1 .6 0-.2 1.7 0 .9 1-2.4 3-6.8 4-11 11.4-3.2 5.6-3.8 6.3-4.1 6.2h-.3c0 .1-.1.1-.2 0 0 0-.2 0-.2.2s-.2.2-1.2 0Z"/><linearGradient id="H" x1="627.4" x2="627.4" y1="223.1" y2="230.5" gradientUnits="userSpaceOnUse"><stop offset="0" stop-color="#40fafd"/><stop offset="1" stop-color="#00e0ff"/></linearGradient><path fill="url(#H)" d="M627.8 230.9a5.1 5.1 0 0 1-2.6-3.2l1.8.4h1.8v.8l-.2 1.6-.1.8-.8-.4Z"/><linearGradient id="I" x1="627.4" x2="640" y1="233.3" y2="255" gradientUnits="userSpaceOnUse"><stop offset="0" stop-color="#0cf4ff"/><stop offset=".3" stop-color="#04eefe"/><stop offset="1" stop-color="#00b1f7"/></linearGradient><path fill="url(#I)" d="m623.4 249.3 2.5-4 8.5-14.4c.9-1.4 4-4.4 5-5.2l1.2-.8-.4.8c0 .4-.3 1-.5 1.4-.7 1.1-1 2.4-1 3.6.2.8.7 1.6 1.2 2 .4.2.5.2 1.5-.2 1.2-.7 1.5-.8 1.7-1.2.2-.2.4-.3.8-.3.5 0 .5 0 .5.5v.2l-.2-.2c-.7 0-4.8 6-9 13-2.6 4.4-3.2 5.3-3 4.8.2-.5 0-.8-.3-.5-.1.1-.5 0-1.6 0-1.6-.3-3.2-.6-4.8-.7-.3 0-.6.2-1 .7l-.8.7-.5.2c-.2.1-.2.1.2-.4Zm17.8-5.8.4-.6-.2.6-.4.6.2-.6Zm.8-1.4.4-.7-.2.7-.4.6.2-.6Zm.6-1.2c1.1-2 2.3-3.8 3.6-5.6l.7-1.2c0-.1 0-.2.1-.1.2 0 .3-.2.2-.7 0-.1 0-.2.2-.2s.6-.4.4-.5c-.1-.1-.4-.1-.2 0 0 .2 0 .2-.4 0-.4 0-.5 0-.4.2 0 0 0 .1-.2 0-.4 0-.4-.5 0-.5.1 0 .3 0 .3-.2l.1-.1c.4 0 .8-.3 1.2-.4l2.4-1.2c.2-.3 2.2-2.2-1.3 1.6l-1.8 2c-.5.6 0-.2 0-.1l-1 1.4a52.8 52.8 0 0 0-3.9 5.6Z"/><linearGradient id="J" x1="627.4" x2="627.4" y1="223.1" y2="230.5" gradientUnits="userSpaceOnUse"><stop offset="0" stop-color="#40fafd"/><stop offset="1" stop-color="#00e0ff"/></linearGradient><path fill="url(#J)" d="M628.4 228.9c.2-.4-1.4-.4-1.6-.2-.2.2-.3.2-.3 0s0-.2-.1 0c-.2.2-.2.2-.6 0-.5-.2-1-1.4-.8-2.6 0-2.3 1.6-3.5 2.5-3.6.8 0 1.4 0 1.9.5.4.6.6.8.6 1.5 0 .5-.2 1-.5 1.8l-.7 1.8c0 .5-.2 1-.3 1 0 0-.1-.2 0-.2Z"/><linearGradient id="K" x1="639" x2="639" y1="212.7" y2="225.1" gradientUnits="userSpaceOnUse"><stop offset="0" stop-color="#8ef6fd"/><stop offset="1" stop-color="#2be8ff"/></linearGradient><path fill="url(#K)" d="M633.4 225.7a7.7 7.7 0 0 1-.7-3.6c0-2.5.9-5 2.6-7l.1.5c0 .5 0 .5-.3.5-.2 0-.3 0-.1.2l.1.5c0 .8 3.2 2.2 5.3 2.5 1.2.1 1.3.1 2-.3l1-.4c.5 0 .6 0 .6-.5 0-.4 0-.5.2-.5l.3-.5c0-.4.1-.5.5-.5.3 0 .2-1.6.2-1.6.6 0-.4 2.9-2 4-.2 0 .8-.2.8 0 0 .3-1.8 1.4-3.3 2-3.2 1.4-5.6 2.9-6.5 4.3-.4.6-.5.7-.8.4Z"/><path fill="#59e9fe" d="M644.3 231.7c0-.4-.4-.4-.6-.1-.2.1-.2 0-.2-.3 0-.5 0-.5.6-.5.5 0 .5 0 .5.5 0 .3 0 .6-.2.6v-.2Z"/><linearGradient id="L" x1="639" x2="639" y1="212.7" y2="225.1" gradientUnits="userSpaceOnUse"><stop offset="0" stop-color="#8ef6fd"/><stop offset="1" stop-color="#2be8ff"/></linearGradient><path fill="url(#L)" d="m640.2 219.8-2.4-.6c-1.6-.6-3-1.5-3.2-2 0-.2 0-.3-.2-.3 0 0-.2.3-.3.2l.1-.5s.1 0 0-.1l.4-.6.4-.6c.1 0 .6-.6.8-.6l1 .5c1.1.8 2.4 1.3 3.8 1.6.8.1 1 0 2.4-.3l2-.4c.4 0 .4 0 .4.6 0 .3 0 .6-.2.5h-.2v.5c0 .2-.4.8-.8 1.2-.5.4-.8.7-.8.5.1-.3 0-.3-.4 0-.8.6-1.2.7-2.8.4Z"/><linearGradient id="M" x1="652.3" x2="652.3" y1="210.8" y2="215" gradientUnits="userSpaceOnUse"><stop offset="0" stop-color="#92eefe"/><stop offset="1" stop-color="#59e5fe"/></linearGradient><path fill="url(#M)" d="M651.1 215.5c-1.7-.8-2-3.4-.5-4.6.5-.4 1.9-.8 2.2-.5.4.5.3.6 1.3.6 0 0 .8.6.8 1.1a2.7 2.7 0 0 1-3.8 3.4Z"/><linearGradient id="N" x1="639" x2="639" y1="212.7" y2="225.1" gradientUnits="userSpaceOnUse"><stop offset="0" stop-color="#8ef6fd"/><stop offset="1" stop-color="#2be8ff"/></linearGradient><path fill="url(#N)" d="M639.8 217.3c-.8-.2-2.4-1-3.5-1.6-.6-.4-.8-.5-1-.4-.7.4-.3-.1.7-1a9 9 0 0 1 4.6-2.2c2.8-.2 4.6 1.5 4.8 3.8.2.6-.2 1.8-.5 2-.3.2-.3 0-.3-.2l.1-.3c0 .3.2 0 .2-.3v-.5l-1.5.4c-1 .4-2.4.5-3.6.3Z"/><linearGradient id="O" x1="652.3" x2="652.3" y1="210.8" y2="215" gradientUnits="userSpaceOnUse"><stop offset="0" stop-color="#92eefe"/><stop offset="1" stop-color="#59e5fe"/></linearGradient><path fill="url(#O)" d="M654.6 212h-1.3c-1.1 0-1.3 0-1.7-.4-.2-.3-.6-.5-.8-.5-.4 0 0-.4.7-.6.7-.3 1.4-.2 2 .1.7.3 1.1.8 1.2 1.3.1.3 0 .4-.1.2Z"/><linearGradient id="P" x1="644.2" x2="649" y1="223.2" y2="231.2" gradientUnits="userSpaceOnUse"><stop offset="0" stop-color="#a6feff"/><stop offset=".5" stop-color="#bffdfe"/><stop offset="1" stop-color="#97edff"/></linearGradient><path fill="url(#P)" d="m644.8 232.3-.6-.7c0-.3-.8 0-1 .2-.2.2.5-.3.5-.7 0-.3.3-.8 1.4-2 2-2 2.8-2.7 3.6-2.7.5 0 .6 0 .7.5.2 1.5 0 3.6-.6 4-.2.2-.2.4-.2.7 0 .3 0 .4-.6.6-.3.2-1.1.3-1.8.4-1 0-1 0-1.4-.3Z"/><linearGradient id="Q" x1="644.2" x2="649" y1="223.2" y2="231.2" gradientUnits="userSpaceOnUse"><stop offset="0" stop-color="#a6feff"/><stop offset=".5" stop-color="#bffdfe"/><stop offset="1" stop-color="#97edff"/></linearGradient><path fill="url(#Q)" d="M648.2 232c0-.1 0-.2-.2 0-.2 0-.2 0-.2-.2l.2-.6.2-.7c.6-.5 1-2.8.6-3V226.9c-.4 0-1.8 1.2-3.3 2.7l-1.3 1.6v-.6c0-.6.1-1 .7-1 .2 0 .3 0 .3-.3 0-.4.2-.8.8-1.3l1-.8.8-.7c1.6-1.4 3.5-2.4 5.6-2.6 1 0 1 0 1.5.3.5.5.6 1 .5 1.6a5 5 0 0 1-1.4 1.5l-3 2.8a8 8 0 0 1-2.2 1.8c-.8.3-.8.3-.6 0Z"/><linearGradient id="R" x1="644.2" x2="649" y1="223.2" y2="231.2" gradientUnits="userSpaceOnUse"><stop offset="0" stop-color="#a6feff"/><stop offset=".5" stop-color="#bffdfe"/><stop offset="1" stop-color="#97edff"/></linearGradient><path fill="url(#R)" d="M639.8 233.1c-.7-.2-1.3-1.1-1.5-2-.1-2 .4-4 1.6-5.7a16 16 0 0 1 6.4-3c3.4-.8 6.4-.3 8 1.3.8.6 1.1 1.2 1.1 1.8 0 .4-.3.8-.6.8-.2 0 0 0 .2-.2.4-.4.4-.8 0-1.3-.3-.3-.5-.3-1.2-.3-2.4 0-5.5 1.9-8.6 5.4a11.3 11.3 0 0 1-4 3.2c-.8.2-.9.2-1.4 0Z"/><path fill="#f2f2f2" d="M0 32h1280v63.7H0Z"/><path d="m22 81.8-3.6-2.7v2h-7.6v1.4h7.6v2.1l3.5-2.8Z"/><path d="M14.6 77v2.8H16V77h7.3v9.7H16V84h-1.4v2.8c0 .8.7 1.4 1.4 1.4h7.3c.8 0 1.4-.6 1.4-1.4V77c0-.8-.6-1.4-1.4-1.4H16c-.7 0-1.4.6-1.4 1.4Z"/><path fill="#e1e1e2" d="M0 96h1280v1H0Z"/><path fill-opacity=".7" d="M27 51H15.4l4.3-4.3a1 1 0 0 0-1.4-1.4l-6 6a1 1 0 0 0 0 1.4l6 6a1 1 0 0 0 1.4-1.4L15.4 53H27a1 1 0 0 0 0-2ZM59.7 51.3l-6-6a1 1 0 0 0-1.4 1.4l4.3 4.3H45a1 1 0 0 0 0 2h11.6l-4.3 4.3a1 1 0 1 0 1.4 1.4l6-6a1 1 0 0 0 0-1.4ZM91 45a1 1 0 0 0-1 1v2.4a7 7 0 1 0-1 8.6 1 1 0 0 0-1.5-1.5 5 5 0 1 1 1-5.5H86a1 1 0 0 0 0 2h5a1 1 0 0 0 1-1v-5a1 1 0 0 0-1-1Z"/><path fill="#fff" d="M118.3 37h1097a4 4 0 0 1 4 4v22a4 4 0 0 1-4 4h-1097a4 4 0 0 1-4-4V41a4 4 0 0 1 4-4Z"/><text xml:space="preserve" x="145" y="58" fill-opacity=".7" font-family="sans-serif" font-size="13">Search or enter address</text><path fill="gray" fill-rule="evenodd" d="M122.3 50.4a4 4 0 1 1 8 0 4 4 0 0 1-8 0Zm4-5.5a5.5 5.5 0 1 0 3.3 10l4 4a.8.8 0 0 0 1.1-1.1l-4-4a5.5 5.5 0 0 0-4.4-8.9Z"/><path fill="none" stroke="#0c0c0d" stroke-opacity=".3" d="M118.3 37.5h1097c2 0 3.5 1.6 3.5 3.5v22c0 2-1.6 3.5-3.5 3.5h-1097c-2 0-3.5-1.6-3.5-3.5V41c0-2 1.6-3.5 3.5-3.5Z"/><path d="M1241 55v2h-10v-2h-1v2c0 .3 0 .5.3.7.1.2.4.3.7.3h10a1 1 0 0 0 1-1v-2h-1Zm0-5-.7-.7-3.8 3.8V44h-1v9l-3.8-3.7-.7.7 5 5 5-5ZM1263.2 47.5H1252v-1h11.2v1Zm0 8H1252v-1h11.2v1Zm0-4H1252v-1h11.2v1Z"/><text xml:space="preserve" x="32" y="86" font-family="sans-serif" font-size="12">Import bookmarks..</text><path fill="#ccc" d="M0 0h1280v32H0Z"/><path fill="#ed6a5e" d="M25 15a6 6 0 1 1-12 0 6 6 0 0 1 12 0Z"/><path fill="none" stroke="#ce5347" stroke-width=".5" d="M24.8 15a5.7 5.7 0 1 1-11.5 0 5.7 5.7 0 0 1 11.4 0Z"/><path fill="#f6be4f" d="M45 15a6 6 0 1 1-12 0 6 6 0 0 1 12 0Z"/><path fill="none" stroke="#d6a243" stroke-width=".5" d="M44.8 15a5.7 5.7 0 1 1-11.5 0 5.7 5.7 0 0 1 11.5 0Z"/><path fill="#62c554" d="M65 15a6 6 0 1 1-12 0 6 6 0 0 1 12 0Z"/><path fill="none" stroke="#58a942" stroke-width=".5" d="M64.8 15a5.7 5.7 0 1 1-11.5 0 5.7 5.7 0 0 1 11.5 0Z"/><path fill="#f2f2f2" d="M106 0h224v32H106Z"/><path fill="#0a84ff" d="M106 0h224v1.5H106Z"/><linearGradient id="S" x1="126" x2="129.3" y1="19" y2="13.3" gradientUnits="userSpaceOnUse"><stop offset="0" stop-color="#1964e7"/><stop offset="1" stop-color="#6884f2"/></linearGradient><path fill="url(#S)" d="m126.8 19.7-.5-.2a16.2 16.2 0 0 1-1.1-2.2l.4-.8c.3-.7.3-.8.6-.5.7.5 1.5.9 2.3 1l.4.1.2-.1-1.3 2.7h-1Z"/><linearGradient id="T" x1="114.7" x2="118" y1="13.3" y2="19" gradientUnits="userSpaceOnUse"><stop offset="0" stop-color="#00cce6"/><stop offset="1" stop-color="#0082e7"/></linearGradient><path fill="url(#T)" d="M116.3 19.7c-.2 0-.2 0-.4-.7l-.4-1-.3-.5.3.2 1-.3.6-.1.2-.2.5-.3.5-.1.1-.1.2.3c.2.4.2.5.3.4l-1.2 2.2c-.2.2-.4.2-.8.3h-.6Z"/><radialGradient id="U" cx="126.9" cy="18.1" r="4.8" fx="126.9" fy="18.1" gradientUnits="userSpaceOnUse"><stop offset=".2" stop-color="#00cdff"/><stop offset=".5" stop-color="#00bcfa"/><stop offset=".8" stop-color="#00abf8"/><stop offset="1" stop-color="#0098f7"/></radialGradient><path fill="url(#U)" d="m126.8 19.7-.2-.1-.2-.1-.1-.2v-.1l.1.1.6.3c.2 0 .2.2 0 .2h-.2Z"/><radialGradient id="V" cx="126.9" cy="18.1" r="4.8" fx="126.9" fy="18.1" gradientUnits="userSpaceOnUse"><stop offset=".2" stop-color="#00cdff"/><stop offset=".5" stop-color="#00bcfa"/><stop offset=".8" stop-color="#00abf8"/><stop offset="1" stop-color="#0098f7"/></radialGradient><path fill="url(#V)" d="M127 19.7h.5l.3-.2c.2-.2.2-.2.2 0l-.2.1-.4.2-.3-.1Zm-4.8-1-.2-.2c0-.3.9-1.8 1.5-2.7.3-.5.4-.5.5-.5h.1v.2l-.7 1.2-.9 2.2.2.6c0 .2-.3-.4-.5-.7Zm3.8.2c0-.2 0-.2.1 0 .1.1.1.1 0 .1l-.1-.1Z"/><radialGradient id="W" cx="126.9" cy="18.1" r="4.8" fx="126.9" fy="18.1" gradientUnits="userSpaceOnUse"><stop offset=".2" stop-color="#00cdff"/><stop offset=".5" stop-color="#00bcfa"/><stop offset=".8" stop-color="#00abf8"/><stop offset="1" stop-color="#0098f7"/></radialGradient><path fill="url(#W)" d="M125.8 18.5c0-.2 0-.2.1 0l.1.3-.2-.3Zm-.2-.4-.1-.1-.1-.3-.1-.1-.1-.1v-.3l.6 1h-.2Z"/><radialGradient id="X" cx="126.9" cy="18.1" r="4.8" fx="126.9" fy="18.1" gradientUnits="userSpaceOnUse"><stop offset=".2" stop-color="#00cdff"/><stop offset=".5" stop-color="#00bcfa"/><stop offset=".8" stop-color="#00abf8"/><stop offset="1" stop-color="#0098f7"/></radialGradient><path fill="url(#X)" d="M126.7 19.7h-.1l-.1-.1c-.2 0-.3-.2-.3-.3 0-.2 0-.2.2 0l.4.3c.2 0 .2.1 0 .1h-.1Zm-4.3-.6v-.4l1.3-2.9-.4.6-.4.5v-.2l.1-.1.1-.2v-.2l.1-.1.2-.2v-.1l.1-.1.1-.1v-.1h.1l.3-.4.3.6h-.1l-.6 1-.4.9-.4 1.1-.3.5V19Zm3.4-.5c0-.2 0-.2.2 0v.1l-.2-.1Z"/><radialGradient id="Y" cx="126.9" cy="18.1" r="4.8" fx="126.9" fy="18.1" gradientUnits="userSpaceOnUse"><stop offset=".2" stop-color="#00cdff"/><stop offset=".5" stop-color="#00bcfa"/><stop offset=".8" stop-color="#00abf8"/><stop offset="1" stop-color="#0098f7"/></radialGradient><path fill="url(#Y)" d="M125.6 18.2c0-.2 0-.2.2 0 .1.3 0 .2 0 .2-.2 0-.2 0-.2-.2Z"/><linearGradient id="Z" x1="114.7" x2="118" y1="13.3" y2="19" gradientUnits="userSpaceOnUse"><stop offset="0" stop-color="#00cce6"/><stop offset="1" stop-color="#0082e7"/></linearGradient><path fill="url(#Z)" d="M115.4 17.9a3 3 0 0 1-.3-.6l-.2-.5.2.1a8 8 0 0 0 2.7-1.3l.1-.1.4.6c.2.6.3.8.1.7l-.4.2-.5.2h-.1.2c.2 0 .1 0-.3.2l-.6.2-1.3.3Z"/><linearGradient id="aa" x1="114.7" x2="118" y1="13.3" y2="19" gradientUnits="userSpaceOnUse"><stop offset="0" stop-color="#00cce6"/><stop offset="1" stop-color="#0082e7"/></linearGradient><path fill="url(#aa)" d="m115 17.1-.3-.7.4-.1a7 7 0 0 0 1.9-1l.4-.5h.1a3.6 3.6 0 0 1 .5 1c0-.1-.1-.1-.1 0s-1.6 1-2.5 1.2l-.3.1Z"/><linearGradient id="ab" x1="118.7" x2="122" y1="15.1" y2="20.9" gradientUnits="userSpaceOnUse"><stop offset="0" stop-color="#0cf4ff"/><stop offset=".3" stop-color="#04eefe"/><stop offset="1" stop-color="#00b1f7"/></linearGradient><path fill="url(#ab)" d="M117.2 19.6h.1l.3-.3.2-.2v.2l-.2.2v.1h-.4Z"/><linearGradient id="ac" x1="114.7" x2="118" y1="13.3" y2="19" gradientUnits="userSpaceOnUse"><stop offset="0" stop-color="#00cce6"/><stop offset="1" stop-color="#0082e7"/></linearGradient><path fill="url(#ac)" d="m114.6 16.2-.2-.4h.2a5 5 0 0 0 2.6-2v.2l.5.8v.3-.1h-.1l-.5.4c-.6.4-1.2.8-1.8 1l-.3.1h-.2l-.2-.3Z"/><radialGradient id="ad" cx="126.9" cy="18.1" r="4.8" fx="126.9" fy="18.1" gradientUnits="userSpaceOnUse"><stop offset=".2" stop-color="#00cdff"/><stop offset=".5" stop-color="#00bcfa"/><stop offset=".8" stop-color="#00abf8"/><stop offset="1" stop-color="#0098f7"/></radialGradient><path fill="url(#ad)" d="M125 22.7c-.5-.1-.9-.4-1.1-.9-.2-.4-.3-.4 0-.4l.3-.1c.3-.2.7-.2 1-.1l.9.7.2.3h.2l.7-1s-.2.6-.6 1c-.4.5-1 .6-1.6.5Zm1.8-3c0-.1 0-.1.2 0 .1 0 .1 0 0 0h-.2Z"/><radialGradient id="ae" cx="126.9" cy="18.1" r="4.8" fx="126.9" fy="18.1" gradientUnits="userSpaceOnUse"><stop offset=".2" stop-color="#00cdff"/><stop offset=".5" stop-color="#00bcfa"/><stop offset=".8" stop-color="#00abf8"/><stop offset="1" stop-color="#0098f7"/></radialGradient><path fill="url(#ae)" d="M122.5 19.3V19l.6-1.5 1-2c0-.2 0-.1.2 0v.5c-.5.9-1 1.9-1.3 3-.2.2.8 2.7.8 2.7Zm3.9.1h.1c.2.1.2.2 0 .2l-.1-.2Zm1.4 0h.2l.1-.2v.2l-.2.1h-.1ZM126 19c0-.2 0-.2.1 0v.1l-.2-.1Zm-.6-1.1c0-.2 0-.2.1 0v.2l-.1-.2Zm-.3-.4c0-.1 0-.1.2 0l.1.2h-.1c-.2 0-.2 0-.2-.2Z"/><linearGradient id="af" x1="114.7" x2="118" y1="13.3" y2="19" gradientUnits="userSpaceOnUse"><stop offset="0" stop-color="#00cce6"/><stop offset="1" stop-color="#0082e7"/></linearGradient><path fill="url(#af)" d="M118 15.8h.1c0 .2 0 .2 0 0Z"/><path fill="#00b0e7" d="M117.2 22V22l.1-.1.2.1-.1.2h-.2Z"/><linearGradient id="ag" x1="114.7" x2="118" y1="13.3" y2="19" gradientUnits="userSpaceOnUse"><stop offset="0" stop-color="#00cce6"/><stop offset="1" stop-color="#0082e7"/></linearGradient><path fill="url(#ag)" d="m114.5 16-.3-.8 1-.4.2-.2c.5-.3.9-.7 1.2-1.2 0-.3 0-.3.3 0 .2.1.3.4.4.6v.1h-.1c-.5.8-1.3 1.3-2 1.7-.3 0-.5.1-.5.2h-.2Z"/><linearGradient id="ah" x1="118.7" x2="122" y1="15.1" y2="20.9" gradientUnits="userSpaceOnUse"><stop offset="0" stop-color="#0cf4ff"/><stop offset=".3" stop-color="#04eefe"/><stop offset="1" stop-color="#00b1f7"/></linearGradient><path fill="url(#ah)" d="m118.2 22.7-.6-.3h1.3l.2.1v.2h-.9Z"/><radialGradient id="ai" cx="126.9" cy="18.1" r="4.8" fx="126.9" fy="18.1" gradientUnits="userSpaceOnUse"><stop offset=".2" stop-color="#00cdff"/><stop offset=".5" stop-color="#00bcfa"/><stop offset=".8" stop-color="#00abf8"/><stop offset="1" stop-color="#0098f7"/></radialGradient><path fill="url(#ai)" d="M126.4 22.4h-.1c-.1 0-.2 0-.4-.3l-.8-.8h-.3l-.8.3s-.2.1-.2 0l-.5-1-.2-.2h.2c0 .1.1.2.2.1l.3-.3c.4-.3.4-.3.4-.5v-.1c.2 0 .2 0 .4.3l.6.7c.3.3.5.4 1 .3h.2l.3.3.3.1h.1l-.5 1c-.2.2-.2.2-.2 0Zm-3.7-2.7c-.1-.2-.2-.4 0-.5l.5-1.3.3-.7.1-.4.6-1.1c.1-.1.1 0 .2.2.2.2.2.2.1.3a20.5 20.5 0 0 0-.9 2c0 .1 0 .4-.3 1l-.2.4v.1l-.1.2c0 .2-.1.1-.3-.2Zm4.6 0 .2-.1h.2v-.1l.2-.1v.2h-.1l-.3.1h-.2Zm-1.1-.4c-.1-.1-.1-.4 0-.4l.2.4h-.2Zm-.3-.7c0-.1 0-.1.1 0l.1.2h-.1l-.1-.2Zm-.3-.3V18l-.1-.1v-.2l.2.2.1.3.1.2h-.1c-.1 0-.2 0-.2-.2Zm-.3-.7c0-.2 0-.2.1 0 .1.1.1.2 0 .2v-.2Z"/><radialGradient id="aj" cx="126.9" cy="18.1" r="4.8" fx="126.9" fy="18.1" gradientUnits="userSpaceOnUse"><stop offset=".2" stop-color="#00cdff"/><stop offset=".5" stop-color="#00bcfa"/><stop offset=".8" stop-color="#00abf8"/><stop offset="1" stop-color="#0098f7"/></radialGradient><path fill="url(#aj)" d="M126.2 19.3V19h-.2V18.6l.1.2.1.2.1.1v.1h-.2Zm-.5-.9c0-.1 0-.1.1 0h.1v.2c-.1 0-.2 0-.2-.2Zm-.2-.4c0-.1 0-.1.1 0l.1.1h-.2Zm-.2-.3v-.1l.2.2-.2-.1Zm-.2-.4s0-.3 0 0h.2v.1h-.2Z"/><linearGradient id="ak" x1="126" x2="129.3" y1="19" y2="13.3" gradientUnits="userSpaceOnUse"><stop offset="0" stop-color="#1964e7"/><stop offset="1" stop-color="#6884f2"/></linearGradient><path fill="url(#ak)" d="M128.7 17.4v-.1c0-.2 0-.2-.3-.2-.9-.1-1.7-.5-2.3-1l-.2-.1v.2l-.2.2 1-2.2.3.3c.4.4.8.7 1.3.8.2.1.6.2.9.1h.6l-.1.2-.8 1.8h-.1Z"/><linearGradient id="al" x1="114.7" x2="118" y1="13.3" y2="19" gradientUnits="userSpaceOnUse"><stop offset="0" stop-color="#00cce6"/><stop offset="1" stop-color="#0082e7"/></linearGradient><path fill="url(#al)" d="m114.3 15.4-.3-.6.1-.3.5-.2.2-.2.7-.7.2-.4v-.2h.4l.4.3.3.1v.2s-.1 0 0 .1l-.7.8-.6.5-.2.1-.2.1-.7.4Z"/><linearGradient id="am" x1="118.7" x2="122" y1="15.1" y2="20.9" gradientUnits="userSpaceOnUse"><stop offset="0" stop-color="#0cf4ff"/><stop offset=".3" stop-color="#04eefe"/><stop offset="1" stop-color="#00b1f7"/></linearGradient><path fill="url(#am)" d="M119 22.7h-.2c0-.1-.6-.2-.7-.1-.2 0-.7-.2-1-.7v-.2h.1l.4-.3.3-.2h.2c.4 0 1-.5 1.4-1.2l.3-.3h.2v1.6c-.2.4-.1.5 0 .5s.1 0 0 .2c-.3.4-.8.7-1 .7Z"/><radialGradient id="an" cx="126.9" cy="18.1" r="4.8" fx="126.9" fy="18.1" gradientUnits="userSpaceOnUse"><stop offset=".2" stop-color="#00cdff"/><stop offset=".5" stop-color="#00bcfa"/><stop offset=".8" stop-color="#00abf8"/><stop offset="1" stop-color="#0098f7"/></radialGradient><path fill="url(#an)" d="M127 21.5h-.1l-.3-.2-.3-.2h-.3c-.3 0-.6-.1-.8-.3l-.2-.1h.2c.4 0 1 0 1.4-.2h.6l.4-.2-.1.2c-.4.9-.6 1.2-.6 1Zm-3.7-.7v-.2h-.1l-.4-.8.1-.2.1-.2.2-.4.3-1 .1-.5.8-1.6.2.3.2.4-.8 1.1-.2.7.3.6.7 1.1v.2l.1.1v.1l-.3-.4-.3-.2s0 .2-.4.4l-.4.4c-.1.1-.1.1-.2 0Zm3.6-1-.1-.1c0-.1 0-.1 0 0h.8c0-.1 0-.1 0 0h-.7Zm-.5-.3-.1-.1-.1-.2c0-.2 0-.2.1 0l.3.3c.1 0 .1.1 0 .1l-.2-.1Z"/><path fill="#00b2f7" d="m117.7 19.3.2-.3v.1l-.1.2h-.1Z"/><radialGradient id="ao" cx="126.9" cy="18.1" r="4.8" fx="126.9" fy="18.1" gradientUnits="userSpaceOnUse"><stop offset=".2" stop-color="#00cdff"/><stop offset=".5" stop-color="#00bcfa"/><stop offset=".8" stop-color="#00abf8"/><stop offset="1" stop-color="#0098f7"/></radialGradient><path fill="url(#ao)" d="m126 19-.1-.3v-.1c-.2 0-.2 0-.2-.3-.2 0-.2-.1-.2-.2v-.2l.7 1h-.3Zm-.7-1.3c0-.2 0-.2.2 0v.1l-.2-.1Zm-.2-.4v-.2l.1.2c.1.1.1.2 0 .2v-.2Z"/><linearGradient id="ap" x1="114.7" x2="118" y1="13.3" y2="19" gradientUnits="userSpaceOnUse"><stop offset="0" stop-color="#00cce6"/><stop offset="1" stop-color="#0082e7"/></linearGradient><path fill="url(#ap)" d="M117.3 14.2c-.1-.1-.1-.2 0-.2v.1c0 .1 0 .1 0 0Z"/><path fill="#00c8e6" d="M117.7 19.2c.1-.2.2-.2.2 0 0 .1 0 .2-.2.2Zm.9-1.5.1-.2V17.8h-.1Z"/><linearGradient id="aq" x1="114.7" x2="118" y1="13.3" y2="19" gradientUnits="userSpaceOnUse"><stop offset="0" stop-color="#00cce6"/><stop offset="1" stop-color="#0082e7"/></linearGradient><path fill="url(#aq)" d="M114 14.6c0-.7.4-1.3 1-1.6l.9-.2v.1c.1 0 .1 0 0 .2v.2l-1 .9-.1.2-.7.3-.1-.1Z"/><linearGradient id="ar" x1="118.7" x2="122" y1="15.1" y2="20.9" gradientUnits="userSpaceOnUse"><stop offset="0" stop-color="#0cf4ff"/><stop offset=".3" stop-color="#04eefe"/><stop offset="1" stop-color="#00b1f7"/></linearGradient><path fill="url(#ar)" d="M119.8 21.9a12.8 12.8 0 0 0 0-2l-.3.3c-.4.7-.9 1-1.3 1-.1 0-.2 0-.1.1l-.4.2-.3.2c0 .1-.1.1 0 .2h-.2l-.3-.5-.5-1.3h1.7c.3 0 0-.2.4-.1.3.1 0 .4.2.2h.6l.8-1.3a28.8 28.8 0 0 1 1.6-2.4l.1.1-.1.3-.1.3-.1.3-.1.3c-.4 1-.7 1.9-.8 2.9v.3l-.3.5-.4.5-.1-.1Z"/><radialGradient id="as" cx="126.9" cy="18.1" r="4.8" fx="126.9" fy="18.1" gradientUnits="userSpaceOnUse"><stop offset=".2" stop-color="#00cdff"/><stop offset=".5" stop-color="#00bcfa"/><stop offset=".8" stop-color="#00abf8"/><stop offset="1" stop-color="#0098f7"/></radialGradient><path fill="url(#as)" d="M125.1 20.8a5 5 0 0 1-.9-1.3l-.5-1.1c0-.3 0-.6.2-.8l.7-1.2.3.2c0 .2.2.3.1.4l-.7 1.1-.2.6.1.5.2.2v.2h.4v.1h.4l.8-.1.4-.1h.3c.4.2.9.2 1.2 0 .2-.2.2-.2-.2.5l-.3.6h-.7a2.6 2.6 0 0 1-1.2.3l-.4-.1Z"/><radialGradient id="at" cx="126.9" cy="18.1" r="4.8" fx="126.9" fy="18.1" gradientUnits="userSpaceOnUse"><stop offset=".2" stop-color="#00cdff"/><stop offset=".5" stop-color="#00bcfa"/><stop offset=".8" stop-color="#00abf8"/><stop offset="1" stop-color="#0098f7"/></radialGradient><path fill="url(#at)" d="M126 19.2v-.3l-.1-.1-.1-.3c-.2 0-.2-.2-.2-.4h-.1l-.1-.3-.1-.2h-.1v-.3l.6 1c.6 1 .6 1 .4 1l-.1-.1Z"/><path fill="#00bff9" d="M118.6 17.7c.2-.4.2-.4.2-.2v.2h-.2Z"/><radialGradient id="au" cx="126.9" cy="18.1" r="4.8" fx="126.9" fy="18.1" gradientUnits="userSpaceOnUse"><stop offset=".2" stop-color="#00cdff"/><stop offset=".5" stop-color="#00bcfa"/><stop offset=".8" stop-color="#00abf8"/><stop offset="1" stop-color="#0098f7"/></radialGradient><path fill="url(#au)" d="m124.4 19.7-.4-.6v-.4l.2-.8.6-1.2.2.2c1.2 2.2 1.4 2.5 1.7 2.7h.1v.1c-.6 0-1.2 0-1.8.2h-.4c0-.1 0-.1 0 0v.2l-.2-.4Z"/><linearGradient id="av" x1="118.7" x2="122" y1="15.1" y2="20.9" gradientUnits="userSpaceOnUse"><stop offset="0" stop-color="#0cf4ff"/><stop offset=".3" stop-color="#04eefe"/><stop offset="1" stop-color="#00b1f7"/></linearGradient><path fill="url(#av)" d="m116.5 19.8-.2-.1c0-.1 0-.1.2 0h.4l.5-.2.2-.1v.2h-.1c0 .2-.7.3-1 .2Z"/><radialGradient id="aw" cx="126.9" cy="18.1" r="4.8" fx="126.9" fy="18.1" gradientUnits="userSpaceOnUse"><stop offset=".2" stop-color="#00cdff"/><stop offset=".5" stop-color="#00bcfa"/><stop offset=".8" stop-color="#00abf8"/><stop offset="1" stop-color="#0098f7"/></radialGradient><path fill="url(#aw)" d="M127 19.7h.1-.2Z"/><linearGradient id="ax" x1="126" x2="129.3" y1="19" y2="13.3" gradientUnits="userSpaceOnUse"><stop offset="0" stop-color="#1964e7"/><stop offset="1" stop-color="#6884f2"/></linearGradient><path fill="url(#ax)" d="m129.6 15.7-.6-.1c-.3 0-.6 0-.9-.2a3 3 0 0 1-1.2-.7l-.3-.3-.2.3.1-.2c.1-.4.4-1 .6-1.1a1.7 1.7 0 0 1 2.9 1.4c0 .3-.3.7-.3.7v.2h-.1Z"/><linearGradient id="ay" x1="118.7" x2="122" y1="15.1" y2="20.9" gradientUnits="userSpaceOnUse"><stop offset="0" stop-color="#0cf4ff"/><stop offset=".3" stop-color="#04eefe"/><stop offset="1" stop-color="#00b1f7"/></linearGradient><path fill="url(#ay)" d="M118.7 20.5h-.8l-1.3-.2h-.1v.2l-.5-1.1.2.1c.3.2.6.2 1 .1.3 0 .4-.3 1-1.3.7-1.1.7-1.2.7-1v.3l-.2.1v.2c0 .2-.1.2-.2.2v.1l-.2.2v.1l-.1.2v.1l.3.2H119.8c.2 0 .2 0 .4-.4l.3-.6h.1v-.1l.1-.1.1-.2.1-.1v-.2l.2-.1V17l.1-.1.1-.2.1-.2.2-.2v-.2h.1V16h.1V16l.1-.1v-.1h.1v-.1l.1-.1v-.1h.1v-.1l.1-.1.1-.2h.1l.1-.2c.2-.3.3-.4.5-.4l.2.1c0 .2.3.3.5.2h.5l-1.9 3c-1 1.9-1.9 3.4-2 3.4l-.3-1 .3-.5-.3.1a15.2 15.2 0 0 0 1.3-2.8c.2-.3 1.1-.6 1.1-.6l.1-.1v-.1l.4-.7v-.2l.1-.1c0-.2.3 0 .4 0 0 0 0 1.5-.2.1l-.3.2s.5 0 .3.3c-.7.7-1.8 1-3 3-.8 1.5-1 1.7-1 1.6h-.1l-.1.1h-.4Z"/><linearGradient id="az" x1="118.7" x2="118.7" y1="12.4" y2="14.4" gradientUnits="userSpaceOnUse"><stop offset="0" stop-color="#40fafd"/><stop offset="1" stop-color="#00e0ff"/></linearGradient><path fill="url(#az)" d="M118.7 14.5a1.4 1.4 0 0 1-.6-.9l.4.1h.5V14.6l-.3-.1Z"/><linearGradient id="aA" x1="118.7" x2="122" y1="15.1" y2="20.9" gradientUnits="userSpaceOnUse"><stop offset="0" stop-color="#0cf4ff"/><stop offset=".3" stop-color="#04eefe"/><stop offset="1" stop-color="#00b1f7"/></linearGradient><path fill="url(#aA)" d="m117.6 19.4.6-1 2.3-4 1.4-1.3.3-.2-.2.2v.4a2 2 0 0 0-.3 1c0 .2.1.4.3.4 0 .1.1.1.4 0l.4-.3h.4v.1c-.3 0-1.3 1.5-2.5 3.4l-.8 1.3v-.1h-.5l-1.3-.2-.2.2-.3.2c-.1 0-.1 0 0 0Zm4.7-1.5.1-.2v.2l-.1.1V18Zm.2-.4.1-.2v.2l-.1.1v-.1Zm.2-.3 1-1.5.1-.3s0-.1 0 0l.1-.3.2-.2s-.1 0 0 0h-.2s-.1 0 0 0c0 .1 0 .1-.2 0h.1v-.1l.4-.1.6-.3c0-.1.6-.6-.3.4l-.5.5c-.1.2 0 0 0 0l-.3.4-1 1.5Z"/><linearGradient id="aB" x1="118.7" x2="118.7" y1="12.4" y2="14.4" gradientUnits="userSpaceOnUse"><stop offset="0" stop-color="#40fafd"/><stop offset="1" stop-color="#00e0ff"/></linearGradient><path fill="url(#aB)" d="m119 14-.5-.1H118.2l-.2-.7c0-.6.4-1 .7-1 .2 0 .3 0 .5.2l.1.4v.5c-.2.1-.2.3-.3.5v.2Z"/><linearGradient id="aC" x1="121.7" x2="121.7" y1="9.6" y2="12.9" gradientUnits="userSpaceOnUse"><stop offset="0" stop-color="#8ef6fd"/><stop offset="1" stop-color="#2be8ff"/></linearGradient><path fill="url(#aC)" d="M120.3 13a2 2 0 0 1-.2-.8c0-.7.2-1.4.6-2v.5c0 .2.9.6 1.4.7h.5l.3-.2.2-.1v-.2l.2-.2c.1 0 0-.4 0-.4.3 0 0 .7-.4 1h.2l-1 .6c-.8.3-1.4.7-1.6 1.1-.1.2-.2.2-.2 0Z"/><path fill="#59e9fe" d="M123.2 14.7h-.2v-.2l.2.1v.2-.1Z"/><linearGradient id="aD" x1="121.7" x2="121.7" y1="9.6" y2="12.9" gradientUnits="userSpaceOnUse"><stop offset="0" stop-color="#8ef6fd"/><stop offset="1" stop-color="#2be8ff"/></linearGradient><path fill="url(#aD)" d="m122 11.5-.6-.1c-.4-.2-.8-.4-.8-.6h-.2v-.1l.2-.2v-.2l.3-.1.2.1c.3.2.7.4 1 .4h.7l.5-.1.1.1V11l-.3.3-.2.1h-.1c-.2.2-.3.2-.7.1Z"/><linearGradient id="aE" x1="125.3" x2="125.3" y1="9.1" y2="10.3" gradientUnits="userSpaceOnUse"><stop offset="0" stop-color="#92eefe"/><stop offset="1" stop-color="#59e5fe"/></linearGradient><path fill="url(#aE)" d="M125 10.4a.7.7 0 0 1-.2-1.2l.6-.2c.1.1.1.2.4.2 0 0 .2.1.2.3a.7.7 0 0 1-1 .9Z"/><linearGradient id="aF" x1="121.7" x2="121.7" y1="9.6" y2="12.9" gradientUnits="userSpaceOnUse"><stop offset="0" stop-color="#8ef6fd"/><stop offset="1" stop-color="#2be8ff"/></linearGradient><path fill="url(#aF)" d="M122 10.9a3 3 0 0 1-1-.5h-.3l.2-.3c.4-.4.8-.5 1.3-.6.7 0 1.2.4 1.3 1l-.2.5V10.7h-.4c-.3.2-.6.2-1 .2Z"/><linearGradient id="aG" x1="125.3" x2="125.3" y1="9.1" y2="10.3" gradientUnits="userSpaceOnUse"><stop offset="0" stop-color="#92eefe"/><stop offset="1" stop-color="#59e5fe"/></linearGradient><path fill="url(#aG)" d="M125.9 9.5h-.4c-.3 0-.3 0-.4-.2h-.2c-.1 0 0-.2.2-.3h.5l.3.4c0 .1 0 .1 0 0Z"/><linearGradient id="aH" x1="123.1" x2="124.4" y1="12.4" y2="14.6" gradientUnits="userSpaceOnUse"><stop offset="0" stop-color="#a6feff"/><stop offset=".5" stop-color="#bffdfe"/><stop offset="1" stop-color="#97edff"/></linearGradient><path fill="url(#aH)" d="m123.3 14.9-.2-.2c0-.1-.2 0-.2 0-.1 0 0 0 0-.2l.5-.5c.5-.5.7-.7 1-.7l.1.1c0 .4 0 1-.2 1.1v.2l-.2.1-.4.1h-.4Z"/><linearGradient id="aI" x1="123.1" x2="124.4" y1="12.4" y2="14.6" gradientUnits="userSpaceOnUse"><stop offset="0" stop-color="#a6feff"/><stop offset=".5" stop-color="#bffdfe"/><stop offset="1" stop-color="#97edff"/></linearGradient><path fill="url(#aI)" d="M124.2 14.8h-.1v-.2l.1-.2c.1-.2.3-.8.1-.8v-.1l-.8.6-.4.5v-.2c0-.2 0-.2.2-.2V14l.3-.4.3-.2.2-.2c.4-.4 1-.6 1.5-.7l.4.1.1.4c0 .2-.2.3-.4.4l-.8.8-.6.5h-.1Z"/><linearGradient id="aJ" x1="123.1" x2="124.4" y1="12.4" y2="14.6" gradientUnits="userSpaceOnUse"><stop offset="0" stop-color="#a6feff"/><stop offset=".5" stop-color="#bffdfe"/><stop offset="1" stop-color="#97edff"/></linearGradient><path fill="url(#aJ)" d="M122 15c-.2 0-.4-.2-.4-.5 0-.5 0-1 .4-1.5.5-.4 1-.6 1.7-.8.9-.2 1.7 0 2.1.4.2.1.3.3.3.5 0 0 0 .2-.2.2v-.1c.2-.1.2-.2 0-.3l-.2-.1c-.7 0-1.5.5-2.3 1.4a3 3 0 0 1-1 .9h-.5Z"/><text xml:space="preserve" x="139" y="22" fill="#0c0c0d" font-family="sans-serif" font-size="11">New Tab</text><path fill-opacity=".8" d="m315 16 3.8-3.8a.7.7 0 0 0 0-1 .7.7 0 0 0-1 0L314 15l-3.8-3.8a.7.7 0 0 0-1 1L313 16l-3.8 3.8a.7.7 0 0 0-.1.8.7.7 0 0 0 1.1.2L314 17l3.8 3.8a.7.7 0 0 0 1.2-.5c0-.2 0-.4-.2-.5L315 16Z"/><path fill="#303030" d="M354 15h-5v-5a1 1 0 1 0-2 0v5h-5a1 1 0 0 0 0 2h5v5a1 1 0 0 0 2 0v-5h5a1 1 0 1 0 0-2Z"/><path fill="#fff" d="M369.9 329.1H910a8 8 0 0 1 8 8V367a8 8 0 0 1-8 8H370a8 8 0 0 1-8-8V337a8 8 0 0 1 8-8Z"/><path fill="none" stroke="#444348" stroke-linecap="square" stroke-linejoin="round" d="M904.3 352.5h-10m10 0-4.4 4.6m4.4-4.6L900 348"/><text xml:space="preserve" x="398" y="358" fill-opacity=".7" font-family="sans-serif" font-size="13">Search the  web</text><path fill="#1b66e9" fill-rule="evenodd" d="M373.9 350.2a4.6 4.6 0 1 1 9.1 0 4.6 4.6 0 0 1-9.1 0Zm4.6-6.1a6 6 0 1 0 3.7 10.9l4.6 4.6a.7.7 0 1 0 1-1.1l-4.5-4.6a6 6 0 0 0-4.8-9.8Z"/><path fill="#e5e5e6" d="M248 398h86.4a5 5 0 0 1 5 5v101.4a5 5 0 0 1-5 5h-86.3a5 5 0 0 1-5-5V403a5 5 0 0 1 5-5Z"/><path d="M330.4 405.2c.3-.2.3-.7 0-.9l-1.6-1.6a.7.7 0 0 0-.9 0l-1.2 1.3 2.5 2.5m-10.6 5.5v2.5h2.5l7.4-7.3-2.5-2.5-7.4 7.3Z"/><path fill="#fff" stroke="#e4e4e5" d="M264 418h52c2 0 3.5 1.6 3.5 3.6v52c0 1.9-1.6 3.5-3.5 3.5h-52c-2 0-3.5-1.6-3.5-3.5v-52c0-2 1.6-3.5 3.5-3.5Z"/><linearGradient id="aK" x1="298" x2="304.6" y1="454" y2="442.6" gradientUnits="userSpaceOnUse"><stop offset="0" stop-color="#1964e7"/><stop offset="1" stop-color="#6884f2"/></linearGradient><path fill="url(#aK)" d="M299.6 455.5c-.4-.1-.7-.3-1-.6a32.3 32.3 0 0 1-2.2-4.4l.8-1.4c.7-1.6.7-1.6 1.2-1.2 1.3 1.1 3 1.8 4.6 2 .7 0 .8.1.8.4l.3-.3c-.7 1.8-1.6 3.6-2.5 5.3-.4.2-1.6.3-2 .2Z"/><linearGradient id="aL" x1="275.5" x2="282.1" y1="442.7" y2="454" gradientUnits="userSpaceOnUse"><stop offset="0" stop-color="#00cce6"/><stop offset="1" stop-color="#0082e7"/></linearGradient><path fill="url(#aL)" d="M278.6 455.4c-.3-.1-.4-.2-.8-1.3l-.9-2-.6-1.2.6.5c.4 0 1.3-.2 2.3-.6l.9-.2.4-.3.2-.2 1-.4.9-.3.1-.1.1-.1.5.7c.2.7.3.8.4.6l.1.1c0 .3-2 3.9-2.4 4.3-.4.4-.8.6-1.7.6h-1Z"/><radialGradient id="aM" cx="299.7" cy="452.3" r="9.6" fx="299.7" fy="452.3" gradientUnits="userSpaceOnUse"><stop offset=".2" stop-color="#00cdff"/><stop offset=".5" stop-color="#00bcfa"/><stop offset=".8" stop-color="#00abf8"/><stop offset="1" stop-color="#0098f7"/></radialGradient><path fill="url(#aM)" d="m299.6 455.5-.2-.1c-.2 0-.2 0-.2-.2s0-.2-.3-.2-.3 0-.3-.4v-.3l.3.3c.3.4.7.6 1 .7.5 0 .4.2 0 .2h-.3Z"/><radialGradient id="aN" cx="299.7" cy="452.3" r="9.6" fx="299.7" fy="452.3" gradientUnits="userSpaceOnUse"><stop offset=".2" stop-color="#00cdff"/><stop offset=".5" stop-color="#00bcfa"/><stop offset=".8" stop-color="#00abf8"/><stop offset="1" stop-color="#0098f7"/></radialGradient><path fill="url(#aN)" d="M300.2 455.3h.7l.7-.4c.3-.2.4-.2.3.1 0 .2-.1.2-.3.2l-.2.1c0 .2-.2.2-.6.2-.1 0-.6 0-.6-.2Zm-9.8-1.7-.4-.5-.1-.2c0-.4 1.8-3.6 3-5.3.7-1 .8-1 1-1 .3-.1.3 0 .4.1v.4c-.6.7-1.1 1.5-1.5 2.4-.7 1.4-1.2 2.8-1.7 4.3l.3 1.3c0 .3-.7-1-1-1.5Zm7.6.2c0-.4.1-.4.3 0 .1.2.1.2-.1.2s-.2 0-.2-.2Z"/><radialGradient id="aO" cx="299.7" cy="452.3" r="9.6" fx="299.7" fy="452.3" gradientUnits="userSpaceOnUse"><stop offset=".2" stop-color="#00cdff"/><stop offset=".5" stop-color="#00bcfa"/><stop offset=".8" stop-color="#00abf8"/><stop offset="1" stop-color="#0098f7"/></radialGradient><path fill="url(#aO)" d="M297.6 453c0-.4 0-.4.3 0 .1.3.4.7.2.7s-.5-.5-.5-.7Zm-.5-.7-.1-.3c-.2 0-.3-.2-.3-.6l-.1-.2c-.2 0-.2-.1-.2-.2v-.5l1.2 2h-.3l-.1-.2Z"/><radialGradient id="aP" cx="299.7" cy="452.3" r="9.6" fx="299.7" fy="452.3" gradientUnits="userSpaceOnUse"><stop offset=".2" stop-color="#00cdff"/><stop offset=".5" stop-color="#00bcfa"/><stop offset=".8" stop-color="#00abf8"/><stop offset="1" stop-color="#0098f7"/></radialGradient><path fill="url(#aP)" d="M299.3 455.4h-.1l-.2-.2-.1-.1c-.2 0-.4-.3-.4-.5 0-.3 0-.3.2-.1l1 .7c.3 0 .3.3-.1.3l-.3-.1Zm-8.5-1.3c0-.2-.2-.5 0-.5l.1-.3 2.4-5.7-.8 1.2-.7 1v-.4c0-.2 0-.3.2-.3.1 0 .2 0 .3-.3v-.4c0-.1 0-.2.2-.2l.3-.4v-.2h.1c0-.2.1-.2.2-.2l.1-.2.1-.2.2-.1.5-.6.6 1h-.2l-.2.3-1 1.8-.7 1.7-1 2.4c-.3.7-.4.8-.6.8v-.2Zm6.8-1c0-.3.1-.3.3 0 .2.4.2.4 0 .4s-.3 0-.3-.3Z"/><radialGradient id="aQ" cx="299.7" cy="452.3" r="9.6" fx="299.7" fy="452.3" gradientUnits="userSpaceOnUse"><stop offset=".2" stop-color="#00cdff"/><stop offset=".5" stop-color="#00bcfa"/><stop offset=".8" stop-color="#00abf8"/><stop offset="1" stop-color="#0098f7"/></radialGradient><path fill="url(#aQ)" d="M297.2 452.4c0-.4.1-.4.3 0 .4.6.3.4 0 .3-.2 0-.3 0-.3-.3Z"/><linearGradient id="aR" x1="275.5" x2="282.1" y1="442.7" y2="454" gradientUnits="userSpaceOnUse"><stop offset="0" stop-color="#00cce6"/><stop offset="1" stop-color="#0082e7"/></linearGradient><path fill="url(#aR)" d="M276.8 451.7a6 6 0 0 1-.6-1l-.5-1.2.6.3a16 16 0 0 0 5.3-2.5l.3-.4.6 1.3c.5 1.3.6 1.5.4 1.5-.3 0-.6 0-.9.2l-1 .4-.3.2h.5l-.6.2-1.2.4c-.9.3-1.7.5-2.6.6Z"/><linearGradient id="aS" x1="275.5" x2="282.1" y1="442.7" y2="454" gradientUnits="userSpaceOnUse"><stop offset="0" stop-color="#00cce6"/><stop offset="1" stop-color="#0082e7"/></linearGradient><path fill="url(#aS)" d="m276.2 450.3-.1-.2-.7-1.3.7-.2a14 14 0 0 0 3.8-2c.7-.6.9-.7.9-1h.2c0-.1 0-.2.2-.2a7.2 7.2 0 0 1 .9 2.2c-.2-.2-.3-.2-.3 0 0 .3-3.3 1.9-5 2.4l-.5.3h-.1Z"/><linearGradient id="aT" x1="283.3" x2="290" y1="446.2" y2="457.8" gradientUnits="userSpaceOnUse"><stop offset="0" stop-color="#0cf4ff"/><stop offset=".3" stop-color="#04eefe"/><stop offset="1" stop-color="#00b1f7"/></linearGradient><path fill="url(#aT)" d="m280.4 455.2.3-.2.6-.4.3-.3v.3c0 .2-.2.5-.4.5l-.2.1-.3.1h-.3Z"/><linearGradient id="aU" x1="275.5" x2="282.1" y1="442.7" y2="454" gradientUnits="userSpaceOnUse"><stop offset="0" stop-color="#00cce6"/><stop offset="1" stop-color="#0082e7"/></linearGradient><path fill="url(#aU)" d="m275.2 448.4-.3-.8h.2a10 10 0 0 0 5.3-3.9l.2.2.7 1.7.3.5c0 .1-.2 0-.2 0l-.1-.2H281c0 .2-.1.3-.8 1-1.1.7-2.5 1.5-3.6 1.9l-.6.2-.4.1-.4-.7Z"/><radialGradient id="aV" cx="299.7" cy="452.3" r="9.6" fx="299.7" fy="452.3" gradientUnits="userSpaceOnUse"><stop offset=".2" stop-color="#00cdff"/><stop offset=".5" stop-color="#00bcfa"/><stop offset=".8" stop-color="#00abf8"/><stop offset="1" stop-color="#0098f7"/></radialGradient><path fill="url(#aV)" d="M296 461.4c-1-.2-1.7-.9-2.2-1.8-.5-.8-.5-.8-.2-.8l.8-.2c.6-.3 1.3-.5 2-.3.7.4 1.3 1 1.7 1.6l.4.4h.5l1.3-1.8c.2-.2-.4 1-1.1 2-.9.8-2 1.1-3.2.9Zm3.6-6c0-.2 0-.2.4-.1.3 0 .2.2-.1.2l-.3-.1Z"/><radialGradient id="aW" cx="299.7" cy="452.3" r="9.6" fx="299.7" fy="452.3" gradientUnits="userSpaceOnUse"><stop offset=".2" stop-color="#00cdff"/><stop offset=".5" stop-color="#00bcfa"/><stop offset=".8" stop-color="#00abf8"/><stop offset="1" stop-color="#0098f7"/></radialGradient><path fill="url(#aW)" d="M291 454.6c-.3-.4-.3-.4-.1-.6.5-1 1-2 1.3-3a33 33 0 0 1 2-4l-.1-.1c0-.3.2-.1.4.3.3.4.3.7.2.7-1.2 1.9-2 3.9-2.8 6-.2.5 1.7 5.5 1.7 5.6Zm7.7.3v-.3l.3.2c.3.3.4.4 0 .4-.3 0-.3 0-.3-.3Zm2.8 0 .4-.2.3-.4-.2.4c0 .2-.1.4-.3.4l-.2-.2Zm-3.4-1c0-.4 0-.4.3 0l.2.4h-.3c-.2 0-.2 0-.2-.4Zm-1.2-2.1c0-.4 0-.4.3 0l.2.4h-.2c-.3 0-.3 0-.3-.4Zm-.4-.7c0-.4 0-.4.3 0l.2.4-.3-.1c-.2 0-.2 0-.2-.3Z"/><linearGradient id="aX" x1="275.5" x2="282.1" y1="442.7" y2="454" gradientUnits="userSpaceOnUse"><stop offset="0" stop-color="#00cce6"/><stop offset="1" stop-color="#0082e7"/></linearGradient><path fill="url(#aX)" d="m282.1 447.7-.1-.3.2.2c.1.4 0 .4 0 0Z"/><path fill="#00b0e7" d="M280.4 460v-.3c0-.2 0-.2.3-.2s.3 0 .3.3 0 .3-.3.3h-.3Z"/><linearGradient id="aY" x1="275.5" x2="282.1" y1="442.7" y2="454" gradientUnits="userSpaceOnUse"><stop offset="0" stop-color="#00cce6"/><stop offset="1" stop-color="#0082e7"/></linearGradient><path fill="url(#aY)" d="M275 448v-.1l-.7-1.4 2-.9.6-.4c.9-.6 1.7-1.5 2.3-2.5 0-.5.1-.5.5 0 .4.3.7.8.9 1.4v.2h-.2a9.4 9.4 0 0 1-4.2 3.2l-.7.4c0 .1 0 .1 0 0h-.5Z"/><linearGradient id="aZ" x1="283.3" x2="290" y1="446.2" y2="457.8" gradientUnits="userSpaceOnUse"><stop offset="0" stop-color="#0cf4ff"/><stop offset=".3" stop-color="#04eefe"/><stop offset="1" stop-color="#00b1f7"/></linearGradient><path fill="url(#aZ)" d="M282.4 461.4c-.4-.1-1.1-.4-1.1-.6h1.4c.6 0 .9 0 1 .2h.4c.2 0 .1.3 0 .4h-1.7Z"/><radialGradient id="ba" cx="299.7" cy="452.3" r="9.6" fx="299.7" fy="452.3" gradientUnits="userSpaceOnUse"><stop offset=".2" stop-color="#00cdff"/><stop offset=".5" stop-color="#00bcfa"/><stop offset=".8" stop-color="#00abf8"/><stop offset="1" stop-color="#0098f7"/></radialGradient><path fill="url(#ba)" d="M298.7 460.7h-.2c-.1 0-.2 0-.6-.5-.5-.7-1-1.2-1.7-1.6a1 1 0 0 0-.6 0c-.4 0-1.3.4-1.6.6-.2.2-.4.2-.3.1h-.1l-1-2-.4-.5h.2c.2 0 .3 0 .3.2 0 0 .1.1.2 0l.7-.6c.7-.6.7-.6.7-.9 0-.3 0-.3.3-.3.2 0 .3 0 .7.6.2.5.7 1 1 1.3.7.7 1.2.9 2 .7h.4l.1.2.5.3.6.4h.3c0 .3-.6 1.4-1 1.8-.5.5-.5.4-.5.2Zm-7.2-5.3c-.3-.5-.4-.8-.3-1 .5-.8 1-1.7 1.3-2.7l.4-1.2.3-.8.2-.1 1-2.2c.2-.2.2 0 .5.4.2.4.2.4 0 .6a41 41 0 0 0-1.7 3.8c0 .4-.2 1-.6 2l-.3 1-.3.3v.3c0 .3-.3.2-.5-.3Zm9.2 0c0-.1 0-.2.2-.2h.3l.1-.1h.1l.1-.2.2-.1c.2-.2.1-.2.2.1 0 .2-.1.3-.2.3l-.2.2-.4.1c-.4 0-.5 0-.4-.1Zm-2.3-.7-.1-.2c-.2-.2-.2-.7 0-.7l.5.7.1.3h-.2l-.3-.1Zm-.7-1.4c0-.4.1-.4.4 0l.1.3h-.2c-.2 0-.3 0-.3-.3Zm-.4-.7-.1-.3c-.2 0-.2-.1-.2-.3v-.3l.4.4.2.4.3.4h-.3c-.3 0-.3 0-.3-.3Zm-.7-1.4c0-.3 0-.3.3 0 .2.2.2.4 0 .4-.3 0-.3-.1-.3-.4Z"/><radialGradient id="bb" cx="299.7" cy="452.3" r="9.6" fx="299.7" fy="452.3" gradientUnits="userSpaceOnUse"><stop offset=".2" stop-color="#00cdff"/><stop offset=".5" stop-color="#00bcfa"/><stop offset=".8" stop-color="#00abf8"/><stop offset="1" stop-color="#0098f7"/></radialGradient><path fill="url(#bb)" d="M298.3 454.5v-.4c0-.2 0-.2-.2-.2s-.2 0-.2-.3 0-.3.1-.2l.3.4.1.3s.2 0 .1.1v.1c.1 0 .2 0 .2.2l-.2.1h-.2Zm-.8-1.7c0-.3 0-.3.1-.2l.3.4-.2.1c-.2 0-.2 0-.2-.3Zm-.5-.8c0-.3 0-.3.2 0l.2.2-.1.2c-.2 0-.2 0-.2-.4Zm-.4-.6c0-.3 0-.3.2-.2l.2.3-.1.2c-.2 0-.2 0-.2-.3Zm-.4-.8c0-.2-.1-.5.2-.1l.2.3h-.2c-.1 0-.2 0-.2-.2Z"/><linearGradient id="bc" x1="298" x2="304.6" y1="454" y2="442.6" gradientUnits="userSpaceOnUse"><stop offset="0" stop-color="#1964e7"/><stop offset="1" stop-color="#6884f2"/></linearGradient><path fill="url(#bc)" d="M303.5 450.7v-.2c0-.2-.1-.3-.8-.3a8.5 8.5 0 0 1-4.5-2l-.3-.3-.3.5-.2.4 2-4.3.7.6c.6.7 1.5 1.3 2.4 1.6a4 4 0 0 0 1.9.2h1.2l-.2.3-1.6 3.6h-.3Z"/><linearGradient id="bd" x1="275.5" x2="282.1" y1="442.7" y2="454" gradientUnits="userSpaceOnUse"><stop offset="0" stop-color="#00cce6"/><stop offset="1" stop-color="#0082e7"/></linearGradient><path fill="url(#bd)" d="M274.6 446.8s0-.1 0 0c-.2 0-.4-.6-.5-1.2-.1-.5-.1-.6.1-.6.3 0 1-.3 1-.5l.5-.3 1.4-1.3c.2-.3.3-.5.3-.8v-.5c.3 0 1 .1.8.2-.2-.2.5 0 .9.3l.4.3c.2.2 0 .3 0 .4 0 0-.1.2 0 .2l-1.4 1.6c-1 1-1.2 1.2-1.2 1 0 0-.2 0-.3.3l-.3.1c-1.3.5-1.5.6-1.6.8Z"/><linearGradient id="be" x1="283.3" x2="290" y1="446.2" y2="457.8" gradientUnits="userSpaceOnUse"><stop offset="0" stop-color="#0cf4ff"/><stop offset=".3" stop-color="#04eefe"/><stop offset="1" stop-color="#00b1f7"/></linearGradient><path fill="url(#be)" d="M283.9 461.3h-.3c-.1-.2-1.1-.2-1.4-.1-.4.1-1.3-.5-1.8-1.3l-.2-.4.3-.2.7-.5.5-.3.1-.1c0-.1 0-.2.3-.2.9 0 2-.8 2.8-2.1.4-.7.4-.8.7-.8l.3.1v3.2c-.2.9-.1 1 .2 1l-.1.4c-.5.8-1.6 1.5-2.1 1.3Z"/><radialGradient id="bf" cx="299.7" cy="452.3" r="9.6" fx="299.7" fy="452.3" gradientUnits="userSpaceOnUse"><stop offset=".2" stop-color="#00cdff"/><stop offset=".5" stop-color="#00bcfa"/><stop offset=".8" stop-color="#00abf8"/><stop offset="1" stop-color="#0098f7"/></radialGradient><path fill="url(#bf)" d="M299.9 459h-.1c-.2 0-.3 0-.6-.3l-.6-.5h-.6c-.7 0-1.2-.2-1.6-.6l-.4-.3h.3c1 .2 2 .1 2.9-.2l1.3-.3.6-.1-.1.4c-.8 1.7-1.1 2.3-1.1 2Zm-7.3-1.5-.1-.2-.1-.1v-.1c-.3-.4-.6-1-.7-1.5v-.4c.2 0 .3-.2.3-.3l.3-.9c.5-1 .6-1.5.6-2 0-.2 0-.4.3-1l1.6-3.2c.2.2.4.4.4.7.3.4.5.6.3.7l-1.4 2.2c-.3.5-.4.9-.5 1.4l.7 1.2 1.2 2.2.3.3v.5c-.2 0-.5-.4-.7-.8-.4-.7-.4-.7-.4-.4 0 .2-.3.4-.8.8l-1 .8c-.1.2-.1.2-.3.1Zm7.2-2c-.2 0-.3 0-.3-.2 0-.1 0-.1.2 0h1.4c.2-.1.2-.1.2 0 0 .2 0 .2-.4.3h-1.1Zm-1-.5c0-.3 0-.3-.2-.3-.3 0-.3 0-.3-.3 0-.4.1-.4.3 0l.5.5c.4.3.4.3 0 .3-.3 0-.3 0-.3-.2Z"/><path fill="#00b2f7" d="m281.4 454.5.3-.5.1.3c0 .2 0 .3-.2.3h-.2Z"/><radialGradient id="bg" cx="299.7" cy="452.3" r="9.6" fx="299.7" fy="452.3" gradientUnits="userSpaceOnUse"><stop offset=".2" stop-color="#00cdff"/><stop offset=".5" stop-color="#00bcfa"/><stop offset=".8" stop-color="#00abf8"/><stop offset="1" stop-color="#0098f7"/></radialGradient><path fill="url(#bg)" d="M297.9 453.8v-.3c0-.2 0-.3-.2-.3s-.3-.1-.3-.5c0-.2 0-.2-.2-.2l-.1-.3v-.3l1.2 2c0 .1-.4 0-.4 0Zm-1.3-2.4c0-.4.1-.4.3 0 .2.2.2.3 0 .3s-.2 0-.2-.3Zm-.4-.8v-.3l.2.2c.3.3.3.4 0 .4-.2 0-.2 0-.2-.3Z"/><linearGradient id="bh" x1="275.5" x2="282.1" y1="442.7" y2="454" gradientUnits="userSpaceOnUse"><stop offset="0" stop-color="#00cce6"/><stop offset="1" stop-color="#0082e7"/></linearGradient><path fill="url(#bh)" d="M280.5 444.3c-.1-.2-.1-.2 0-.2l.2.1c0 .3 0 .3-.2.1Z"/><path fill="#00c8e6" d="M281.4 454.4c.2-.4.3-.4.3 0 0 .3 0 .3-.2.3h-.3Zm1.7-3 .4-.5v.3c0 .3 0 .3-.2.3h-.2Z"/><linearGradient id="bi" x1="275.5" x2="282.1" y1="442.7" y2="454" gradientUnits="userSpaceOnUse"><stop offset="0" stop-color="#00cce6"/><stop offset="1" stop-color="#0082e7"/></linearGradient><path fill="url(#bi)" d="M274 445.1c0-1.2.7-2.5 1.9-3 .5-.3 1.8-.6 1.9-.4v.1c.3 0 .3 0 0 .3l-.1.4c0 .2-1 1.4-1.7 1.9-.3.1-.5.3-.5.4l-1.2.5-.1.2c-.2 0-.2-.1-.2-.4Z"/><linearGradient id="bj" x1="283.3" x2="290" y1="446.2" y2="457.8" gradientUnits="userSpaceOnUse"><stop offset="0" stop-color="#0cf4ff"/><stop offset=".3" stop-color="#04eefe"/><stop offset="1" stop-color="#00b1f7"/></linearGradient><path fill="url(#bj)" d="M285.6 459.8a25.7 25.7 0 0 0 0-4l-.5.7c-.9 1.3-1.8 2-2.7 2l-.3.1v.1c-.2 0-.4.2-.6.4l-.7.4-.2.3h-.2l-.6-1-1-2.6c1.5.2 3.4.1 3.4.1.7 0 .2-.5.8-.3.7.2-.2.8.4.4l.5-.1.3.1.3.2c.3-.2.4-.6 1.7-2.9a57.6 57.6 0 0 1 3.1-4.7c.3 0 .3 0 .3.3l-.2.6-.2.5-.2.6-.2.6a25 25 0 0 0-1.7 5.8v.7l-.6 1c-.4.7-.5.9-.7.9l-.3-.2Z"/><radialGradient id="bk" cx="299.7" cy="452.3" r="9.6" fx="299.7" fy="452.3" gradientUnits="userSpaceOnUse"><stop offset=".2" stop-color="#00cdff"/><stop offset=".5" stop-color="#00bcfa"/><stop offset=".8" stop-color="#00abf8"/><stop offset="1" stop-color="#0098f7"/></radialGradient><path fill="url(#bk)" d="M296.3 457.5c-.5-.3-1.1-1.1-1.9-2.5-.8-1.5-1-2-1-2.2 0-.6.2-1.1.4-1.6l1.4-2.4c.1-.2.2-.1.5.5l.3.6c-.6.7-1 1.5-1.3 2.3l-.4 1.1.1 1 .4.6v.2c0 .1.5.3.8.3H296.4l1.6-.2c.7 0 .9-.1.9-.2h.5c.8.3 1.8.4 2.5-.2.2-.2.2-.2-.5 1.3-.4 1-.6 1.3-.6 1 0 0-.7 0-1.4.3a5.1 5.1 0 0 1-2.3.3l-.2.1c-.2 0-.4 0-.6-.3Z"/><radialGradient id="bl" cx="299.7" cy="452.3" r="9.6" fx="299.7" fy="452.3" gradientUnits="userSpaceOnUse"><stop offset=".2" stop-color="#00cdff"/><stop offset=".5" stop-color="#00bcfa"/><stop offset=".8" stop-color="#00abf8"/><stop offset="1" stop-color="#0098f7"/></radialGradient><path fill="url(#bl)" d="m298.1 454.3-.1-.5c0-.2 0-.3-.2-.3s-.2-.1-.2-.5c0-.1 0-.2-.2-.2s-.2-.2-.2-.5c0-.2 0-.3-.2-.3s-.3-.1-.3-.5l-.1-.2c-.1 0-.2 0-.2-.2v-.6l1.2 2.1c1.1 2 1.1 2 .9 2-.2 0-.3 0-.4-.3Z"/><path fill="#00bff9" d="M283.3 451.3c.2-.6.3-.7.3-.2 0 .2 0 .3-.2.3h-.1Z"/><radialGradient id="bm" cx="299.7" cy="452.3" r="9.6" fx="299.7" fy="452.3" gradientUnits="userSpaceOnUse"><stop offset=".2" stop-color="#00cdff"/><stop offset=".5" stop-color="#00bcfa"/><stop offset=".8" stop-color="#00abf8"/><stop offset="1" stop-color="#0098f7"/></radialGradient><path fill="url(#bm)" d="m294.7 455.5-.6-1.2c-.3-.5-.3-.6-.2-.7.1-.1.2-.2.1-.3.1-.5.2-1 .5-1.5l1.2-2.4.3.3c2.4 4.5 2.8 5.2 3.4 5.5.2 0 .3 0 .2.1v.1c-1.2 0-2.4 0-3.5.4h-.6c0-.1-.1-.2-.2-.1h-.1c-.2-.2-.2-.2-.1 0 0 0 .1.4 0 .4l-.4-.6Z"/><linearGradient id="bn" x1="283.3" x2="290" y1="446.2" y2="457.8" gradientUnits="userSpaceOnUse"><stop offset="0" stop-color="#0cf4ff"/><stop offset=".3" stop-color="#04eefe"/><stop offset="1" stop-color="#00b1f7"/></linearGradient><path fill="url(#bn)" d="M279 455.6c-.3 0-.3-.1-.3-.3 0-.1 0-.1.2 0h.9c.4 0 .6-.1 1-.3l.4-.3v.3l-.1.2-.1.1c0 .2-1.3.4-2 .3Z"/><radialGradient id="bo" cx="299.7" cy="452.3" r="9.6" fx="299.7" fy="452.3" gradientUnits="userSpaceOnUse"><stop offset=".2" stop-color="#00cdff"/><stop offset=".5" stop-color="#00bcfa"/><stop offset=".8" stop-color="#00abf8"/><stop offset="1" stop-color="#0098f7"/></radialGradient><path fill="url(#bo)" d="M299.9 455.5v-.1h.4l-.2.1h-.2Z"/><linearGradient id="bp" x1="298" x2="304.6" y1="454" y2="442.6" gradientUnits="userSpaceOnUse"><stop offset="0" stop-color="#1964e7"/><stop offset="1" stop-color="#6884f2"/></linearGradient><path fill="url(#bp)" d="M305.1 447.4c.1-.2-.1-.3-1.1-.3-.6 0-1.2 0-1.8-.2a6 6 0 0 1-2.4-1.6l-.5-.6-.2.3-.3.4.2-.4c.3-.8.9-1.9 1.2-2.3.8-.8 1.9-1.1 3-1 1.8.3 3 2 2.8 3.9-.1.6-.5 1.5-.6 1.5 0 0-.1 0 0 .1 0 0 0 .2-.2.2Z"/><linearGradient id="bq" x1="283.3" x2="290" y1="446.2" y2="457.8" gradientUnits="userSpaceOnUse"><stop offset="0" stop-color="#0cf4ff"/><stop offset=".3" stop-color="#04eefe"/><stop offset="1" stop-color="#00b1f7"/></linearGradient><path fill="url(#bq)" d="m283.5 457-1.8-.1-2.5-.2-.3-.2.1.4-1-2.1.5.2c.5.4 1.1.5 1.7.3.8-.2 1.1-.6 2.3-2.7 1.3-2.2 1.4-2.4 1.4-2 0 .3 0 .5-.3.5l-.1.3c0 .2 0 .3-.2.3v.2c0 .2-.2.4-.3.4l-.1.1c0 .3-.1.5-.2.5l-.2.1c0 .3 0 .5-.2.5v.2c0 .1 0 .2.7.2l1.5.2h1.1c.3 0 .3 0 .9-.9l.6-1.2.2-.1v-.2l.1-.2.2-.3.2-.2.2-.3.1-.3.2-.2v-.1l.1-.1.1-.2.1-.2.3-.5.3-.4.2-.3.1-.2.1-.1.1-.1v-.1l.2-.2.1-.2.1-.2.2-.2.1-.2.2-.2v-.2h.2v-.2l.2-.2.3-.4c.2-.4.6-.7 1-.7.1 0 .2 0 .3.2.2.4.6.5 1 .4h.6c.3-.1.4 0 .4.1a36.9 36.9 0 0 0-3.7 5.8l-4 7-.7-2.1c0-.2.6-.8.6-.9 0-.1-.8.4-.7.2a30.4 30.4 0 0 0 2.7-5.7c.3-.6 2.2-1.2 2.2-1.2l.1-.1v-.2s0-.2.2-.2l.7-1.3v-.5c.2 0 .2 0 .2-.2s.6.2.7.2c.2 0 .1 3-.3.1l-.5.4c0-.2.9 0 .5.5-1.3 1.6-3.7 2.2-6 6-1.6 3-2 3.4-2.1 3.4H284.2c0 .2-.2.2-.7 0Z"/><linearGradient id="br" x1="283.3" x2="283.3" y1="440.8" y2="444.7" gradientUnits="userSpaceOnUse"><stop offset="0" stop-color="#40fafd"/><stop offset="1" stop-color="#00e0ff"/></linearGradient><path fill="url(#br)" d="M283.5 445a2.7 2.7 0 0 1-1.4-1.7l1 .2h1l-.1.4-.1.8v.5l-.5-.2Z"/><linearGradient id="bs" x1="283.3" x2="290" y1="446.2" y2="457.8" gradientUnits="userSpaceOnUse"><stop offset="0" stop-color="#0cf4ff"/><stop offset=".3" stop-color="#04eefe"/><stop offset="1" stop-color="#00b1f7"/></linearGradient><path fill="url(#bs)" d="m281.1 454.8 1.4-2.2 4.5-7.6c.5-.8 2.1-2.4 2.7-2.8l.6-.4-.2.4-.3.8a4 4 0 0 0-.5 1.9c.1.4.4.8.7 1 .2.2.2.2.7 0l1-.7.4-.2c.2 0 .2 0 .2.3v.1-.1c-.4 0-2.6 3.2-4.9 7l-1.5 2.5c0-.3 0-.4-.2-.3h-.9c-.8-.2-1.7-.3-2.5-.3-.2 0-.4 0-.6.3l-.4.4h-.3c0 .2 0 .2.1 0Zm9.5-3.1.3-.3-.2.3-.2.3.1-.3Zm.5-.8.2-.3-.1.3-.3.4.2-.4Zm.3-.6c.6-1 1.2-2 2-3l.3-.6s0-.1 0 0c.1 0 .2-.2.1-.4l.1-.1c.2 0 .4-.3.3-.3H293.6c0 .1 0 .2-.1 0-.2 0-.2-.2 0-.2h.2v-.1c.3 0 .5-.2.7-.3l1.2-.6c.2-.1 1.2-1.1-.7.9l-.9 1c-.3.4 0 0 0 0l-.5.8c-.8.9-1.5 1.9-2 3Z"/><linearGradient id="bt" x1="283.3" x2="283.3" y1="440.8" y2="444.7" gradientUnits="userSpaceOnUse"><stop offset="0" stop-color="#40fafd"/><stop offset="1" stop-color="#00e0ff"/></linearGradient><path fill="url(#bt)" d="M283.8 443.9c.1-.2-.7-.2-.8 0h-.2c0-.2 0-.2 0 0h-.4c-.3-.2-.5-.8-.4-1.5 0-1.2.8-1.8 1.3-1.9.5 0 .8 0 1 .3.3.3.4.4.4.7l-.3 1-.4 1-.1.5v-.1Z"/><linearGradient id="bu" x1="289.5" x2="289.5" y1="435.3" y2="441.9" gradientUnits="userSpaceOnUse"><stop offset="0" stop-color="#8ef6fd"/><stop offset="1" stop-color="#2be8ff"/></linearGradient><path fill="url(#bu)" d="M286.5 442.2c-.3-.6-.4-1.2-.4-1.9 0-1.4.5-2.7 1.4-3.7v.2l-.1.3c-.1 0-.2 0 0 .1v.3c0 .4 1.7 1.1 2.8 1.3.7 0 .7 0 1-.2l.6-.2c.3 0 .3 0 .3-.2l.1-.3.2-.3c0-.2 0-.2.3-.2v-.9c.4 0-.1 1.5-1 2.1h.4c0 .2-1 .8-1.7 1.1-1.7.7-3 1.5-3.5 2.3-.2.3-.3.4-.4.2Z"/><path fill="#59e9fe" d="M292.3 445.4c0-.2-.2-.2-.3 0l-.1-.2c0-.3 0-.3.3-.3.2 0 .2 0 .2.3v.3-.1Z"/><linearGradient id="bv" x1="289.5" x2="289.5" y1="435.3" y2="441.9" gradientUnits="userSpaceOnUse"><stop offset="0" stop-color="#8ef6fd"/><stop offset="1" stop-color="#2be8ff"/></linearGradient><path fill="url(#bv)" d="m290.1 439-1.3-.3c-.8-.3-1.6-.8-1.7-1v-.2s-.2.2-.3.1l.1-.2v-.1l.2-.3.3-.3.4-.4.5.3a5 5 0 0 0 2 .9l1.3-.2 1-.2c.3 0 .3 0 .3.3l-.1.3h-.1v.2l-.5.7-.4.3c0-.2 0-.2-.2 0-.4.3-.7.3-1.5.2Z"/><linearGradient id="bw" x1="296.6" x2="296.6" y1="434.3" y2="436.5" gradientUnits="userSpaceOnUse"><stop offset="0" stop-color="#92eefe"/><stop offset="1" stop-color="#59e5fe"/></linearGradient><path fill="url(#bw)" d="M296 436.8c-1-.5-1.2-1.8-.3-2.5.2-.2 1-.4 1.1-.3.2.3.2.4.7.4 0 0 .4.3.4.6a1.5 1.5 0 0 1-2 1.8Z"/><linearGradient id="bx" x1="289.5" x2="289.5" y1="435.3" y2="441.9" gradientUnits="userSpaceOnUse"><stop offset="0" stop-color="#8ef6fd"/><stop offset="1" stop-color="#2be8ff"/></linearGradient><path fill="url(#bx)" d="M290 437.7a6 6 0 0 1-2-.8c-.3-.3-.4-.3-.5-.2-.4.2-.1-.1.4-.6.6-.6 1.5-1 2.4-1.2 1.5 0 2.5.8 2.6 2 0 .4-.1 1-.3 1.1-.2.1-.1 0-.1 0v-.2l.1-.2v-.2l-.8.2c-.6.2-1.2.2-1.9.1Z"/><linearGradient id="by" x1="296.6" x2="296.6" y1="434.3" y2="436.5" gradientUnits="userSpaceOnUse"><stop offset="0" stop-color="#92eefe"/><stop offset="1" stop-color="#59e5fe"/></linearGradient><path fill="url(#by)" d="M297.8 435c-.2-.1-.5-.2-.7-.1-.6 0-.7 0-1-.2 0-.2-.2-.3-.3-.3-.3 0 0-.2.3-.3h1.1c.4.2.6.5.7.7 0 .2 0 .3-.1.1Z"/><linearGradient id="bz" x1="292.3" x2="294.8" y1="440.9" y2="445.1" gradientUnits="userSpaceOnUse"><stop offset="0" stop-color="#a6feff"/><stop offset=".5" stop-color="#bffdfe"/><stop offset="1" stop-color="#97edff"/></linearGradient><path fill="url(#bz)" d="M292.6 445.7a1 1 0 0 1-.3-.4c0-.1-.5 0-.6.2-.1 0 .3-.2.3-.4s.1-.4.7-1c1-1.2 1.5-1.5 2-1.5.2 0 .2 0 .3.3.1.7 0 1.8-.3 2.1v.3c0 .2 0 .3-.4.4l-1 .2c-.5 0-.6 0-.7-.2Z"/><linearGradient id="bA" x1="292.3" x2="294.8" y1="440.9" y2="445.1" gradientUnits="userSpaceOnUse"><stop offset="0" stop-color="#a6feff"/><stop offset=".5" stop-color="#bffdfe"/><stop offset="1" stop-color="#97edff"/></linearGradient><path fill="url(#bA)" d="M294.4 445.6s0-.1-.1 0c-.1 0-.2 0-.1-.1v-.4l.2-.3c.3-.3.5-1.5.3-1.6v-.4c-.2 0-1 .7-1.8 1.5l-.7.8v-.3c0-.3.1-.5.4-.5.1 0 .2 0 .2-.2s.1-.4.4-.7l.5-.4.4-.4c.9-.7 2-1.2 3-1.4.6 0 .6 0 .8.2.3.3.4.6.3.9l-.7.8-1.6 1.4c-.4.5-.8.8-1.2 1-.4.2-.4.2-.3 0Z"/><linearGradient id="bB" x1="292.3" x2="294.8" y1="440.9" y2="445.1" gradientUnits="userSpaceOnUse"><stop offset="0" stop-color="#a6feff"/><stop offset=".5" stop-color="#bffdfe"/><stop offset="1" stop-color="#97edff"/></linearGradient><path fill="url(#bB)" d="M289.9 446.2c-.4-.1-.7-.6-.8-1.2 0-1 .2-2 .9-3 1-.7 2.1-1.3 3.4-1.6 1.8-.4 3.4-.1 4.2.7.5.4.6.7.6 1 0 .2-.1.4-.3.4v-.1c.3-.2.3-.4 0-.7 0-.2-.2-.2-.6-.2-1.2 0-2.9 1-4.5 3a6 6 0 0 1-2.2 1.7h-.7Z"/><text xml:space="preserve" x="271" y="493" fill="#20123a" font-family="sans-serif" font-size="10">Waterfox</text><path fill="#fff" stroke="#e4e4e5" d="M364 418h52c2 0 3.5 1.6 3.5 3.6v52c0 1.9-1.6 3.5-3.5 3.5h-52c-2 0-3.5-1.6-3.5-3.5v-52c0-2 1.6-3.5 3.5-3.5Z"/><path fill="#3c5a99" d="M395 437.5c-2 0-2.6.9-2.6 2.8v3.1h5.2l-.5 5h-4.7v15.4h-6.1v-15.4H382v-5h4.2v-3c0-5.1 2-7.8 7.8-7.8 1.2 0 2.7 0 3.5.2v4.8"/><text xml:space="preserve" x="368" y="493" fill="#20123a" font-family="sans-serif" font-size="10">Facebook</text><path fill="#fff" stroke="#e4e4e5" d="M464 418h52c2 0 3.5 1.6 3.5 3.6v52c0 1.9-1.6 3.5-3.5 3.5h-52c-2 0-3.5-1.6-3.5-3.5v-52c0-2 1.6-3.5 3.5-3.5Z"/><linearGradient id="bC" x1="483.3" x2="487.4" y1="445.3" y2="443.6" gradientUnits="userSpaceOnUse"><stop offset="0" stop-color="#b1060f"/><stop offset=".5" stop-color="#7b010c"/><stop offset="1" stop-color="#e50914" stop-opacity="0"/></linearGradient><path fill="url(#bC)" d="M481 433v29c2.2-.3 3.9-.3 5.7-.5V433H481Z"/><linearGradient id="bD" x1="494.2" x2="490" y1="448.1" y2="449.9" gradientUnits="userSpaceOnUse"><stop offset="0" stop-color="#b1060f"/><stop offset=".6" stop-color="#7b010c"/><stop offset="1" stop-color="#b1060f" stop-opacity="0"/></linearGradient><path fill="url(#bD)" d="M491.3 433h5.7l.1 29-5.9-1v-28Z"/><path fill="#e50914" d="m481 433 10 28.5c1.7 0 3.9.2 6 .5l-10.3-29H481Z"/><text xml:space="preserve" x="474" y="493" fill="#20123a" font-family="sans-serif" font-size="10">Netflix</text><path fill="#fff" stroke="#e4e4e5" d="M564 418h52c2 0 3.5 1.6 3.5 3.6v52c0 1.9-1.6 3.5-3.5 3.5h-52c-2 0-3.5-1.6-3.5-3.5v-52c0-2 1.6-3.5 3.5-3.5Z"/><path fill="#00d95f" d="M590 432.3a15.3 15.3 0 1 0 0 30.5 15.3 15.3 0 0 0 0-30.5Zm6.7 22.2a1 1 0 0 1-1.5.3c-2.7-1.6-5.9-1.8-8-1.8a20 20 0 0 0-4.3.6 1 1 0 0 1-.5-2 21.8 21.8 0 0 1 9-.3c1.8.3 3.5.9 4.9 1.7.5.3.6 1 .4 1.5Zm1.9-4a1.2 1.2 0 0 1-1.7.4c-3.3-2-7-2.2-9.6-2.2-2.8.1-5 .7-5 .7a1.2 1.2 0 0 1-.6-2.4 25.7 25.7 0 0 1 10.8-.4c2 .4 4 1.1 5.6 2.1.6.4.8 1.1.5 1.7Zm1.2-3.7c-.3 0-.5-.1-.8-.3-7.7-4.5-17.7-1.8-17.8-1.8a1.5 1.5 0 1 1-.8-2.9 31.6 31.6 0 0 1 13.2-.4c2.5.5 4.9 1.3 7 2.5a1.5 1.5 0 0 1-.8 2.9Z"/><text xml:space="preserve" x="574" y="493" fill="#20123a" font-family="sans-serif" font-size="10">Spotify</text><path fill="#fff" stroke="#e4e4e5" d="M664 418h52c2 0 3.5 1.6 3.5 3.6v52c0 1.9-1.6 3.5-3.5 3.5h-52c-2 0-3.5-1.6-3.5-3.5v-52c0-2 1.6-3.5 3.5-3.5Z"/><path fill="#101c50" d="M687.8 452.2c.5 0 1 .1 1.2.3.3.1.5.3.7.6.2.4.2 1 0 1.5-.2.4-.5.7-.8.9l-1.1.3c-.7 0-1.4-.1-2-.4-.4-.2-.9-.5-1-.9a.9.9 0 0 1 0-1c.3-.3 1-.4 1.5-.4l1.4.2.6.3v.2c0 .2-.7.4-.8.4-.5 0-.8-.1-1.3-.3l-.5-.2c-.3 0-.6 0-.6.4l.3.3.8.2c.9 0 1.8-.2 2.5-.7.1 0 .2-.1.2-.3 0-.2-.4-.4-.4-.4-.5-.2-1.4-.3-1.8-.3l-1.4-.1c-.2 0-.4 0-.6-.2a.7.7 0 0 1-.3-.4c-.1-.3 0-.7.2-1 .4-.6 1.5-.9 2.4-1 .8-.1 2-.1 2.8.3.2 0 .2.1.2.3 0 .2-.2.4-.5.4l-.9.2c-1 0-2 0-3 .2l-.2.1c-.2.2.3.2.3.2h.1l2 .3Zm-5.6-4.2.2-.4 1-1 .2-.3h-.3l-.7.5c-.3.3-.6.7-.5 1v.2Zm1.6.4c.5 0 .9-.2 1.3-.4s1-.6 1-1.2l-.3-.3h-.5c-.2 0-.3 0-.4.2a6 6 0 0 0-1.5 1.3l-.2.3.6.1Zm-1.2.9-.1.2-.2.2h-.3a.8.8 0 0 1-.3-.6v-.3l-.2-.4-.2-.6c0-.5.3-1 .6-1.4l1.4-1c.5-.2 1.2-.3 1.8-.1.2 0 .4.2.5.3l.1.1h.2l.5.3.3.6c.2.5-.1 1-.5 1.4a5 5 0 0 1-1.8 1.2 3 3 0 0 1-1.1.2h-.4l-.2-.1h-.1Zm.6 1h.1c.3.2.4.4.4.7.2.6.2 1.9.3 2.4v2.1l-.2.3h-.6c-.3 0-.4-.2-.5-.6a18 18 0 0 1 .3-4.5c0-.2 0-.4.2-.3Zm-11 1.5h-1l-1.9.5c-.1 0-.4.1-.5.3l.2.4.6.6c.4.3 1.3.9 2 1.2l.6.2v-3.2Zm9.9.4v.9a4 4 0 0 1-.5 1.2 5 5 0 0 1-.9 1c-1 .8-2.4 1.3-3.6 1.5a9.2 9.2 0 0 1-3.5-.3v.6l-.4.2a1 1 0 0 1-.5 0c-.3-.1-.4-.4-.5-.7v-.7s-.3 0-.4-.2a10 10 0 0 1-2.3-1.5l-.9-1c-.2-.4-.2-.7 0-1 .1-.5.8-.8 1.2-1a10.9 10.9 0 0 1 2.4-.7v-.6a19.7 19.7 0 0 1 .4-2.2h.3c.4.3.6 1.3.6 1.9v.8h1a8.3 8.3 0 0 1 2.9.6c.4.2.8.6 1 1 0 .3 0 .6-.2.9-.2.3-.5.6-1 .6l-.6-.1v-.2l.3-.2.2-.1.2-.3-.4-.3c-.6-.3-2-.5-2.7-.5h-.6v3.6a25.5 25.5 0 0 0 1.5.2c1.2 0 2.5 0 3.6-.6.5-.2 1-.5 1.2-.9.5-.5.7-1.2.7-1.9a5 5 0 0 0-1.1-2.3 12.5 12.5 0 0 0-5-3.4c-1.7-.8-3.5-1.2-5.4-1.3a9 9 0 0 0-2.1.2h-.2l-.2.1v.1h.5l.2.2v.2c0 .2-.5.1-.7.1-.3 0-.5 0-.6-.3 0-.2 0-.4.2-.6.2-.4.5-.6 1-.7a10.3 10.3 0 0 1 6.3.3 19.9 19.9 0 0 1 4.4 2 35.7 35.7 0 0 1 2.1 1.7c.6.5 1.2 1.3 1.5 2l.3.4.2.6v.2l.1.5Zm17.9-.8c-.7.2-2.5.2-2.5.2l-.2.7h1.5s.2 0 .3.3v.5l-.3.1-1.9.2-.2.9s-.1.2 0 .1c.3 0 2-.4 2.2-.3.3 0 .5.3.5.6-.1.4-1.8 1.5-2.9 1.4 0 0-.5 0-1-.7-.4-.7.2-2 .2-2s-.3-.7-.1-.9l.4-.1.5-.9s-.5 0-.8-.3c-.3-.3-.3-.5 0-.6.1 0 2.1-.4 3.5-.4 0 0 .5 0 .9.8 0 0 .2.3-.1.4Zm-5.2 3.4c-.2.4-.7.8-1.2.5-.6-.2-1.5-2.1-1.5-2.1l-.4-.7s-.1-.1-.2.6c0 .8 0 2.3-.2 2.5-.3.2-.7.1-.9-.1-.1-.3-.2-1-.1-2 .1-1.2.4-2.4.7-2.7.3-.4.6-.1.7 0l1.2 1.6.1.2.7 1 .1.1c.1 0 0-.4 0-.4s0-1.2-.7-3.3v-.4c0-.3.3-.2.3-.2s1 .5 1.4 2c.5 1.6.2 3 0 3.4Zm10.1-1c-.4.8-1.6 2.3-3.2 2-.6 1.3-1 2.6-1.3 4.5 0 0 0 .4-.3.2-.4 0-.9-.6-1-1.3 0-1 .3-2.5 1.2-4.3-.3-.5-.4-1-.3-1.9 0 0 .2-1.5 1.8-2.9h.3v.7l-.8 1.4s-.5.8-.4 1.5c.9-1.3 2.7-3.8 3.8-3 .4.3.6.9.6 1.5s-.1 1.2-.4 1.6Zm-.3-2s0-.4-.6.1c-.4.5-1.1 1.3-1.7 2.5a3 3 0 0 0 1.4-.6c.3-.2 1-1 .9-2Zm9.1 0h-2.9c0-1-.2-2-.4-3 0-.1 0-.2-.2-.2H709.4v.2l.3 3H707c-.1 0-.2 0-.2.2v.6c0 .1 0 .2.2.2h2.9a30.8 30.8 0 0 1-.1 3l.2.1h.6c.1 0 .2 0 .2-.2a22.5 22.5 0 0 0 .1-2.9h3s.2 0 .2-.2v-.6c0-.1-.1-.2-.3-.2Z"/><linearGradient id="bE" x1="710.7" x2="675.1" y1="442.9" y2="438.1" gradientUnits="userSpaceOnUse"><stop offset="0" stop-color="#101c50"/><stop offset=".2" stop-color="#0d267a"/><stop offset=".5" stop-color="#085aa4"/><stop offset=".7" stop-color="#058bbf"/><stop offset="1" stop-color="#b1ffff"/></linearGradient><path fill="url(#bE)" d="M674.4 443.6v.2l.1.1.5.2h.1l.3-.1a19.4 19.4 0 0 1 15.9-8.4 19.1 19.1 0 0 1 17.7 11.7l.2.2h.6l.2-.1v-.2a20.2 20.2 0 0 0-35.6-3.6Z"/><text xml:space="preserve" x="672" y="493" fill="#20123a" font-family="sans-serif" font-size="10">Disney+</text><path fill="#fff" stroke="#e4e4e5" d="M764 418h52c2 0 3.5 1.6 3.5 3.6v52c0 1.9-1.6 3.5-3.5 3.5h-52c-2 0-3.5-1.6-3.5-3.5v-52c0-2 1.6-3.5 3.5-3.5Z"/><path fill="#171715" d="m798.7 450.7-1-1.6a3 3 0 0 1-.5-1.6V441c0-2.6.2-8-7.2-8-6 0-7.9 3.1-8.5 5.1-.2.8.4 1.6 1.2 1.7l2.3.2c.6 0 1-.2 1.3-.7.5-1 1.3-2.4 3.7-2.4 1 0 2.3.4 2.3 1.6v2.5c0 .3-.3.6-.7.6h-2.2c-1.8 0-8.3 1-8.3 7.5s7 5.8 7.4 5.6a9 9 0 0 0 4-2.2c.2-.2.6-.2.9 0l1.2 1.6c.5.6 1.3.6 1.9.1l2-1.9c.5-.4.5-1 .2-1.6Zm-10-.4c-2.4 0-2.3-2-1.8-3 .5-1 1.9-2.7 5.4-2.8v1.7a4 4 0 0 1-1.6 3.3c-.6.5-1.3.8-2 .8Z"/><path fill="#ffac35" d="M773.3 456.3c-.3-.3 0-.9.5-.7 3 1.5 8.7 3.8 15 3.8 6.3 0 11.6-1.5 14.3-2.5.5-.1.8.4.4.7A22.7 22.7 0 0 1 789 462c-8 0-13-3.4-15.6-5.7Z"/><path fill="#ffac35" d="M800.3 455.4c.9-.7 3-1.7 6-.8.3 0 .5.4.5.7 0 1-.2 3.4-2.2 5.3-.1.2-.4 0-.3-.2.3-1.2 1-3.9.8-4.3-.3-.4-3.4-.4-4.7-.4-.2 0-.2-.2 0-.3Z"/><text xml:space="preserve" x="770" y="493" fill="#20123a" font-family="sans-serif" font-size="10">Amazon</text><path fill="#fff" stroke="#e4e4e5" d="M864 418h52c2 0 3.5 1.6 3.5 3.6v52c0 1.9-1.6 3.5-3.5 3.5h-52c-2 0-3.5-1.6-3.5-3.5v-52c0-2 1.6-3.5 3.5-3.5Z"/><path fill="#4285f4" d="M874.8 461.2h5.6v-13.6l-8-6v17.2c0 1.3 1 2.4 2.4 2.4Z"/><path fill="#34a853" d="M899.6 461.2h5.6c1.3 0 2.4-1.1 2.4-2.4v-17.2l-8 6v13.6Z"/><path fill="#fbbc04" d="M899.6 437.2v10.4l8-6v-3.2c0-3-3.4-4.7-5.8-2.9l-2.2 1.7Z"/><path fill="#ea4335" d="M880.4 447.6v-10.4l9.6 7.2 9.6-7.2v10.4l-9.6 7.2-9.6-7.2Z"/><path fill="#c5221f" d="M872.4 438.4v3.2l8 6v-10.4l-2.2-1.7a3.6 3.6 0 0 0-5.8 2.9Z"/><text xml:space="preserve" x="877" y="493" fill="#20123a" font-family="sans-serif" font-size="10">Gmail</text><path fill="#fff" stroke="#e4e4e5" d="M964 418h52c2 0 3.5 1.6 3.5 3.6v52c0 1.9-1.6 3.5-3.5 3.5h-52c-2 0-3.5-1.6-3.5-3.5v-52c0-2 1.6-3.5 3.5-3.5Z"/><linearGradient id="bF" x1="990" x2="990" y1="465.5" y2="429.9" gradientUnits="userSpaceOnUse"><stop offset="0" stop-color="#e09b3d"/><stop offset=".3" stop-color="#c74c4d"/><stop offset=".6" stop-color="#c21975"/><stop offset="1" stop-color="#7024c4"/></linearGradient><path fill="url(#bF)" d="M997.3 429.6h-14.6c-5.9 0-10.7 4.8-10.7 10.7V455c0 5.9 4.8 10.7 10.7 10.7h14.6c5.9 0 10.7-4.8 10.7-10.7v-14.6c0-5.9-4.8-10.7-10.7-10.7Zm7 25.3c0 3.9-3.1 7-7 7h-14.6c-3.9 0-7-3.1-7-7v-14.6c0-4 3.1-7 7-7h14.6c3.9 0 7 3 7 7V455Z"/><linearGradient id="bG" x1="990" x2="990" y1="465.5" y2="429.9" gradientUnits="userSpaceOnUse"><stop offset="0" stop-color="#e09b3d"/><stop offset=".3" stop-color="#c74c4d"/><stop offset=".6" stop-color="#c21975"/><stop offset="1" stop-color="#7024c4"/></linearGradient><path fill="url(#bG)" d="M990 438.3a9.3 9.3 0 1 0 0 18.6 9.3 9.3 0 0 0 0-18.6Zm0 15a5.7 5.7 0 1 1 0-11.4 5.7 5.7 0 0 1 0 11.4Z"/><linearGradient id="bH" x1="999.3" x2="999.3" y1="465.5" y2="429.9" gradientUnits="userSpaceOnUse"><stop offset="0" stop-color="#e09b3d"/><stop offset=".3" stop-color="#c74c4d"/><stop offset=".6" stop-color="#c21975"/><stop offset="1" stop-color="#7024c4"/></linearGradient><path fill="url(#bH)" d="M999.3 440.6a2.2 2.2 0 1 0 0-4.5 2.2 2.2 0 0 0 0 4.5Z"/><text xml:space="preserve" x="966" y="493" fill="#20123a" font-family="sans-serif" font-size="10">Instagram</text><path fill="#ffc55c" d="M405.1 592.6a3 3 0 1 0-.3-6l.3 6Zm-119.6-73.8a3 3 0 0 0-4.3 0l-19 19a3 3 0 1 0 4.2 4.3l17-17 17 17a3 3 0 1 0 4.2-4.2l-19.1-19.1Zm119.3 67.8c-38.2 2.2-64.6 1.3-82.9-1.8-18.2-3-27.8-8.3-32.8-14.3-4.9-6-5.8-13.2-5.2-21.8.2-4.4.8-8.8 1.4-13.5.5-4.7 1-9.5 1-14.3h-6c0 4.4-.4 9-1 13.6-.5 4.5-1.2 9.2-1.4 13.8-.6 9.1.2 18.3 6.6 26 6.3 7.7 17.6 13.2 36.4 16.4 19 3.2 45.9 4 84.2 1.9l-.3-6Z"/><text xml:space="preserve" x="452" y="596" fill="#053361" font-family="Montserrat" font-size="28" font-weight="700" letter-spacing="-.3">Make Waterfox Your Own!</text></svg>