<svg xmlns="http://www.w3.org/2000/svg" xmlns:xlink="http://www.w3.org/1999/xlink" width="1280" height="724" xmlns:v="https://vecta.io/nano"><style><![CDATA[.B{font-family:sans-serif}.C{fill:#fff}.D{stroke:#e4e4e5}.E{font-size:10px}.F{fill:#20123a}.G{fill-rule:evenodd}.H{fill:#00b0e7}.I{fill:#00b2f7}.J{fill:#00c8e6}.K{fill:#00bff9}.L{fill:#59e9fe}.M{stroke-width:.5}.N{fill-opacity:.992}]]></style><path fill="#f9f9fb" d="M0 95.7h1280V724H0z"/><path fill="#053361" d="M679.355 296.195c-4.592 0-7.951-3.192-7.951-7.672s3.359-7.643 7.951-7.643c4.648 0 7.98 3.163 7.98 7.643s-3.332 7.672-7.98 7.672zM663.305 296v-12.039h-2.465v-2.801h2.465v-.953c0-3.136 1.876-5.18 5.348-5.18 1.204 0 2.38.253 3.164.813l-.98 2.633c-.532-.364-1.204-.617-1.932-.617-1.456 0-2.213.812-2.213 2.408v.896h4.117v2.801h-4.004V296h-3.5zm24.543 0l5.824-7.588-5.572-7.363h3.893l3.668 4.898 3.668-4.898h3.779l-5.6 7.307 5.852 7.645h-3.947l-3.836-5.18-3.863 5.18h-3.865zm-8.492-2.801c2.548 0 4.453-1.82 4.453-4.676s-1.905-4.676-4.453-4.676c-2.52 0-4.424 1.82-4.424 4.676s1.904 4.676 4.424 4.676zM654.7 281.048h-3.332V296h3.5v-7.252c0-3.052 1.68-4.62 4.34-4.62.252 0 .504.028.812.084v-3.332c-2.492 0-4.312.784-5.32 2.352zm-6.392 7.56c0-4.676-3.192-7.728-7.56-7.728-4.452 0-7.728 3.192-7.728 7.644s3.248 7.672 8.26 7.672c2.576 0 4.676-.84 6.02-2.436l-1.876-2.156c-1.064 1.092-2.38 1.624-4.06 1.624-2.604 0-4.424-1.4-4.844-3.584h11.732a14.36 14.36 0 0 0 .056-1.036zm-7.56-4.928c2.296 0 3.948 1.484 4.228 3.64h-8.484c.336-2.184 1.988-3.64 4.256-3.64zm-9.556 9.016c-.532.42-1.232.616-1.96.616-1.344 0-2.072-.784-2.072-2.24v-7.112h4.004v-2.8h-4.004v-3.416h-3.5v3.416h-2.464v2.8h2.464v7.196c0 3.304 1.876 5.04 5.152 5.04 1.26 0 2.52-.336 3.36-1.008zM612.2 280.88c-2.408 0-4.732.616-6.328 1.848l1.372 2.548c1.12-.924 2.856-1.484 4.536-1.484 2.492 0 3.724 1.204 3.724 3.248v.224h-3.864c-4.536 0-6.216 1.96-6.216 4.452 0 2.604 2.156 4.48 5.572 4.48 2.24 0 3.864-.728 4.704-2.016V296h3.304v-8.764c0-4.312-2.492-6.356-6.804-6.356zm-.476 12.768c-1.792 0-2.856-.812-2.856-2.072 0-1.092.644-1.988 3.024-1.988h3.612v1.736c-.588 1.54-2.072 2.324-3.78 2.324zm-14.932-2.268l-4.956-14.98h-3.36l-5.068 14.896-4.872-14.896h-3.78l6.496 19.6h3.892l4.928-14.504L594.916 296h3.864l6.496-19.6h-3.472z" class="G"/><linearGradient id="A" x1="655" y1="247.7" x2="667.4" y2="226.4" gradientUnits="userSpaceOnUse"><stop offset="0" stop-color="#1964e7"/><stop offset="1" stop-color="#6884f2"/></linearGradient><path fill="url(#A)" d="M658 250.6c-.7-.2-1.3-.6-1.8-1.1-1.606-2.623-3.01-5.364-4.2-8.2.2 0 .6-.8 1.4-2.7 1.3-3 1.3-3 2.4-2.1a16 16 0 0 0 8.6 3.6c1.2.1 1.5.3 1.5.8l.6-.6c-1.4 3.4-3 6.8-4.8 10-.7.3-3 .5-3.6.3z"/><linearGradient id="B" x1="612.7" y1="226.5" x2="625.1" y2="247.9" gradientUnits="userSpaceOnUse"><stop offset="0" stop-color="#00cce6"/><stop offset="1" stop-color="#0082e7"/></linearGradient><path fill="url(#B)" d="M618.6 250.5c-.6-.3-.7-.4-1.6-2.5l-1.6-3.7-1-2.2 1 .8c.8 0 2.4-.4 4.3-1l1.7-.6c.6-.1.8-.3.8-.4 0-.2.2-.4.4-.4l1.8-.8c.8-.4 1.6-.6 1.7-.6s.2 0 .2-.2l.3-.1.8 1.3c.4 1.3.6 1.6.8 1.2.1-.2.2 0 .2.2 0 .6-3.7 7.2-4.5 8s-1.6 1.1-3.2 1.2c-1 0-1.6 0-2-.2z"/><radialGradient id="C" cx="658.2" cy="244.6" r="18.1" fx="658.2" fy="244.6" gradientUnits="userSpaceOnUse"><stop offset=".2" stop-color="#00cdff"/><stop offset=".5" stop-color="#00bcfa"/><stop offset=".8" stop-color="#00abf8"/><stop offset="1" stop-color="#0098f7"/></radialGradient><path fill="url(#C)" d="M658 250.5l-.3-.1c-.4 0-.5 0-.5-.3 0-.4 0-.4-.6-.4-.5 0-.5 0-.5-.7v-.5l.5.5a4 4 0 0 0 2.1 1.2c.7.1.7.5 0 .5-.3 0-.6 0-.6-.2z"/><path fill="url(#C)" d="M659 250.3s1 0 1.5-.2l1.2-.6c.6-.4.8-.4.6.2 0 .3-.2.4-.5.4-.2 0-.4 0-.4.2s-.4.4-1 .4c-.4 0-1.4-.2-1.4-.4zm-18.3-3.3c-.4-.6-.6-1-.8-1-.1.1-.1 0-.1-.3 0-.8 3.4-6.7 5.6-9.9 1.3-1.7 1.6-2 2-2s.5 0 .6.3v.7c-1 1.4-2 3-2.8 4.5a112.01 112.01 0 0 0-3.2 8.1l.6 2.4c0 .7-1.2-1.7-1.8-2.8zm14.3.3c0-.6.2-.7.5 0 .3.6.3.6-.1.6s-.4 0-.4-.6z"/><path fill="url(#C)" d="M654.2 245.9c0-.6.2-.6.5 0s.8 1.3.4 1.3-1-.8-1-1.3zm-.8-1.4c0-.4 0-.5-.3-.5s-.5-.3-.5-1c0-.3 0-.5-.3-.5-.2 0-.4-.1-.4-.4v-1l2.3 3.8-.4.2c-.4 0-.4 0-.4-.6z"/><path fill="url(#C)" d="M657.5 250.4l-.3-.1c-.2 0-.3-.2-.3-.2 0-.2-.2-.3-.3-.3-.4 0-.7-.5-.7-1s.2-.5.5-.1c.5.6 1 1 1.8 1.4.6.1.5.4-.2.4l-.5-.1zm-16-2.3c-.1-.4-.3-1 0-1l.2-.6c1.4-3.6 2.9-7.1 4.5-10.6l-1.5 2.2-1.3 1.7v-.5c0-.5 0-.6.4-.6.2 0 .4 0 .4-.6l.2-.8c0-.2 0-.4.2-.4.3 0 .6-.4.6-.8 0-.1 0-.2.2-.2l.1-.2c0-.2.2-.3.3-.4.1 0 .2-.1.2-.3l.2-.3c.2 0 .3-.2.3-.2 0-.2.9-1.2 1-1.2.2 0 1 1.6 1.1 2h-.4l-.3.4-1.7 3.4-1.6 3.3c-.1.6-1.2 3.2-1.7 4.5-.6 1.2-.8 1.6-1.1 1.6-.2 0-.2-.3-.3-.5zm12.8-1.9c0-.6.2-.6.6 0 .3.6.3.6-.2.6-.3 0-.4 0-.4-.6z"/><path fill="url(#C)" d="M653.5 244.9c0-.8.3-.8.6-.1.6 1.1.5.8-.2.6-.3-.1-.4 0-.4-.5z"/><path fill="url(#B)" d="M615.2 243.6c-.4-.6-.8-1.3-1-2l-1-2.2 1 .6c2-.3 10-4 10-4.8 0-.1.5-.8.6-.7l1.2 2.5c1 2.3 1.1 2.8.6 2.7-.5 0-1 .2-1.6.4l-1.8.8-.6.3.8-.1c.8 0 .5 0-1 .6l-2.2.7c-1.7.5-3.3.9-5 1.2z"/><path fill="url(#B)" d="M614 240.8v-.3c-.3 0-.6-.8-1.4-2.5 0 0 .7 0 1.4-.3 2.6-1 5-2.2 7.1-3.9 1.3-1 1.6-1.3 1.6-1.6l.3-.2.2-.1s0-.2.2-.2a13.6 13.6 0 0 1 1.7 4c-.3-.3-.5-.3-.5 0 0 .6-6.1 3.6-9.4 4.7l-1 .5c0 .1-.1 0-.1 0z"/><linearGradient id="D" x1="627.4" y1="233.3" x2="640" y2="255" gradientUnits="userSpaceOnUse"><stop offset="0" stop-color="#0cf4ff"/><stop offset=".3" stop-color="#04eefe"/><stop offset="1" stop-color="#00b1f7"/></linearGradient><path fill="url(#D)" d="M622 250l.6-.3 1-.8.6-.6v.6c0 .4-.4 1-.8 1-.1 0-.2 0-.2.2 0 .1-.2.2-.6.2-.3 0-.5 0-.5-.2z"/><path fill="url(#B)" d="M612.2 237.3l-.6-1.4.5-.2a18.7 18.7 0 0 0 9.9-7.2l.3.4 1.5 3.2.4 1c0 .2-.3 0-.4 0l-.1-.4s-.1-.2-.3-.2c-.1 0-.2.1-.2.3s-.3.5-1.6 1.6c-2 1.4-4.6 3-6.6 3.6l-1.3.5-.7.2-.8-1.4z"/><path fill="url(#C)" d="M651.3 261.7a6.8 6.8 0 0 1-4.2-3.3c-.9-1.5-1-1.5-.3-1.5l1.5-.5a5.23 5.23 0 0 1 3.7-.5c1.3.8 2.4 1.8 3.3 2.9l.7.9h.8l2.6-3.5c.2-.3-.8 2-2.2 3.9a6.7 6.7 0 0 1-6 1.6zm6.7-11.3c0-.3 0-.3.7-.2.6.2.4.5-.2.5-.4 0-.5 0-.5-.3z"/><path fill="url(#C)" d="M641.8 249c-.4-.8-.4-.9-.2-1.2a32 32 0 0 0 2.6-5.7c1-2.6 2.3-5 3.6-7.4-.1 0-.2 0-.2-.2 0-.5.4-.3.9.5s.5 1.5.2 1.5a55.8 55.8 0 0 0-5.1 11c-.5 1.1 3.2 10.5 3.2 10.6zm14.6.4v-.4l.5.3c.6.5.7.7 0 .7-.5 0-.5 0-.5-.6zm5.2.2l.7-.5.6-.6-.3.7c-.2.4-.4.6-.6.6l-.4-.2zm-6.4-2c0-.7 0-.7.6 0l.3.7h-.5c-.4 0-.5 0-.5-.6zm-2.2-4c0-.6 0-.6.5 0l.3.8-.4-.1c-.4 0-.4 0-.4-.6zm-.8-1.3c0-.6.1-.6.5 0l.4.8-.5-.2c-.4 0-.4 0-.4-.6z"/><path fill="url(#B)" d="M625.2 236l-.2-.5.4.4c.2.6.1.6-.2 0z"/><path d="M622 259.1v-.6c0-.4 0-.4.5-.4s.5 0 .5.6c0 .5 0 .6-.4.6-.3 0-.5-.1-.5-.2z" class="H"/><path fill="url(#B)" d="M612 236.5v-.2c-.2 0-1.4-2.6-1.4-2.6l3.6-1.6 1.2-.8c1.7-1.2 3.2-2.8 4.3-4.6.1-1 .3-1 1-.2.8.8 1.3 1.7 1.6 2.7.1.4 0 .5 0 .4-.2-.1-.4 0-.4.1-2 2.7-4.6 4.8-7.7 6-.8.3-1.4.6-1.4.8 0 .1 0 .1-.2 0 0-.2-.1-.3-.2-.1-.2.1-.6.2-.5 0z"/><path fill="url(#D)" d="M625.8 261.7c-.8-.2-2.1-.8-2.1-1 0 0 .2-.2.5-.2l.6.1h1.5c1 0 1.6.1 2 .3l.7.2c.3 0 .2.4 0 .6-.5.1-2.5.2-3.2 0z"/><path fill="url(#C)" d="M656.4 260.5c0-.3-.2-.3-.4-.3-.2.1-.5 0-1.2-.9a12 12 0 0 0-3.2-2.8c-.2-.2-.8-.3-1.1-.2-.8 0-2.5.8-3 1.3-.3.3-.7.4-.6.1l-.2-.1-2-3.5-.6-1h.5c.3 0 .4 0 .4.2 0 .3.3.4.4.1l1.4-1.2c1.3-1 1.3-1 1.3-1.6s0-.6.5-.6c.4 0 .5 0 1.3 1.3.5.8 1.4 1.8 2 2.4 1.2 1.2 2.1 1.6 3.5 1.3l1 .1s0 .2.2.2l1 .6c.3.4.8.6 1 .6l.6.1c-.2.5-1.3 2.6-2 3.4-.8 1-.8.8-.8.4zm-13.7-10c-.5-1-.7-1.6-.4-1.8 1-1.6 1.8-3.4 2.3-5.2 0-.5.5-1.6.8-2.3l.7-1.5c-.1 0 0 0 0 0 .1 0 .2 0 .2-.2s1.6-3.8 2-4.2c.3-.3.3 0 .8.8s.5.8.3 1.2l-2.6 4.8c-.7 1.3-.8 1.8-.8 2.4 0 .8-.3 2-1.1 3.7a8 8 0 0 0-.7 1.7c0 .2-.1.5-.4.7l-.1.6c0 .6-.4.4-1-.7zm17.3 0c0-.3.2-.4.5-.4l.5-.2h.3l.1-.2.2-.1.4-.3c.2-.3.2-.3.2.2 0 .4-.1.6-.3.6l-.3.3-.9.2c-.6 0-.8 0-.7-.2zm-4.2-1.4c0-.2-.1-.3-.3-.4-.2-.3-.3-1.4 0-1.4l1 1.5.2.5h-.5l-.4-.2zm-1.3-2.6c0-.7.1-.7.6 0l.3.6h-.4c-.4 0-.5 0-.5-.6zm-.8-1.4c0-.5 0-.6-.3-.6s-.3-.1-.3-.5v-.6c.3 0 .8.7.8.8l.3.8.5.8-.5-.1c-.4 0-.5-.1-.5-.6zm-1.3-2.5c0-.6 0-.6.5-.1.4.4.4.8-.1.8-.4 0-.4-.2-.4-.7z"/><path fill="url(#C)" d="M655.6 248.8l-.2-.8c0-.3 0-.4-.3-.4-.2 0-.3-.1-.3-.6s0-.5.2-.4l.5.8.3.7s.3 0 .2.1v.2c.2 0 .2.1.2.3.1.2 0 .3-.2.3l-.5-.2zm-1.6-3.2c0-.6 0-.6.3-.3l.4.6c.1.2 0 .2-.3.2s-.4 0-.4-.5zm-.8-1.5c0-.5 0-.5.3-.2l.4.6c.1.2 0 .3-.3.3s-.3-.1-.3-.7zm-.8-1.2c0-.6 0-.6.3-.4l.4.7c.1.1 0 .2-.2.2-.4 0-.4 0-.4-.5zm-.8-1.4c0-.4-.2-1 .3-.3l.4.5c0 .3 0 .3-.2.3-.3 0-.4 0-.4-.5z"/><path fill="url(#A)" d="M665.3 241.7v-.4c.1-.4-.3-.6-1.5-.7a16 16 0 0 1-8.4-3.7l-.6-.4-.5.8-.5.7 3.8-8c.2 0 .8.5 1.3 1.1 1.2 1.4 2.8 2.4 4.5 3 1.2.4 2.4.5 3.6.4h2.2l-.3.6-3 6.7c-.4.3-.5.3-.5 0z"/><path fill="url(#B)" d="M611.2 234.2s-.2-.1-.2 0c-.2 0-.6-1-.8-2-.3-1.1-.3-1.3.2-1.3s2-.6 2-.8l.7-.8c1-.6 1.9-1.4 2.7-2.4.4-.4.5-.8.6-1.5v-.8c.5 0 1.7.2 1.5.3-.5-.3.8.2 1.6.7l.8.5c.3.3.2.4 0 .8-.1 0-.2.2-.1.3s-1.3 1.9-2.4 3l-2.4 2c.2-.3-.3 0-.6.3l-.6.4c-2.3 1-2.8 1-2.8 1.3 0 .2 0 .2-.2 0z"/><path fill="url(#D)" d="M628.5 261.6c-.2 0-.3 0-.5-.2s-2-.3-2.6-.1c-.8.2-2.5-1-3.5-2.4l-.3-.8.6-.3 1.3-1c.4-.3.8-.6 1-.6l.1-.2c0-.2.2-.3.7-.3 1.6 0 3.5-1.5 5.2-4 .8-1.3.8-1.4 1.3-1.4.3 0 .5 0 .6.2l-.2 5.9c-.3 1.7-.1 2 .4 2 .4 0 .4 0-.1.7-1 1.5-3 2.7-4 2.5z"/><path fill="url(#C)" d="M658.6 257.3c0-.2 0-.3-.3-.1-.2 0-.5 0-1.1-.7a4 4 0 0 0-1-.8h-.3l-1-.1c-1.1 0-2.2-.3-3-1l-.6-.5h.5c1.8.3 3.7.1 5.4-.5l2.4-.5 1.3-.3-.3.8c-1.4 3.2-2 4.3-2 3.7zm-13.6-3h-.2s0-.2-.2-.3l-.1-.3c.1 0 .1 0 0-.1-.6-.8-1-1.8-1.4-2.7 0-.4 0-.6.3-.8l.4-.7.6-1.6c.8-1.8 1.1-2.8 1-3.6 0-.5 0-.9.7-2.1l3-5.9c.3.4.6.8.7 1.2.4.8.8 1.1.6 1.5-1 1.3-2 2.7-2.8 4.1-.4.8-.6 1.6-.8 2.6l1.2 2.2 2.4 4.2.4.5c.2 0 .2.4.2.7 0 .5 0 .5-.3.3l-1.1-1.6c-.8-1.2-.8-1.2-.9-.8 0 .4-.4.8-1.4 1.6l-1.7 1.4c-.4.4-.4.4-.7.3zm13.3-3.5c-.4 0-.5-.2-.5-.5s0-.3.4-.2l1.3.2 1.4-.2c.3-.1.4-.1.4.2s-.1.4-.8.5h-2.2zm-1.7-1.1c0-.5 0-.5-.5-.5s-.5 0-.5-.6c0-.7.2-.7.6 0 .3.3.5.7 1 .9.6.5.6.6 0 .6s-.6 0-.6-.4z"/><path d="M623.8 248.8c0-.3.6-1 .7-1l.1.5c0 .5 0 .6-.4.6l-.4-.1z" class="I"/><path fill="url(#C)" d="M654.8 247.5l-.2-.7c0-.3 0-.5-.2-.5-.4 0-.6-.2-.6-1 0-.3 0-.4-.3-.4-.2 0-.2-.1-.2-.5v-.6c.2 0 2.3 3.6 2.3 3.9 0 .2-.8 0-.8-.2zm-2.4-4.6c0-.7.2-.8.6-.1.4.5.4.6-.1.6-.4 0-.4 0-.4-.5zm-.8-1.5v-.5l.5.4c.5.5.5.8 0 .8-.4 0-.4-.1-.4-.7z"/><path fill="url(#B)" d="M622.2 229.7c-.3-.4-.3-.5 0-.5l.3.3c0 .5 0 .5-.3.2z"/><path d="M623.8 248.6c.5-.7.7-.7.7 0 0 .5 0 .6-.5.6h-.5zm3.3-5.5c0-.2.6-1 .7-1l.1.5c0 .5 0 .6-.4.6h-.4z" class="J"/><path fill="url(#B)" d="M610 231.2a6.66 6.66 0 0 1 3.5-5.8c1-.5 3.5-1 3.5-.7 0 .2.2.4.3.3.4-.1.3.1-.1.6-.2.3-.4.6-.3.7.1.4-2 2.6-3.2 3.4l-.8.8c0 .2-2.3 1.2-2.4 1 0 0 0 .2-.2.3-.2.2-.3-.1-.3-.6z"/><path fill="url(#D)" d="M631.7 258.6c.233-2.527.267-5.068.1-7.6-.1 0-.6.7-1 1.5-1.6 2.4-3.4 3.7-5 3.7-.6 0-.7 0-.6.3 0 .1 0 .2-.2.2-.1 0-.6.2-1 .6l-1.2.8c-.3.2-.5.4-.4.5 0 .2 0 .2-.3 0-.3-.1-.7-.6-1.2-1.9l-2-4.8c2.9.5 6.5.2 6.5.2 1.2-.1.3-1 1.5-.6 1.3.5-.3 1.6.8.8.3-.2.8-.2 1-.2.1-.1.3.3.3.2 0 0 .6.4.8.3.4-.4.6-1 3.2-5.3l3.8-6.6c1.4-2.2 1.4-2.3 2-2.3.4 0 .5 0 .5.5l-.4 1.2c-.3.3-.4.8-.4 1l-.4 1.1a46.8 46.8 0 0 0-3.4 12v1.2l-1.2 1.9c-.8 1.4-1 1.7-1.3 1.7a.6.6 0 0 1-.6-.4z"/><path fill="url(#C)" d="M651.8 254.5a19 19 0 0 1-3.5-4.8c-1.6-2.8-2-3.6-2-4.2 0-1 .4-2 .8-3l2.7-4.5c.2-.3.3-.2 1 1 .2.6.6 1 .5 1.1-1 1.3-2 2.8-2.5 4.4l-.8 2c0 1 0 1 .3 1.9l.7 1 .1.5c0 .2.9.5 1.5.5l.1.1 1.4-.1 3-.4c1.2 0 1.5-.2 1.5-.3.1-.3.2-.1 1 .1 1.4.5 3.4.6 4.6-.5.5-.4.5-.4-.8 2.4-.8 2-1.2 2.5-1.2 2 0-.2-1.2 0-2.6.4a9.6 9.6 0 0 1-4.3.7l-.3.1a1.92 1.92 0 0 1-1.2-.4z"/><path fill="url(#C)" d="M655.3 248.5l-.3-1c0-.4 0-.6-.4-.6-.3 0-.4-.3-.4-1 0-.2 0-.3-.3-.3-.4 0-.5-.3-.5-1 0-.4 0-.5-.3-.5s-.5-.3-.5-1c0-.2 0-.4-.3-.4-.1 0-.3 0-.4-.2v-1.2l2.3 3.9c2.1 3.7 2.1 3.8 1.7 3.8-.3 0-.5-.1-.6-.5z"/><path d="M627.4 242.8c.4-1.2.7-1.3.7-.5 0 .5 0 .6-.4.6-.3 0-.4 0-.3-.1z" class="K"/><path fill="url(#C)" d="M648.9 250.5l-1.3-2.2c-.6-1-.6-1-.2-1.3.1-.2.2-.4.1-.5.2-1 .4-1.9.9-2.8.5-1.6 1.3-3.1 2.2-4.5.1-.1.4.2.6.6 4.6 8.3 5.3 9.6 6.4 10.2.3.1.6.2.4.3v.2c-2.2-.2-4.5 0-6.6.7-.8.1-1 .1-1-.1l-.4-.2h-.3c-.3-.2-.3-.2-.2 0 .2.2.3 1 .2 1l-.8-1.4z"/><path fill="url(#D)" d="M619.3 250.8c-.4 0-.5-.2-.5-.5s0-.3.5-.2c.2 0 1 .2 1.6.1a3 3 0 0 0 1.8-.5l.8-.5v.5c0 .3 0 .4-.2.4-.1 0-.3 0-.3.2 0 .4-2.4.7-3.7.5z"/><path fill="url(#C)" d="M658.6 250.6c.1 0 .1-.2 0-.2h.5l.3.1c0 .2-.3.2-.5.2h-.3z"/><path fill="url(#A)" d="M668.4 235.3c.2-.3-.3-.4-2.2-.4a9 9 0 0 1-3.3-.4c-1.8-.6-3.3-1.7-4.6-3l-1-1-.3.4-.4.8.3-.8c.5-1.5 1.6-3.5 2.2-4.2a6.4 6.4 0 0 1 5.6-2c3.4.6 5.8 3.8 5.2 7.3-.1 1.1-.9 2.9-1.1 2.9 0 0-.2 0 0 .2 0 0 0 .2-.2.3h-.2z"/><path fill="url(#D)" d="M627.8 253.4l-3.3-.2c-1.6 0-3.2-.2-4.8-.4-.2 0-.3-.2-.4-.3l.1.8-1.8-4 .8.4a4 4 0 0 0 3.3.5c1.4-.4 2-1.1 4.3-5.1s2.6-4.5 2.6-3.6c0 .6-.2.9-.5.9s-.3.1-.3.5 0 .6-.3.6l-.2.3c0 .5-.2.8-.4.8l-.3.3c0 .4-.1.8-.4.8 0 0-.2.1-.2.3 0 .5-.2.8-.4.8 0 0-.2.1-.2.4s0 .4 1.4.5c.8 0 2 .1 2.9.3l2 .1c.6 0 .7-.2 1.7-1.7.3-.8.7-1.5 1.2-2.3l.3-.3.1-.2c0-.1 0-.3.2-.4l.3-.6.3-.4.1-.1.3-.5.3-.6.2-.3.2-.2.1-.3c.1 0 .2 0 .2-.2l.2-.5.5-.8.6-.8.3-.6.2-.1.1-.3s0-.2.2-.2l.1-.2c0-.1 0-.2.2-.2l.2-.2v-.3c.2 0 .2-.1.2-.2 0-.2.2-.3.2-.3.2-.1.3-.3.3-.4l.1-.2c.1 0 .2 0 .2-.2l.2-.4c.2 0 .3-.2.3-.3l.1-.2c.1 0 .2-.1.2-.3l.3-.4.5-.6c.5-.9 1.1-1.4 1.8-1.4.4 0 .5 0 .7.4.3.7 1 1 1.7.8l1.2-.2c.7 0 .8 0 .8.4-2.7 3.4-5 7-7 10.8-4 7.3-7.2 13.1-7.5 13.1 0 0-1.2-3.8-1.1-4 0-.2 1-1.3 1-1.6 0-.2-1.5.7-1.3.3a57 57 0 0 0 5-10.5c.7-1.3 4.2-2.3 4.2-2.4l.2-.2.1-.3c0-.2 0-.3.2-.3.6-.8 1-1.6 1.3-2.6l.1-.2v-.3l.1-.4c.2 0 .3-.1.3-.3 0-.5 1 .3 1.3.4s.2 5.5-.6.2c0-.3-.9.8-1 .6 0-.2 1.7 0 .9 1-2.4 3-6.8 4-11 11.4-3.2 5.6-3.8 6.3-4.1 6.2h-.3c0 .1-.1.1-.2 0 0 0-.2 0-.2.2s-.2.2-1.2 0z"/><linearGradient id="E" x1="627.4" y1="223.1" x2="627.4" y2="230.5" gradientUnits="userSpaceOnUse"><stop offset="0" stop-color="#40fafd"/><stop offset="1" stop-color="#00e0ff"/></linearGradient><path fill="url(#E)" d="M627.8 230.9a5.1 5.1 0 0 1-2.6-3.2l1.8.4h1.8v.8l-.2 1.6-.1.8-.8-.4z"/><path fill="url(#D)" d="M623.4 249.3l2.5-4 8.5-14.4c.9-1.4 4-4.4 5-5.2l1.2-.8-.4.8c0 .4-.3 1-.5 1.4-.7 1.1-1 2.4-1 3.6.2.8.7 1.6 1.2 2 .4.2.5.2 1.5-.2 1.2-.7 1.5-.8 1.7-1.2.2-.2.4-.3.8-.3.5 0 .5 0 .5.5v.2l-.2-.2c-.7 0-4.8 6-9 13-2.6 4.4-3.2 5.3-3 4.8s0-.8-.3-.5c-.1.1-.5 0-1.6 0-1.6-.3-3.2-.6-4.8-.7-.3 0-.6.2-1 .7l-.8.7-.5.2c-.2.1-.2.1.2-.4zm17.8-5.8l.4-.6-.2.6-.4.6.2-.6zm.8-1.4l.4-.7-.2.7-.4.6.2-.6zm.6-1.2c1.1-2 2.3-3.8 3.6-5.6l.7-1.2c0-.1 0-.2.1-.1.2 0 .3-.2.2-.7 0-.1 0-.2.2-.2s.6-.4.4-.5c-.1-.1-.4-.1-.2 0 0 .2 0 .2-.4 0-.4 0-.5 0-.4.2 0 0 0 .1-.2 0-.4 0-.4-.5 0-.5.1 0 .3 0 .3-.2l.1-.1c.4 0 .8-.3 1.2-.4l2.4-1.2c.2-.3 2.2-2.2-1.3 1.6l-1.8 2c-.5.6 0-.2 0-.1l-1 1.4c-1.419 1.781-2.722 3.651-3.9 5.6z"/><path fill="url(#E)" d="M628.4 228.9c.2-.4-1.4-.4-1.6-.2s-.3.2-.3 0 0-.2-.1 0c-.2.2-.2.2-.6 0-.5-.2-1-1.4-.8-2.6 0-2.3 1.6-3.5 2.5-3.6.8 0 1.4 0 1.9.5.4.6.6.8.6 1.5 0 .5-.2 1-.5 1.8l-.7 1.8c0 .5-.2 1-.3 1 0 0-.1-.2 0-.2z"/><linearGradient id="F" x1="639" y1="212.7" x2="639" y2="225.1" gradientUnits="userSpaceOnUse"><stop offset="0" stop-color="#8ef6fd"/><stop offset="1" stop-color="#2be8ff"/></linearGradient><path fill="url(#F)" d="M633.4 225.7a7.7 7.7 0 0 1-.7-3.6c0-2.5.9-5 2.6-7l.1.5c0 .5 0 .5-.3.5-.2 0-.3 0-.1.2l.1.5c0 .8 3.2 2.2 5.3 2.5 1.2.1 1.3.1 2-.3l1-.4c.5 0 .6 0 .6-.5 0-.4 0-.5.2-.5l.3-.5c0-.4.1-.5.5-.5.3 0 .2-1.6.2-1.6.6 0-.4 2.9-2 4-.2 0 .8-.2.8 0 0 .3-1.8 1.4-3.3 2-3.2 1.4-5.6 2.9-6.5 4.3-.4.6-.5.7-.8.4z"/><path d="M644.3 231.7c0-.4-.4-.4-.6-.1-.2.1-.2 0-.2-.3 0-.5 0-.5.6-.5.5 0 .5 0 .5.5 0 .3 0 .6-.2.6v-.2z" class="L"/><path fill="url(#F)" d="M640.2 219.8l-2.4-.6c-1.6-.6-3-1.5-3.2-2 0-.2 0-.3-.2-.3 0 0-.2.3-.3.2l.1-.5s.1 0 0-.1l.4-.6.4-.6c.1 0 .6-.6.8-.6l1 .5c1.1.8 2.4 1.3 3.8 1.6.8.1 1 0 2.4-.3l2-.4c.4 0 .4 0 .4.6 0 .3 0 .6-.2.5h-.2v.5c0 .2-.4.8-.8 1.2-.5.4-.8.7-.8.5.1-.3 0-.3-.4 0-.8.6-1.2.7-2.8.4z"/><linearGradient id="G" x1="652.3" y1="210.8" x2="652.3" y2="215" gradientUnits="userSpaceOnUse"><stop offset="0" stop-color="#92eefe"/><stop offset="1" stop-color="#59e5fe"/></linearGradient><path fill="url(#G)" d="M651.1 215.5c-1.7-.8-2-3.4-.5-4.6.5-.4 1.9-.8 2.2-.5.4.5.3.6 1.3.6 0 0 .8.6.8 1.1a2.7 2.7 0 0 1-3.8 3.4z"/><path fill="url(#F)" d="M639.8 217.3c-.8-.2-2.4-1-3.5-1.6-.6-.4-.8-.5-1-.4-.7.4-.3-.1.7-1a9 9 0 0 1 4.6-2.2c2.8-.2 4.6 1.5 4.8 3.8.2.6-.2 1.8-.5 2s-.3 0-.3-.2l.1-.3c0 .3.2 0 .2-.3v-.5l-1.5.4c-1 .4-2.4.5-3.6.3z"/><path fill="url(#G)" d="M654.6 212h-1.3c-1.1 0-1.3 0-1.7-.4-.2-.3-.6-.5-.8-.5-.4 0 0-.4.7-.6.7-.3 1.4-.2 2 .1.7.3 1.1.8 1.2 1.3.1.3 0 .4-.1.2z"/><linearGradient id="H" x1="644.2" y1="223.2" x2="649" y2="231.2" gradientUnits="userSpaceOnUse"><stop offset="0" stop-color="#a6feff"/><stop offset=".5" stop-color="#bffdfe"/><stop offset="1" stop-color="#97edff"/></linearGradient><path fill="url(#H)" d="M644.8 232.3l-.6-.7c0-.3-.8 0-1 .2s.5-.3.5-.7c0-.3.3-.8 1.4-2 2-2 2.8-2.7 3.6-2.7.5 0 .6 0 .7.5.2 1.5 0 3.6-.6 4-.2.2-.2.4-.2.7s0 .4-.6.6c-.3.2-1.1.3-1.8.4-1 0-1 0-1.4-.3z"/><path fill="url(#H)" d="M648.2 232c0-.1 0-.2-.2 0-.2 0-.2 0-.2-.2l.2-.6.2-.7c.6-.5 1-2.8.6-3v-.6c-.4 0-1.8 1.2-3.3 2.7l-1.3 1.6v-.6c0-.6.1-1 .7-1 .2 0 .3 0 .3-.3 0-.4.2-.8.8-1.3l1-.8.8-.7c1.6-1.4 3.5-2.4 5.6-2.6 1 0 1 0 1.5.3.5.5.6 1 .5 1.6a5 5 0 0 1-1.4 1.5l-3 2.8a8 8 0 0 1-2.2 1.8c-.8.3-.8.3-.6 0z"/><path fill="url(#H)" d="M639.8 233.1c-.7-.2-1.3-1.1-1.5-2-.1-2 .4-4 1.6-5.7a16 16 0 0 1 6.4-3c3.4-.8 6.4-.3 8 1.3.8.6 1.1 1.2 1.1 1.8 0 .4-.3.8-.6.8-.2 0 0 0 .2-.2.4-.4.4-.8 0-1.3-.3-.3-.5-.3-1.2-.3-2.4 0-5.5 1.9-8.6 5.4a11.3 11.3 0 0 1-4 3.2c-.8.2-.9.2-1.4 0z"/><path fill="#f2f2f2" d="M0 32h1280v63.7H0z"/><path d="M22 81.8l-3.6-2.7v2h-7.6v1.4h7.6v2.1l3.5-2.8zM14.6 77v2.8H16V77h7.3v9.7H16V84h-1.4v2.8c0 .8.7 1.4 1.4 1.4h7.3c.8 0 1.4-.6 1.4-1.4V77c0-.8-.6-1.4-1.4-1.4H16c-.7 0-1.4.6-1.4 1.4z"/><path fill="#e1e1e2" d="M0 96h1280v1H0z"/><path fill-opacity=".7" d="M27 51H15.4l4.3-4.3a1 1 0 0 0-1.4-1.4l-6 6a1 1 0 0 0 0 1.4l6 6a1 1 0 0 0 1.4-1.4L15.4 53H27a1 1 0 1 0 0-2zm32.7.3l-6-6a1 1 0 0 0-1.4 1.4l4.3 4.3H45a1 1 0 1 0 0 2h11.6l-4.3 4.3a1 1 0 0 0 .387 1.777A1 1 0 0 0 53.7 58.7l6-6a1 1 0 0 0 0-1.4zM91 45a1 1 0 0 0-1 1v2.4a7 7 0 0 0-12.917 2.856A7 7 0 0 0 89 57a1.06 1.06 0 1 0-1.5-1.5 5 5 0 0 1-8.498-4.386A5 5 0 0 1 88.5 50H86a1 1 0 1 0 0 2h5a1 1 0 0 0 1-1v-5a1 1 0 0 0-1-1z"/><path d="M118.3 37h1097a4 4 0 0 1 4 4v22a4 4 0 0 1-4 4h-1097a4 4 0 0 1-4-4V41a4 4 0 0 1 4-4z" class="C"/><text xml:space="preserve" x="145" y="59" font-size="13" fill="#000" class="B N">Search or enter address</text><path fill="gray" d="M122.3 50.4a4 4 0 1 1 8 0 4 4 0 1 1-8 0zm4-5.5a5.5 5.5 0 0 0-3.103 9.94 5.5 5.5 0 0 0 6.403.06l4 4a.8.8 0 0 0 1.1-1.1l-4-4a5.5 5.5 0 0 0-4.4-8.9z" class="G"/><path fill="none" stroke="#0c0c0d" stroke-opacity=".3" d="M118.3 37.5h1097c2 0 3.5 1.6 3.5 3.5v22c0 2-1.6 3.5-3.5 3.5h-1097c-2 0-3.5-1.6-3.5-3.5V41c0-2 1.6-3.5 3.5-3.5z"/><path d="M1241 55v2h-10v-2h-1v2c0 .3 0 .5.3.7.1.2.4.3.7.3h10a1 1 0 0 0 1-1v-2h-1zm0-5l-.7-.7-3.8 3.8V44h-1v9l-3.8-3.7-.7.7 5 5 5-5zm22.2-2.5H1252v-1h11.2v1zm0 8H1252v-1h11.2v1zm0-4H1252v-1h11.2v1z"/><text xml:space="preserve" x="32" y="87" font-size="12" fill="#000" class="B">Import bookmarks..</text><path fill="#ccc" d="M0 0h1280v32H0z"/><path fill="#ed6a5e" d="M25 15a6 6 0 1 1-12 0 6 6 0 1 1 12 0z"/><path fill="none" stroke="#ce5347" d="M24.8 15a5.75 5.75 0 0 1-11.5 0 5.7 5.7 0 1 1 11.4 0z" class="M"/><path fill="#f6be4f" d="M45 15a6 6 0 1 1-12 0 6 6 0 1 1 12 0z"/><path fill="none" stroke="#d6a243" d="M44.8 15a5.75 5.75 0 1 1-11.5 0 5.75 5.75 0 1 1 11.5 0z" class="M"/><path fill="#62c554" d="M65 15a6 6 0 1 1-12 0 6 6 0 1 1 12 0z"/><path fill="none" stroke="#58a942" d="M64.8 15a5.75 5.75 0 1 1-11.5 0 5.75 5.75 0 1 1 11.5 0z" class="M"/><path fill="#f2f2f2" d="M106 0h224v32H106z"/><path fill="#0a84ff" d="M106 0h224v1.5H106z"/><linearGradient id="I" x1="126" y1="19" x2="129.3" y2="13.3" gradientUnits="userSpaceOnUse"><stop offset="0" stop-color="#1964e7"/><stop offset="1" stop-color="#6884f2"/></linearGradient><path fill="url(#I)" d="M126.8 19.7l-.5-.2a16.2 16.2 0 0 1-1.1-2.2l.4-.8c.3-.7.3-.8.6-.5.7.5 1.5.9 2.3 1l.4.1.2-.1-1.3 2.7h-1z"/><linearGradient id="J" x1="114.7" y1="13.3" x2="118" y2="19" gradientUnits="userSpaceOnUse"><stop offset="0" stop-color="#00cce6"/><stop offset="1" stop-color="#0082e7"/></linearGradient><path fill="url(#J)" d="M116.3 19.7c-.2 0-.2 0-.4-.7l-.4-1-.3-.5.3.2 1-.3.6-.1.2-.2.5-.3.5-.1.1-.1.2.3c.2.4.2.5.3.4l-1.2 2.2c-.2.2-.4.2-.8.3h-.6z"/><radialGradient id="K" cx="126.9" cy="18.1" r="4.8" fx="126.9" fy="18.1" gradientUnits="userSpaceOnUse"><stop offset=".2" stop-color="#00cdff"/><stop offset=".5" stop-color="#00bcfa"/><stop offset=".8" stop-color="#00abf8"/><stop offset="1" stop-color="#0098f7"/></radialGradient><path fill="url(#K)" d="M126.8 19.7l-.2-.1-.2-.1-.1-.2v-.1l.1.1.6.3c.2 0 .2.2 0 .2h-.2z"/><path fill="url(#K)" d="M127 19.7h.5l.3-.2c.2-.2.2-.2.2 0l-.2.1-.4.2-.3-.1zm-4.8-1l-.2-.2c0-.3.9-1.8 1.5-2.7.3-.5.4-.5.5-.5h.1v.2l-.7 1.2-.9 2.2.2.6c0 .2-.3-.4-.5-.7zm3.8.2c0-.2 0-.2.1 0 .1.1.1.1 0 .1l-.1-.1z"/><path fill="url(#K)" d="M125.8 18.5c0-.2 0-.2.1 0l.1.3-.2-.3zm-.2-.4l-.1-.1-.1-.3-.1-.1-.1-.1v-.3l.6 1h-.2z"/><path fill="url(#K)" d="M126.7 19.7h-.1l-.1-.1c-.2 0-.3-.2-.3-.3 0-.2 0-.2.2 0l.4.3c.2 0 .2.1 0 .1h-.1zm-4.3-.6v-.4l1.3-2.9-.4.6-.4.5v-.2l.1-.1.1-.2v-.2l.1-.1.2-.2v-.1l.1-.1.1-.1v-.1h.1l.3-.4.3.6h-.1l-.6 1-.4.9-.4 1.1-.3.5V19zm3.4-.5c0-.2 0-.2.2 0v.1l-.2-.1z"/><path fill="url(#K)" d="M125.6 18.2c0-.2 0-.2.2 0 .1.3 0 .2 0 .2-.2 0-.2 0-.2-.2z"/><path fill="url(#J)" d="M115.4 17.9a3 3 0 0 1-.3-.6l-.2-.5.2.1a8 8 0 0 0 2.7-1.3l.1-.1.4.6c.2.6.3.8.1.7l-.4.2-.5.2h-.1.2c.2 0 .1 0-.3.2l-.6.2-1.3.3z"/><path fill="url(#J)" d="M115 17.1l-.3-.7.4-.1a7 7 0 0 0 1.9-1l.4-.5h.1a3.6 3.6 0 0 1 .5 1c0-.1-.1-.1-.1 0s-1.6 1-2.5 1.2l-.3.1z"/><linearGradient id="L" x1="118.7" y1="15.1" x2="122" y2="20.9" gradientUnits="userSpaceOnUse"><stop offset="0" stop-color="#0cf4ff"/><stop offset=".3" stop-color="#04eefe"/><stop offset="1" stop-color="#00b1f7"/></linearGradient><path fill="url(#L)" d="M117.2 19.6h.1l.3-.3.2-.2v.2l-.2.2v.1h-.4z"/><path fill="url(#J)" d="M114.6 16.2l-.2-.4h.2a5 5 0 0 0 2.6-2v.2l.5.8v.3-.1h-.1l-.5.4c-.6.4-1.2.8-1.8 1l-.3.1h-.2l-.2-.3z"/><path fill="url(#K)" d="M125 22.7a1.44 1.44 0 0 1-1.1-.9c-.2-.4-.3-.4 0-.4l.3-.1c.3-.2.7-.2 1-.1l.9.7.2.3h.2l.7-1s-.2.6-.6 1c-.4.5-1 .6-1.6.5zm1.8-3c0-.1 0-.1.2 0h0-.2z"/><path fill="url(#K)" d="M122.5 19.3V19l.6-1.5 1-2c0-.2 0-.1.2 0v.5c-.5.9-1 1.9-1.3 3-.2.2.8 2.7.8 2.7zm3.9.1h.1c.2.1.2.2 0 .2l-.1-.2zm1.4 0h.2l.1-.2v.2l-.2.1h-.1zM126 19c0-.2 0-.2.1 0v.1l-.2-.1zm-.6-1.1c0-.2 0-.2.1 0v.2l-.1-.2zm-.3-.4c0-.1 0-.1.2 0l.1.2h-.1c-.2 0-.2 0-.2-.2z"/><path fill="url(#J)" d="M118 15.8h.1c0 .2 0 .2 0 0z"/><path d="M117.2 22h0l.1-.1.2.1-.1.2h-.2z" class="H"/><path fill="url(#J)" d="M114.5 16l-.3-.8 1-.4.2-.2c.5-.3.9-.7 1.2-1.2 0-.3 0-.3.3 0 .2.1.3.4.4.6v.1h-.1c-.5.8-1.3 1.3-2 1.7-.3 0-.5.1-.5.2h-.2z"/><path fill="url(#L)" d="M118.2 22.7l-.6-.3h1.3l.2.1v.2h-.9z"/><path fill="url(#K)" d="M126.4 22.4h-.1c-.1 0-.2 0-.4-.3l-.8-.8h-.3l-.8.3s-.2.1-.2 0l-.5-1-.2-.2h.2c0 .1.1.2.2.1l.3-.3c.4-.3.4-.3.4-.5v-.1c.2 0 .2 0 .4.3l.6.7c.3.3.5.4 1 .3h.2l.3.3.3.1h.1l-.5 1c-.2.2-.2.2-.2 0zm-3.7-2.7c-.1-.2-.2-.4 0-.5l.5-1.3.3-.7.1-.4.6-1.1c.1-.1.1 0 .2.2.2.2.2.2.1.3a20.5 20.5 0 0 0-.9 2c0 .1 0 .4-.3 1l-.2.4v.1l-.1.2c0 .2-.1.1-.3-.2zm4.6 0l.2-.1h.2v-.1l.2-.1v.2h-.1l-.3.1h-.2zm-1.1-.4c-.1-.1-.1-.4 0-.4l.2.4h-.2zm-.3-.7c0-.1 0-.1.1 0l.1.2h-.1l-.1-.2zm-.3-.3V18l-.1-.1v-.2l.2.2.1.3.1.2h-.1c-.1 0-.2 0-.2-.2zm-.3-.7c0-.2 0-.2.1 0 .1.1.1.2 0 .2v-.2z"/><path fill="url(#K)" d="M126.2 19.3V19h-.2v-.4l.1.2.1.2.1.1v.1h-.2zm-.5-.9c0-.1 0-.1.1 0h.1v.2c-.1 0-.2 0-.2-.2zm-.2-.4c0-.1 0-.1.1 0l.1.1h-.2zm-.2-.3v-.1l.2.2-.2-.1zm-.2-.4s0-.3 0 0h.2v.1h-.2z"/><path fill="url(#I)" d="M128.7 17.4v-.1c0-.2 0-.2-.3-.2-.9-.1-1.7-.5-2.3-1l-.2-.1v.2l-.2.2 1-2.2.3.3c.4.4.8.7 1.3.8.2.1.6.2.9.1h.6l-.1.2-.8 1.8h-.1z"/><path fill="url(#J)" d="M114.3 15.4l-.3-.6.1-.3.5-.2.2-.2.7-.7.2-.4v-.2h.4l.4.3.3.1v.2s-.1 0 0 .1l-.7.8-.6.5-.2.1-.2.1-.7.4z"/><path fill="url(#L)" d="M119 22.7h-.2c0-.1-.6-.2-.7-.1-.2 0-.7-.2-1-.7v-.2h.1l.4-.3.3-.2h.2c.4 0 1-.5 1.4-1.2l.3-.3h.2v1.6c-.2.4-.1.5 0 .5s.1 0 0 .2c-.3.4-.8.7-1 .7z"/><path fill="url(#K)" d="M127 21.5h-.1l-.3-.2-.3-.2h-.3c-.3 0-.6-.1-.8-.3l-.2-.1h.2c.4 0 1 0 1.4-.2h.6l.4-.2-.1.2c-.4.9-.6 1.2-.6 1zm-3.7-.7v-.2h-.1l-.4-.8.1-.2.1-.2.2-.4.3-1 .1-.5.8-1.6.2.3.2.4-.8 1.1-.2.7.3.6.7 1.1v.2l.1.1v.1l-.3-.4-.3-.2s0 .2-.4.4l-.4.4c-.1.1-.1.1-.2 0zm3.6-1l-.1-.1c0-.1 0-.1 0 0h.8c0-.1 0-.1 0 0h-.7zm-.5-.3l-.1-.1-.1-.2c0-.2 0-.2.1 0l.3.3c.1 0 .1.1 0 .1l-.2-.1z"/><path d="M117.7 19.3l.2-.3v.1l-.1.2h-.1z" class="I"/><path fill="url(#K)" d="M126 19l-.1-.3v-.1c-.2 0-.2 0-.2-.3-.2 0-.2-.1-.2-.2v-.2l.7 1h-.3zm-.7-1.3c0-.2 0-.2.2 0v.1l-.2-.1zm-.2-.4v-.2l.1.2c.1.1.1.2 0 .2v-.2z"/><path fill="url(#J)" d="M117.3 14.2c-.1-.1-.1-.2 0-.2v.1c0 .1 0 .1 0 0z"/><path d="M117.7 19.2c.1-.2.2-.2.2 0 0 .1 0 .2-.2.2zm.9-1.5l.1-.2v.3h-.1z" class="J"/><path fill="url(#J)" d="M114 14.6a1.78 1.78 0 0 1 1-1.6l.9-.2v.1c.1 0 .1 0 0 .2v.2l-1 .9-.1.2-.7.3-.1-.1z"/><path fill="url(#L)" d="M119.8 21.9a12.8 12.8 0 0 0 0-2l-.3.3c-.4.7-.9 1-1.3 1-.1 0-.2 0-.1.1l-.4.2-.3.2c0 .1-.1.1 0 .2h-.2l-.3-.5-.5-1.3h1.7c.3 0 0-.2.4-.1.3.1 0 .4.2.2h.6l.8-1.3 1.6-2.4.1.1-.1.3-.1.3-.1.3-.1.3c-.4 1-.7 1.9-.8 2.9v.3l-.3.5-.4.5-.1-.1z"/><path fill="url(#K)" d="M125.1 20.8a5 5 0 0 1-.9-1.3l-.5-1.1c0-.3 0-.6.2-.8l.7-1.2.3.2c0 .2.2.3.1.4l-.7 1.1-.2.6.1.5.2.2v.2h.4v.1h.4l.8-.1.4-.1h.3c.4.2.9.2 1.2 0 .2-.2.2-.2-.2.5l-.3.6h-.7a2.6 2.6 0 0 1-1.2.3l-.4-.1z"/><path fill="url(#K)" d="M126 19.2v-.3l-.1-.1-.1-.3c-.2 0-.2-.2-.2-.4h-.1l-.1-.3-.1-.2h-.1v-.3l.6 1c.6 1 .6 1 .4 1l-.1-.1z"/><path d="M118.6 17.7c.2-.4.2-.4.2-.2v.2h-.2z" class="K"/><path fill="url(#K)" d="M124.4 19.7l-.4-.6v-.4l.2-.8.6-1.2.2.2c1.2 2.2 1.4 2.5 1.7 2.7h.1v.1c-.6 0-1.2 0-1.8.2h-.4c0-.1 0-.1 0 0v.2l-.2-.4z"/><path fill="url(#L)" d="M116.5 19.8l-.2-.1c0-.1 0-.1.2 0h.4l.5-.2.2-.1v.2h-.1c0 .2-.7.3-1 .2z"/><radialGradient id="M" cx="126.9" cy="19.7" r=".2" fx="126.9" fy="19.7" gradientUnits="userSpaceOnUse"><stop offset=".2" stop-color="#00cdff"/><stop offset=".5" stop-color="#00bcfa"/><stop offset=".8" stop-color="#00abf8"/><stop offset="1" stop-color="#0098f7"/></radialGradient><path fill="url(#M)" d="M127 19.7h.1-.2z"/><path fill="url(#I)" d="M129.6 15.7l-.6-.1c-.3 0-.6 0-.9-.2a3 3 0 0 1-1.2-.7l-.3-.3-.2.3.1-.2c.1-.4.4-1 .6-1.1a1.7 1.7 0 0 1 2.9 1.4c0 .3-.3.7-.3.7v.2h-.1z"/><path fill="url(#L)" d="M118.7 20.5h-.8l-1.3-.2h-.1v.2l-.5-1.1.2.1c.3.2.6.2 1 .1.3 0 .4-.3 1-1.3.7-1.1.7-1.2.7-1v.3l-.2.1v.2c0 .2-.1.2-.2.2v.1l-.2.2v.1l-.1.2v.1l.3.2h1.3c.2 0 .2 0 .4-.4l.3-.6h.1v-.1l.1-.1.1-.2.1-.1v-.2l.2-.1V17l.1-.1.1-.2.1-.2.2-.2v-.2h.1V16h.1 0l.1-.1v-.1h.1v-.1l.1-.1v-.1h.1v-.1l.1-.1.1-.2h.1l.1-.2c.2-.3.3-.4.5-.4l.2.1c0 .2.3.3.5.2h.5l-1.9 3-2 3.4-.3-1 .3-.5-.3.1a15.2 15.2 0 0 0 1.3-2.8c.2-.3 1.1-.6 1.1-.6l.1-.1v-.1l.4-.7v-.2l.1-.1c0-.2.3 0 .4 0 0 0 0 1.5-.2.1l-.3.2s.5 0 .3.3c-.7.7-1.8 1-3 3-.8 1.5-1 1.7-1 1.6h-.1l-.1.1h-.4z"/><linearGradient id="N" x1="118.7" y1="12.4" x2="118.7" y2="14.4" gradientUnits="userSpaceOnUse"><stop offset="0" stop-color="#40fafd"/><stop offset="1" stop-color="#00e0ff"/></linearGradient><path fill="url(#N)" d="M118.7 14.5a1.4 1.4 0 0 1-.6-.9l.4.1h.5v.9l-.3-.1z"/><path fill="url(#L)" d="M117.6 19.4l.6-1 2.3-4 1.4-1.3.3-.2-.2.2v.4a2 2 0 0 0-.3 1c0 .2.1.4.3.4 0 .1.1.1.4 0l.4-.3h.4v.1c-.3 0-1.3 1.5-2.5 3.4l-.8 1.3v-.1h-.5l-1.3-.2-.2.2-.3.2c-.1 0-.1 0 0 0zm4.7-1.5l.1-.2v.2l-.1.1h0zm.2-.4l.1-.2v.2l-.1.1v-.1zm.2-.3l1-1.5.1-.3s0-.1 0 0l.1-.3.2-.2s-.1 0 0 0h-.2s-.1 0 0 0c0 .1 0 .1-.2 0h.1v-.1l.4-.1.6-.3c0-.1.6-.6-.3.4l-.5.5c-.1.2 0 0 0 0l-.3.4-1 1.5z"/><path fill="url(#N)" d="M119 14l-.5-.1h-.3l-.2-.7c0-.6.4-1 .7-1 .2 0 .3 0 .5.2l.1.4v.5c-.2.1-.2.3-.3.5v.2z"/><linearGradient id="O" x1="121.7" y1="9.6" x2="121.7" y2="12.9" gradientUnits="userSpaceOnUse"><stop offset="0" stop-color="#8ef6fd"/><stop offset="1" stop-color="#2be8ff"/></linearGradient><path fill="url(#O)" d="M120.3 13a2 2 0 0 1-.2-.8c0-.7.2-1.4.6-2v.5c0 .2.9.6 1.4.7h.5l.3-.2.2-.1v-.2l.2-.2c.1 0 0-.4 0-.4.3 0 0 .7-.4 1h.2l-1 .6c-.8.3-1.4.7-1.6 1.1-.1.2-.2.2-.2 0z"/><path d="M123.2 14.7h-.2v-.2l.2.1v.2-.1z" class="L"/><path fill="url(#O)" d="M122 11.5l-.6-.1c-.4-.2-.8-.4-.8-.6h-.2v-.1l.2-.2v-.2l.3-.1.2.1c.3.2.7.4 1 .4h.7l.5-.1.1.1v.3l-.3.3-.2.1h-.1c-.2.2-.3.2-.7.1z"/><linearGradient id="P" x1="125.3" y1="9.1" x2="125.3" y2="10.3" gradientUnits="userSpaceOnUse"><stop offset="0" stop-color="#92eefe"/><stop offset="1" stop-color="#59e5fe"/></linearGradient><path fill="url(#P)" d="M125 10.4a.7.7 0 0 1-.2-1.2l.6-.2c.1.1.1.2.4.2 0 0 .2.1.2.3a.7.7 0 0 1-1 .9z"/><path fill="url(#O)" d="M122 10.9a3 3 0 0 1-1-.5h-.3l.2-.3c.4-.4.8-.5 1.3-.6.7 0 1.2.4 1.3 1l-.2.5v-.3h-.4c-.3.2-.6.2-1 .2z"/><path fill="url(#P)" d="M125.9 9.5h-.4c-.3 0-.3 0-.4-.2h-.2c-.1 0 0-.2.2-.3h.5l.3.4c0 .1 0 .1 0 0z"/><linearGradient id="Q" x1="123.1" y1="12.4" x2="124.4" y2="14.6" gradientUnits="userSpaceOnUse"><stop offset="0" stop-color="#a6feff"/><stop offset=".5" stop-color="#bffdfe"/><stop offset="1" stop-color="#97edff"/></linearGradient><path fill="url(#Q)" d="M123.3 14.9l-.2-.2c0-.1-.2 0-.2 0-.1 0 0 0 0-.2l.5-.5c.5-.5.7-.7 1-.7l.1.1c0 .4 0 1-.2 1.1v.2l-.2.1-.4.1h-.4z"/><path fill="url(#Q)" d="M124.2 14.8h-.1v-.2l.1-.2c.1-.2.3-.8.1-.8v-.1l-.8.6-.4.5v-.2c0-.2 0-.2.2-.2V14l.3-.4.3-.2.2-.2c.4-.4 1-.6 1.5-.7l.4.1.1.4c0 .2-.2.3-.4.4l-.8.8-.6.5h-.1z"/><path fill="url(#Q)" d="M122 15c-.2 0-.4-.2-.4-.5 0-.5 0-1 .4-1.5.5-.4 1-.6 1.7-.8.9-.2 1.7 0 2.1.4a.55.55 0 0 1 .3.5s0 .2-.2.2v-.1c.2-.1.2-.2 0-.3l-.2-.1c-.7 0-1.5.5-2.3 1.4a3 3 0 0 1-1 .9h-.5z"/><text xml:space="preserve" x="139" y="23" font-size="11" fill="#0c0c0d" class="B">New Tab</text><path fill-opacity=".8" d="M315 16l3.8-3.8a.71.71 0 0 0 0-1 .71.71 0 0 0-1 0L314 15l-3.8-3.8a.71.71 0 0 0-1 0 .71.71 0 0 0 0 1L313 16l-3.8 3.8a.7.7 0 0 0-.1.8.7.7 0 0 0 1.1.2L314 17l3.8 3.8a.7.7 0 0 0 1.2-.5c0-.2 0-.4-.2-.5L315 16z"/><path fill="#303030" d="M354 15h-5v-5a1 1 0 1 0-2 0v5h-5a1 1 0 1 0 0 2h5v5a1 1 0 1 0 2 0v-5h5a1 1 0 1 0 0-2z"/><path d="M369.9 329.1H910a8 8 0 0 1 8 8V367a8 8 0 0 1-8 8H370a8 8 0 0 1-8-8v-30a8 8 0 0 1 8-8z" class="C"/><path fill="none" stroke="#444348" stroke-linecap="square" stroke-linejoin="round" d="M904.3 352.5h-10m10 0l-4.4 4.6m4.4-4.6L900 348"/><text xml:space="preserve" x="398" y="359" font-size="13" fill="#000" class="B N">Search the  web</text><path fill="#1b66e9" d="M373.9 350.2a4.6 4.6 0 0 1 7.043-4.542 4.6 4.6 0 0 1-2.493 8.466 4.6 4.6 0 0 1-4.55-3.924zm4.6-6.1a6 6 0 0 0-3.264 10.863 6 6 0 0 0 6.964.037l4.6 4.6c.304.276.774.254 1.05-.05s.254-.774-.05-1.05l-4.5-4.6a6 6 0 0 0-4.8-9.8z" class="G"/><path fill="#e5e5e6" d="M248 398h86.4a5 5 0 0 1 5 5v101.4a5 5 0 0 1-5 5h-86.3a5 5 0 0 1-5-5V403a5 5 0 0 1 5-5z"/><path d="M330.4 405.2c.3-.2.3-.7 0-.9l-1.6-1.6a.7.7 0 0 0-.9 0l-1.2 1.3 2.5 2.5m-10.6 5.5v2.5h2.5l7.4-7.3-2.5-2.5-7.4 7.3z"/><use xlink:href="#f" class="C D"/><linearGradient id="R" x1="298" y1="454" x2="304.6" y2="442.6" gradientUnits="userSpaceOnUse"><stop offset="0" stop-color="#1964e7"/><stop offset="1" stop-color="#6884f2"/></linearGradient><path fill="url(#R)" d="M299.6 455.5c-.4-.1-.7-.3-1-.6a32.3 32.3 0 0 1-2.2-4.4l.8-1.4c.7-1.6.7-1.6 1.2-1.2 1.3 1.1 3 1.8 4.6 2 .7 0 .8.1.8.4l.3-.3c-.7 1.8-1.6 3.6-2.5 5.3-.4.2-1.6.3-2 .2z"/><linearGradient id="S" x1="275.5" y1="442.7" x2="282.1" y2="454" gradientUnits="userSpaceOnUse"><stop offset="0" stop-color="#00cce6"/><stop offset="1" stop-color="#0082e7"/></linearGradient><path fill="url(#S)" d="M278.6 455.4c-.3-.1-.4-.2-.8-1.3l-.9-2-.6-1.2.6.5c.4 0 1.3-.2 2.3-.6l.9-.2.4-.3.2-.2 1-.4.9-.3.1-.1.1-.1.5.7c.2.7.3.8.4.6l.1.1c0 .3-2 3.9-2.4 4.3s-.8.6-1.7.6h-1z"/><radialGradient id="T" cx="299.7" cy="452.3" r="9.6" fx="299.7" fy="452.3" gradientUnits="userSpaceOnUse"><stop offset=".2" stop-color="#00cdff"/><stop offset=".5" stop-color="#00bcfa"/><stop offset=".8" stop-color="#00abf8"/><stop offset="1" stop-color="#0098f7"/></radialGradient><path fill="url(#T)" d="M299.6 455.5l-.2-.1c-.2 0-.2 0-.2-.2s0-.2-.3-.2-.3 0-.3-.4v-.3l.3.3c.3.4.7.6 1 .7.5 0 .4.2 0 .2h-.3z"/><path fill="url(#T)" d="M300.2 455.3h.7l.7-.4c.3-.2.4-.2.3.1 0 .2-.1.2-.3.2l-.2.1c0 .2-.2.2-.6.2-.1 0-.6 0-.6-.2zm-9.8-1.7l-.4-.5-.1-.2c0-.4 1.8-3.6 3-5.3.7-1 .8-1 1-1 .3-.1.3 0 .4.1v.4c-.6.7-1.1 1.5-1.5 2.4-.7 1.4-1.2 2.8-1.7 4.3l.3 1.3c0 .3-.7-1-1-1.5zm7.6.2c0-.4.1-.4.3 0 .1.2.1.2-.1.2s-.2 0-.2-.2z"/><path fill="url(#T)" d="M297.6 453c0-.4 0-.4.3 0 .1.3.4.7.2.7s-.5-.5-.5-.7zm-.5-.7l-.1-.3c-.2 0-.3-.2-.3-.6l-.1-.2c-.2 0-.2-.1-.2-.2v-.5l1.2 2h-.3l-.1-.2z"/><path fill="url(#T)" d="M299.3 455.4h-.1l-.2-.2-.1-.1c-.2 0-.4-.3-.4-.5 0-.3 0-.3.2-.1l1 .7c.3 0 .3.3-.1.3l-.3-.1zm-8.5-1.3c0-.2-.2-.5 0-.5l.1-.3 2.4-5.7-.8 1.2-.7 1v-.4c0-.2 0-.3.2-.3.1 0 .2 0 .3-.3v-.4c0-.1 0-.2.2-.2l.3-.4v-.2h.1c0-.2.1-.2.2-.2l.1-.2.1-.2.2-.1.5-.6.6 1h-.2l-.2.3-1 1.8-.7 1.7-1 2.4c-.3.7-.4.8-.6.8v-.2zm6.8-1c0-.3.1-.3.3 0 .2.4.2.4 0 .4s-.3 0-.3-.3z"/><path fill="url(#T)" d="M297.2 452.4c0-.4.1-.4.3 0 .4.6.3.4 0 .3-.2 0-.3 0-.3-.3z"/><path fill="url(#S)" d="M276.8 451.7a6 6 0 0 1-.6-1l-.5-1.2.6.3a16 16 0 0 0 5.3-2.5l.3-.4.6 1.3c.5 1.3.6 1.5.4 1.5-.3 0-.6 0-.9.2l-1 .4-.3.2h.5l-.6.2-1.2.4c-.9.3-1.7.5-2.6.6z"/><path fill="url(#S)" d="M276.2 450.3l-.1-.2-.7-1.3.7-.2a14 14 0 0 0 3.8-2c.7-.6.9-.7.9-1h.2c0-.1 0-.2.2-.2a7.2 7.2 0 0 1 .9 2.2c-.2-.2-.3-.2-.3 0 0 .3-3.3 1.9-5 2.4l-.5.3h-.1z"/><linearGradient id="U" x1="283.3" y1="446.2" x2="290" y2="457.8" gradientUnits="userSpaceOnUse"><stop offset="0" stop-color="#0cf4ff"/><stop offset=".3" stop-color="#04eefe"/><stop offset="1" stop-color="#00b1f7"/></linearGradient><path fill="url(#U)" d="M280.4 455.2l.3-.2.6-.4.3-.3v.3c0 .2-.2.5-.4.5l-.2.1-.3.1h-.3z"/><path fill="url(#S)" d="M275.2 448.4l-.3-.8h.2a10 10 0 0 0 5.3-3.9l.2.2.7 1.7.3.5c0 .1-.2 0-.2 0l-.1-.2h-.3c0 .2-.1.3-.8 1-1.1.7-2.5 1.5-3.6 1.9l-.6.2-.4.1-.4-.7z"/><path fill="url(#T)" d="M296 461.4c-1-.2-1.7-.9-2.2-1.8-.5-.8-.5-.8-.2-.8l.8-.2c.6-.3 1.3-.5 2-.3.7.4 1.3 1 1.7 1.6l.4.4h.5l1.3-1.8c.2-.2-.4 1-1.1 2-.9.8-2 1.1-3.2.9zm3.6-6c0-.2 0-.2.4-.1.3 0 .2.2-.1.2l-.3-.1z"/><path fill="url(#T)" d="M291 454.6c-.3-.4-.3-.4-.1-.6.5-1 1-2 1.3-3a33 33 0 0 1 2-4l-.1-.1c0-.3.2-.1.4.3.3.4.3.7.2.7-1.2 1.9-2 3.9-2.8 6-.2.5 1.7 5.5 1.7 5.6zm7.7.3v-.3l.3.2c.3.3.4.4 0 .4-.3 0-.3 0-.3-.3zm2.8 0l.4-.2.3-.4-.2.4c0 .2-.1.4-.3.4l-.2-.2zm-3.4-1c0-.4 0-.4.3 0l.2.4h-.3c-.2 0-.2 0-.2-.4zm-1.2-2.1c0-.4 0-.4.3 0l.2.4h-.2c-.3 0-.3 0-.3-.4zm-.4-.7c0-.4 0-.4.3 0l.2.4-.3-.1c-.2 0-.2 0-.2-.3z"/><path fill="url(#S)" d="M282.1 447.7l-.1-.3.2.2c.1.4 0 .4 0 0z"/><path d="M280.4 460v-.3c0-.2 0-.2.3-.2s.3 0 .3.3 0 .3-.3.3h-.3z" class="H"/><path fill="url(#S)" d="M275 448v-.1l-.7-1.4 2-.9.6-.4c.9-.6 1.7-1.5 2.3-2.5 0-.5.1-.5.5 0 .4.3.7.8.9 1.4v.2h-.2a9.4 9.4 0 0 1-4.2 3.2l-.7.4c0 .1 0 .1 0 0h-.5z"/><path fill="url(#U)" d="M282.4 461.4c-.4-.1-1.1-.4-1.1-.6h1.4c.6 0 .9 0 1 .2h.4c.2 0 .1.3 0 .4h-1.7z"/><path fill="url(#T)" d="M298.7 460.7h-.2c-.1 0-.2 0-.6-.5-.5-.7-1-1.2-1.7-1.6a1 1 0 0 0-.6 0c-.4 0-1.3.4-1.6.6-.2.2-.4.2-.3.1h-.1l-1-2-.4-.5h.2c.2 0 .3 0 .3.2 0 0 .1.1.2 0l.7-.6c.7-.6.7-.6.7-.9s0-.3.3-.3c.2 0 .3 0 .7.6.2.5.7 1 1 1.3.7.7 1.2.9 2 .7h.4l.1.2.5.3.6.4h.3c0 .3-.6 1.4-1 1.8-.5.5-.5.4-.5.2zm-7.2-5.3c-.3-.5-.4-.8-.3-1 .5-.8 1-1.7 1.3-2.7l.4-1.2.3-.8.2-.1 1-2.2c.2-.2.2 0 .5.4.2.4.2.4 0 .6a41 41 0 0 0-1.7 3.8c0 .4-.2 1-.6 2l-.3 1-.3.3v.3c0 .3-.3.2-.5-.3zm9.2 0c0-.1 0-.2.2-.2h.3l.1-.1h.1l.1-.2.2-.1c.2-.2.1-.2.2.1 0 .2-.1.3-.2.3l-.2.2-.4.1c-.4 0-.5 0-.4-.1zm-2.3-.7l-.1-.2c-.2-.2-.2-.7 0-.7l.5.7.1.3h-.2l-.3-.1zm-.7-1.4c0-.4.1-.4.4 0l.1.3h-.2c-.2 0-.3 0-.3-.3zm-.4-.7l-.1-.3c-.2 0-.2-.1-.2-.3v-.3l.4.4.2.4.3.4h-.3c-.3 0-.3 0-.3-.3zm-.7-1.4c0-.3 0-.3.3 0 .2.2.2.4 0 .4-.3 0-.3-.1-.3-.4z"/><path fill="url(#T)" d="M298.3 454.5v-.4c0-.2 0-.2-.2-.2s-.2 0-.2-.3 0-.3.1-.2l.3.4.1.3s.2 0 .1.1v.1c.1 0 .2 0 .2.2l-.2.1h-.2zm-.8-1.7c0-.3 0-.3.1-.2l.3.4-.2.1c-.2 0-.2 0-.2-.3zm-.5-.8c0-.3 0-.3.2 0l.2.2-.1.2c-.2 0-.2 0-.2-.4zm-.4-.6c0-.3 0-.3.2-.2l.2.3-.1.2c-.2 0-.2 0-.2-.3zm-.4-.8c0-.2-.1-.5.2-.1l.2.3h-.2c-.1 0-.2 0-.2-.2z"/><path fill="url(#R)" d="M303.5 450.7v-.2c0-.2-.1-.3-.8-.3a8.5 8.5 0 0 1-4.5-2l-.3-.3-.3.5-.2.4 2-4.3.7.6a5.65 5.65 0 0 0 2.4 1.6 4 4 0 0 0 1.9.2h1.2l-.2.3-1.6 3.6h-.3z"/><path fill="url(#S)" d="M274.6 446.8s0-.1 0 0c-.2 0-.4-.6-.5-1.2-.1-.5-.1-.6.1-.6.3 0 1-.3 1-.5l.5-.3 1.4-1.3c.2-.3.3-.5.3-.8v-.5c.3 0 1 .1.8.2-.2-.2.5 0 .9.3l.4.3c.2.2 0 .3 0 .4 0 0-.1.2 0 .2l-1.4 1.6c-1 1-1.2 1.2-1.2 1 0 0-.2 0-.3.3l-.3.1c-1.3.5-1.5.6-1.6.8z"/><path fill="url(#U)" d="M283.9 461.3h-.3c-.1-.2-1.1-.2-1.4-.1-.4.1-1.3-.5-1.8-1.3l-.2-.4.3-.2.7-.5.5-.3.1-.1c0-.1 0-.2.3-.2.9 0 2-.8 2.8-2.1.4-.7.4-.8.7-.8l.3.1v3.2c-.2.9-.1 1 .2 1l-.1.4c-.5.8-1.6 1.5-2.1 1.3z"/><path fill="url(#T)" d="M299.9 459h-.1c-.2 0-.3 0-.6-.3l-.6-.5h-.6c-.7 0-1.2-.2-1.6-.6l-.4-.3h.3c1 .2 2 .1 2.9-.2l1.3-.3.6-.1-.1.4c-.8 1.7-1.1 2.3-1.1 2zm-7.3-1.5l-.1-.2-.1-.1v-.1c-.3-.4-.6-1-.7-1.5v-.4c.2 0 .3-.2.3-.3l.3-.9c.5-1 .6-1.5.6-2 0-.2 0-.4.3-1l1.6-3.2c.2.2.4.4.4.7.3.4.5.6.3.7l-1.4 2.2c-.3.5-.4.9-.5 1.4l.7 1.2 1.2 2.2.3.3v.5c-.2 0-.5-.4-.7-.8-.4-.7-.4-.7-.4-.4 0 .2-.3.4-.8.8l-1 .8c-.1.2-.1.2-.3.1zm7.2-2c-.2 0-.3 0-.3-.2 0-.1 0-.1.2 0h1.4c.2-.1.2-.1.2 0 0 .2 0 .2-.4.3h-1.1zm-1-.5c0-.3 0-.3-.2-.3-.3 0-.3 0-.3-.3 0-.4.1-.4.3 0l.5.5c.4.3.4.3 0 .3-.3 0-.3 0-.3-.2z"/><path d="M281.4 454.5l.3-.5.1.3c0 .2 0 .3-.2.3h-.2z" class="I"/><path fill="url(#T)" d="M297.9 453.8v-.3c0-.2 0-.3-.2-.3s-.3-.1-.3-.5c0-.2 0-.2-.2-.2l-.1-.3v-.3l1.2 2c0 .1-.4 0-.4 0zm-1.3-2.4c0-.4.1-.4.3 0 .2.2.2.3 0 .3s-.2 0-.2-.3zm-.4-.8v-.3l.2.2c.3.3.3.4 0 .4-.2 0-.2 0-.2-.3z"/><path fill="url(#S)" d="M280.5 444.3c-.1-.2-.1-.2 0-.2l.2.1c0 .3 0 .3-.2.1z"/><path d="M281.4 454.4c.2-.4.3-.4.3 0 0 .3 0 .3-.2.3h-.3zm1.7-3l.4-.5v.3c0 .3 0 .3-.2.3h-.2z" class="J"/><path fill="url(#S)" d="M274 445.1c0-1.2.7-2.5 1.9-3 .5-.3 1.8-.6 1.9-.4v.1c.3 0 .3 0 0 .3l-.1.4c0 .2-1 1.4-1.7 1.9-.3.1-.5.3-.5.4l-1.2.5-.1.2c-.2 0-.2-.1-.2-.4z"/><path fill="url(#U)" d="M285.6 459.8a25.7 25.7 0 0 0 0-4l-.5.7c-.9 1.3-1.8 2-2.7 2l-.3.1v.1c-.2 0-.4.2-.6.4l-.7.4-.2.3h-.2l-.6-1-1-2.6c1.5.2 3.4.1 3.4.1.7 0 .2-.5.8-.3.7.2-.2.8.4.4l.5-.1.3.1.3.2c.3-.2.4-.6 1.7-2.9l3.1-4.7c.3 0 .3 0 .3.3l-.2.6-.2.5-.2.6-.2.6a25 25 0 0 0-1.7 5.8v.7l-.6 1c-.4.7-.5.9-.7.9l-.3-.2z"/><path fill="url(#T)" d="M296.3 457.5c-.5-.3-1.1-1.1-1.9-2.5-.8-1.5-1-2-1-2.2 0-.6.2-1.1.4-1.6l1.4-2.4c.1-.2.2-.1.5.5l.3.6c-.6.7-1 1.5-1.3 2.3l-.4 1.1.1 1 .4.6v.2c0 .1.5.3.8.3h.8l1.6-.2c.7 0 .9-.1.9-.2h.5c.8.3 1.8.4 2.5-.2.2-.2.2-.2-.5 1.3-.4 1-.6 1.3-.6 1 0 0-.7 0-1.4.3a5.1 5.1 0 0 1-2.3.3l-.2.1c-.2 0-.4 0-.6-.3z"/><path fill="url(#T)" d="M298.1 454.3l-.1-.5c0-.2 0-.3-.2-.3s-.2-.1-.2-.5c0-.1 0-.2-.2-.2s-.2-.2-.2-.5c0-.2 0-.3-.2-.3s-.3-.1-.3-.5l-.1-.2c-.1 0-.2 0-.2-.2v-.6l1.2 2.1c1.1 2 1.1 2 .9 2s-.3 0-.4-.3z"/><path d="M283.3 451.3c.2-.6.3-.7.3-.2 0 .2 0 .3-.2.3h-.1z" class="K"/><path fill="url(#T)" d="M294.7 455.5l-.6-1.2c-.3-.5-.3-.6-.2-.7s.2-.2.1-.3c.1-.5.2-1 .5-1.5l1.2-2.4.3.3c2.4 4.5 2.8 5.2 3.4 5.5.2 0 .3 0 .2.1v.1c-1.2 0-2.4 0-3.5.4h-.6c0-.1-.1-.2-.2-.1h-.1c-.2-.2-.2-.2-.1 0 0 0 .1.4 0 .4l-.4-.6z"/><path fill="url(#U)" d="M279 455.6c-.3 0-.3-.1-.3-.3 0-.1 0-.1.2 0h.9c.4 0 .6-.1 1-.3l.4-.3v.3l-.1.2-.1.1c0 .2-1.3.4-2 .3z"/><path fill="url(#T)" d="M299.9 455.5v-.1h.4l-.2.1h-.2z"/><path fill="url(#R)" d="M305.1 447.4c.1-.2-.1-.3-1.1-.3-.6 0-1.2 0-1.8-.2a6 6 0 0 1-2.4-1.6l-.5-.6-.2.3-.3.4.2-.4c.3-.8.9-1.9 1.2-2.3.8-.8 1.9-1.1 3-1 1.8.3 3 2 2.8 3.9-.1.6-.5 1.5-.6 1.5 0 0-.1 0 0 .1 0 0 0 .2-.2.2z"/><path fill="url(#U)" d="M283.5 457l-1.8-.1-2.5-.2-.3-.2.1.4-1-2.1.5.2c.5.4 1.1.5 1.7.3.8-.2 1.1-.6 2.3-2.7 1.3-2.2 1.4-2.4 1.4-2 0 .3 0 .5-.3.5l-.1.3c0 .2 0 .3-.2.3v.2c0 .2-.2.4-.3.4l-.1.1c0 .3-.1.5-.2.5l-.2.1c0 .3 0 .5-.2.5v.2c0 .1 0 .2.7.2l1.5.2h1.1c.3 0 .3 0 .9-.9l.6-1.2.2-.1v-.2l.1-.2.2-.3.2-.2.2-.3.1-.3.2-.2v-.1l.1-.1.1-.2.1-.2.3-.5.3-.4.2-.3.1-.2.1-.1.1-.1v-.1l.2-.2.1-.2.1-.2.2-.2.1-.2.2-.2v-.2h.2v-.2l.2-.2.3-.4c.2-.4.6-.7 1-.7.1 0 .2 0 .3.2.2.4.6.5 1 .4h.6c.3-.1.4 0 .4.1a36.9 36.9 0 0 0-3.7 5.8l-4 7-.7-2.1c0-.2.6-.8.6-.9s-.8.4-.7.2a30.4 30.4 0 0 0 2.7-5.7c.3-.6 2.2-1.2 2.2-1.2l.1-.1v-.2s0-.2.2-.2l.7-1.3v-.5c.2 0 .2 0 .2-.2s.6.2.7.2c.2 0 .1 3-.3.1l-.5.4c0-.2.9 0 .5.5-1.3 1.6-3.7 2.2-6 6-1.6 3-2 3.4-2.1 3.4h-.3c0 .2-.2.2-.7 0z"/><linearGradient id="V" x1="283.3" y1="440.8" x2="283.3" y2="444.7" gradientUnits="userSpaceOnUse"><stop offset="0" stop-color="#40fafd"/><stop offset="1" stop-color="#00e0ff"/></linearGradient><path fill="url(#V)" d="M283.5 445a2.7 2.7 0 0 1-1.4-1.7l1 .2h1l-.1.4-.1.8v.5l-.5-.2z"/><path fill="url(#U)" d="M281.1 454.8l1.4-2.2 4.5-7.6c.5-.8 2.1-2.4 2.7-2.8l.6-.4-.2.4-.3.8a4 4 0 0 0-.5 1.9c.1.4.4.8.7 1 .2.2.2.2.7 0l1-.7.4-.2c.2 0 .2 0 .2.3v.1-.1c-.4 0-2.6 3.2-4.9 7l-1.5 2.5c0-.3 0-.4-.2-.3h-.9a10.68 10.68 0 0 0-2.5-.3c-.2 0-.4 0-.6.3l-.4.4h-.3c0 .2 0 .2.1 0zm9.5-3.1l.3-.3-.2.3-.2.3.1-.3zm.5-.8l.2-.3-.1.3-.3.4.2-.4zm.3-.6l2-3 .3-.6s0-.1 0 0c.1 0 .2-.2.1-.4l.1-.1c.2 0 .4-.3.3-.3h-.6c0 .1 0 .2-.1 0-.2 0-.2-.2 0-.2h.2v-.1c.3 0 .5-.2.7-.3l1.2-.6c.2-.1 1.2-1.1-.7.9l-.9 1c-.3.4 0 0 0 0l-.5.8c-.8.9-1.5 1.9-2 3z"/><path fill="url(#V)" d="M283.8 443.9c.1-.2-.7-.2-.8 0h-.2c0-.2 0-.2 0 0h-.4c-.3-.2-.5-.8-.4-1.5 0-1.2.8-1.8 1.3-1.9.5 0 .8 0 1 .3.3.3.4.4.4.7l-.3 1-.4 1-.1.5v-.1z"/><linearGradient id="W" x1="289.5" y1="435.3" x2="289.5" y2="441.9" gradientUnits="userSpaceOnUse"><stop offset="0" stop-color="#8ef6fd"/><stop offset="1" stop-color="#2be8ff"/></linearGradient><path fill="url(#W)" d="M286.5 442.2c-.3-.6-.4-1.2-.4-1.9 0-1.4.5-2.7 1.4-3.7v.2l-.1.3c-.1 0-.2 0 0 .1v.3c0 .4 1.7 1.1 2.8 1.3.7 0 .7 0 1-.2l.6-.2c.3 0 .3 0 .3-.2l.1-.3.2-.3c0-.2 0-.2.3-.2v-.9c.4 0-.1 1.5-1 2.1h.4c0 .2-1 .8-1.7 1.1-1.7.7-3 1.5-3.5 2.3-.2.3-.3.4-.4.2z"/><path d="M292.3 445.4c0-.2-.2-.2-.3 0l-.1-.2c0-.3 0-.3.3-.3.2 0 .2 0 .2.3v.3-.1z" class="L"/><path fill="url(#W)" d="M290.1 439l-1.3-.3c-.8-.3-1.6-.8-1.7-1v-.2s-.2.2-.3.1l.1-.2v-.1l.2-.3.3-.3.4-.4.5.3a5 5 0 0 0 2 .9l1.3-.2 1-.2c.3 0 .3 0 .3.3l-.1.3h-.1v.2l-.5.7-.4.3c0-.2 0-.2-.2 0-.4.3-.7.3-1.5.2z"/><linearGradient id="X" x1="296.6" y1="434.3" x2="296.6" y2="436.5" gradientUnits="userSpaceOnUse"><stop offset="0" stop-color="#92eefe"/><stop offset="1" stop-color="#59e5fe"/></linearGradient><path fill="url(#X)" d="M296 436.8c-1-.5-1.2-1.8-.3-2.5.2-.2 1-.4 1.1-.3.2.3.2.4.7.4 0 0 .4.3.4.6a1.5 1.5 0 0 1-2 1.8z"/><path fill="url(#W)" d="M290 437.7a6 6 0 0 1-2-.8c-.3-.3-.4-.3-.5-.2-.4.2-.1-.1.4-.6.6-.6 1.5-1 2.4-1.2 1.5 0 2.5.8 2.6 2 0 .4-.1 1-.3 1.1s-.1 0-.1 0v-.2l.1-.2v-.2l-.8.2c-.6.2-1.2.2-1.9.1z"/><path fill="url(#X)" d="M297.8 435c-.2-.1-.5-.2-.7-.1-.6 0-.7 0-1-.2 0-.2-.2-.3-.3-.3-.3 0 0-.2.3-.3h1.1a1.54 1.54 0 0 1 .7.7c0 .2 0 .3-.1.1z"/><linearGradient id="Y" x1="292.3" y1="440.9" x2="294.8" y2="445.1" gradientUnits="userSpaceOnUse"><stop offset="0" stop-color="#a6feff"/><stop offset=".5" stop-color="#bffdfe"/><stop offset="1" stop-color="#97edff"/></linearGradient><path fill="url(#Y)" d="M292.6 445.7a1 1 0 0 1-.3-.4c0-.1-.5 0-.6.2-.1 0 .3-.2.3-.4s.1-.4.7-1c1-1.2 1.5-1.5 2-1.5.2 0 .2 0 .3.3.1.7 0 1.8-.3 2.1v.3c0 .2 0 .3-.4.4l-1 .2c-.5 0-.6 0-.7-.2z"/><path fill="url(#Y)" d="M294.4 445.6s0-.1-.1 0c-.1 0-.2 0-.1-.1v-.4l.2-.3c.3-.3.5-1.5.3-1.6v-.4c-.2 0-1 .7-1.8 1.5l-.7.8v-.3c0-.3.1-.5.4-.5.1 0 .2 0 .2-.2s.1-.4.4-.7l.5-.4.4-.4c.9-.7 2-1.2 3-1.4.6 0 .6 0 .8.2.3.3.4.6.3.9l-.7.8-1.6 1.4c-.4.5-.8.8-1.2 1s-.4.2-.3 0z"/><path fill="url(#Y)" d="M289.9 446.2c-.4-.1-.7-.6-.8-1.2 0-1 .2-2 .9-3 1-.7 2.1-1.3 3.4-1.6 1.8-.4 3.4-.1 4.2.7.5.4.6.7.6 1 0 .2-.1.4-.3.4v-.1c.3-.2.3-.4 0-.7 0-.2-.2-.2-.6-.2-1.2 0-2.9 1-4.5 3a6 6 0 0 1-2.2 1.7h-.7z"/><text xml:space="preserve" x="271" y="494" class="B E F">Waterfox</text><use xlink:href="#f" x="100" class="C D"/><path fill="#3c5a99" d="M395 437.5c-2 0-2.6.9-2.6 2.8v3.1h5.2l-.5 5h-4.7v15.4h-6.1v-15.4H382v-5h4.2v-3c0-5.1 2-7.8 7.8-7.8 1.2 0 2.7 0 3.5.2v4.8"/><text xml:space="preserve" x="368" y="494" class="B E F">Facebook</text><use xlink:href="#f" x="200" class="C D"/><linearGradient id="Z" x1="483.3" y1="445.3" x2="487.4" y2="443.6" gradientUnits="userSpaceOnUse"><stop offset="0" stop-color="#b1060f"/><stop offset=".5" stop-color="#7b010c"/><stop offset="1" stop-color="#e50914" stop-opacity="0"/></linearGradient><path fill="url(#Z)" d="M481 433v29l5.7-.5V433H481z"/><linearGradient id="a" x1="494.2" y1="448.1" x2="490" y2="449.9" gradientUnits="userSpaceOnUse"><stop offset="0" stop-color="#b1060f"/><stop offset=".6" stop-color="#7b010c"/><stop offset="1" stop-color="#b1060f" stop-opacity="0"/></linearGradient><path fill="url(#a)" d="M491.3 433h5.7l.1 29-5.9-1v-28z"/><path fill="#e50914" d="M481 433l10 28.5c1.7 0 3.9.2 6 .5l-10.3-29H481z"/><text xml:space="preserve" x="474" y="494" class="B E F">Netflix</text><use xlink:href="#f" x="300" class="C D"/><path fill="#00d95f" d="M590 432.3a15.3 15.3 0 0 0-14.275 23.254 15.3 15.3 0 0 0 28.339-8.004A15.3 15.3 0 0 0 590 432.3zm6.7 22.2a1 1 0 0 1-1.5.3c-2.7-1.6-5.9-1.8-8-1.8a20 20 0 0 0-4.3.6 1.03 1.03 0 1 1-.5-2 21.8 21.8 0 0 1 9-.3c1.8.3 3.5.9 4.9 1.7.5.3.6 1 .4 1.5zm1.9-4a1.2 1.2 0 0 1-1.7.4c-3.3-2-7-2.2-9.6-2.2-2.8.1-5 .7-5 .7-.663.166-1.334-.237-1.5-.9s.237-1.334.9-1.5a25.7 25.7 0 0 1 10.8-.4c2 .4 4 1.1 5.6 2.1.6.4.8 1.1.5 1.7zm1.2-3.7c-.3 0-.5-.1-.8-.3-7.7-4.5-17.7-1.8-17.8-1.8-.801.221-1.629-.249-1.85-1.05s.249-1.629 1.05-1.85a31.6 31.6 0 0 1 13.2-.4c2.5.5 4.9 1.3 7 2.5.801.221 1.271 1.049 1.05 1.85s-1.049 1.271-1.85 1.05z"/><text xml:space="preserve" x="574" y="494" class="B E F">Spotify</text><use xlink:href="#f" x="400" class="C D"/><path fill="#101c50" d="M687.8 452.2c.5 0 1 .1 1.2.3.3.1.5.3.7.6.2.4.2 1 0 1.5a2.36 2.36 0 0 1-.8.9l-1.1.3c-.7 0-1.4-.1-2-.4-.4-.2-.9-.5-1-.9a.9.9 0 0 1 0-1c.3-.3 1-.4 1.5-.4l1.4.2.6.3v.2c0 .2-.7.4-.8.4-.5 0-.8-.1-1.3-.3l-.5-.2c-.3 0-.6 0-.6.4l.3.3.8.2c.9 0 1.8-.2 2.5-.7.1 0 .2-.1.2-.3s-.4-.4-.4-.4c-.5-.2-1.4-.3-1.8-.3l-1.4-.1c-.2 0-.4 0-.6-.2a.7.7 0 0 1-.3-.4c-.1-.3 0-.7.2-1 .4-.6 1.5-.9 2.4-1 .8-.1 2-.1 2.8.3.2 0 .2.1.2.3s-.2.4-.5.4l-.9.2c-1 0-2 0-3 .2l-.2.1c-.2.2.3.2.3.2h.1l2 .3zm-5.6-4.2l.2-.4 1-1 .2-.3h-.3l-.7.5c-.3.3-.6.7-.5 1v.2zm1.6.4c.5 0 .9-.2 1.3-.4s1-.6 1-1.2l-.3-.3h-.5c-.2 0-.3 0-.4.2a6 6 0 0 0-1.5 1.3l-.2.3.6.1zm-1.2.9l-.1.2-.2.2h-.3a.8.8 0 0 1-.3-.6v-.3l-.2-.4-.2-.6c0-.5.3-1 .6-1.4l1.4-1c.5-.2 1.2-.3 1.8-.1.2 0 .4.2.5.3l.1.1h.2l.5.3.3.6c.2.5-.1 1-.5 1.4a5 5 0 0 1-1.8 1.2 3 3 0 0 1-1.1.2h-.4l-.2-.1h-.1zm.6 1h.1c.3.2.4.4.4.7.2.6.2 1.9.3 2.4v2.1l-.2.3h-.6c-.3 0-.4-.2-.5-.6a18 18 0 0 1 .3-4.5c0-.2 0-.4.2-.3zm-11 1.5h-1l-1.9.5c-.1 0-.4.1-.5.3l.2.4.6.6c.4.3 1.3.9 2 1.2l.6.2v-3.2zm9.9.4v.9a4 4 0 0 1-.5 1.2 5 5 0 0 1-.9 1c-1 .8-2.4 1.3-3.6 1.5a9.2 9.2 0 0 1-3.5-.3v.6l-.4.2a1 1 0 0 1-.5 0c-.3-.1-.4-.4-.5-.7v-.7s-.3 0-.4-.2a10 10 0 0 1-2.3-1.5l-.9-1c-.2-.4-.2-.7 0-1 .1-.5.8-.8 1.2-1a10.9 10.9 0 0 1 2.4-.7v-.6a19.7 19.7 0 0 1 .4-2.2h.3c.4.3.6 1.3.6 1.9v.8h1a8.3 8.3 0 0 1 2.9.6 2.41 2.41 0 0 1 1 1c0 .3 0 .6-.2.9s-.5.6-1 .6l-.6-.1v-.2l.3-.2.2-.1.2-.3-.4-.3c-.6-.3-2-.5-2.7-.5h-.6v3.6l1.5.2c1.2 0 2.5 0 3.6-.6.5-.2 1-.5 1.2-.9.5-.5.7-1.2.7-1.9a5 5 0 0 0-1.1-2.3 12.5 12.5 0 0 0-5-3.4c-1.7-.8-3.5-1.2-5.4-1.3a9 9 0 0 0-2.1.2h-.2l-.2.1v.1h.5l.2.2v.2c0 .2-.5.1-.7.1-.3 0-.5 0-.6-.3 0-.2 0-.4.2-.6.2-.4.5-.6 1-.7a10.3 10.3 0 0 1 6.3.3 19.9 19.9 0 0 1 4.4 2l2.1 1.7c.6.5 1.2 1.3 1.5 2l.3.4.2.6v.2l.1.5zm17.9-.8c-.7.2-2.5.2-2.5.2l-.2.7h1.5s.2 0 .3.3v.5l-.3.1-1.9.2-.2.9s-.1.2 0 .1c.3 0 2-.4 2.2-.3.3 0 .5.3.5.6-.1.4-1.8 1.5-2.9 1.4 0 0-.5 0-1-.7-.4-.7.2-2 .2-2s-.3-.7-.1-.9l.4-.1.5-.9s-.5 0-.8-.3-.3-.5 0-.6c.1 0 2.1-.4 3.5-.4 0 0 .5 0 .9.8 0 0 .2.3-.1.4zm-5.2 3.4c-.2.4-.7.8-1.2.5-.6-.2-1.5-2.1-1.5-2.1l-.4-.7s-.1-.1-.2.6c0 .8 0 2.3-.2 2.5-.3.2-.7.1-.9-.1-.1-.3-.2-1-.1-2 .1-1.2.4-2.4.7-2.7.3-.4.6-.1.7 0l1.2 1.6.1.2.7 1 .1.1c.1 0 0-.4 0-.4s0-1.2-.7-3.3v-.4c0-.3.3-.2.3-.2s1 .5 1.4 2c.5 1.6.2 3 0 3.4zm10.1-1c-.4.8-1.6 2.3-3.2 2-.6 1.3-1 2.6-1.3 4.5 0 0 0 .4-.3.2-.4 0-.9-.6-1-1.3 0-1 .3-2.5 1.2-4.3-.3-.5-.4-1-.3-1.9 0 0 .2-1.5 1.8-2.9h.3v.7l-.8 1.4s-.5.8-.4 1.5c.9-1.3 2.7-3.8 3.8-3 .4.3.6.9.6 1.5s-.1 1.2-.4 1.6zm-.3-2s0-.4-.6.1c-.4.5-1.1 1.3-1.7 2.5a3 3 0 0 0 1.4-.6c.3-.2 1-1 .9-2zm9.1 0h-2.9c0-1-.2-2-.4-3 0-.1 0-.2-.2-.2h-.8v.2l.3 3H707c-.1 0-.2 0-.2.2v.6c0 .1 0 .2.2.2h2.9l-.1 3 .2.1h.6c.1 0 .2 0 .2-.2a22.51 22.51 0 0 0 .1-2.9h3s.2 0 .2-.2v-.6c0-.1-.1-.2-.3-.2z"/><linearGradient id="b" x1="710.7" y1="442.9" x2="675.1" y2="438.1" gradientUnits="userSpaceOnUse"><stop offset="0" stop-color="#101c50"/><stop offset=".2" stop-color="#0d267a"/><stop offset=".5" stop-color="#085aa4"/><stop offset=".7" stop-color="#058bbf"/><stop offset="1" stop-color="#b1ffff"/></linearGradient><path fill="url(#b)" d="M674.4 443.6v.2l.1.1.5.2h.1l.3-.1a19.4 19.4 0 0 1 15.9-8.4 19.1 19.1 0 0 1 17.7 11.7l.2.2h.6l.2-.1v-.2a20.2 20.2 0 0 0-35.6-3.6z"/><text xml:space="preserve" x="672" y="494" class="B E F">Disney+</text><use xlink:href="#f" x="500" class="C D"/><path fill="#171715" d="M798.7 450.7l-1-1.6a3 3 0 0 1-.5-1.6V441c0-2.6.2-8-7.2-8-6 0-7.9 3.1-8.5 5.1-.2.8.4 1.6 1.2 1.7l2.3.2c.6 0 1-.2 1.3-.7.5-1 1.3-2.4 3.7-2.4 1 0 2.3.4 2.3 1.6v2.5c0 .3-.3.6-.7.6h-2.2c-1.8 0-8.3 1-8.3 7.5s7 5.8 7.4 5.6a9 9 0 0 0 4-2.2c.2-.2.6-.2.9 0l1.2 1.6c.5.6 1.3.6 1.9.1l2-1.9c.5-.4.5-1 .2-1.6zm-10-.4c-2.4 0-2.3-2-1.8-3s1.9-2.7 5.4-2.8v1.7a4 4 0 0 1-1.6 3.3c-.6.5-1.3.8-2 .8z"/><path fill="#ffac35" d="M773.3 456.3c-.3-.3 0-.9.5-.7 3 1.5 8.7 3.8 15 3.8s11.6-1.5 14.3-2.5c.5-.1.8.4.4.7A22.7 22.7 0 0 1 789 462c-8 0-13-3.4-15.6-5.7zm27-.9c.9-.7 3-1.7 6-.8.3 0 .5.4.5.7 0 1-.2 3.4-2.2 5.3-.1.2-.4 0-.3-.2.3-1.2 1-3.9.8-4.3-.3-.4-3.4-.4-4.7-.4-.2 0-.2-.2 0-.3z"/><text xml:space="preserve" x="770" y="494" class="B E F">Amazon</text><use xlink:href="#f" x="600" class="C D"/><path fill="#4285f4" d="M874.8 461.2h5.6v-13.6l-8-6v17.2c0 1.3 1 2.4 2.4 2.4z"/><path fill="#34a853" d="M899.6 461.2h5.6c1.3 0 2.4-1.1 2.4-2.4v-17.2l-8 6v13.6z"/><path fill="#fbbc04" d="M899.6 437.2v10.4l8-6v-3.2c0-3-3.4-4.7-5.8-2.9l-2.2 1.7z"/><path fill="#ea4335" d="M880.4 447.6v-10.4l9.6 7.2 9.6-7.2v10.4l-9.6 7.2-9.6-7.2z"/><path fill="#c5221f" d="M872.4 438.4v3.2l8 6v-10.4l-2.2-1.7a3.6 3.6 0 0 0-5.8 2.9z"/><text xml:space="preserve" x="877" y="494" class="B E F">Gmail</text><use xlink:href="#f" x="700" class="C D"/><linearGradient id="c" x1="990" y1="465.5" x2="990" y2="429.9" gradientUnits="userSpaceOnUse"><stop offset="0" stop-color="#e09b3d"/><stop offset=".3" stop-color="#c74c4d"/><stop offset=".6" stop-color="#c21975"/><stop offset="1" stop-color="#7024c4"/></linearGradient><path fill="url(#c)" d="M997.3 429.6h-14.6c-5.9 0-10.7 4.8-10.7 10.7V455c0 5.9 4.8 10.7 10.7 10.7h14.6c5.9 0 10.7-4.8 10.7-10.7v-14.6c0-5.9-4.8-10.7-10.7-10.7zm7 25.3c0 3.9-3.1 7-7 7h-14.6c-3.9 0-7-3.1-7-7v-14.6c0-4 3.1-7 7-7h14.6c3.9 0 7 3 7 7V455z"/><path fill="url(#c)" d="M990 438.3a9.3 9.3 0 1 0 0 18.6 9.3 9.3 0 1 0 0-18.6zm0 15a5.7 5.7 0 1 1 0-11.4 5.7 5.7 0 1 1 0 11.4z"/><linearGradient id="d" x1="999.3" y1="465.5" x2="999.3" y2="429.9" gradientUnits="userSpaceOnUse"><stop offset="0" stop-color="#e09b3d"/><stop offset=".3" stop-color="#c74c4d"/><stop offset=".6" stop-color="#c21975"/><stop offset="1" stop-color="#7024c4"/></linearGradient><path fill="url(#d)" d="M999.3 440.6a2.25 2.25 0 1 0 0-4.5 2.25 2.25 0 1 0 0 4.5z"/><text xml:space="preserve" x="966" y="494" class="B E F">Instagram</text><path fill="#ffc55c" d="M405.1 592.6c1.657-.083 2.933-1.493 2.85-3.15s-1.493-2.933-3.15-2.85l.3 6zm-119.6-73.8a3 3 0 0 0-4.3 0l-19 19c-1.187 1.16-1.21 3.063-.05 4.25s3.063 1.21 4.25.05l17-17 17 17a3 3 0 0 0 5.331-1.161 3 3 0 0 0-1.131-3.039l-19.1-19.1zm119.3 67.8c-38.2 2.2-64.6 1.3-82.9-1.8-18.2-3-27.8-8.3-32.8-14.3-4.9-6-5.8-13.2-5.2-21.8.2-4.4.8-8.8 1.4-13.5.5-4.7 1-9.5 1-14.3h-6c0 4.4-.4 9-1 13.6-.5 4.5-1.2 9.2-1.4 13.8-.6 9.1.2 18.3 6.6 26 6.3 7.7 17.6 13.2 36.4 16.4 19 3.2 45.9 4 84.2 1.9l-.3-6z"/><path fill="#053361" d="M758.072 598.279c-6.076 0-10.557-4.284-10.557-10.08s4.481-10.08 10.557-10.08 10.557 4.256 10.557 10.08-4.481 10.08-10.557 10.08zm-115.145-.084c-4.592 0-7.951-3.192-7.951-7.672s3.359-7.643 7.951-7.643c4.648 0 7.98 3.163 7.98 7.643s-3.332 7.672-7.98 7.672zm56.957 0c-4.592 0-7.953-3.192-7.953-7.672s3.361-7.643 7.953-7.643c4.648 0 7.979 3.163 7.979 7.643s-3.331 7.672-7.979 7.672zm17.367 0c-3.836 0-6.439-2.099-6.439-6.607v-8.539h3.5v8.063c0 2.716 1.288 4.004 3.5 4.004 2.436 0 4.088-1.512 4.088-4.508v-7.559h3.5V598h-3.332v-1.904c-1.12 1.372-2.884 2.1-4.816 2.1zm100.541 0c-1.316 0-2.27-.98-2.27-2.184s.954-2.156 2.27-2.156c1.288 0 2.211.952 2.211 2.156s-.923 2.184-2.211 2.184zM626.875 598v-12.039h-2.463v-2.801h2.463v-.953c0-3.136 1.878-5.18 5.35-5.18 1.204 0 2.38.253 3.164.813l-.98 2.633c-.532-.364-1.204-.617-1.932-.617-1.456 0-2.213.812-2.213 2.408v.896h4.117v2.801h-4.006V598h-3.5zm24.545 0l5.824-7.588-5.572-7.363h3.893l3.668 4.898 3.668-4.898h3.779l-5.6 7.307 5.852 7.645h-3.947l-3.836-5.18-3.865 5.18h-3.863zm30.367 0v-6.859l-7.699-12.74h3.893l5.74 9.547 5.795-9.547h3.584l-7.672 12.684V598h-3.641zm47.904 0v-14.951h3.332v2.184c1.008-1.568 2.828-2.352 5.32-2.352v3.332c-.308-.056-.56-.084-.812-.084-2.66 0-4.34 1.567-4.34 4.619V598h-3.5zm45.469 0l-5.488-14.951h3.305l3.947 11.031 4.115-11.031h2.941l4.031 11.088 4.061-11.088h3.107L789.664 598h-3.359l-3.865-10.305L778.52 598h-3.359zm22.127 0v-14.951h3.332v1.932c1.148-1.372 2.968-2.1 5.152-2.1 3.584 0 6.244 2.043 6.244 6.551V598h-3.5v-8.119c0-2.66-1.315-3.949-3.555-3.949-2.492 0-4.174 1.512-4.174 4.508V598h-3.5zm-154.359-2.801c2.548 0 4.453-1.82 4.453-4.676s-1.905-4.676-4.453-4.676c-2.52 0-4.424 1.82-4.424 4.676s1.904 4.676 4.424 4.676zm56.957 0c2.548 0 4.451-1.82 4.451-4.676s-1.903-4.676-4.451-4.676c-2.52 0-4.424 1.82-4.424 4.676s1.904 4.676 4.424 4.676zm58.188-.111c3.948 0 6.889-2.885 6.889-6.889s-2.941-6.887-6.889-6.887-6.889 2.883-6.889 6.887 2.941 6.889 6.889 6.889zm58.32-3.584l-.672-13.104h4.143l-.699 13.104h-2.771zm-198.121-8.456h-3.332V598h3.5v-7.252c0-3.052 1.68-4.62 4.34-4.62a4.44 4.44 0 0 1 .812.084v-3.332c-2.492 0-4.312.784-5.32 2.352zm-6.392 7.56c0-4.676-3.192-7.728-7.56-7.728-4.452 0-7.728 3.192-7.728 7.644s3.248 7.672 8.26 7.672c2.576 0 4.676-.84 6.02-2.436l-1.876-2.156c-1.064 1.092-2.38 1.624-4.06 1.624-2.604 0-4.424-1.4-4.844-3.584h11.732a14.36 14.36 0 0 0 .056-1.036zm-7.56-4.928c2.296 0 3.948 1.484 4.228 3.64h-8.484c.336-2.184 1.988-3.64 4.256-3.64zm-9.556 9.016c-.532.42-1.232.616-1.96.616-1.344 0-2.072-.784-2.072-2.24v-7.112h4.004v-2.8h-4.004v-3.416h-3.5v3.416h-2.464v2.8h2.464v7.196c0 3.304 1.876 5.04 5.152 5.04 1.26 0 2.52-.336 3.36-1.008zm-18.992-11.816c-2.408 0-4.732.616-6.328 1.848l1.372 2.548c1.12-.924 2.856-1.484 4.536-1.484 2.492 0 3.724 1.204 3.724 3.248v.224h-3.864c-4.536 0-6.216 1.96-6.216 4.452 0 2.604 2.156 4.48 5.572 4.48 2.24 0 3.864-.728 4.704-2.016V598h3.304v-8.764c0-4.312-2.492-6.356-6.804-6.356zm-.476 12.768c-1.792 0-2.856-.812-2.856-2.072 0-1.092.644-1.988 3.024-1.988h3.612v1.736c-.588 1.54-2.072 2.324-3.78 2.324zm-14.932-2.268l-4.956-14.98h-3.36l-5.068 14.896-4.872-14.896h-3.78l6.496 19.6h3.892l4.928-14.504L558.488 598h3.864l6.496-19.6h-3.472zm-30.984-2.772c0-4.676-3.192-7.728-7.56-7.728-4.452 0-7.728 3.192-7.728 7.644s3.248 7.672 8.26 7.672c2.576 0 4.676-.84 6.02-2.436l-1.876-2.156c-1.064 1.092-2.38 1.624-4.06 1.624-2.604 0-4.424-1.4-4.844-3.584h11.732a14.36 14.36 0 0 0 .056-1.036zm-7.56-4.928c2.296 0 3.948 1.484 4.228 3.64h-8.484c.336-2.184 1.988-3.64 4.256-3.64zM513.972 598l-6.832-8.68 6.244-6.272h-4.2l-7.252 6.72v-12.544h-3.5V598h3.5v-3.948l2.604-2.464 5.18 6.412zm-26.524-15.12c-2.408 0-4.732.616-6.328 1.848l1.372 2.548c1.12-.924 2.856-1.484 4.536-1.484 2.492 0 3.724 1.204 3.724 3.248v.224h-3.864c-4.536 0-6.216 1.96-6.216 4.452 0 2.604 2.156 4.48 5.572 4.48 2.24 0 3.864-.728 4.704-2.016V598h3.304v-8.764c0-4.312-2.492-6.356-6.804-6.356zm-.476 12.768c-1.792 0-2.856-.812-2.856-2.072 0-1.092.644-1.988 3.024-1.988h3.612v1.736c-.588 1.54-2.072 2.324-3.78 2.324zm-9.92-17.248h-2.996l-7.644 12.992-7.784-12.992h-2.996V598h3.472v-12.824l6.44 10.584h1.624l6.44-10.752.028 12.992h3.444z" class="G"/><defs ><path id="f" d="M264 418h52c2 0 3.5 1.6 3.5 3.6v52c0 1.9-1.6 3.5-3.5 3.5h-52c-2 0-3.5-1.6-3.5-3.5v-52c0-2 1.6-3.5 3.5-3.5z"/></defs></svg>