<svg width="429" height="408" fill="none" xmlns="http://www.w3.org/2000/svg">
<path d="M164.486 171.377C158.807 201.451 160.985 232.484 170.809 261.466C182.435 294.775 205.259 324.732 235.975 342.482C266.107 359.899 307.319 367.826 335.549 342.38C344.573 334.016 351.131 323.331 354.505 311.491C357.879 299.65 357.941 287.109 354.683 275.236C346.555 247.17 321.366 228.026 297.07 211.721C260.564 187.117 215.095 160.147 199.162 116.501C192.09 97.2463 176.216 131.554 173.771 138.045C169.668 148.849 166.56 160.006 164.486 171.377Z" fill="url(#paint0_linear_1_161)"/>
<path d="M156.314 30.1362C139.453 32.2876 123.434 38.7877 109.82 49.0026C93.8854 60.9059 82.6806 78.1022 78.203 97.5256C74.1904 116.533 77.0635 139.787 95.3501 150.394C101.319 153.744 108.091 155.384 114.925 155.136C121.76 154.888 128.395 152.76 134.107 148.986C147.54 139.847 153.32 123.119 157.767 107.454C164.49 83.8535 170.946 55.0716 191.254 39.0867C200.21 32.0124 179.356 29.4877 175.506 29.2964C169.096 29.0019 162.674 29.2829 156.314 30.1362Z" fill="url(#paint1_linear_1_161)"/>
<defs>
<linearGradient id="paint0_linear_1_161" x1="115.965" y1="32.588" x2="292.757" y2="317.182" gradientUnits="userSpaceOnUse">
<stop stop-color="#ACFFFE"/>
<stop offset="1" stop-color="#10CDF5"/>
</linearGradient>
<linearGradient id="paint1_linear_1_161" x1="108.227" y1="38.1172" x2="285.298" y2="322.531" gradientUnits="userSpaceOnUse">
<stop stop-color="#ACFFFE"/>
<stop offset="1" stop-color="#10CDF5"/>
</linearGradient>
</defs>
</svg>
