<svg width="518" height="583" fill="none" xmlns="http://www.w3.org/2000/svg">
<path d="M348.2 346.985C364.972 312.124 372.466 273.521 369.953 234.92C366.655 190.448 348.588 146.404 316.892 114.682C285.799 83.5589 238.074 60.3977 195.281 82.2302C181.526 89.4897 170.024 100.391 162.03 113.744C154.037 127.097 149.859 142.389 149.952 157.952C150.694 194.878 175.186 226.494 199.516 254.351C236.04 296.334 282.733 344.14 287.907 402.643C290.242 428.466 320.849 391.77 325.957 384.645C334.502 372.796 341.947 360.19 348.2 346.985Z" fill="url(#paint0_linear_1_276)"/>
<path d="M311.97 522.11C333.262 525 354.947 522.304 374.911 514.286C398.261 504.965 417.567 487.635 429.389 465.384C440.507 443.49 444.607 414.157 425.749 395.223C419.557 389.18 411.826 384.962 403.4 383.029C394.974 381.097 386.176 381.523 377.967 384.263C358.576 391.026 346.046 409.56 335.491 427.231C319.562 453.848 302.263 486.878 272.238 499.751C258.988 505.459 283.624 515.364 288.263 516.857C295.992 519.313 303.926 521.071 311.97 522.11Z" fill="url(#paint1_linear_1_276)"/>
<defs>
<linearGradient id="paint0_linear_1_276" x1="362.036" y1="532.318" x2="239.285" y2="126.996" gradientUnits="userSpaceOnUse">
<stop stop-color="#ACFFFE"/>
<stop offset="1" stop-color="#10CDF5"/>
</linearGradient>
<linearGradient id="paint1_linear_1_276" x1="373.295" y1="528.098" x2="250.145" y2="122.905" gradientUnits="userSpaceOnUse">
<stop stop-color="#ACFFFE"/>
<stop offset="1" stop-color="#10CDF5"/>
</linearGradient>
</defs>
</svg>
