<svg width="100%" height="100%" viewBox="0 0 128 86" fill="none" xmlns="http://www.w3.org/2000/svg">
<g clip-path="url(#clip0_1_167)">
<path d="M5.83365 84.9217L0 64.1182H4.64444C6.08335 70.0454 8.11529 77.5322 8.5273 80.739H8.55851C9.22958 77.1337 11.5768 69.0602 12.9782 64.1182H17.1545C18.4342 68.5989 20.9156 77.5604 21.4743 80.5852H21.5211C22.1547 76.7666 24.4395 68.5079 25.6037 64.1182H30.0047L23.7872 84.9217H19.0522C17.7506 80.2934 15.4565 72.0411 14.8104 69.0602H14.7823C14.1487 72.4521 11.9669 79.9859 10.5374 84.9217H5.83677H5.83365Z" fill="#053361"/>
<path d="M42.9611 80.8581C42.9611 82.6121 43.0579 84.5732 43.1078 84.9215H39.1126C38.994 84.5387 38.944 83.6068 38.9253 83.1424C38.1856 84.3912 36.6218 85.32 33.7378 85.32C29.702 85.32 28.0789 82.8035 28.0789 80.4157C28.0789 76.575 31.375 75.3387 35.8197 75.3387H38.841V74.6578C38.841 73.3745 38.3135 72.2261 35.9383 72.2261C33.7565 72.2261 33.2789 73.1172 33.0605 74.1464H28.8936C29.0559 72.0598 30.448 69.264 35.932 69.2703C41.6439 69.2765 42.9611 71.9154 42.9611 74.7394V80.8581ZM38.8442 78.0435C38.4665 78.0278 37.4677 78.0278 35.982 78.0278C33.3133 78.0278 32.2052 78.7338 32.2052 80.1898C32.2052 81.3288 33.048 82.2607 34.8802 82.2607C37.8173 82.2607 38.8442 80.6447 38.8442 78.4012V78.0435Z" fill="#053361"/>
<path d="M44.4125 69.6689H47.0999V65.1787H51.3292V69.6689H54.7938V72.8098H51.3292V79.9388C51.3292 81.2944 51.6507 81.9031 53.099 81.9031C53.4767 81.9031 53.9636 81.8968 54.3631 81.8089V84.749C53.5734 84.9969 52.5278 85.066 51.529 85.066C48.1393 85.066 47.0999 83.5065 47.0999 80.6166V72.8067H44.4125V69.6657V69.6689Z" fill="#053361"/>
<path d="M59.6567 78.2851C59.7566 80.4031 61.13 82.0944 63.5178 82.0944C65.4467 82.0944 66.3019 81.3947 66.8606 80.3592H71.0743C70.2722 82.7722 68.184 85.3232 63.4366 85.3232C57.6935 85.3232 55.4493 81.3006 55.4493 77.372C55.4493 72.9101 58.2272 69.2734 63.446 69.2734C69.1204 69.2734 71.271 73.318 71.271 77.1681C71.271 77.5635 71.271 77.8459 71.2398 78.2883H59.6567V78.2851ZM66.9917 75.6274C66.9075 74.1464 66.1708 72.3014 63.4335 72.3014C60.9084 72.3014 59.8971 73.8107 59.7223 75.6274H66.9917Z" fill="#053361"/>
<path d="M73.434 73.8138C73.434 72.3579 73.434 70.993 73.4059 69.672H77.5229C77.5916 70.1489 77.6477 71.7555 77.6477 72.7125C78.478 70.7012 80.3383 69.2484 83.2972 69.2892V73.2177C79.9544 73.1706 77.6477 74.5763 77.6477 78.8845V84.9247H73.434V73.817V73.8138Z" fill="#053361"/>
<path d="M87.0521 84.9216V72.8129H84.5176V69.672H87.0521V68.2035C87.0521 64.6954 88.7657 62.6873 92.4332 62.6873C93.1511 62.6873 93.9002 62.7312 94.3434 62.8504V66.0698C94.0562 66.0196 93.6536 65.9976 93.3227 65.9976C91.7496 65.9976 91.2845 66.6189 91.2845 68.3102V69.6782H94.3808V72.8191H91.2845V84.9278H87.0552L87.0521 84.9216Z" fill="#053361"/>
<path d="M111.261 77.2811C111.261 81.8622 108.261 85.3232 102.889 85.3232C97.5177 85.3232 94.7617 81.6237 94.7617 77.3062C94.7617 72.9886 97.7019 69.2734 103.077 69.2734C108.452 69.2734 111.261 73.1894 111.261 77.2842V77.2811ZM99.0503 77.2936C99.0503 79.9293 100.461 82.0568 103.024 82.0568C105.586 82.0568 106.938 79.9858 106.938 77.347C106.938 74.7081 105.652 72.5336 102.974 72.5336C100.296 72.5336 99.0503 74.5732 99.0503 77.2905V77.2936Z" fill="#053361"/>
<path d="M115.886 69.6687C117.868 72.3421 119.061 73.8922 119.579 74.617H119.626C120.297 73.6537 121.548 71.9405 123.234 69.6687H127.788L121.942 76.964L128.003 84.9183H123.193C121.333 82.3296 120.031 80.5756 119.42 79.7221H119.37C118.867 80.4376 117.65 82.1477 115.643 84.9183H111.089L116.948 77.259L111.061 69.6687H115.89H115.886Z" fill="#053361"/>
<path d="M41.3974 37.3875C43.807 37.3875 45.018 36.0069 46.2572 33.2049L50.9297 22.7372L43.1484 5.21272C41.182 0.788452 36.0225 -1.19776 31.6184 0.775901C27.2174 2.7527 25.2417 7.93946 27.205 12.3669L37.4895 35.53C38.3323 36.7537 39.8024 37.3844 41.3942 37.3844L41.3974 37.3875Z" fill="url(#paint0_radial_1_167)"/>
<path d="M86.6027 37.3875C84.193 37.3875 82.982 36.0069 81.7429 33.2049L77.0703 22.7372L84.8516 5.21272C86.818 0.788452 91.9775 -1.19776 96.3816 0.775901C100.783 2.7527 102.758 7.93946 100.795 12.3669L90.5105 35.53C89.6677 36.7537 88.1976 37.3844 86.6058 37.3844L86.6027 37.3875Z" fill="url(#paint1_radial_1_167)"/>
<path d="M86.6026 37.3938C84.193 37.3938 82.982 36.0132 81.7428 33.2112L72.0107 11.413C70.5562 8.13714 67.3507 6.20113 63.9984 6.21368C60.6462 6.20113 57.4407 8.13714 55.9862 11.413L46.254 33.2112C45.0149 36.0132 43.8039 37.3938 41.3942 37.3938C39.8024 37.3938 38.3323 36.7631 37.4895 35.5394C38.1856 37.2369 40.0334 42.0691 42.0403 46.3679C42.1184 46.531 42.1933 46.6911 42.2713 46.8479C42.2713 46.8479 42.2713 46.8479 42.2744 46.8511C42.2744 46.8511 42.2744 46.8479 42.2713 46.8448C43.1265 48.0183 44.7121 48.6961 46.2697 48.6961C48.6793 48.6961 49.8903 47.3155 51.1295 44.5134C51.1295 44.5134 57.3221 30.6193 59.3852 25.988C59.9439 24.7329 61.2205 21.7018 63.9984 21.7018C66.7764 21.7018 67.9937 24.6042 68.6117 25.988C70.6748 30.6193 76.8674 44.5134 76.8674 44.5134C78.1066 47.3155 79.3176 48.6961 81.7272 48.6961C83.2847 48.6961 84.8672 48.0215 85.7256 46.8448C85.7256 46.8448 85.7256 46.8479 85.7225 46.8511C85.7225 46.8511 85.7225 46.8511 85.7256 46.8479C85.8036 46.6911 85.8816 46.531 85.9566 46.3679C87.9635 42.066 89.8113 37.2369 90.5074 35.5394C89.6646 36.7631 88.1945 37.3938 86.6026 37.3938Z" fill="url(#paint2_linear_1_167)"/>
<path d="M85.7193 46.851C84.7923 48.7211 83.7841 50.0672 82.7541 51.0274C81.2185 52.386 79.3395 53.161 77.0609 53.2458C77.036 53.2458 77.0141 53.2458 76.9891 53.2458C74.5046 53.1956 72.0388 52.1005 70.3721 50.177C69.8414 49.5306 69.3826 48.7995 68.9987 47.9963C68.9987 47.9963 66.3519 41.9498 64.0016 36.6155C64.0016 36.6187 64.0016 36.6218 63.9953 36.6249C63.9953 36.6218 63.9953 36.6187 63.9891 36.6155C61.6356 41.9498 58.9919 47.9963 58.9919 47.9963C58.608 48.8027 58.1492 49.5338 57.6186 50.177C55.9518 52.1005 53.486 53.1924 51.0015 53.2458C50.9765 53.2458 50.9547 53.2458 50.9297 53.2458C48.6512 53.161 46.7722 52.386 45.2365 51.0274C44.2065 50.0672 43.2014 48.7211 42.2713 46.851C43.1296 48.0214 44.7121 48.696 46.2665 48.696C48.6761 48.696 49.8872 47.3154 51.1263 44.5133C51.1263 44.5133 57.3189 30.6192 59.3821 25.9879C59.997 24.6041 61.2236 21.7017 63.9953 21.7017C66.767 21.7017 67.9905 24.6041 68.6085 25.9879C70.6717 30.6192 76.8643 44.5133 76.8643 44.5133C78.1034 47.3154 79.3145 48.696 81.7241 48.696C83.2785 48.696 84.861 48.0214 85.7193 46.851Z" fill="url(#paint3_linear_1_167)"/>
</g>
<defs>
<radialGradient id="paint0_radial_1_167" cx="0" cy="0" r="1" gradientUnits="userSpaceOnUse" gradientTransform="translate(30.0703 2.15652) scale(21.1778 21.2898)">
<stop offset="0.1" stop-color="#00BAE6"/>
<stop offset="0.78" stop-color="#0084E7"/>
</radialGradient>
<radialGradient id="paint1_radial_1_167" cx="0" cy="0" r="1" gradientUnits="userSpaceOnUse" gradientTransform="translate(97.9297 2.15652) rotate(180) scale(21.1778 21.2898)">
<stop offset="0.14" stop-color="#788CF3"/>
<stop offset="0.46" stop-color="#587EEF"/>
<stop offset="1" stop-color="#1A65E8"/>
</radialGradient>
<linearGradient id="paint2_linear_1_167" x1="37.4927" y1="27.4565" x2="90.5074" y2="27.4565" gradientUnits="userSpaceOnUse">
<stop stop-color="#788CF3"/>
<stop offset="0.25" stop-color="#57ABF6"/>
<stop offset="0.51" stop-color="#39CAFA"/>
<stop offset="0.86" stop-color="#39CAFA"/>
</linearGradient>
<linearGradient id="paint3_linear_1_167" x1="42.2775" y1="37.4753" x2="85.7193" y2="37.4753" gradientUnits="userSpaceOnUse">
<stop stop-color="#679BF5"/>
<stop offset="0.19" stop-color="#529DF4"/>
<stop offset="0.51" stop-color="#34A2F3"/>
<stop offset="0.86" stop-color="#4DAFF7"/>
</linearGradient>
<clipPath id="clip0_1_167">
<rect width="128" height="85.3333" fill="white"/>
</clipPath>
</defs>
</svg>
