<svg height="65" viewBox="0 0 92 65" width="92" xmlns="http://www.w3.org/2000/svg" xmlns:xlink="http://www.w3.org/1999/xlink"><linearGradient id="a" gradientUnits="userSpaceOnUse" x1="64.186895" x2="79.735747" y1="47.127622" y2="20.407751"><stop offset=".00001" stop-color="#1964e7"/><stop offset="1" stop-color="#6884f2"/></linearGradient><linearGradient id="b" gradientUnits="userSpaceOnUse" x1="11.350991" x2="26.899843" y1="20.558711" y2="47.278582"><stop offset=".00001" stop-color="#00cce6"/><stop offset="1" stop-color="#0082e7"/></linearGradient><radialGradient id="c" cx="68.338288" cy="43.20267" gradientUnits="userSpaceOnUse" r="22.568479"><stop offset=".2" stop-color="#00cdff"/><stop offset=".5" stop-color="#00bcfa"/><stop offset=".8" stop-color="#00abf8"/><stop offset="1" stop-color="#0098f7"/></radialGradient><linearGradient id="d" gradientUnits="userSpaceOnUse" x1="29.843558" x2="45.543369" y1="29.012455" y2="56.185206"><stop offset=".00001" stop-color="#0cf4ff"/><stop offset=".3" stop-color="#04eefe"/><stop offset="1" stop-color="#00b1f7"/></linearGradient><linearGradient id="e" gradientUnits="userSpaceOnUse" x1="29.843558" x2="29.843558" y1="16.256359" y2="25.464902"><stop offset=".00001" stop-color="#40fafd"/><stop offset="1" stop-color="#00e0ff"/></linearGradient><linearGradient id="f" gradientUnits="userSpaceOnUse" x1="44.335691" x2="44.335691" y1="3.273822" y2="18.822674"><stop offset=".00001" stop-color="#8ef6fd"/><stop offset="1" stop-color="#2be8ff"/></linearGradient><linearGradient id="g" gradientUnits="userSpaceOnUse" x1="60.865781" x2="60.865781" y1=".933947" y2="6.217537"><stop offset=".00001" stop-color="#92eefe"/><stop offset="1" stop-color="#59e5fe"/></linearGradient><linearGradient id="h" gradientUnits="userSpaceOnUse" x1="50.82696" x2="56.714389" y1="16.407318" y2="26.44614"><stop offset=".00001" stop-color="#a6feff"/><stop offset=".5" stop-color="#bffdfe"/><stop offset="1" stop-color="#97edff"/></linearGradient><path d="m67.951454 50.663383c-.83081-.261657-1.586075-.720214-2.2015-1.336624-.786247-.845215-5.464424-9.3367-5.464424-9.946045 0-.334152.078625-.491405.255528-.41278.17691.058967.727283-.982811 1.710094-3.262932 1.651119-3.754337 1.690434-3.793648 3.066368-2.751869 3.754341 2.869808 7.095894 4.344024 10.594704 4.63887 1.474212.137588 1.86734.314495 1.86734.864868 0 .196564.628998-.687965.707619-.648651.098281.019653-1.474213 3.636398-2.83049 6.663456-2.319436 5.228554-2.496346 5.562706-3.16465 5.877209-.786255.393123-3.695374.589683-4.540589.314498z" fill="url(#a)"/><path d="m18.830574 50.50613c-.864874-.353809-.884529-.373466-2.083559-3.105678l-2.02459-4.560242-1.218685-2.869808 1.336623 1.081089c.923842.019661 3.0074-.471749 5.248209-1.257996l2.221153-.707626c.707622-.216213 1.022121-.39312 1.022121-.628998 0-.19656.196564-.39312.452095-.452091.235874-.058972 1.257996-.452091 2.260464-.904186 1.002466-.452092 1.945965-.805905 2.103214-.805905.157252 0 .294844-.078625.294844-.19656 0-.098282.117937-.196563.255531-.196563.137593 0 .570029.707626.923842 1.592155.727279 1.69043.923841 1.965622 1.199028 1.53318.117937-.196563.176906-.098282.176906.294846 0 .668312-4.619209 8.904266-5.582365 9.90673-1.041778 1.120408-1.965622 1.474213-3.950899 1.552845-1.336622.039311-1.985277-.019657-2.633932-.275192z" fill="url(#b)"/><g fill="url(#c)"><path d="m68.148018 50.643726c0-.098282-.255531-.196563-.589691-.196563-.491402 0-.589684-.078625-.589684-.491406 0-.432438-.078621-.491402-.687965-.491402-.668312 0-.687973-.01966-.687973-.727287v-.727272l.746933.707623c.805908.786251 1.592155 1.218681 2.555313 1.434902.864876.176903.845222.687965-.058968.687965-.373466 0-.687965-.078621-.687965-.19656z"/><path d="m69.268425 50.329224c0-.137589 1.316963-.117936 1.808365-.275185.393127-.137596 1.081093-.412781 1.493873-.707626.825562-.55037.982811-.511063.805909.216221-.098282.353809-.255539.491405-.609345.491405-.294845 0-.491409.117939-.491409.275185 0 .294845-.589684.511062-1.415245.511062-.353813 0-1.572502-.314499-1.572502-.511062zm-22.860184-4.127804c-.471748-.845215-.805904-1.238339-.982811-1.179371-.19656.078625-.275184-.058968-.275184-.412781 0-.923843 4.363678-8.452171 7.194175-12.403072 1.572495-2.201496 1.847683-2.496338 2.398056-2.555306.530716-.058971.628998.019657.746937.471749.078625.294845.058968.648655-.039314.786251-1.137425 1.472446-2.14996 3.037277-3.027058 4.678177 0 .157249-.176902.628997-.373466 1.041778-1.416508 3.16771-2.714718 6.386997-3.89193 9.6512-.058967.235878-.176906.432437-.275188.432437s.786247 2.791188.786247 3.007401c0 .766598-1.552837-2.24081-2.260464-3.518463zm17.808533.412784c0-.845214.275185-.884529.687965-.098281.393128.746933.373467.786247-.196563.786247-.432434 0-.491402-.078625-.491402-.687966z"/><path d="m63.233963 44.845142c0-.845218.275185-.864872.687965-.078624.393128.746933 1.022126 1.631462.452095 1.631462-.432437 0-1.14006-.943493-1.14006-1.552838zm-.982811-1.769058c0-.550373-.078625-.687969-.373466-.687969-.412785 0-.609345-.373467-.609345-1.199028 0-.432438-.098282-.57003-.393124-.57003-.235878 0-.432441-.176903-.511062-.471749-.15725-.648655-.196564-1.336624.098278-1.257999.275188.098282 2.77153 4.540584 2.77153 4.756802 0 .058971-.216221.117942-.491405.117942-.432442 0-.491406-.078628-.491406-.687969z"/><path d="m67.361771 50.447163c0-.098278-.176911-.19656-.393128-.19656s-.393127-.137596-.393127-.294846c0-.157245-.137596-.294842-.314499-.294842-.491402 0-.864868-.511062-.864868-1.159717 0-.72728.157242-.746937.570022-.15725.597893.718895 1.369087 1.27361 2.240814 1.611809.786248.196564.668313.687969-.157249.687969-.373466 0-.687965-.078624-.687965-.196563zm-19.970719-2.909115c-.235874-.550377-.412781-1.199032-.137592-1.375939.098282-.078628.235874-.314499.314499-.530716.216217-.805908 3.223617-8.235954 3.832962-9.51361.176906-.373467.334156-.825562.334156-1.002465.290947-.656143.646515-1.281677 1.061436-1.86734.57003-.864876.805904-1.297313.530719-.982811-.275188.334152-1.159721 1.572495-1.926311 2.79118-.786247 1.218685-1.493874 2.201496-1.572498 2.221153-.098278 0-.15725-.314503-.15725-.687969 0-.589684.058972-.687965.491406-.687965.373466 0 .511062-.137593.668312-.72728.117939-.412781.216217-.904186.216217-1.081093 0-.196564.098282-.353813.216221-.353813.314498 0 .746933-.609345.76659-1.022122 0-.196559.098282-.353813.196563-.353813.117939 0 .19656-.117935.19656-.275184 0-.15725.137596-.314499.294846-.393124.157249-.058971.294842-.235878.294842-.393124 0-.137596.137592-.314502.294845-.393123.15725-.058972.294842-.196564.294842-.294846 0-.235878 1.10075-1.395592 1.316967-1.395592s1.199028 1.965622 1.375935 2.358746c.058967.157249-.412781 0-.491406 0s-.294845.294842-.452095.648655l-2.103214 4.167118c-.982811 1.945965-1.847683 3.813305-1.926308 4.127804-.176906.746937-1.493873 4.068836-2.201496 5.543056-.76659 1.592148-1.061436 2.024586-1.434906 2.024586-.176903 0-.19656-.314499-.294842-.550369zm16.039471-2.299782c0-.845215.196564-.864872.648655-.117935.432442.746937.432442.805904-.15725.805904-.432437 0-.491405-.078625-.491405-.687969z"/><path d="m62.447712 43.469208c0-.845219.216221-.884529.648655-.117939.825561 1.454563.609344 1.140064-.15725.805904-.393123-.176903-.491405-.078621-.491405-.687965z"/></g><path d="m14.525864 41.857399c-.255532-.294846-.845218-1.375935-1.316967-2.43737l-1.140061-2.712555 1.257998.707618c2.358745-.275184 12.36376-5.090957 12.36376-5.936176 0-.216217.727277-1.061432.825559-.904186.039313.039314.805907 1.690437 1.434904 3.125339 1.257998 2.850151 1.415247 3.459492.88453 3.282589-.692595.084072-1.364775.290383-1.985278.609345l-2.33909 1.002464-.687967.275189.884531-.098282c1.159715-.117939.687967.157245-1.336624.76659-.82556.235874-2.044245.628998-2.6929.864876-1.258.432434-4.717492 1.395591-5.208898 1.454559-.157249.019653-.334156.137592-.393124.275185-.058969.157249-.255531.039314-.550373-.275185z" fill="url(#b)"/><path d="m13.110616 38.417561c0-.19656-.117937-.35381-.255531-.35381-.235875 0-.668312-.982811-1.592153-3.144996-.039313-.058968.82556-.039315 1.749403-.373467 3.243275-1.179375 6.093426-2.732216 8.845297-4.815773 1.670778-1.29731 2.063902-1.651123 2.063902-1.965622 0-.176906.137592-.314499.294843-.314499.15725 0 .294842-.078624.294842-.196563 0-.098282.117937-.19656.255533-.19656.25553 0 1.985277 3.793647 2.181839 4.815769.117937.53072.09828.550377-.137594.255531-.334156-.412781-.530718-.452091-.530718-.078625 0 .746937-7.646267 4.579899-11.793729 5.896862-.589686.196564-1.140059.452095-1.218685.589692-.098281.137592-.157249.098278-.157249-.117939z" fill="url(#b)"/><path d="m23.135284 50.093353c0-.078628.255532-.294841.570031-.491405.294843-.176911.884531-.648655 1.277654-1.06144l.707625-.727276v.648652c0 .687969-.373469 1.199031-.864874 1.199031-.176907 0-.314501.137597-.314501.294842 0 .196564-.216217.294846-.687967.294846-.373469 0-.687968-.078625-.687968-.15725z" fill="url(#d)"/><path d="m10.810839 34.053883-.786249-1.788716.530717-.117939c1.729747-.373466 5.523396-2.358745 7.68558-4.029526 1.434904-1.100746 4.10815-3.793647 4.10815-4.127803 0-.15725.09828-.275185.196562-.275185.117937 0 .196562-.137596.196562-.294846 0-.157249.117937-.275184.255531-.294841.078623 0 .196562.078624.432436.471748.393124.746937 1.041781 2.260464 1.729748 3.990212l.491405 1.120403c.09828.255531-.235876-.078625-.353813-.078625s-.196562-.137592-.196562-.294842c0-.157249-.137592-.294841-.294843-.294841-.15725 0-.294844.137592-.294844.314498 0 .314499-.393124.668309-2.063902 1.965622-2.535652 1.926308-5.778927 3.734681-8.235953 4.599553l-1.592154.589687c-.3145.137592-.687967.275185-.805904.294842-.117938.039314-.57003-.746937-1.002467-1.749401z" fill="url(#b)"/><path d="m59.617218 64.579979c-2.245304-.601959-4.143578-2.102089-5.248211-4.147461-1.100746-1.886993-1.120403-1.926308-.412777-1.926308.314495 0 1.199028-.294841 1.926308-.628997 1.447182-.699597 3.085358-.900044 4.65852-.570031 1.567962.944012 2.947509 2.170273 4.068836 3.616741l.884529 1.120408 1.081093-.117939 3.086029-4.226086c.314499-.373467-.845223 2.358746-2.653588 4.796116-1.984466 1.843895-4.735389 2.619423-7.390739 2.083557zm8.334236-14.132816c0-.412781.196564-.471745.943497-.275185.707626.19656.530716.668308-.255531.668308-.55037 0-.687966-.078621-.687966-.393123z" fill="url(#c)"/><path d="m47.784176 48.717419c-.589687-1.10075-.589687-1.120404-.235874-1.493874.530719-.570026 2.830497-5.778927 3.184307-7.233486.216221-.923843 4.147461-8.786327 4.520927-9.041859.157253-.117939.157253-.157249 0-.157249-.117935 0-.216213-.137593-.216213-.294846 0-.589683.471745-.275184 1.081089.746937.589687.963154.687969 1.710091.235874 1.710091-.275184 0-4.285053 8.294922-4.422645 9.14014-.335305 1.662396-.946541 3.256931-1.808373 4.717491-.668312 1.395592 3.931244 13.091038 4.009865 13.208977zm18.201656.530716v-.589688l.589684.412781c.864876.609345.884529.786247.117943.786247-.648659 0-.707627-.039314-.707627-.60934zm6.525864.157253c0-.058975.471748-.235878.845215-.629002l.707626-.746937-.353813.825562c-.216217.53072-.432434.805904-.687973.805904-.196556 0-.511055-.21622-.511055-.255527zm-8.098358-2.398064c0-.864868.176902-.864868.746933 0l.41278.766594-.57003-.078625c-.550369 0-.589683-.058963-.589683-.687969zm-2.751873-4.914051c0-.864872.176906-.864872.746933 0l.432441.76659-.589687-.078621c-.550373 0-.589687-.058971-.589687-.687969zm-.982811-1.769062c0-.864868.176906-.864868.746933 0l.511062.90419-.668308-.216221c-.550373 0-.589687-.058967-.589687-.687969z" fill="url(#c)"/><path d="m26.968246 32.44207c-.176906-.275185-.275186-.550369-.235874-.609341.058968-.058967.25553.176907.432436.511059.373469.746941.275189.805908-.196562.098282z" fill="url(#b)"/><path d="m23.076315 61.317047c-.078623-.058964-.137592-.373466-.137592-.687965 0-.491406.058969-.550373.687967-.550373.648657 0 .687967.039314.687967.687969 0 .628998-.058969.687965-.550373.687965-.314501 0-.629-.058967-.687969-.137596z" fill="#00b0e7"/><path d="m10.43737 32.97279c.078625-.098282 0-.117939-.098281-.15725-.157249-.058967-1.592153-3.223621-1.513528-3.302246.058969-.058967 2.299777-.96315 3.793649-1.533184.334156-.137592.628999-.294842.687968-.353813.058968-.078621.668311-.550369 1.375935-1.081089 2.43737-1.788715 5.09096-4.638866 5.385803-5.778927.275187-1.120407.432436-1.14006 1.375935-.216221.946871.939995 1.642956 2.102391 2.024589 3.380871.05897.452091.019658.550373-.216218.452091-.196562-.078624-.314499-.019653-.314499.176907 0 .353813-2.633933 3.007404-4.108149 4.147461-1.572498 1.218689-3.79365 2.496342-5.66099 3.282589-1.002467.412781-1.631466.786251-1.631466.963154 0 .255531-.019656.255531-.196561 0-.117938-.176903-.255531-.216217-.334156-.098282-.196562.255531-.707624.373466-.570031.117939z" fill="url(#b)"/><path d="m27.793808 64.59964c-.963154-.255531-2.692902-1.140061-2.692902-1.375939 0-.117935.314499-.196559.687968-.196559.373468 0 .687967.058963.687967.157245 0 .078633.864874.117939 1.906652.098282 1.35628-.039307 2.063902.019657 2.476685.235878.271217.142628.563011.242104.864872.294842.373468 0 .314501.53072-.078623.687969-.589687.216217-3.066372.294846-3.852619.098282z" fill="url(#d)"/><path d="m65.985832 62.92886c0-.216221-.137596-.275185-.452087-.19656-.373474.098278-.629006-.098282-1.493874-1.159718-1.089588-1.432605-2.427841-2.657669-3.950905-3.616741-.393123-.157253-1.022125-.235878-1.493873-.17691-.943493.098282-3.144993 1.061439-3.695366 1.631469-.432438.412781-.864872.530713-.825562.19656 0-.117939-.058967-.235878-.157249-.255535-.15725-.039306-.72728-.982811-2.535652-4.226085l-.746937-1.336621h.609344c.393124 0 .589688.098282.589688.294846 0 .314499.314499.412781.432434.137596.039314-.078632.805908-.766598 1.729748-1.493874 1.592155-1.316971 1.651123-1.375938 1.592155-2.103218-.039314-.746933-.039314-.766594.609341-.766594.609344 0 .727279.137596 1.729748 1.690438.589687.943496 1.670776 2.240806 2.378402 2.928775 1.631462 1.533184 2.712555 1.945965 4.481617 1.749401.845215-.098281 1.199028-.058967 1.199028.098282 0 .117939.098282.216217.235878.216217.117928 0 .648651.353814 1.159714.786251.530716.432438 1.14006.786248 1.415245.786248.255531 0 .648659.039314.707626.098282-.334152.609344-1.572502 3.20396-2.535652 4.206428-1.061432 1.140064-.982811.982811-.982811.511063zm-17.100906-12.304791c-.707627-1.218681-.845219-1.90665-.471749-2.240806 1.18277-2.04538 2.138493-4.213883 2.850152-6.466896.117935-.628998.589687-1.926308 1.061435-2.869805.452091-.963157.786248-1.788719.72728-1.847687-.058971-.058967 0-.117935.117935-.117935.137596 0 .216217-.058971.196564-.137596-.078625-.216217 2.122871-4.776459 2.555309-5.248207.353809-.393124.412777.03931 1.002464.982811.589688.943497.589688.96315.235878 1.552841-1.12096 1.896057-2.176464 3.830059-3.164653 5.798584-.864872 1.710087-1.041779 2.22115-1.002468 3.007401.039314 1.041778-.393124 2.476677-1.415246 4.697838-.373466.825553-.746936 1.769058-.825561 2.083549-.055882.314789-.198883.607605-.412781.845222-.157249.117939-.275188.432435-.275188.687966 0 .805908-.491406.511062-1.179371-.72728zm21.641495-.078625c.039306-.196559.294838-.393123.550369-.432437.275184-.039311.589683-.15725.707626-.255532.137596-.098278.294846-.137592.353806-.058963.078636.058963.137596.019649.137596-.098282 0-.137596.098282-.235875.216225-.235875.137588 0 .314498-.196563.491401-.334159.353813-.294846.255532-.294846.275185.294841 0 .432438-.117935.68797-.334152.766598-.196564.078625-.412781.216213-.471749.314495-.078628.098282-.550377.235878-1.061439.294842-.805901.078632-.923844.058975-.864868-.255528zm-5.326836-1.690433c0-.117943-.137596-.334152-.294846-.491409-.294845-.314499-.41278-1.65112-.137596-1.65112.117943 0 .471756.491406 1.29731 1.828026l.314507.53072h-.589692c-.314498 0-.589683-.098282-.589683-.216217zm-1.572498-3.223618c0-.864875.176902-.864875.746936 0l.471749.805905-.628998-.117939c-.550373 0-.589687-.058968-.589687-.687966zm-.982811-1.769062c0-.550373-.078625-.687969-.393124-.687969-.314503 0-.393124-.137588-.393124-.687965 0-.373467.058964-.687966.117936-.687966.176906 0 .845214.864869.864875 1.081093 0 .117935.216217.530716.491406.943497l.570026.904182-.668308-.176902c-.550373 0-.589687-.058968-.589687-.68797zm-1.769059-3.144992c0-.805909.098278-.845219.609345-.235875.491402.609341.471744.92384-.117939.92384-.432442 0-.491406-.078621-.491406-.687965z" fill="url(#c)"/><path d="m64.9244 48.363602c-.058975-.176903-.117942-.570027-.117942-.884529 0-.432435-.098282-.570027-.39312-.570027-.314507 0-.393128-.137596-.393128-.707626 0-.628994.039315-.687969.314499-.452091.176911.137588.452095.589687.609345 1.002472.157249.412773.117935.786247.23587.786247.098282 0 .373467.058967.314499.157245-.05896.117939-.039314.19656.058968.19656.098281 0 .235877.176907.294845.393128.078629.314499 0 .393123-.353813.393123-.255524 0-.511063-.137596-.570023-.314502zm-1.887001-3.950898c0-.687965.019657-.707622.373467-.373466.196564.196564.373466.53072.471748.72728.137596.275184 0 .373466-.373466.373466-.412781 0-.471749-.098282-.471749-.72728zm-.982811-1.769058c0-.707626 0-.707626.35381-.334152.196563.19656.41278.530716.491405.72728.098282.255531.019657.334152-.353809.334152-.432438 0-.491406-.078621-.491406-.72728zm-.982811-1.769058c0-.707626 0-.707626.35381-.334152.196563.19656.412784.530716.491405.727276.098282.255531.019657.334156-.353809.334156-.432438 0-.491406-.078625-.491406-.72728zm-.982811-1.631466c0-.53072-.314499-1.356277.35381-.393124l.452099.668309c.07862.275188.019657.314502-.33416.314502-.393124 0-.471749-.098281-.471749-.589687z" fill="url(#c)"/><path d="m77.111252 39.537964c-.058975-.15725-.058975-.412781 0-.550373.157249-.452091-.33416-.668308-1.788719-.805905-3.498803-.294841-6.840363-1.769058-10.594696-4.638866l-.786251-.609345-.668309 1.041783c-.353817.57003-.629001.943497-.589687.825558.03931-.117936 1.022121-2.398056 2.221149-5.071301 1.710091-3.872276 2.221154-4.83543 2.515992-4.83543.216224 0 .90419.57003 1.552848 1.277653 1.572457 1.698597 3.536004 2.987388 5.719956 3.754341 1.412613.490368 2.915611.664821 4.402992.511059l2.791184-.039311-.353814.845215c-1.159233 2.827736-2.444732 5.602055-3.852615 8.314583-.33416.353805-.432442.353805-.57003-.019661z" fill="url(#a)"/><path d="m9.513529 30.240574c-.098282-.137592-.235875-.19656-.3145-.137592-.196562.098281-.72728-1.159714-.982811-2.457028-.334155-1.356277-.275187-1.572494.255531-1.572494.668311 0 2.476683-.786251 2.476683-1.081093 0-.137593.432437-.530716.943499-.864872 1.238266-.83342 2.339114-1.854691 3.262931-3.027058.511061-.609341.72728-1.100746.825561-1.86734l.157249-.982811c.412781-.098278 1.906653.196564 1.769061.275189-.648657-.294846.943498.275184 1.965622.825557.334154.176911.825559.511063 1.002466.668312.412779.393124.255531.589688-.039313.904187-.137594.137592-.216219.353813-.137594.452095.15725.255527-1.592153 2.398056-3.0074 3.715023-2.398059 2.201496-3.046714 2.771526-2.889464 2.515995.157251-.275189-.412781.098282-.805904.530716-.098282.098281-.432437.294845-.707625.393123-2.889463 1.120407-3.518462 1.415249-3.557774 1.67078-.058969.235875-.098281.235875-.216218.039311z" fill="url(#b)"/><path d="m31.096052 64.44239c-.21892-.041061-.426618-.128158-.609342-.255531-.314499-.255531-2.633934-.393127-3.321902-.196564-1.041778.294846-3.066368-1.10075-4.245741-2.909118l-.452093-1.061436.72728-.294842c.60198-.383251 1.179665-.803386 1.729746-1.258003.511061-.412773 1.022125-.746933 1.14006-.746933.117937 0 .216219-.137596.216219-.294842 0-.216221.216219-.294845.845219-.294845 2.024587 0 4.40299-1.906655 6.42758-5.149929.982811-1.572499 1.14006-1.729744 1.71009-1.729744.334156 0 .648655.117935.707627.255527.137592.353817-.039315 5.090965-.294846 7.351429-.235874 2.162182-.117939 2.614273.668312 2.614273.334156 0 .314499.078625-.216217.845215-1.257999 1.847691-3.754337 3.400528-5.031992 3.125343z" fill="url(#d)"/><path d="m68.737701 58.997616c0-.235874-.07862-.275185-.334159-.117939-.255524.137596-.570031-.019657-1.415245-.786247-.589684-.530713-1.199029-.963154-1.336625-.963154-.137588 0-.255523-.058964-.255523-.137596 0-.098278-.530724-.117932-1.179375-.098278-1.474216.098278-2.850151-.353814-3.852619-1.238343l-.766594-.668308.707626-.019657c1.475556.304249 2.994141.337555 4.481617.098282.471749-.078625 1.474213-.353813 2.221153-.629002.959267-.299984 1.947571-.497646 2.948433-.589687l1.69043-.471749-.412773 1.022126c-1.690437 3.97055-2.496346 5.444767-2.496346 4.599552zm-17.100906-3.636399c-.157249-.098281-.216221-.196559-.117939-.196559.117939 0 .019657-.137597-.19656-.294846-.196564-.157249-.275188-.294842-.176906-.294842.117939 0 .117939-.058967-.019658-.157249-.771728-1.026119-1.3633-2.176029-1.749401-3.400528-.058971-.471749.019657-.707623.275185-.904186.216221-.137589.432442-.530716.511063-.864872.078624-.334153.452095-1.277653.825561-2.103215 1.041779-2.280121 1.395592-3.479149 1.29731-4.422649-.078625-.687969.058971-1.14006.825562-2.692898 1.415245-2.909122 3.498806-7.331772 3.73468-7.331772.385379.467713.709079.982987.963154 1.533188.530719.96315.9435 1.415245.668308 1.729744-1.244858 1.687203-2.399632 3.439053-3.459492 5.248211-.533428.969784-.855011 2.041721-.943497 3.144993.039315.294845.687966 1.572498 1.415249 2.869808.588295 1.02866 1.164913 2.063953 1.729744 3.105679.235878.432441.550377.943504.727284 1.140068.176902.19656.432434.609337.589687.904178.157246.294842.393124.609345.511063.68797.137588.078628.255527.471752.255527.864875 0 .707619 0 .707619-.412781.334153-.23587-.196564-.864872-1.081093-1.434902-1.926308-.963157-1.493874-1.002468-1.533188-1.10075-.96315-.078625.452087-.491405.904178-1.769058 1.926304-.726849.572147-1.428577 1.175502-2.103214 1.808376-.491406.511055-.452095.511055-.845219.255527zm16.766747-4.461963c-.530709-.078621-.648652-.176903-.648652-.550369 0-.432442.058968-.471749.511063-.294846.275185.117939 1.022118.196564 1.651123.196564.628998 0 1.375931-.078625 1.651123-.196564.452095-.157246.511063-.137596.511063.275185 0 .393127-.117943.471748-.90419.589687-.943497.117939-1.651123.117939-2.77153-.019657zm-2.221146-1.434899c0-.530723-.058968-.589691-.589691-.589691-.550369 0-.589684-.058963-.589684-.687965 0-.864872.176903-.864872.746933 0 .301277.439285.681122.819126 1.120407 1.120407.864876.57003.864876.746933 0 .746933-.628997 0-.687965-.039314-.687965-.589684z" fill="url(#c)"/><path d="m25.297468 48.363602c0-.235871.668312-1.257996.825562-1.257996.078624 0 .157249.314503.157249.687969 0 .609345-.058969.687969-.491405.687969-.275187 0-.491406-.058967-.491406-.117942z" fill="#00b2f7"/><path d="m63.941586 46.791107c-.058972-.176903-.117939-.57003-.117939-.884529 0-.432434-.098279-.57003-.373467-.57003-.412781 0-.609341-.373467-.609341-1.199028 0-.432438-.098281-.57003-.393127-.57003-.314499 0-.393124-.137597-.393124-.687966 0-.37347.078625-.687973.15725-.687973.157253 0 2.791183 4.540589 2.791183 4.79612 0 .275185-.943496.098282-1.061435-.196564zm-2.869809-5.680645c0-.845218.196564-.864872.648655-.117939.432438.746937.432438.805908-.157249.805908-.432438 0-.491406-.078624-.491406-.687969zm-.982811-1.808368.019658-.746941.471748.550377c.629001.707618.609344.923843 0 .923843-.432438 0-.491406-.078628-.491406-.727279z" fill="url(#c)"/><path d="m23.292536 24.461651c-.432438-.432438-.432438-.550377-.078627-.550377.137594 0 .314501.196564.373469.432438.157249.550373.117937.57003-.294842.117939z" fill="url(#b)"/><path d="m25.336781 48.186699c.57003-.864872.746936-.864872.746936 0 0 .629002-.039312.687965-.589687.687965h-.589685zm4.088493-6.879677c0-.275185.628998-1.277649.786247-1.277649.117937 0 .196564.314499.196564.687966 0 .609344-.05897.687965-.491406.687965-.275188 0-.491405-.039311-.491405-.098282z" fill="#00c8e6"/><path d="m8 26.427269c0-3.007401 1.749403-5.916519 4.36368-7.253143 1.29731-.648651 4.30471-1.199032 4.422647-.825558.05897.137592.176907.432434.334156.393124.491406-.19656.334156.058967-.137594.687969-.275186.353809-.452091.746933-.393123.864872.176906.491405-2.358746 3.243274-3.970556 4.324367-.530718.373467-.982811.76659-.982811.904183 0 .294845-2.810838 1.552845-2.968088 1.316967-.078625-.117935-.117937.216221-.294843.393123-.235875.15725-.373468-.255527-.373468-.805904z" fill="url(#b)"/><path d="m35.105919 60.727364c-.176907-.314496-.196564-.904183-.078625-2.162186.098282-.943497.176907-2.850151.196564-4.226086.019657-1.375934.078621-2.574959.157249-2.63393.216217-.23587.15725-.471748-.117939-.471748-.137592 0-.76659.786247-1.375934 1.729744-1.886997 2.96809-4.226086 4.756805-6.172051 4.756805-.668312 0-.805906.058968-.727281.294842.078626.196564 0 .294845-.216217.294845-.176907 0-.746937.334156-1.257998.746933-.482563.410984-.995039.785489-1.533184 1.120408-.334156.196559-.57003.471748-.511063.609344.078625.19656 0 .216217-.393125.019657-.353809-.157253-.746935-.805908-1.474215-2.417717l-2.457027-5.936176c3.538118.589687 8.137672.255527 8.137672.255527 1.552842-.255527.353814-1.277652 1.808373-.786247 1.651121.589687-.432438 1.926308.982811.982811.432436-.294842.982811-.196564 1.179373-.314499.216219-.098282.530717.432438.530717.314499s.72728.491406.904187.353809c.550373-.452091.76659-1.257995 3.931244-6.663456 1.595516-2.745677 3.213932-5.477989 4.855083-8.19664 1.729748-2.771522 1.82803-2.889461 2.43737-2.889461.609345 0 .648655.03931.648655.648655 0 .334152-.235874.982811-.491405 1.415245-.275185.432438-.491406.982811-.491406 1.218689 0 .216217-.216221.884529-.491405 1.474213-.235077.450843-.400749.934597-.491406 1.434906-.036907.345581-.143921.680004-.314499.982811-.57003 1.061431-1.86734 4.874736-2.692901 7.862483-.488594 1.49387-.766457 3.048581-.825562 4.619214l-.019657 1.670776-1.238338 2.181839c-1.022126 1.788719-1.316967 2.162186-1.690438 2.162186-.275184 0-.570026-.176907-.707622-.452095z" fill="url(#d)"/><path d="m60.226563 55.479156c-1.120408-.845222-2.496342-2.712562-4.304711-5.857555-2.024593-3.55777-2.555309-4.599552-2.633934-5.287521.175484-1.292092.560562-2.546913 1.140061-3.715023.786247-1.611809 2.96809-5.503739 3.223621-5.71996.353809-.294841.412777-.216217 1.238338 1.218686.432438.805908.864872 1.375938.687966 1.454559-1.348622 1.613365-2.406178 3.449127-3.125336 5.425117-.388672.841778-.678883 1.725602-.864872 2.633934-.176907 1.081089-.157249 1.257996.334156 2.26046.294842.589691.648655 1.179375.786247 1.336624.117936.137597.235875.393124.235875.53072 0 .255528 1.10075.687966 1.729743.687966.117939 0 .235878.078624.235878.176906 0 .078621.766591 0 1.729744-.196564.943501-.196559 2.574967-.432434 3.656056-.491405 1.592155-.117939 1.965622-.19656 2.024597-.471745.078621-.294845.137589-.078624 1.179367.255528 1.828026.589687 4.245743.707622 5.837898-.628998.550377-.471744.550377-.550377-1.061439 2.987744-1.081093 2.378402-1.572495 3.16465-1.572495 2.476684 0-.275188-1.552841-.03931-3.243278.53072-1.449295.573238-3.003174.834453-4.560242.76659-.530712-.078625-.845215-.058968-.76659.058968.058971.098281-.157249.17691-.471748.196559-.373467 0-.904187-.216213-1.434902-.628994z" fill="url(#c)"/><path d="m64.550934 47.990135c-.176911-.39312-.33416-.96315-.33416-1.277653 0-.452091-.098282-.589687-.373467-.589687-.412784 0-.609344-.373466-.609344-1.199028 0-.432434-.098282-.57003-.373466-.57003-.412785 0-.609345-.373467-.609345-1.199028 0-.432438-.098282-.57003-.373466-.57003-.412785 0-.609345-.373467-.609345-1.199028 0-.432438-.098282-.570031-.373466-.570031-.196564 0-.432442-.137596-.491406-.314502-.176906-.452092-.137596-1.454556.039307-1.454556.098282 0 1.356285 2.162182 2.830501 4.815769 2.633934 4.717495 2.673241 4.815773 2.142525 4.815773-.412781 0-.609344-.157245-.864868-.687969z" fill="url(#c)"/><path d="m29.661148 40.874588c.687967-1.454559.943499-1.592155.943499-.550377 0 .609345-.05897.687969-.511061.687969-.275188 0-.47175-.058967-.432438-.137592z" fill="#00bff9"/><path d="m56.59016 50.604412c-.530716-.904182-1.277652-2.181835-1.631466-2.850151-.648651-1.179371-.648651-1.218685-.294841-1.592152.19656-.235874.294841-.491401.235874-.589683.1618-1.23.541183-2.421391 1.120403-3.518463.294846-.570034.53072-1.120407.53072-1.238343 0-.393127 2.0639-4.501274 2.260464-4.501274.117939-.019657.432438.412781.707626.923844 5.680645 10.39814 6.624142 11.892006 8.039387 12.619285.373466.216221.609344.373471.491409.393128-.098282 0-.058968.098282.098282.216217.216217.157249.157242.176906-.294846.058967-1.277656-.314499-4.87474.058972-8.059047.805909-1.061436.255527-1.199032.235874-1.415249-.039319-.137593-.176902-.314499-.275184-.373467-.196559-.078624.078628-.275188.019657-.432438-.117936-.255531-.19656-.275184-.17691-.137592.058968.176903.294846.334156 1.179375.196564 1.179375-.039315 0-.511067-.727284-1.041783-1.611813z" fill="url(#c)"/><path d="m19.557854 50.899254c-.432436-.058968-.550373-.196564-.550373-.550369 0-.432442.039312-.452092.589685-.255532.334156.098282 1.218685.15725 1.945967.117935 1.100746-.058967 1.533182-.196563 2.358745-.687969l1.002467-.628994v.57003c0 .39312-.098282.589684-.294844.589684-.15725 0-.294844.078625-.294844.196564 0 .511062-2.948431.923843-4.756803.648651z" fill="url(#d)"/><path d="m68.718048 50.663383c.137589-.098281.176903-.21622.098274-.255535-.098274-.058963-.05896-.058963.078629-.019649l.550377.058964c.157249 0 .275184.098281.275184.196563 0 .117939-.294845.19656-.628997.19656-.452095 0-.570031-.058964-.373467-.176903z" fill="url(#c)"/><path d="m81.022835 31.596855c.216217-.37347-.452088-.491405-2.850151-.53072-1.379097.081101-2.760842-.1058-4.06884-.550373-2.186447-.761879-4.151154-2.051426-5.719948-3.754337l-1.179375-1.277653-.412781.530716-.589691.943501.353813-.904187c.648659-1.808372 2.044243-4.402992 2.869805-5.267864 1.784401-1.880371 4.375931-2.768684 6.938644-2.378402 4.274895.69453 7.194115 4.700782 6.545525 8.982887-.255539 1.375934-1.140068 3.597088-1.434906 3.597088-.117935 0-.15725.117939-.098282.275188.058968.15725-.019653.334156-.17691.393124-.157242.058967-.235871.039314-.176903-.058968z" fill="url(#a)"/><path d="m30.211521 54.162186c-1.371637-.147618-2.748709-.239422-4.127804-.275185-1.788715-.058968-3.813306-.216217-4.520929-.353809-.707624-.117939-1.375935-.19656-1.513529-.176911-.137594.039315-.334156-.137592-.452093-.373466-.137594-.216221.275189.9435.196562.9435-.137592 0-2.221151-4.717491-2.319433-4.914055 0-.019653.452093.176907 1.04178.550374 1.204989.799488 2.702742 1.022708 4.088493.609344 1.788716-.511063 2.535651-1.415249 5.385802-6.407925 2.889463-5.110618 3.203962-5.543052 3.203962-4.442306 0 .727279-.196562 1.100746-.609342 1.100746-.294842 0-.373469.137596-.373469.687969 0 .471749-.09828.687969-.294842.687969-.157251 0-.294843.176903-.294843.373467 0 .589683-.216219 1.002464-.511061 1.002464-.157251 0-.275188.176907-.275188.373467 0 .589691-.216217 1.002472-.511061 1.002472-.15725 0-.275187.176902-.275187.373466 0 .589684-.216219 1.002468-.511062 1.002468-.15725 0-.275187.19656-.275187.471745 0 .432441.078625.471748 1.729748.589691.943497.078621 2.555307.255531 3.577429.412781 1.041782.157245 2.221153.235878 2.614277.157245.668312-.098278.805904-.23587 1.926311-2.201492.668308-1.14006 1.277653-2.122871 1.356278-2.181843.078624-.058967.196559-.294838.275184-.530716.078629-.255531.235878-.452095.33416-.452095.098278 0 .176903-.117935.176903-.275184 0-.15725.117939-.412781.275188-.550374.137593-.157249.334156-.471752.393124-.707622.078625-.235878.235874-.432438.334156-.432438s.176907-.117939.176907-.275188c0-.15725.117939-.412781.275184-.550373.137596-.15725.33416-.471753.393124-.707623.078628-.235878.235878-.432438.33416-.432438.098281 0 .176902-.137592.176902-.294842 0-.157249.098282-.294845.196564-.294845.117939 0 .19656-.117935.19656-.275185 0-.157249.117939-.412781.255531-.550377.117939-.137588.393128-.589683.609341-.982811.196564-.39312.530724-.904182.727283-1.120399.216218-.216221.373467-.491409.373467-.609345 0-.098282.098282-.196563.196564-.196563.117939 0 .19656-.137593.19656-.294846 0-.157249.098281-.294838.196563-.294838.117939 0 .196564-.137596.196564-.294846 0-.157249.098278-.294841.19656-.294841.117939 0 .196564-.137596.196564-.294846 0-.157249.098282-.294842.19656-.294842.117939 0 .196563-.137592.196563-.294845 0-.176903.137593-.35381.294842-.412781.157253-.078625.294846-.235874.294846-.393124 0-.157245.098282-.275184.19656-.275184.117939 0 .196563-.137593.196563-.294846 0-.176903.137593-.353809.294842-.412781.157249-.078624.294846-.235874.294846-.393123 0-.15725.098278-.275185.19656-.275185.117939 0 .196563-.117939.196563-.275188 0-.15725.15725-.412781.353813-.550373.176903-.137593.452092-.471753.589684-.746937.609341-1.140061 1.415249-1.769058 2.299778-1.769058.471748 0 .648655.117939.845219.570026.353813.805908 1.257995 1.199032 2.162181.963158.412781-.098282 1.100747-.235874 1.572499-.294842.805904-.117939.825561-.098282.825561.471744-.029293.369122-.173668.719746-.412784 1.002469-3.116192 3.925876-5.885044 8.115329-8.275265 12.521007-5.090958 9.100826-9.061516 16.393284-9.3367 16.393284-.078625 0-1.513527-4.83543-1.415246-5.071301.098279-.255535 1.415246-1.631469 1.336621-1.847683-.137596-.373474-2.044247.805901-1.651123.294842.157249-.17691 2.751869-4.992683 2.909122-5.60202.978768-2.602032 2.114361-5.142342 3.400524-7.606956.825562-1.552842 5.18924-2.830494 5.18924-2.948433 0-.098282.098282-.196564.196564-.196564.117935 0 .196559-.176903.196559-.39312 0-.216225.078625-.393127.176907-.393127.70079-.981823 1.23843-2.070378 1.592152-3.223618 0-.176907.098282-.314499.216221-.314499.117935 0 .157249-.176906.078624-.393127-.078624-.216217-.039314-.393124.078625-.393124.117935 0 .216217-.176903.216217-.412781 0-.648651 1.395592.353813 1.769058.511063.255532.098282.196564 6.801052-.845215.196564-.058971-.353814-1.081092.96315-1.159717.746936-.098282-.294845 2.083557.137593 1.100746 1.336621-2.948433 3.616741-8.530796 5.090961-13.837971 14.231098-4.029525 6.918991-4.63887 7.823173-5.130272 7.705238-.196563-.058971-.37347-.019657-.37347.098282 0 .098282-.078625.117932-.196562.058968-.098282-.058968-.196562-.019661-.196562.078621 0 .235878-.294843.235878-1.572498 0z" fill="url(#d)"/><path d="m30.152554 26.053802c-1.103289-.660678-2.017313-1.595016-2.65359-2.712554-.039312.019653-.589687-1.258004-.511062-1.297314l2.299778.491405h2.240808l-.157249.943501c-.078625.511059-.15725 1.395588-.15725 1.965622-.019657.550373-.078626 1.022121-.157249 1.022121-.098282-.019657-.491406-.196563-.904186-.412781z" fill="url(#e)"/><path d="m24.727438 49.031914c.373468-.373467 1.788715-2.614273 3.144995-4.992676 5.444771-9.454636 9.729828-16.76675 10.653667-18.162342 1.081093-1.631466 4.835426-5.484081 6.270332-6.466892l1.533185-.923844-.589684.845219c-.124008.650139-.356579 1.274761-.687969 1.847683-.767143 1.382877-1.166458 2.939529-1.159714 4.520931.19656.982807.825558 2.044243 1.474213 2.417709.57003.33416.60934.33416 1.808372-.255527 1.513527-.746937 1.926312-1.002468 2.260464-1.434906.157253-.216217.511063-.353809.9435-.353809.628998 0 .668309.03931.648652.648655-.019654.334156-.058964.471748-.117936.275184-.03931-.176903-.157249-.334156-.235874-.334156-.805904 0-5.877209 7.43005-11.125416 16.216381-3.361213 5.660984-4.009868 6.702767-3.734684 5.955826.196564-.491402-.058967-.825554-.393123-.550369-.216217.176903-.72728.157249-2.103214-.078625-1.959319-.333164-3.933897-.569321-5.916522-.707622-.373466 0-.76659.235878-1.316965.845214-.268312.323887-.586862.602616-.943498.825562-.078625.019657-.353812.137596-.609343.275185-.373468.196563-.314499.117939.196562-.412781zm22.191866-7.233483c.124058-.284923.289657-.549884.491405-.786251.058968 0-.078624.353813-.294841.786251-.124058.28492-.289658.549881-.491406.786248-.058971 0 .078621-.353814.294842-.786248zm.982811-1.769058c.124058-.284923.289657-.549885.491405-.786251.058968 0-.078624.353809-.294841.786251-.124058.28492-.289658.549881-.491406.786247-.058971 0 .078621-.353813.294842-.786247zm.805904-1.415249c.452091-.845218 2.417713-3.990215 3.066368-4.894397.353814-.511063.648655-.963154.648655-1.041779 0-.078629.353813-.609344.786251-1.179375.432434-.57003.786248-1.199028.786248-1.375934 0-.176907.098281-.275189.196563-.216217.176903.117935.275185-.196564.255532-.825562-.019657-.137592.078621-.255531.176902-.255531.275189 0 .746937-.530716.609345-.668312-.19656-.19656-.491406-.137596-.353813.078624.078624.117939-.117939.137593-.511063.058972-.432434-.078629-.589683-.058972-.511059.098278.098282.117935 0 .157253-.255531.098282-.511063-.137593-.511063-.648655 0-.648655.216221 0 .393124-.078625.393124-.196564 0-.098278.098281-.19656.21622-.19656.466198-.130264.920041-.301277 1.356278-.511062 1.030044-.454167 2.040005-.952588 3.027054-1.49387.294845-.353813 2.830494-2.751873-1.592152 1.86734-.19656.19656-1.965618 2.358745-2.201492 2.614277-.727284.786247 0-.196564 0-.157253-.019657.078624-.589688.884532-1.277657 1.808372-1.454559 1.965622-2.869808 4.049183-4.029522 6.054115-.27956.489682-.588054.962269-.923847 1.415249-.058964 0 .019661-.196564.137596-.432438z" fill="url(#d)"/><path d="m31.05674 23.459183c.117937-.314499-1.749403-.432438-2.142529-.117935-.216217.176902-.275186.157245-.275186-.039319 0-.216217-.039313-.216217-.15725-.03931-.137594.196564-.275186.196564-.687967 0-.66831-.294842-1.179373-1.651119-1.120405-3.302246.117937-2.712555 2.004934-4.28505 3.243276-4.402989.923842-.078624 1.729748 0 2.299775.648652.589687.668316.766597.904186.746936 1.808376 0 .707622-.176902 1.395592-.57003 2.260464-.338398.758041-.62089 1.539825-.845215 2.339088-.137594.609345-.334156 1.10075-.412782 1.10075-.09828 0-.137593-.117939-.078623-.255531z" fill="url(#e)"/><path d="m37.327072 19.547592c-.647037-1.402275-.950271-2.938652-.884529-4.481613-.062752-1.780193.245155-3.553997.904186-5.208897.568051-1.331359 1.351704-2.55997 2.319432-3.636402.098281 0 .176906.314503.176906.687969 0 .570031-.078625.68797-.432438.68797-.334152 0-.373466.058963-.19656.235874.137593.137592.235875.393123.235875.589687 0 .884529 3.931243 2.732212 6.565174 3.086022 1.493873.21622 1.572498.196563 2.398059-.275185.452092-.275185 1.100747-.491406 1.434903-.491406.57003 0 .609344-.058967.609344-.687969 0-.452087.098278-.687965.275185-.687965.137596 0 .314499-.255528.393123-.589687.098282-.491406.196564-.589688.707627-.589688.314499 0 .137592-2.024586.137592-1.926304.845219-.098282-.452095 3.538117-2.496338 4.85508-.235874.098282 1.061432-.255528 1.022122-.058968-.137593.471749-2.299778 1.887001-4.127804 2.633934-4.009869 1.670777-7.017269 3.656056-8.098362 5.405457-.452091.746937-.628998.825565-.943497.452091z" fill="url(#f)"/><path d="m50.850548 26.957989c0-.353813-.412781-.393124-.746937-.058972-.176907.176911-.235874.098282-.235874-.393123 0-.589688.03931-.628998.687965-.628998.648659 0 .687969.03931.687969.687969 0 .373467-.078624.687966-.196563.687966-.098278 0-.19656-.137593-.19656-.294842z" fill="#59e9fe"/><path d="m45.838211 12.176514c-1.067249-.161236-2.119213-.41108-3.144993-.746937-1.886997-.687966-3.773994-1.906654-3.872272-2.496338-.039315-.255531-.157254-.452091-.294846-.452091-.117939 0-.314499.412781-.393123.334156-.078625-.098282.03931-.589688.117935-.629002.078628-.019657.157249-.098278.137596-.176903-.019657-.078624.196564-.393123.373466-.687969.196564-.353813.432438-.629001.491406-.687965.157249-.176907.707626-.805908 1.061436-.805908.196559 0 .727283.275188 1.218688.609344 1.40371.950707 2.979439 1.618393 4.638863 1.965622 1.081093.176903 1.474217.137589 3.164654-.314499.785847-.223919 1.587479-.388183 2.398056-.491405.432434 0 .491405.078621.491405.707622 0 .412781-.078624.648655-.196563.57003-.098278-.058967-.19656-.058967-.216217.039315l-.058968.609337c-.039314.255535-.53072.923847-1.10075 1.474216-.570026.570034-.982811.86488-.904186.668316.117939-.334156.078625-.334156-.530716.03931-1.100746.687966-1.513531.746941-3.380871.471749z" fill="url(#f)"/><path d="m59.401001 6.810368c-2.181843-1.081093-2.59462-4.245743-.629002-5.71996.629002-.471748 2.280121-1.061432 2.75187-.648651.491405.511063.353817.786247 1.572498.727276 0-.03931.943504.687965 1.022125 1.395592.502373 1.313759.144074 2.801227-.901398 3.742149-1.045467.940922-2.562328 1.141094-3.816093.503594z" fill="url(#g)"/><path d="m45.287838 8.972553c-1.100746-.196563-3.086025-1.081093-4.383335-1.985279-.766594-.530716-.982811-.589687-1.277657-.393123-.786247.471744-.314495-.196564.864876-1.258 1.594055-1.490333 3.601807-2.463379 5.759274-2.791183 3.518459-.294842 5.700302 1.808372 6.132736 4.776462.098282.648655-.393124 2.240807-.786247 2.476685-.373471.23587-.314503-.117939-.314503-.235878 0-.098278.235874-.491406.137592-.334156-.157245.235878.216221-.078625.216221-.471749v-.511062l-1.788715.452095c-1.473988.467136-3.040776.56168-4.560242.275188z" fill="url(#f)"/><path d="m63.745026 2.544968c-.550774-.146294-1.122136-.199448-1.690438-.157246-1.395591 0-1.572494-.039318-2.0639-.530724-.294845-.314491-.727283-.550369-.943496-.550369-.589688 0-.078633-.511066.8059-.805904.828545-.327095 1.760552-.26207 2.535656.176903.884529.471752 1.415241 1.002468 1.53318 1.592155.078621.452095.058968.491406-.176902.275185z" fill="url(#g)"/><path d="m51.479546 27.842518c-.276055-.261273-.496659-.575466-.648655-.923844-.15725-.41278-1.140061.078625-1.375935.275189-.255531.216217.609341-.373467.609341-.845219 0-.452091.393127-1.002464 1.808372-2.515995 2.457028-2.633934 3.518463-3.459491 4.481617-3.459491.687969 0 .746937.03931.864872.746936.294846 1.808369-.078621 4.344021-.746933 5.012333-.157249.137593-.235878.491406-.176906.746937.078624.432438-.019658.550373-.766594.845215-.471749.196564-1.45456.393123-2.22115.452095-1.218685.078625-1.434906.03931-1.828029-.334156z" fill="url(#h)"/><path d="m55.685978 27.41008c.098282-.137592.03931-.176907-.17691-.098278-.19656.078621-.275185.03931-.235875-.117939.058972-.137592.137596-.471748.176907-.786251.058968-.294842.235878-.668308.393124-.845215.648655-.648655 1.179374-3.420181.687969-3.734684-.117935-.058964-.176907-.294842-.117935-.491402.058967-.216217.019653-.37347-.058972-.37347-.353813 0-2.162182 1.611809-3.891929 3.459496l-1.808373 1.945964v-.707626c0-.805901.294846-1.159714.923843-1.159714.353814 0 .452092-.098282.452092-.550373 0-.393127.275188-.825561 1.041782-1.572498.570026-.57003 1.081089-1.022122 1.14006-1.022122.058964 0 .511059-.37347 1.002465-.825561 1.939071-1.775024 4.386917-2.895805 6.997612-3.203964 1.316967-.137596 1.415249-.117939 1.886993.353809.57003.570034.805908 1.29731.629006 1.985279-.463204.735527-1.048127 1.386917-1.729752 1.926312-1.255405 1.120971-2.487465 2.26783-3.695366 3.439834-.84864.876477-1.798859 1.648533-2.830494 2.299778-.904186.373471-.963157.373471-.786247.078625z" fill="url(#h)"/><path d="m45.169903 28.844986c-.805908-.216221-1.592156-1.415249-1.769058-2.653587-.222256-2.491318.500431-4.975121 2.024585-6.958302 1.06144-1.238342 5.110615-3.184307 8.00008-3.852619 4.206433-.963154 8.019734-.353813 10.063981 1.611809.884532.845218 1.316967 1.592151 1.316967 2.280121 0 .511062-.452088 1.10075-.845215 1.10075-.137596-.019658-.039315-.176907.216217-.373467.530716-.471748.550377-1.002468.039314-1.592155-.314503-.373467-.57003-.452092-1.474216-.432442-3.105679.019661-6.879677 2.437374-10.75195 6.860023-1.926311 2.181839-3.577431 3.479149-5.031994 3.911587-.96315.294846-1.081089.294846-1.788711.098282z" fill="url(#h)"/></svg>