<svg width="92" height="65" viewBox="0 0 92 65" fill="none" xmlns="http://www.w3.org/2000/svg">
<path d="M18.5561 45.841C21.4672 45.841 22.9289 44.1811 24.4279 40.8179L30.0704 28.2444L20.6682 7.19787C18.296 1.87739 12.065 -0.507224 6.74453 1.865C1.43024 4.23723 -0.954378 10.4744 1.41785 15.7887L13.8364 43.6113C14.8522 45.0792 16.6298 45.841 18.5499 45.841H18.5561Z" fill="url(#paint0_radial_1_512)"/>
<path d="M73.1367 45.8406C70.2256 45.8406 68.7638 44.1806 67.2649 40.8174L61.6224 28.244L71.0184 7.19741C73.3906 1.88312 79.6216 -0.501497 84.9421 1.87073C90.2564 4.24296 92.641 10.4739 90.2687 15.7944L77.8502 43.617C76.8344 45.0849 75.0567 45.8468 73.1367 45.8468V45.8406Z" fill="url(#paint1_radial_1_512)"/>
<path d="M73.1357 45.8468C70.2246 45.8468 68.7629 44.1869 67.2639 40.8236L55.5143 14.6424C53.7614 10.7093 49.8903 8.38045 45.8396 8.39904C41.795 8.38045 37.9239 10.7093 36.1648 14.6424L24.4152 40.8236C22.9163 44.1869 21.4545 45.8468 18.5434 45.8468C16.6234 45.8468 14.8457 45.0912 13.83 43.617C14.6661 45.6548 16.9021 51.4584 19.3239 56.624C19.4168 56.8222 19.5097 57.0142 19.6026 57.2001C19.6026 57.2001 19.6026 57.2001 19.6026 57.1939C20.637 58.606 22.5508 59.4174 24.4276 59.4174C27.3387 59.4174 28.8004 57.7575 30.2993 54.3943C30.2993 54.3943 37.7752 37.7081 40.2651 32.1399C40.9403 30.6286 42.4825 26.9928 45.8334 26.9928C49.1842 26.9928 50.6583 30.48 51.4016 32.1399C53.8915 37.7019 61.3674 54.3943 61.3674 54.3943C62.8663 57.7575 64.3281 59.4174 67.2392 59.4174C69.1159 59.4174 71.0298 58.606 72.0642 57.1939C72.0642 57.1939 72.0642 57.1939 72.0642 57.2001C72.1571 57.0142 72.25 56.8222 72.3429 56.624C74.7646 51.4584 77.0006 45.6548 77.8368 43.617C76.821 45.085 75.0434 45.8468 73.1233 45.8468H73.1357Z" fill="url(#paint2_linear_1_512)"/>
<path d="M72.0766 57.2062C70.9555 59.4546 69.7416 61.0712 68.4966 62.2232C66.6385 63.8584 64.3715 64.7875 61.6215 64.8866C61.5905 64.8866 61.5657 64.8866 61.5348 64.8866C58.5308 64.8246 55.5577 63.5115 53.5447 61.2012C52.9068 60.427 52.3493 59.5475 51.8848 58.5813C51.8848 58.5813 48.6888 51.3159 45.852 44.9115C45.852 44.9115 45.852 44.9177 45.852 44.9239C45.852 44.9239 45.852 44.9177 45.852 44.9115C43.0091 51.3159 39.8193 58.5813 39.8193 58.5813C39.3547 59.5475 38.8035 60.427 38.1593 61.2012C36.1463 63.5115 33.1671 64.8246 30.1693 64.8866C30.1383 64.8866 30.1136 64.8866 30.0826 64.8866C27.3325 64.7875 25.0656 63.8522 23.2075 62.2232C21.9625 61.0712 20.7485 59.4546 19.6274 57.2062C20.6618 58.6122 22.5757 59.4236 24.4524 59.4236C27.3635 59.4236 28.8252 57.7637 30.3242 54.4004C30.3242 54.4004 37.8001 37.7143 40.29 32.1461C41.0332 30.4861 42.5136 26.999 45.8582 26.999C49.2029 26.999 50.6832 30.4861 51.4265 32.1461C53.9164 37.7081 61.3923 54.4004 61.3923 54.4004C62.8912 57.7637 64.3529 59.4236 67.264 59.4236C69.1408 59.4236 71.0546 58.6122 72.089 57.2062H72.0766Z" fill="url(#paint3_linear_1_512)"/>
<defs>
<radialGradient id="paint0_radial_1_512" cx="0" cy="0" r="1" gradientUnits="userSpaceOnUse" gradientTransform="translate(4.88019 3.52495) scale(25.5742 25.5742)">
<stop offset="0.1" stop-color="#00BAE6"/>
<stop offset="0.78" stop-color="#0084E7"/>
</radialGradient>
<radialGradient id="paint1_radial_1_512" cx="0" cy="0" r="1" gradientUnits="userSpaceOnUse" gradientTransform="translate(86.8188 3.52448) rotate(-180) scale(25.5742)">
<stop offset="0.14" stop-color="#788CF3"/>
<stop offset="0.46" stop-color="#587EEF"/>
<stop offset="1" stop-color="#1A65E8"/>
</radialGradient>
<linearGradient id="paint2_linear_1_512" x1="13.8361" y1="33.9113" x2="77.8554" y2="33.9113" gradientUnits="userSpaceOnUse">
<stop stop-color="#788CF3"/>
<stop offset="0.25" stop-color="#57ABF6"/>
<stop offset="0.51" stop-color="#39CAFA"/>
<stop offset="0.86" stop-color="#39CAFA"/>
</linearGradient>
<linearGradient id="paint3_linear_1_512" x1="19.6151" y1="45.9459" x2="72.0766" y2="45.9459" gradientUnits="userSpaceOnUse">
<stop stop-color="#679BF5"/>
<stop offset="0.19" stop-color="#529DF4"/>
<stop offset="0.51" stop-color="#34A2F3"/>
<stop offset="0.86" stop-color="#4DAFF7"/>
</linearGradient>
</defs>
</svg>
