<svg width="100%" height="100%" viewBox="0 0 207 40" fill="none" xmlns="http://www.w3.org/2000/svg">
<g clip-path="url(#clip0_1_493)">
<path d="M11.4093 27.6998C13.1442 27.6998 14.0153 26.7105 14.9086 24.7062L18.2713 17.2129L12.668 4.66994C11.2542 1.49914 7.54082 0.0780047 4.37002 1.49176C1.20292 2.90552 -0.218224 6.62263 1.19553 9.78973L8.59653 26.3709C9.2019 27.2457 10.2613 27.6998 11.4056 27.6998H11.4093Z" fill="url(#paint0_radial_1_493)"/>
<path d="M43.9367 27.6998C42.2018 27.6998 41.3307 26.7106 40.4374 24.7062L37.0747 17.2129L42.6743 4.66998C44.0881 1.50287 47.8015 0.0817335 50.9723 1.49549C54.1394 2.90925 55.5606 6.62266 54.1468 9.79346L46.7458 26.3746C46.1404 27.2495 45.081 27.7035 43.9367 27.7035V27.6998Z" fill="url(#paint1_radial_1_493)"/>
<path d="M43.9368 27.7035C42.2019 27.7035 41.3307 26.7142 40.4374 24.7098L33.4351 9.10685C32.3905 6.7629 30.0834 5.37498 27.6693 5.38605C25.2589 5.37498 22.9519 6.7629 21.9036 9.10685L14.9012 24.7098C14.0079 26.7142 13.1368 27.7035 11.4019 27.7035C10.2576 27.7035 9.19822 27.2531 8.59285 26.3746C9.09117 27.589 10.4237 31.0478 11.867 34.1263C11.9224 34.2444 11.9777 34.3588 12.0331 34.4696C12.0331 34.4696 12.0331 34.4696 12.0331 34.4659C12.6496 35.3075 13.7902 35.791 14.9086 35.791C16.6435 35.791 17.5146 34.8018 18.4079 32.7974C18.4079 32.7974 22.8633 22.8531 24.3472 19.5347C24.7495 18.634 25.6687 16.4672 27.6656 16.4672C29.6626 16.4672 30.5411 18.5454 30.9841 19.5347C32.468 22.8494 36.9233 32.7974 36.9233 32.7974C37.8166 34.8018 38.6878 35.791 40.4227 35.791C41.5411 35.791 42.6817 35.3075 43.2982 34.4659C43.2982 34.4659 43.2982 34.4659 43.2982 34.4696C43.3535 34.3588 43.4089 34.2444 43.4643 34.1263C44.9076 31.0478 46.2401 27.589 46.7384 26.3746C46.1331 27.2494 45.0737 27.7035 43.9294 27.7035H43.9368Z" fill="url(#paint2_linear_1_493)"/>
<path d="M43.3055 34.4733C42.6374 35.8132 41.9139 36.7766 41.172 37.4632C40.0646 38.4377 38.7136 38.9914 37.0747 39.0504C37.0562 39.0504 37.0415 39.0504 37.023 39.0504C35.2327 39.0135 33.4609 38.231 32.2613 36.8541C31.8811 36.3927 31.5488 35.8686 31.272 35.2927C31.272 35.2927 29.3673 30.9629 27.6767 27.1461C27.6767 27.1461 27.6767 27.1498 27.6767 27.1535C27.6767 27.1535 27.6767 27.1498 27.6767 27.1461C25.9824 30.9629 24.0814 35.2927 24.0814 35.2927C23.8046 35.8686 23.476 36.3927 23.0921 36.8541C21.8925 38.231 20.117 39.0135 18.3304 39.0504C18.312 39.0504 18.2972 39.0504 18.2787 39.0504C16.6398 38.9914 15.2888 38.434 14.1814 37.4632C13.4395 36.7766 12.716 35.8132 12.0479 34.4733C12.6643 35.3112 13.8049 35.7947 14.9234 35.7947C16.6583 35.7947 17.5294 34.8055 18.4227 32.8011C18.4227 32.8011 22.8781 22.8568 24.3619 19.5384C24.8049 18.5491 25.6871 16.4709 27.6804 16.4709C29.6737 16.4709 30.5559 18.5491 30.9988 19.5384C32.4827 22.8532 36.9381 32.8011 36.9381 32.8011C37.8314 34.8055 38.7025 35.7947 40.4374 35.7947C41.5559 35.7947 42.6965 35.3112 43.3129 34.4733H43.3055Z" fill="url(#paint3_linear_1_493)"/>
<path d="M66.5974 32.4099L59.931 8.76367H65.2354C66.878 15.5039 69.1998 24.0086 69.6723 27.6556H69.7055C70.4733 23.5583 73.1531 14.3818 74.7551 8.76367H79.5279C80.9897 13.8576 83.8283 24.0418 84.4632 27.4784H84.5149C85.2383 23.1375 87.8481 13.7506 89.1769 8.76367H94.2044L87.0987 32.4099H81.691C80.2035 27.1499 77.5826 17.7704 76.8444 14.3818H76.8112C76.0877 18.2355 73.5924 26.7992 71.9608 32.4099H66.59H66.5974Z" fill="#053361"/>
<path d="M109.017 27.792C109.017 29.7853 109.128 32.0149 109.184 32.4098H104.621C104.485 31.9779 104.429 30.9185 104.407 30.3907C103.562 31.8118 101.775 32.8638 98.4789 32.8638C93.8685 32.8638 92.0118 30.0031 92.0118 27.2863C92.0118 22.9196 95.7769 21.5169 100.86 21.5169H104.311V20.7454C104.311 19.2874 103.709 17.9843 100.993 17.9843C98.5011 17.9843 97.9548 18.9957 97.7037 20.1659H92.9457C93.1303 17.7961 94.7249 14.6142 100.989 14.6216C107.515 14.629 109.021 17.63 109.021 20.8377V27.792H109.017ZM104.315 24.5917C103.883 24.5733 102.742 24.5733 101.044 24.5733C97.9954 24.5733 96.7293 25.3743 96.7293 27.0316C96.7293 28.3273 97.6927 29.3867 99.7856 29.3867C103.141 29.3867 104.315 27.5484 104.315 24.9978V24.5917V24.5917Z" fill="#053361"/>
<path d="M110.675 15.0757H113.742V9.9707H118.574V15.0757H122.535V18.6452H118.574V26.7512C118.574 28.2942 118.94 28.9844 120.597 28.9844C121.029 28.9844 121.586 28.977 122.04 28.8774V32.2217C121.14 32.5022 119.944 32.5797 118.803 32.5797C114.927 32.5797 113.742 30.8079 113.742 27.5227V18.6452H110.675V15.0757V15.0757Z" fill="#053361"/>
<path d="M128.094 24.8649C128.208 27.2716 129.777 29.1947 132.505 29.1947C134.709 29.1947 135.687 28.3974 136.326 27.2199H141.143C140.227 29.9625 137.839 32.8602 132.413 32.8602C125.85 32.8602 123.284 28.2867 123.284 23.8239C123.284 18.7521 126.455 14.6179 132.424 14.6179C138.906 14.6179 141.364 19.2135 141.364 23.5914C141.364 24.0417 141.364 24.3629 141.331 24.8649H128.098H128.094ZM136.477 21.8454C136.381 20.1622 135.539 18.0656 132.413 18.0656C129.526 18.0656 128.371 19.782 128.172 21.8454H136.477Z" fill="#053361"/>
<path d="M143.834 19.7858C143.834 18.1321 143.834 16.5781 143.8 15.0758H148.503C148.581 15.6184 148.647 17.4455 148.647 18.5308C149.596 16.2422 151.722 14.5922 155.103 14.6402V19.1066C151.283 19.0512 148.647 20.6533 148.647 25.5479V32.4136H143.834V19.7858Z" fill="#053361"/>
<path d="M159.396 32.4099V18.6452H156.498V15.0757H159.396V13.4035C159.396 9.41328 161.356 7.13208 165.542 7.13208C166.361 7.13208 167.221 7.18376 167.723 7.31664V10.9747C167.395 10.9156 166.937 10.8935 166.557 10.8935C164.759 10.8935 164.228 11.5985 164.228 13.5217V15.0757H167.764V18.6452H164.228V32.4099H159.396V32.4099Z" fill="#053361"/>
<path d="M187.058 23.7243C187.058 28.9326 183.629 32.8638 177.494 32.8638C171.359 32.8638 168.207 28.6595 168.207 23.7538C168.207 18.8481 171.566 14.6216 177.708 14.6216C183.851 14.6216 187.058 19.0733 187.058 23.7243V23.7243ZM173.109 23.739C173.109 26.7363 174.718 29.1541 177.649 29.1541C180.58 29.1541 182.123 26.7991 182.123 23.8018C182.123 20.8045 180.654 18.3313 177.594 18.3313C174.534 18.3313 173.109 20.6494 173.109 23.739V23.739Z" fill="#053361"/>
<path d="M192.341 15.0757C194.603 18.1136 195.969 19.8781 196.56 20.7012H196.611C197.379 19.6049 198.811 17.6596 200.734 15.0757H205.939L199.258 23.3663L206.186 32.4099H200.69C198.568 29.468 197.076 27.4747 196.379 26.5039H196.32C195.744 27.3197 194.352 29.2613 192.064 32.4099H186.859L193.551 23.7022L186.826 15.072H192.341V15.0757Z" fill="#053361"/>
</g>
<defs>
<radialGradient id="paint0_radial_1_493" cx="0" cy="0" r="1" gradientUnits="userSpaceOnUse" gradientTransform="translate(3.25895 2.48102) scale(15.2413)">
<stop offset="0.1" stop-color="#00BAE6"/>
<stop offset="0.78" stop-color="#0084E7"/>
</radialGradient>
<radialGradient id="paint1_radial_1_493" cx="0" cy="0" r="1" gradientUnits="userSpaceOnUse" gradientTransform="translate(52.0908 2.48106) rotate(-180) scale(15.2413)">
<stop offset="0.14" stop-color="#788CF3"/>
<stop offset="0.46" stop-color="#587EEF"/>
<stop offset="1" stop-color="#1A65E8"/>
</radialGradient>
<linearGradient id="paint2_linear_1_493" x1="8.59654" y1="20.5904" x2="46.7495" y2="20.5904" gradientUnits="userSpaceOnUse">
<stop stop-color="#788CF3"/>
<stop offset="0.25" stop-color="#57ABF6"/>
<stop offset="0.51" stop-color="#39CAFA"/>
<stop offset="0.86" stop-color="#39CAFA"/>
</linearGradient>
<linearGradient id="paint3_linear_1_493" x1="12.0405" y1="27.7625" x2="43.3055" y2="27.7625" gradientUnits="userSpaceOnUse">
<stop stop-color="#679BF5"/>
<stop offset="0.19" stop-color="#529DF4"/>
<stop offset="0.51" stop-color="#34A2F3"/>
<stop offset="0.86" stop-color="#4DAFF7"/>
</linearGradient>
<clipPath id="clip0_1_493">
<rect width="206" height="38.1087" fill="white" transform="translate(0.416016 0.945557)"/>
</clipPath>
</defs>
</svg>
