<svg width="100%" height="100%" viewBox="0 0 34 30" fill="none" xmlns="http://www.w3.org/2000/svg">
<path d="M25.7055 18.1153L24.7043 16.5679C24.3957 16.0911 24.2316 15.5352 24.2316 14.9672V8.46766C24.2316 5.87326 24.4196 0.345947 17.0124 0.345947C10.9866 0.345947 9.1232 3.55727 8.54705 5.54351C8.31829 6.33205 8.85583 7.13497 9.67258 7.21924L12.0081 7.46021C12.5579 7.5169 13.085 7.22512 13.3234 6.72655C13.7762 5.77959 14.5653 4.36932 17.0006 4.36932C17.944 4.36932 19.2707 4.76834 19.2707 5.93502C19.2707 7.62785 19.2684 8.43014 19.2684 8.43014C19.2747 8.7834 18.9901 9.07329 18.6367 9.07329H16.3539C14.6314 9.07329 8.08618 9.95659 8.08618 16.5018C8.08618 23.0471 15.0315 22.294 15.4927 22.1859C16.353 21.9843 17.9649 21.3956 19.4798 19.9511C19.7343 19.7084 20.1404 19.7295 20.3615 20.0031L21.5848 21.5168C22.0603 22.1053 22.935 22.1671 23.4886 21.6516L25.4995 19.7787C25.9623 19.3475 26.0492 18.6464 25.7055 18.1153ZM15.6648 17.7505C13.3395 17.7505 13.4058 15.6482 13.9424 14.6502C14.4444 13.7163 15.7707 12.0609 19.3315 11.9482L19.3627 13.6853C19.3859 14.9766 18.7919 16.2169 17.7356 16.9601C17.0812 17.4207 16.3671 17.7505 15.6648 17.7505Z" fill="#171715"/>
<path d="M0.339849 23.727C-0.0137797 23.4075 0.371044 22.8416 0.798545 23.0521C3.80308 24.5322 9.45943 26.8205 15.7118 26.8205C22.1013 26.8205 27.4466 25.2943 30.1369 24.3524C30.5744 24.1992 30.8896 24.7718 30.5294 25.0636C28.395 26.7923 23.8113 29.4667 15.8798 29.4667C7.97809 29.4667 2.84536 25.9912 0.339849 23.727Z" fill="#FFAC35"/>
<path d="M27.3212 22.7954C28.1547 22.1783 30.2255 21.1145 33.3203 22.0447C33.6047 22.1301 33.7985 22.3933 33.8007 22.6902C33.8082 23.7055 33.5894 26.0893 31.6019 28.0703C31.4639 28.2078 31.2315 28.0728 31.2826 27.8848C31.6221 26.6348 32.3121 23.9537 32.0931 23.5796C31.8421 23.1508 28.7056 23.1303 27.4348 23.1398C27.2493 23.1413 27.1722 22.9057 27.3212 22.7954Z" fill="#FFAC35"/>
</svg>
