<svg width="100%" height="100%" viewBox="0 0 147 77" fill="none" xmlns="http://www.w3.org/2000/svg">
<path d="M144.1 75.5663C145.754 75.471 147.018 74.0528 146.923 72.3987C146.827 70.7446 145.409 69.4809 143.755 69.5762L144.1 75.5663ZM24.4783 1.76587C23.3067 0.594306 21.4072 0.594322 20.2356 1.76591L1.14389 20.858C-0.027668 22.0295 -0.0276508 23.929 1.14393 25.1006C2.31552 26.2722 4.21501 26.2721 5.38657 25.1006L22.357 8.12985L39.3277 25.1003C40.4993 26.2718 42.3988 26.2718 43.5703 25.1002C44.7419 23.9286 44.7419 22.0291 43.5703 20.8576L24.4783 1.76587ZM143.755 69.5762C105.627 71.7728 79.1824 70.8812 60.9466 67.8021C42.6597 64.7143 33.0989 59.5038 28.134 53.5013C23.227 47.5688 22.3225 40.2748 22.8518 31.6585C23.117 27.3412 23.7247 22.8882 24.29 18.186C24.8484 13.5407 25.357 8.7071 25.3569 3.88718L19.3569 3.88723C19.357 8.32189 18.8881 12.8508 18.3328 17.4699C17.7844 22.0322 17.1423 26.7456 16.8631 31.2906C16.3036 40.3991 17.1317 49.6136 23.5106 57.3255C29.8317 64.9675 41.1101 70.5376 59.9476 73.7183C78.8364 76.9077 105.801 77.7728 144.1 75.5663L143.755 69.5762Z" fill="#FFC55C"/>
</svg>
