<svg width="100%" height="100%" viewBox="0 0 77 265" fill="none" xmlns="http://www.w3.org/2000/svg">
<path d="M72.1312 263.327C73.2402 264.361 74.9775 264.3 76.0117 263.191C77.0459 262.082 76.9852 260.345 75.8762 259.311L72.1312 263.327ZM58.7294 15.3188C59.3816 13.9499 58.8005 12.3114 57.4315 11.6593L35.1229 1.03233C33.7539 0.380209 32.1155 0.961325 31.4633 2.33029C30.8112 3.69926 31.3923 5.33768 32.7613 5.98981L52.5912 15.436L43.145 35.2659C42.4929 36.6349 43.074 38.2733 44.443 38.9254C45.8119 39.5775 47.4503 38.9964 48.1025 37.6275L58.7294 15.3188ZM75.8762 259.311C28.6597 215.281 7.37137 160.274 6.3006 113.408C5.22579 66.3659 24.422 28.3403 57.1685 16.7257L55.3329 11.5504C19.3852 24.3004 -0.290317 65.3392 0.810809 113.533C1.91595 161.903 23.8512 218.305 72.1312 263.327L75.8762 259.311Z" fill="#FFC55C"/>
</svg>
