<svg width="100%" height="100%" viewBox="0 0 16 16" fill="none" xmlns="http://www.w3.org/2000/svg">
<path d="M15 6.99992H3.414L7.707 2.70692C7.88916 2.51832 7.98995 2.26571 7.98767 2.00352C7.9854 1.74132 7.88023 1.49051 7.69482 1.3051C7.50941 1.11969 7.2586 1.01452 6.9964 1.01224C6.7342 1.00997 6.4816 1.11076 6.293 1.29292L0.293 7.29292C0.105529 7.48045 0.000213623 7.73475 0.000213623 7.99992C0.000213623 8.26508 0.105529 8.51939 0.293 8.70692L6.293 14.7069C6.4816 14.8891 6.7342 14.9899 6.9964 14.9876C7.2586 14.9853 7.50941 14.8801 7.69482 14.6947C7.88023 14.5093 7.9854 14.2585 7.98767 13.9963C7.98995 13.7341 7.88916 13.4815 7.707 13.2929L3.414 8.99992H15C15.2652 8.99992 15.5196 8.89456 15.7071 8.70703C15.8946 8.51949 16 8.26514 16 7.99992C16 7.7347 15.8946 7.48035 15.7071 7.29281C15.5196 7.10528 15.2652 6.99992 15 6.99992Z" fill="black" fill-opacity="0.7"/>
</svg>
