<svg width="100%" height="100%" viewBox="0 0 12 12" fill="none" xmlns="http://www.w3.org/2000/svg">
<path d="M7.01878 5.99122L10.7995 2.21051C10.9296 2.07579 11.0016 1.89536 11 1.70808C10.9983 1.5208 10.9232 1.34164 10.7908 1.20921C10.6584 1.07678 10.4792 1.00165 10.2919 1.00003C10.1046 0.9984 9.92421 1.0704 9.78949 1.20051L6.00878 4.98122L2.22806 1.20051C2.09335 1.0704 1.91292 0.9984 1.72563 1.00003C1.53835 1.00165 1.3592 1.07678 1.22676 1.20921C1.09433 1.34164 1.01921 1.5208 1.01758 1.70808C1.01595 1.89536 1.08795 2.07579 1.21806 2.21051L4.99878 5.99122L1.21806 9.77194C1.14984 9.83783 1.09543 9.91665 1.05799 10.0038C1.02056 10.0909 1.00085 10.1847 1.00003 10.2795C0.999203 10.3744 1.01728 10.4684 1.05319 10.5562C1.08911 10.644 1.14214 10.7237 1.20921 10.7908C1.27628 10.8579 1.35603 10.9109 1.44381 10.9468C1.53159 10.9827 1.62565 11.0008 1.72049 11C1.81533 10.9991 1.90906 10.9794 1.99621 10.942C2.08335 10.9046 2.16217 10.8502 2.22806 10.7819L6.00878 7.00122L9.78949 10.7819C9.92421 10.9121 10.1046 10.984 10.2919 10.9824C10.4792 10.9808 10.6584 10.9057 10.7908 10.7732C10.9232 10.6408 10.9983 10.4616 11 10.2744C11.0016 10.0871 10.9296 9.90665 10.7995 9.77194L7.01878 5.99122Z" fill="black" fill-opacity="0.8"/>
</svg>
