<svg width="100%" height="100%" viewBox="0 0 48 28" fill="none" xmlns="http://www.w3.org/2000/svg">
<path d="M21.7933 18.6245C21.8198 18.6281 21.8256 18.6292 21.8514 18.6325C22.2835 18.6912 22.7081 18.7689 23.033 18.9139C23.3342 19.0467 23.5108 19.2147 23.672 19.5142C23.9171 19.9683 23.933 20.6045 23.7115 21.0861C23.5461 21.4444 23.1829 21.7448 22.8513 21.9041C22.5069 22.0707 22.1676 22.1501 21.7785 22.1944C21.098 22.2692 20.363 22.1285 19.7506 21.8328C19.3883 21.6562 18.9459 21.352 18.7227 20.9601C18.5586 20.673 18.5638 20.2995 18.7635 20.0266C19.0817 19.5918 19.7634 19.496 20.2768 19.5142C20.6682 19.5293 21.373 19.6501 21.7447 19.7821C21.8477 19.8193 22.2276 19.967 22.2939 20.0348C22.3405 20.0819 22.3708 20.1504 22.3498 20.2137C22.2649 20.473 21.6338 20.6097 21.4515 20.6372C20.9636 20.7118 20.7105 20.5274 20.1558 20.3088C20.0181 20.255 19.8346 20.1952 19.6944 20.1823C19.4426 20.1584 19.1385 20.2288 19.0904 20.5032C19.0665 20.6446 19.2326 20.7769 19.3593 20.8325C19.6569 20.9601 19.8988 21.006 20.1916 21.0099C21.0567 21.0241 22.0289 20.8819 22.7364 20.3814C22.8333 20.3124 22.9284 20.2114 22.9294 20.0841C22.9325 19.8269 22.4809 19.6697 22.4809 19.6697C22.0043 19.4713 21.1236 19.3748 20.6699 19.3375C20.1939 19.2963 19.4447 19.2348 19.2649 19.2083C19.0797 19.1819 18.8786 19.1446 18.7182 19.0729C18.5571 19.0002 18.3995 18.8376 18.3527 18.6577C18.2698 18.3334 18.3756 17.9355 18.556 17.6765C19.0288 16.9979 20.1362 16.7402 20.9636 16.6378C21.7644 16.5384 23.0589 16.5394 23.8455 16.9566C23.9669 17.0216 24.0289 17.0821 24.0036 17.2117C23.9523 17.455 23.7692 17.6118 23.5471 17.6805C23.3142 17.7545 22.8324 17.7833 22.6208 17.7966C21.6726 17.8497 20.5266 17.8219 19.6234 18.0678C19.5527 18.0879 19.4304 18.1208 19.3907 18.1651C19.2493 18.3184 19.6531 18.3621 19.7396 18.3797C19.7653 18.3858 19.7703 18.3867 19.7972 18.3896L21.7933 18.6245ZM16.1521 14.4033C16.1521 14.4033 16.3063 14.1723 16.4356 13.9971C16.6709 13.678 17.0968 13.2355 17.4175 12.9616C17.5156 12.8779 17.6312 12.7831 17.6312 12.7831C17.6312 12.7831 17.4503 12.8018 17.3478 12.8227C17.1045 12.87 16.7477 13.1068 16.5694 13.2597C16.2752 13.5111 15.9518 13.9198 16.0981 14.2829C16.1194 14.3342 16.1521 14.4033 16.1521 14.4033ZM17.7874 14.8401C18.2522 14.8081 18.6875 14.6746 19.0928 14.4501C19.4902 14.2281 20.0748 13.7951 20.0142 13.2862C19.9958 13.1214 19.8877 12.997 19.7513 12.939C19.5741 12.8623 19.4816 12.8747 19.2552 12.9419C19.0907 12.9899 19.0166 13.0191 18.8612 13.1078C18.4053 13.3722 17.7589 13.9381 17.408 14.3898C17.327 14.4963 17.245 14.6154 17.1808 14.6971C17.1403 14.7474 17.1088 14.7936 17.1128 14.8059C17.1268 14.8571 17.6059 14.8524 17.7874 14.8401ZM16.6042 15.7078C16.5563 15.7584 16.5056 15.8804 16.453 15.9688C16.4249 16.0161 16.3728 16.077 16.3384 16.1014C16.2174 16.1902 16.115 16.1943 15.9982 16.0917C15.8345 15.9471 15.7398 15.7235 15.733 15.506C15.7295 15.411 15.7459 15.306 15.7279 15.226C15.6981 15.0909 15.5626 14.9517 15.4896 14.8225C15.4039 14.6704 15.3345 14.405 15.3259 14.2337C15.2965 13.6995 15.5785 13.2075 15.9449 12.8194C16.3139 12.4269 16.7966 12.1008 17.3216 11.8787C17.8178 11.6701 18.545 11.5278 19.0899 11.7162C19.2673 11.7769 19.5145 11.9276 19.6387 12.0856C19.6651 12.1183 19.6866 12.1538 19.7136 12.1711C19.7379 12.1865 19.8012 12.1926 19.8517 12.2018C20.0255 12.2319 20.2757 12.3633 20.3779 12.4508C20.5833 12.6277 20.6958 12.7967 20.7479 13.0421C20.8522 13.5358 20.5675 14.0774 20.2431 14.4071C19.6877 14.9744 19.1392 15.3733 18.4288 15.651C18.1167 15.7727 17.6307 15.8864 17.2766 15.8546C17.1667 15.8455 17.0537 15.8166 16.9466 15.8095C16.892 15.8048 16.6922 15.7534 16.6709 15.7389C16.6444 15.7186 16.6102 15.7009 16.6042 15.7078ZM17.2388 16.8024C17.2604 16.806 17.2937 16.8157 17.3224 16.8267C17.5715 16.9213 17.674 17.1514 17.7353 17.4042C17.8775 17.9912 17.9382 19.2898 17.9619 19.7981C17.9792 20.1796 17.9888 20.555 18.0048 20.9321C18.0184 21.2514 18.0439 21.676 17.9772 21.9752C17.953 22.0828 17.8809 22.208 17.7776 22.2721C17.6594 22.3476 17.3902 22.3534 17.2423 22.3229C16.8776 22.2476 16.7591 22.0135 16.707 21.6535C16.5833 20.7943 16.6429 19.1081 16.7159 18.3966C16.7402 18.1616 16.8288 17.4086 16.9517 17.0928C16.9937 16.9864 17.0831 16.772 17.2388 16.8024ZM6.14413 18.2319C6.14413 18.2319 5.60135 18.2702 5.22778 18.3116C4.7525 18.3627 3.85947 18.5166 3.34399 18.7004C3.18937 18.7557 2.87528 18.8869 2.84799 19.0456C2.8193 19.2101 2.92158 19.3388 3.03532 19.4719C3.1011 19.5492 3.47337 19.9067 3.57777 19.9936C4.01534 20.3583 4.90261 20.9208 5.55611 21.1939C5.78063 21.2866 6.15204 21.4194 6.15204 21.4194C6.15204 21.4194 6.12446 20.3636 6.1294 19.3237C6.13228 18.775 6.14413 18.2319 6.14413 18.2319ZM16.0965 18.652C16.1276 18.9357 16.0546 19.4719 16.0419 19.5427C16.0188 19.7057 15.8956 20.0818 15.8752 20.1277C15.7758 20.3562 15.6778 20.5435 15.5739 20.7303C15.3959 21.0501 14.9727 21.557 14.7215 21.774C13.7872 22.5802 12.3409 23.0392 11.1001 23.1904C10.2581 23.2919 9.29069 23.277 8.39856 23.1122C8.09153 23.0565 7.63463 22.9514 7.63463 22.9514C7.63463 22.9514 7.63611 23.1337 7.62148 23.262C7.61438 23.3205 7.57025 23.4746 7.54549 23.5245C7.48063 23.6582 7.37413 23.7272 7.21927 23.7569C7.03236 23.7916 6.83414 23.8031 6.66143 23.7294C6.37786 23.6103 6.27606 23.3454 6.22664 23.04C6.18668 22.7957 6.14485 22.371 6.14485 22.371C6.14485 22.371 5.93271 22.2707 5.75583 22.1826C5.21252 21.9153 4.69652 21.5915 4.24508 21.2585C4.12001 21.1653 3.58271 20.716 3.46412 20.6045C3.13156 20.2893 2.8324 19.9757 2.60481 19.5734C2.42788 19.259 2.37693 18.9801 2.5115 18.647C2.69706 18.1828 3.36375 17.8332 3.82003 17.634C4.15494 17.4864 5.19631 17.147 5.62889 17.084C5.83321 17.0549 6.15012 16.9982 6.1696 16.9856C6.17757 16.9795 6.18308 16.9743 6.18884 16.9677C6.19882 16.9537 6.21566 16.4942 6.21239 16.3261C6.20817 16.1608 6.33492 15.0752 6.37565 14.8456C6.3969 14.7215 6.49107 14.2436 6.58721 14.1182C6.65011 14.0334 6.76131 14.0403 6.85198 14.0959C7.34813 14.4039 7.49886 15.4721 7.53575 16.0156C7.55782 16.3467 7.56881 16.8448 7.56881 16.8448C7.56881 16.8448 8.13797 16.828 8.48808 16.838C8.82831 16.8459 9.20333 16.8994 9.55646 16.9556C10.0086 17.028 10.8898 17.2199 11.3952 17.4757C11.8114 17.6863 12.2009 18.0412 12.3271 18.4168C12.4444 18.7611 12.4268 18.9994 12.2482 19.3102C12.0474 19.661 11.6676 19.9218 11.2824 19.9436C11.1678 19.9502 10.7364 19.893 10.6037 19.7904C10.5516 19.7495 10.5543 19.6757 10.5919 19.6256C10.6061 19.6081 10.8078 19.501 10.9268 19.4386C10.9865 19.4062 11.0358 19.3713 11.0824 19.3289C11.1813 19.242 11.2703 19.1463 11.2603 19.0341C11.2467 18.8885 11.0923 18.7987 10.9453 18.7409C10.2551 18.4672 8.87715 18.24 8.21127 18.2007C7.95063 18.1854 7.57989 18.1723 7.57989 18.1723L7.65828 21.8432C7.65828 21.8432 7.96478 21.9015 8.20633 21.9406C8.34493 21.9616 8.93218 22.0144 9.08824 22.0182C10.2765 22.0495 11.6026 21.9433 12.6931 21.4296C13.1718 21.2047 13.611 20.9246 13.9435 20.5455C14.3818 20.0439 14.6113 19.3575 14.5505 18.6404C14.484 17.8574 13.9319 16.9278 13.4911 16.3618C12.3263 14.8664 10.3298 13.6363 8.57328 12.9151C6.78002 12.1793 5.00767 11.756 3.1045 11.6851C2.61387 11.667 1.5441 11.6917 1.00334 11.841C0.926105 11.8628 0.848244 11.8887 0.776523 11.9048C0.719866 11.9186 0.630586 11.9561 0.606072 11.9759C0.592495 11.9868 0.579062 12.002 0.579062 12.002C0.579062 12.002 0.612404 12.0204 0.644259 12.0339C0.70154 12.0588 0.942656 12.0738 1.06744 12.0966C1.17907 12.1175 1.29531 12.1761 1.34132 12.2577C1.38502 12.3354 1.39049 12.3966 1.33825 12.4613C1.21572 12.6101 0.754551 12.585 0.551477 12.5529C0.34044 12.5193 0.0776873 12.4549 0.0294256 12.2714C-0.02656 12.0554 0.0762481 11.8436 0.187308 11.6478C0.410434 11.2561 0.730036 11.0523 1.19807 10.9247C1.86284 10.7421 2.70224 10.6144 3.32998 10.5905C4.75077 10.5369 6.09548 10.7849 7.47209 11.2022C8.25997 11.44 9.29145 11.8391 10.0466 12.2021C10.5885 12.463 11.4422 12.9426 11.9218 13.2561C12.0731 13.3558 12.9582 14.0051 13.0957 14.1192C13.3826 14.3533 13.7577 14.6898 14.0294 14.9589C14.555 15.4789 15.2087 16.276 15.5263 16.9086C15.6028 17.0601 15.662 17.2091 15.7605 17.3847C15.7945 17.4449 15.9395 17.8046 15.9637 17.9086C15.9876 18.0114 16.0226 18.1626 16.0275 18.1685C16.0345 18.2238 16.1018 18.5329 16.0965 18.652ZM33.9583 17.8404C33.2929 17.9935 31.5433 18.0786 31.5433 18.0786L31.3226 18.7686C31.3226 18.7686 32.197 18.694 32.8331 18.7604C32.8331 18.7604 33.0392 18.7365 33.0634 18.994C33.0716 19.2341 33.043 19.4918 33.043 19.4918C33.043 19.4918 33.0298 19.6477 32.8085 19.6873C32.5687 19.7272 30.9239 19.7907 30.9239 19.7907L30.6575 20.6901C30.6575 20.6901 30.5586 20.898 30.7804 20.8386C30.9865 20.7836 32.7099 20.4607 32.9344 20.5072C33.1749 20.5668 33.4411 20.887 33.3642 21.1787C33.2724 21.5404 31.5523 22.6356 30.5048 22.5591C30.5048 22.5591 29.9544 22.5946 29.4891 21.8529C29.0558 21.1462 29.6533 19.8081 29.6533 19.8081C29.6533 19.8081 29.3795 19.1834 29.5779 18.9716C29.5779 18.9716 29.696 18.8646 30.0403 18.8405L30.4619 17.9697C30.4619 17.9697 29.9817 18.0027 29.696 17.65C29.4299 17.3154 29.4076 17.1616 29.6117 17.0692C29.8298 16.9617 31.8297 16.5973 33.2058 16.6435C33.2058 16.6435 33.6841 16.5966 34.0988 17.4248C34.0989 17.4248 34.2999 17.7598 33.9583 17.8404ZM28.7823 21.1885C28.606 21.6026 28.1401 22.0446 27.5613 21.7699C26.99 21.4946 26.08 19.6351 26.08 19.6351C26.08 19.6351 25.7345 18.9418 25.6681 18.9596C25.6681 18.9596 25.5935 18.8242 25.5477 19.5819C25.5001 20.3364 25.5569 21.8075 25.2554 22.0391C24.9698 22.2713 24.624 22.1789 24.4447 21.9076C24.2817 21.6403 24.2138 21.0053 24.3028 19.89C24.4073 18.7725 24.6673 17.5836 24.9995 17.2134C25.3313 16.8457 25.5976 17.1126 25.7014 17.2095C25.7014 17.2095 26.1452 17.611 26.877 18.7901L27.0061 19.0082C27.0061 19.0082 27.6712 20.1222 27.7406 20.1196C27.7406 20.1196 27.795 20.1708 27.8434 20.134C27.9132 20.1141 27.8851 19.7569 27.8851 19.7569C27.8851 19.7569 27.7471 18.5429 27.1404 16.488C27.1404 16.488 27.0487 16.2318 27.1107 15.9917C27.1723 15.7491 27.4159 15.863 27.4159 15.863C27.4159 15.863 28.3562 16.335 28.8126 17.8633C29.2661 19.3921 28.9614 20.7712 28.7823 21.1885ZM38.9022 20.2731C38.4742 21.0187 37.2658 22.5798 35.6599 22.2112C35.1296 23.4951 34.6841 24.7938 34.4294 26.7372C34.4294 26.7372 34.3734 27.1148 34.059 26.9837C33.7475 26.8748 33.2343 26.3577 33.1305 25.6423C33.0188 24.7026 33.4379 23.114 34.2943 21.2924C34.0445 20.887 33.8742 20.3077 34.02 19.483C34.02 19.483 34.2351 17.9513 35.7759 16.5709C35.7759 16.5709 35.9606 16.4116 36.0677 16.4607C36.1857 16.5101 36.131 17.0085 36.0374 17.2508C35.9402 17.4918 35.2542 18.6773 35.2542 18.6773C35.2542 18.6773 34.8264 19.4782 34.9468 20.1099C35.7549 18.8696 37.5918 16.3685 38.7303 17.1572C39.1128 17.4304 39.2891 18.0246 39.2891 18.6649C39.2893 19.2273 39.1535 19.8251 38.9022 20.2731ZM38.5699 18.3088C38.5699 18.3088 38.5065 17.8157 38.0236 18.3589C37.6083 18.8174 36.8591 19.6763 36.256 20.843C36.8888 20.772 37.4991 20.4293 37.6837 20.2547C37.9837 19.989 38.6826 19.2679 38.5699 18.3088ZM47.7486 18.1965H44.8055C44.7468 17.1979 44.6261 16.2251 44.4363 15.2232C44.4168 15.1196 44.3264 15.0444 44.2212 15.0444H43.5427C43.4836 15.0444 43.4277 15.0708 43.3895 15.1171C43.3511 15.164 43.3361 15.2238 43.3473 15.2823C43.5401 16.2518 43.6622 17.206 43.7225 18.1975H40.891C40.7591 18.1975 40.6519 18.3041 40.6519 18.4353V19.0463C40.6519 19.1777 40.7591 19.2852 40.891 19.2852H43.763C43.7649 19.4359 43.7663 19.5709 43.7663 19.6976C43.7663 20.5781 43.7283 21.3034 43.6394 22.1219C43.6324 22.1852 43.6531 22.2482 43.6961 22.2946C43.7377 22.3414 43.7977 22.3681 43.86 22.3681H44.4893C44.6121 22.3681 44.7138 22.2758 44.7262 22.1537C44.8121 21.3297 44.849 20.5953 44.849 19.6976C44.849 19.5714 44.8476 19.4359 44.8458 19.2851H47.7487C47.8802 19.2851 47.9877 19.1777 47.9877 19.0462V18.4353C47.9876 18.3035 47.8802 18.1965 47.7486 18.1965Z" fill="#101C50"/>
<path d="M8.39579 10.0097C8.3541 10.0716 8.34403 10.1475 8.36797 10.2188C8.39296 10.29 8.44732 10.3441 8.51755 10.3687L9.04512 10.546C9.07702 10.5559 9.10873 10.5611 9.13982 10.5611C9.23759 10.5611 9.32936 10.5128 9.38372 10.4317C11.1118 7.89716 13.4507 5.7869 16.1477 4.329C18.9322 2.82369 22.0869 2.02745 25.2718 2.02745C29.1187 2.02745 32.8305 3.16034 36.006 5.30341C39.1045 7.3938 41.5109 10.3103 42.965 13.7376C43.0085 13.8402 43.1088 13.9064 43.22 13.9064H43.8501C43.9227 13.9064 43.991 13.8699 44.032 13.8093C44.0733 13.7488 44.081 13.6721 44.0536 13.6041C42.5542 9.91897 40.0185 6.77754 36.7199 4.52063C33.3431 2.21007 29.3844 0.988525 25.2718 0.988525C18.4729 0.988525 12.1639 4.36104 8.39579 10.0097Z" fill="url(#paint0_linear_111_282)"/>
<defs>
<linearGradient id="paint0_linear_111_282" x1="44.654" y1="9.38765" x2="9.10713" y2="4.57353" gradientUnits="userSpaceOnUse">
<stop stop-color="#101C50"/>
<stop offset="0.236" stop-color="#0D267A"/>
<stop offset="0.4973" stop-color="#085AA4"/>
<stop offset="0.6549" stop-color="#058BBF"/>
<stop offset="1" stop-color="#B1FFFF"/>
</linearGradient>
</defs>
</svg>
