<svg width="100%" height="100%" viewBox="0 0 36 27" fill="none" xmlns="http://www.w3.org/2000/svg">
<path d="M2.80779 26.6139H8.40201V13.0266L0.408203 7.02417V24.2143C0.408203 25.5447 1.48499 26.6139 2.80779 26.6139Z" fill="#4285F4"/>
<path d="M27.5974 26.6139H33.1916C34.5144 26.6139 35.5912 25.5371 35.5912 24.2143V7.02417L27.5974 13.019V26.6139Z" fill="#34A853"/>
<path d="M27.5974 2.62622V13.0189L35.5912 7.02408V3.82257C35.5912 0.860198 32.2069 -0.835728 29.8355 0.944719L27.5974 2.62622Z" fill="#FBBC04"/>
<path d="M8.4021 13.0265V2.62622L17.9998 9.82497L27.5974 2.62622V13.0265L17.9998 20.2177L8.4021 13.0265Z" fill="#EA4335"/>
<path d="M0.408203 3.82941V7.03091L8.40201 13.0258V2.62618L6.16391 0.951555C3.7925 -0.828892 0.408203 0.867034 0.408203 3.82941Z" fill="#C5221F"/>
</svg>
