<svg width="100%" height="100%" viewBox="0 0 15 14" fill="none" xmlns="http://www.w3.org/2000/svg">
<path d="M11.9123 6.84687L8.42866 4.05996L8.42866 6.15015L0.764648 6.15015L0.764648 7.5436L8.42866 7.5436L8.42866 9.63379L11.9123 6.84687Z" fill="black"/>
<path d="M4.6413 1.96978L4.6413 4.75669L6.03475 4.75669L6.03475 1.96978L13.3053 1.96977L13.3053 11.724L6.03475 11.724L6.03475 8.93706L4.6413 8.93706L4.6413 11.724C4.6413 12.4925 5.26626 13.1174 6.03475 13.1174L13.3053 13.1174C14.0738 13.1174 14.6988 12.4925 14.6988 11.724L14.6988 1.96977C14.6988 1.20128 14.0738 0.576317 13.3053 0.576317L6.03475 0.576318C5.26626 0.576318 4.6413 1.20128 4.6413 1.96978Z" fill="black"/>
</svg>
