<svg width="100%" height="100%" viewBox="0 0 36 37" fill="none" xmlns="http://www.w3.org/2000/svg">
<path d="M25.2754 0.0256348H10.7246C4.81103 0.0256348 0 4.83666 0 10.7502V25.301C0 31.2146 4.81103 36.0256 10.7246 36.0256H25.2754C31.189 36.0256 36 31.2146 36 25.301V10.7502C35.9999 4.83666 31.1889 0.0256348 25.2754 0.0256348ZM32.3784 25.301C32.3784 29.2239 29.1982 32.404 25.2754 32.404H10.7246C6.80175 32.404 3.6216 29.2239 3.6216 25.301V10.7502C3.6216 6.82732 6.80175 3.64723 10.7246 3.64723H25.2754C29.1982 3.64723 32.3784 6.82732 32.3784 10.7502V25.301Z" fill="url(#paint0_linear_111_303)"/>
<path d="M18.0001 8.71484C12.8661 8.71484 8.68921 12.8917 8.68921 18.0257C8.68921 23.1596 12.8661 27.3365 18.0001 27.3365C23.1341 27.3365 27.311 23.1597 27.311 18.0257C27.311 12.8916 23.1341 8.71484 18.0001 8.71484ZM18.0001 23.715C14.858 23.715 12.3108 21.1679 12.3108 18.0257C12.3108 14.8836 14.858 12.3364 18.0001 12.3364C21.1422 12.3364 23.6894 14.8836 23.6894 18.0257C23.6894 21.1678 21.1422 23.715 18.0001 23.715Z" fill="url(#paint1_linear_111_303)"/>
<path d="M27.329 11.0156C28.5612 11.0156 29.5601 10.0167 29.5601 8.78455C29.5601 7.55236 28.5612 6.55347 27.329 6.55347C26.0968 6.55347 25.0979 7.55236 25.0979 8.78455C25.0979 10.0167 26.0968 11.0156 27.329 11.0156Z" fill="url(#paint2_linear_111_303)"/>
<defs>
<linearGradient id="paint0_linear_111_303" x1="18" y1="35.9208" x2="18" y2="0.305253" gradientUnits="userSpaceOnUse">
<stop stop-color="#E09B3D"/>
<stop offset="0.3" stop-color="#C74C4D"/>
<stop offset="0.6" stop-color="#C21975"/>
<stop offset="1" stop-color="#7024C4"/>
</linearGradient>
<linearGradient id="paint1_linear_111_303" x1="18.0001" y1="35.9209" x2="18.0001" y2="0.305345" gradientUnits="userSpaceOnUse">
<stop stop-color="#E09B3D"/>
<stop offset="0.3" stop-color="#C74C4D"/>
<stop offset="0.6" stop-color="#C21975"/>
<stop offset="1" stop-color="#7024C4"/>
</linearGradient>
<linearGradient id="paint2_linear_111_303" x1="27.329" y1="35.9207" x2="27.329" y2="0.305142" gradientUnits="userSpaceOnUse">
<stop stop-color="#E09B3D"/>
<stop offset="0.3" stop-color="#C74C4D"/>
<stop offset="0.6" stop-color="#C21975"/>
<stop offset="1" stop-color="#7024C4"/>
</linearGradient>
</defs>
</svg>
