<svg width="100%" height="100%" viewBox="0 0 17 16" fill="none" xmlns="http://www.w3.org/2000/svg">
<path d="M14.9062 7H9.90625V2C9.90625 1.73478 9.80089 1.48043 9.61336 1.29289C9.42582 1.10536 9.17147 1 8.90625 1C8.64103 1 8.38668 1.10536 8.19914 1.29289C8.01161 1.48043 7.90625 1.73478 7.90625 2V7H2.90625C2.64103 7 2.38668 7.10536 2.19914 7.29289C2.01161 7.48043 1.90625 7.73478 1.90625 8C1.90625 8.26522 2.01161 8.51957 2.19914 8.70711C2.38668 8.89464 2.64103 9 2.90625 9H7.90625V14C7.90625 14.2652 8.01161 14.5196 8.19914 14.7071C8.38668 14.8946 8.64103 15 8.90625 15C9.17147 15 9.42582 14.8946 9.61336 14.7071C9.80089 14.5196 9.90625 14.2652 9.90625 14V9H14.9062C15.1715 9 15.4258 8.89464 15.6134 8.70711C15.8009 8.51957 15.9062 8.26522 15.9062 8C15.9062 7.73478 15.8009 7.48043 15.6134 7.29289C15.4258 7.10536 15.1715 7 14.9062 7Z" fill="#303030"/>
</svg>
