<svg width="100%" height="100%" viewBox="0 0 16 16" fill="none" xmlns="http://www.w3.org/2000/svg">
<path d="M15 1C14.7348 1 14.4804 1.10536 14.2929 1.29289C14.1054 1.48043 14 1.73478 14 2V4.418C13.3725 3.36744 12.4804 2.49987 11.4127 1.90193C10.345 1.30399 9.13917 0.996601 7.91554 1.01045C6.69192 1.0243 5.49334 1.35891 4.43947 1.98086C3.38561 2.60281 2.51335 3.49034 1.90978 4.55484C1.30621 5.61934 0.992451 6.82355 0.999838 8.04723C1.00722 9.27091 1.3355 10.4712 1.95187 11.5284C2.56825 12.5855 3.45117 13.4624 4.51246 14.0716C5.57376 14.6808 6.77629 15.0009 7.99999 15C8.91965 15.0026 9.83068 14.8227 10.6803 14.4708C11.53 14.119 12.3015 13.602 12.95 12.95C13.1322 12.7614 13.2329 12.5088 13.2307 12.2466C13.2284 11.9844 13.1232 11.7336 12.9378 11.5482C12.7524 11.3628 12.5016 11.2576 12.2394 11.2553C11.9772 11.253 11.7246 11.3538 11.536 11.536C10.7835 12.3025 9.80499 12.8074 8.74426 12.9764C7.68352 13.1454 6.59654 12.9697 5.64309 12.4751C4.68965 11.9804 3.92004 11.1929 3.44741 10.2284C2.97478 9.26386 2.82405 8.17312 3.01739 7.11655C3.21072 6.05997 3.73792 5.09329 4.52149 4.35861C5.30505 3.62393 6.30365 3.16 7.37047 3.03503C8.4373 2.91006 9.51607 3.13064 10.4482 3.66434C11.3804 4.19804 12.1167 5.01671 12.549 6H9.99999C9.73478 6 9.48042 6.10536 9.29289 6.29289C9.10535 6.48043 8.99999 6.73478 8.99999 7C8.99999 7.26522 9.10535 7.51957 9.29289 7.70711C9.48042 7.89464 9.73478 8 9.99999 8H15C15.2652 8 15.5196 7.89464 15.7071 7.70711C15.8946 7.51957 16 7.26522 16 7V2C16 1.73478 15.8946 1.48043 15.7071 1.29289C15.5196 1.10536 15.2652 1 15 1Z" fill="black" fill-opacity="0.7"/>
</svg>
