<svg width="100%" height="100%" viewBox="0 0 15 16" fill="none" xmlns="http://www.w3.org/2000/svg">
<path fill-rule="evenodd" clip-rule="evenodd" d="M2.2832 6.42773C2.2832 4.2186 4.07406 2.42773 6.2832 2.42773C8.49234 2.42773 10.2832 4.2186 10.2832 6.42773C10.2832 8.63687 8.49234 10.4277 6.2832 10.4277C4.07406 10.4277 2.2832 8.63687 2.2832 6.42773ZM6.2832 0.927734C3.24564 0.927734 0.783203 3.39017 0.783203 6.42773C0.783203 9.4653 3.24564 11.9277 6.2832 11.9277C7.53156 11.9277 8.68277 11.5118 9.60585 10.811L13.6474 14.8526C13.9403 15.1455 14.4152 15.1455 14.7081 14.8526C15.001 14.5597 15.001 14.0848 14.7081 13.7919L10.6665 9.75038C11.3673 8.8273 11.7832 7.67609 11.7832 6.42773C11.7832 3.39017 9.32077 0.927734 6.2832 0.927734Z" fill="currentColor"/>
</svg>
