<svg width="100%" height="100%" viewBox="0 0 32 32" fill="none" xmlns="http://www.w3.org/2000/svg">
<path d="M16.001 0.72168C7.56298 0.72168 0.722656 7.56201 0.722656 16C0.722656 24.438 7.56298 31.2783 16.001 31.2783C24.439 31.2783 31.2793 24.438 31.2793 16C31.2793 7.56201 24.439 0.72168 16.001 0.72168ZM22.6503 22.8947C22.456 23.2271 22.1064 23.4124 21.7473 23.4125C21.5682 23.4125 21.3869 23.3664 21.2211 23.2696C18.4756 21.6651 15.3038 21.4072 13.126 21.4734C10.7135 21.5468 8.94437 22.0231 8.92679 22.0279C8.37068 22.1798 7.79599 21.8526 7.64344 21.2965C7.49096 20.7406 7.81707 20.1662 8.37289 20.0131C8.45263 19.9912 10.3564 19.4741 13.0038 19.3868C14.5631 19.3353 16.0644 19.444 17.4651 19.7097C19.2393 20.0463 20.8576 20.637 22.2754 21.4656C22.7736 21.7567 22.9414 22.3966 22.6503 22.8947ZM24.5927 18.8606C24.3626 19.2544 23.9485 19.4739 23.523 19.4739C23.311 19.4739 23.0961 19.4194 22.8998 19.3047C19.6477 17.404 15.8905 17.0987 13.3109 17.1771C10.4532 17.2641 8.3576 17.8282 8.33681 17.8339C7.67823 18.0136 6.99737 17.6263 6.81666 16.9676C6.63603 16.309 7.02237 15.6287 7.68073 15.4473C7.77519 15.4213 10.0302 14.8088 13.1661 14.7054C15.0134 14.6445 16.7915 14.7732 18.4507 15.0879C20.5523 15.4866 22.4693 16.1863 24.1486 17.1677C24.7388 17.5126 24.9376 18.2705 24.5927 18.8606ZM25.7867 15.1926C25.5265 15.1926 25.263 15.1257 25.0222 14.985C17.2905 10.4665 7.26117 13.1527 7.16078 13.1804C6.35244 13.4031 5.51681 12.9284 5.29416 12.1202C5.07145 11.3119 5.54617 10.4762 6.35444 10.2535C6.47026 10.2216 9.23632 9.47028 13.0828 9.34345C15.3488 9.26885 17.5298 9.42662 19.5649 9.81268C22.1427 10.3017 24.4942 11.16 26.554 12.3638C27.2778 12.7868 27.5217 13.7165 27.0987 14.4403C26.8165 14.9233 26.3085 15.1926 25.7867 15.1926Z" fill="#00D95F"/>
</svg>
