<svg width="100%" height="100%" viewBox="0 0 32 23" fill="none" xmlns="http://www.w3.org/2000/svg">
<path d="M21.2492 22.1187C22.5994 22.1187 23.887 21.3403 24.4734 20.0274L30.8779 5.68027C31.6723 3.90088 30.8739 1.81492 29.0945 1.02053C27.3151 0.226132 25.2292 1.02453 24.4348 2.80392L18.0303 17.151C17.2359 18.9304 18.0343 21.0164 19.8137 21.8108C20.2802 22.0187 20.7694 22.1187 21.2505 22.1187H21.2492Z" fill="url(#paint0_radial_111_261)"/>
<path d="M10.7524 22.1187C9.4022 22.1187 8.11464 21.3403 7.52817 20.0274L1.12502 5.68027C0.330624 3.90088 1.12902 1.81492 2.90841 1.02053C4.68781 0.226132 6.77376 1.02453 7.56816 2.80392L13.9726 17.151C14.767 18.9304 13.9686 21.0164 12.1893 21.8108C11.7227 22.0187 11.2336 22.1187 10.7524 22.1187Z" fill="url(#paint1_radial_111_261)"/>
<path d="M25.1418 15.7394C24.1674 15.7394 23.6783 15.1836 23.1771 14.0587L19.2931 5.47494C19.2584 5.39763 19.2211 5.32299 19.1811 5.24835C18.8359 4.50194 18.2295 3.87148 17.4191 3.51027C15.6397 2.71588 13.5537 3.51427 12.7593 5.29367L8.826 14.0573C8.32483 15.1836 7.83567 15.7381 6.86133 15.7381C6.21755 15.7381 5.62309 15.4849 5.2832 14.993C5.56444 15.6755 6.31085 17.6175 7.12258 19.3475C8.20487 21.6534 9.56974 22.1173 10.6734 22.1173C12.0236 22.1173 13.3724 21.3562 13.9589 20.0433L15.9969 15.4302L18.0469 20.0433C18.632 21.3562 19.9822 22.1173 21.3324 22.1173C22.4347 22.1173 23.8009 21.6521 24.8832 19.3475C25.6949 17.6188 26.4413 15.6755 26.7226 14.993C26.3827 15.4849 25.7882 15.7381 25.1444 15.7381L25.1418 15.7394Z" fill="url(#paint2_linear_111_261)"/>
<path opacity="0.4" d="M23.182 20.2872C22.2077 20.2872 21.7185 19.7314 21.2174 18.6065C21.2174 18.6065 18.7142 13.0204 17.8812 11.157C17.6319 10.6012 17.1094 9.43359 16.1578 9.43359C16.1084 9.43359 16.0605 9.43626 16.0125 9.44026C15.9645 9.43626 15.9165 9.43359 15.8672 9.43359C14.9155 9.43359 14.393 10.6012 14.1438 11.157C13.3094 13.019 10.8076 18.6065 10.8076 18.6065C10.3064 19.7328 9.81726 20.2872 8.84292 20.2872C8.19914 20.2872 7.54203 20.0047 7.20215 19.5128C7.94989 21.1096 9.07884 22.1186 10.7276 22.1186C12.3764 22.1186 13.64 21.0923 14.1051 19.6714C14.1051 19.6714 15.0621 17.5108 16.0125 15.3662C16.9628 17.5108 17.9198 19.6714 17.9198 19.6714C18.385 21.0923 19.7206 22.1186 21.2973 22.1186C22.8741 22.1186 24.0751 21.1096 24.8228 19.5128C24.4829 20.0047 23.8258 20.2872 23.182 20.2872V20.2872Z" fill="url(#paint3_radial_111_261)"/>
<defs>
<radialGradient id="paint0_radial_111_261" cx="0" cy="0" r="1" gradientUnits="userSpaceOnUse" gradientTransform="translate(29.1918 1.94021) rotate(-180) scale(12.0532)">
<stop offset="0.14" stop-color="#788CF3"/>
<stop offset="0.46" stop-color="#587EEF"/>
<stop offset="1" stop-color="#1A65E8"/>
</radialGradient>
<radialGradient id="paint1_radial_111_261" cx="0" cy="0" r="1" gradientUnits="userSpaceOnUse" gradientTransform="translate(2.80978 1.94021) scale(12.0532)">
<stop offset="0.1" stop-color="#00BAE6"/>
<stop offset="0.78" stop-color="#0084E7"/>
</radialGradient>
<linearGradient id="paint2_linear_111_261" x1="5.2832" y1="12.6605" x2="26.7199" y2="12.6605" gradientUnits="userSpaceOnUse">
<stop stop-color="#788CF3"/>
<stop offset="0.25" stop-color="#57ABF6"/>
<stop offset="0.51" stop-color="#39CAFA"/>
<stop offset="0.86" stop-color="#39CAFA"/>
</linearGradient>
<radialGradient id="paint3_radial_111_261" cx="0" cy="0" r="1" gradientUnits="userSpaceOnUse" gradientTransform="translate(16.0125 15.7768) scale(7.67605)">
<stop stop-color="#1A65E8"/>
<stop offset="0.54" stop-color="#587EEF"/>
<stop offset="0.86" stop-color="#788CF3"/>
</radialGradient>
</defs>
</svg>
